M48
; DRILL file {KiCad (6.0.10)} date Sat Sep 30 09:22:23 2023
; FORMAT={-:-/ absolute / metric / decimal}
; #@! TF.CreationDate,2023-09-30T09:22:23-05:00
; #@! TF.GenerationSoftware,Kicad,Pcbnew,(6.0.10)
; #@! TF.FileFunction,Plated,1,2,PTH
FMAT,2
METRIC
; #@! TA.AperFunction,Plated,PTH,ViaDrill
T1C0.400
; #@! TA.AperFunction,Plated,PTH,ComponentDrill
T2C0.400
; #@! TA.AperFunction,Plated,PTH,ComponentDrill
T3C0.813
; #@! TA.AperFunction,Plated,PTH,ComponentDrill
T4C1.000
; #@! TA.AperFunction,Plated,PTH,ComponentDrill
T5C1.092
; #@! TA.AperFunction,Plated,PTH,ComponentDrill
T6C1.300
; #@! TA.AperFunction,Plated,PTH,ComponentDrill
T7C2.500
%
G90
G05
T1
X81.2Y-106.71
X86.18Y-105.24
X98.342Y-26.974
X99.293Y-26.524
X100.07Y-25.74
X101.405Y-27.496
X109.43Y-29.37
X115.87Y-108.0
X125.38Y-31.37
X127.48Y-27.435
X128.49Y-27.13
X129.598Y-26.752
X130.83Y-26.96
X135.28Y-29.87
X138.01Y-31.41
X138.15Y-53.34
X138.798Y-48.945
X138.874Y-54.5
X139.42Y-60.76
X139.86Y-26.931
X140.39Y-105.97
X141.274Y-53.66
X142.382Y-78.002
X148.35Y-33.24
X153.91Y-40.98
X153.95Y-43.26
X153.96Y-42.18
X154.16Y-52.17
X154.22Y-44.89
X154.48Y-79.02
X155.255Y-37.807
X155.7Y-53.0
X156.72Y-41.43
X158.53Y-82.29
X160.076Y-91.6
X160.4Y-93.5
X165.6Y-62.1
X166.375Y-70.0
X166.7Y-97.2
X167.1Y-57.8
X167.21Y-56.86
X167.825Y-59.2
X168.0Y-72.0
X168.1Y-78.8
X168.2Y-81.8
X168.54Y-48.34
X169.3Y-101.0
X170.19Y-118.49
X170.23Y-113.03
X171.6Y-103.4
X172.11Y-54.4
X172.3Y-79.4
X173.65Y-51.58
X173.9Y-54.4
X173.924Y-85.2
X174.91Y-51.75
X175.62Y-30.47
X176.766Y-47.66
X176.778Y-51.543
X178.2Y-78.974
X178.4Y-127.2
X178.55Y-54.284
X178.79Y-56.61
X179.325Y-50.86
X180.08Y-55.01
X181.1Y-98.73
X182.5Y-80.4
X182.57Y-83.23
X182.62Y-92.98
X183.2Y-79.0
X183.9Y-77.9
X184.325Y-85.2
X184.8Y-77.1
X187.5Y-114.0
X187.7Y-109.4
X187.72Y-28.844
X187.9Y-30.4
X188.0Y-33.3
X188.6Y-111.7
X188.9Y-115.3
X189.0Y-121.7
X193.3Y-28.844
X195.6Y-113.6
X195.6Y-123.6
X196.548Y-123.284
X198.27Y-62.46
X198.83Y-24.87
X199.388Y-25.699
X200.113Y-26.423
X200.68Y-27.25
X200.84Y-55.56
X202.3Y-48.32
X202.8Y-31.4
X203.4Y-70.5
X203.41Y-65.82
X207.5Y-119.4
X207.8Y-112.6
X219.81Y-102.56
X222.02Y-27.55
X222.1Y-123.451
X222.92Y-102.56
X224.4Y-121.2
X226.65Y-24.94
X226.7Y-117.3
X227.311Y-110.042
X227.72Y-25.604
X228.643Y-26.054
X240.31Y-26.92
X243.85Y-30.42
X245.7Y-117.2
X246.6Y-110.0
X276.09Y-32.79
X281.12Y-37.76
T2
X33.7Y-92.11
X33.84Y-54.103
X34.05Y-73.13
X37.1Y-92.11
X37.24Y-54.103
X37.45Y-73.13
X48.55Y-109.16
X51.95Y-109.16
X53.2Y-70.78
X53.34Y-51.8
X53.42Y-89.68
X56.6Y-70.78
X56.74Y-51.8
X56.82Y-89.68
X64.04Y-109.16
X67.44Y-109.16
X71.63Y-65.96
X71.66Y-84.95
X71.78Y-47.03
X71.86Y-104.08
X75.03Y-65.96
X75.06Y-84.95
X75.18Y-47.03
X75.26Y-104.08
X90.7Y-82.63
X90.82Y-63.52
X91.03Y-44.55
X93.08Y-103.97
X94.1Y-82.63
X94.22Y-63.52
X94.43Y-44.55
X96.48Y-103.97
X109.51Y-46.95
X109.75Y-85.0
X109.93Y-66.01
X110.02Y-104.12
X112.91Y-46.95
X113.15Y-85.0
X113.33Y-66.01
X113.42Y-104.12
X128.51Y-49.22
X128.82Y-87.207
X128.98Y-68.257
X129.26Y-106.48
X131.91Y-49.22
X132.22Y-87.207
X132.38Y-68.257
X132.66Y-106.48
X143.3Y-68.02
X143.3Y-71.42
X146.31Y-68.02
X146.31Y-71.42
X149.317Y-68.02
X149.317Y-71.42
X152.317Y-68.02
X152.317Y-71.42
X155.317Y-68.02
X155.317Y-71.42
X170.5Y-68.1
X170.5Y-71.5
X173.5Y-68.1
X173.5Y-71.5
X176.5Y-68.1
X176.5Y-71.5
X179.5Y-68.1
X179.5Y-71.5
X182.5Y-68.1
X182.5Y-71.5
X192.8Y-87.0
X193.5Y-68.4
X193.6Y-49.5
X193.74Y-106.603
X196.2Y-87.0
X196.9Y-68.4
X197.0Y-49.5
X197.14Y-106.603
X212.4Y-85.1
X212.5Y-66.1
X212.5Y-104.8
X212.85Y-46.88
X215.8Y-85.1
X215.9Y-66.1
X215.9Y-104.8
X216.25Y-46.88
X229.93Y-104.35
X231.4Y-44.7
X231.54Y-82.703
X231.8Y-63.7
X233.33Y-104.35
X234.8Y-44.7
X234.94Y-82.703
X235.2Y-63.7
X250.54Y-104.2
X250.7Y-47.0
X250.74Y-85.103
X250.8Y-66.1
X253.94Y-104.2
X254.1Y-47.0
X254.14Y-85.103
X254.2Y-66.1
X258.7Y-109.3
X262.1Y-109.3
X269.7Y-51.8
X269.7Y-70.7
X269.8Y-89.8
X273.1Y-51.8
X273.1Y-70.7
X273.2Y-89.8
X273.9Y-109.3
X277.3Y-109.3
X288.6Y-92.2
X288.64Y-73.203
X288.8Y-54.2
X292.0Y-92.2
X292.04Y-73.203
X292.2Y-54.2
T3
X144.7Y-24.2
X149.4Y-27.466
X157.37Y-24.22
X168.946Y-24.45
X176.35Y-27.377
X181.51Y-24.38
T4
X30.24Y-92.113
X30.38Y-54.105
X30.59Y-73.133
X40.4Y-92.113
X40.54Y-54.105
X40.75Y-73.133
X45.09Y-109.163
X49.74Y-70.783
X49.88Y-51.803
X49.96Y-89.683
X55.25Y-109.163
X59.9Y-70.783
X60.04Y-51.803
X60.12Y-89.683
X60.58Y-109.163
X68.17Y-65.963
X68.2Y-84.953
X68.32Y-47.033
X68.4Y-104.083
X70.74Y-109.163
X78.33Y-65.963
X78.36Y-84.953
X78.48Y-47.033
X78.56Y-104.083
X87.24Y-82.633
X87.36Y-63.523
X87.57Y-44.553
X89.62Y-103.973
X97.4Y-82.633
X97.52Y-63.523
X97.73Y-44.553
X99.78Y-103.973
X106.05Y-46.953
X106.29Y-85.003
X106.47Y-66.013
X106.56Y-104.123
X116.21Y-46.953
X116.45Y-85.003
X116.63Y-66.013
X116.72Y-104.123
X125.05Y-49.223
X125.36Y-87.21
X125.52Y-68.26
X125.8Y-106.483
X135.21Y-49.223
X135.52Y-87.21
X135.68Y-68.26
X135.96Y-106.483
X143.303Y-64.72
X143.303Y-74.88
X146.313Y-64.72
X146.313Y-74.88
X149.32Y-64.72
X149.32Y-74.88
X152.32Y-64.72
X152.32Y-74.88
X155.32Y-64.72
X155.32Y-74.88
X170.503Y-64.8
X170.503Y-74.96
X173.503Y-64.8
X173.503Y-74.96
X176.503Y-64.8
X176.503Y-74.96
X179.503Y-64.8
X179.503Y-74.96
X182.503Y-64.8
X182.503Y-74.96
X189.5Y-86.997
X190.2Y-68.397
X190.3Y-49.497
X190.44Y-106.6
X199.66Y-86.997
X200.36Y-68.397
X200.46Y-49.497
X200.6Y-106.6
X209.1Y-85.097
X209.2Y-66.097
X209.2Y-104.797
X209.55Y-46.877
X219.26Y-85.097
X219.36Y-66.097
X219.36Y-104.797
X219.71Y-46.877
X226.63Y-104.347
X228.1Y-44.697
X228.24Y-82.7
X228.5Y-63.697
X236.79Y-104.347
X238.26Y-44.697
X238.4Y-82.7
X238.66Y-63.697
X247.24Y-104.197
X247.4Y-46.997
X247.44Y-85.1
X247.5Y-66.097
X255.4Y-109.297
X257.4Y-104.197
X257.56Y-46.997
X257.6Y-85.1
X257.66Y-66.097
X265.56Y-109.297
X266.4Y-51.797
X266.4Y-70.697
X266.5Y-89.797
X270.6Y-109.297
X276.56Y-51.797
X276.56Y-70.697
X276.66Y-89.797
X280.76Y-109.297
X285.3Y-92.197
X285.34Y-73.2
X285.5Y-54.197
X295.46Y-92.197
X295.5Y-73.2
X295.66Y-54.197
T5
X143.19Y-26.767
X143.19Y-29.307
X143.19Y-31.847
X143.19Y-34.387
X143.19Y-36.927
X143.19Y-39.467
X143.19Y-42.007
X143.19Y-44.547
X143.19Y-47.087
X143.19Y-49.627
X143.19Y-52.167
X143.19Y-54.707
X145.73Y-49.627
X145.73Y-58.607
X148.27Y-49.627
X148.27Y-58.607
X150.81Y-49.627
X150.81Y-58.607
X153.35Y-58.607
X155.89Y-58.607
X158.43Y-26.767
X158.43Y-29.307
X158.43Y-31.847
X158.43Y-34.387
X158.43Y-36.927
X158.43Y-39.467
X158.43Y-42.007
X158.43Y-44.547
X158.43Y-47.087
X158.43Y-49.627
X158.43Y-52.167
X158.43Y-54.707
X167.16Y-26.77
X167.16Y-29.31
X167.16Y-31.85
X167.16Y-34.39
X167.16Y-36.93
X167.16Y-39.47
X167.16Y-42.01
X167.16Y-44.55
X167.16Y-47.09
X167.16Y-49.63
X167.16Y-52.17
X167.16Y-54.71
X169.7Y-49.63
X169.7Y-58.63
X172.24Y-49.63
X172.24Y-58.63
X174.78Y-49.63
X174.78Y-58.63
X177.32Y-58.63
X179.86Y-58.63
X182.4Y-26.77
X182.4Y-29.31
X182.4Y-31.85
X182.4Y-34.39
X182.4Y-36.93
X182.4Y-39.47
X182.4Y-42.01
X182.4Y-44.55
X182.4Y-47.09
X182.4Y-49.63
X182.4Y-52.17
X182.4Y-54.71
T6
X132.63Y-24.35
X139.13Y-24.35
X187.25Y-24.44
X193.75Y-24.44
T7
X45.47Y-89.04
X45.54Y-52.02
X120.42Y-46.96
X120.84Y-84.37
X144.47Y-102.97
X181.39Y-102.95
X205.4Y-46.95
X240.47Y-101.93
X280.43Y-51.96
X280.52Y-89.11
T0
M30
