M48
; DRILL file {KiCad (6.0.10)} date Sat Sep 30 09:22:23 2023
; FORMAT={-:-/ absolute / metric / decimal}
; #@! TF.CreationDate,2023-09-30T09:22:23-05:00
; #@! TF.GenerationSoftware,Kicad,Pcbnew,(6.0.10)
; #@! TF.FileFunction,NonPlated,1,2,NPTH
FMAT,2
METRIC
; #@! TA.AperFunction,NonPlated,NPTH,ComponentDrill
T1C0.100
; #@! TA.AperFunction,NonPlated,NPTH,ComponentDrill
T2C0.900
; #@! TA.AperFunction,NonPlated,NPTH,ComponentDrill
T3C1.700
; #@! TA.AperFunction,NonPlated,NPTH,ComponentDrill
T4C1.900
; #@! TA.AperFunction,NonPlated,NPTH,ComponentDrill
T5C3.000
; #@! TA.AperFunction,NonPlated,NPTH,ComponentDrill
T6C4.000
%
G90
G05
T1
X31.695Y-98.58
X31.705Y-41.55
X31.705Y-60.56
X31.715Y-79.5
X50.735Y-58.12
X50.745Y-96.24
X50.755Y-77.15
X50.765Y-39.11
X69.765Y-91.42
X69.785Y-53.4
X69.785Y-72.39
X69.805Y-34.4
X79.335Y-110.51
X88.795Y-89.09
X88.815Y-70.0
X88.825Y-31.95
X88.825Y-51.0
X98.365Y-110.52
X107.825Y-53.38
X107.835Y-34.38
X107.835Y-72.37
X107.835Y-91.42
X117.395Y-112.93
X126.865Y-36.77
X126.865Y-93.79
X126.875Y-55.76
X126.875Y-74.76
X144.097Y-113.213
X146.975Y-87.29
X171.275Y-87.32
X180.122Y-112.797
X191.366Y-36.741
X191.375Y-55.82
X191.375Y-74.82
X191.375Y-93.82
X200.875Y-112.92
X210.363Y-34.344
X210.375Y-53.42
X210.375Y-72.42
X210.375Y-91.52
X219.975Y-110.62
X229.475Y-32.02
X229.475Y-51.02
X229.475Y-70.12
X229.475Y-89.12
X238.975Y-110.62
X248.475Y-34.32
X248.475Y-53.42
X248.475Y-72.42
X248.475Y-91.52
X267.575Y-39.12
X267.575Y-58.12
X267.575Y-77.12
X267.575Y-96.22
X286.575Y-41.52
X286.575Y-60.52
X286.575Y-79.52
X286.575Y-98.62
T2
X159.3Y-104.2
X159.3Y-107.2
X166.6Y-104.2
X166.6Y-107.2
T3
X30.44Y-101.16
X30.45Y-44.13
X30.45Y-63.14
X30.46Y-82.08
X40.6Y-101.16
X40.61Y-44.13
X40.61Y-63.14
X40.62Y-82.08
X49.48Y-60.7
X49.49Y-98.82
X49.5Y-79.73
X49.51Y-41.69
X59.64Y-60.7
X59.65Y-98.82
X59.66Y-79.73
X59.67Y-41.69
X68.51Y-94.0
X68.53Y-55.98
X68.53Y-74.97
X68.55Y-36.98
X78.08Y-113.09
X78.67Y-94.0
X78.69Y-55.98
X78.69Y-74.97
X78.71Y-36.98
X87.54Y-91.67
X87.56Y-72.58
X87.57Y-34.53
X87.57Y-53.58
X88.24Y-113.09
X97.11Y-113.1
X97.7Y-91.67
X97.72Y-72.58
X97.73Y-34.53
X97.73Y-53.58
X106.57Y-55.96
X106.58Y-36.96
X106.58Y-74.95
X106.58Y-94.0
X107.27Y-113.1
X116.14Y-115.51
X116.73Y-55.96
X116.74Y-36.96
X116.74Y-74.95
X116.74Y-94.0
X125.61Y-39.35
X125.61Y-96.37
X125.62Y-58.34
X125.62Y-77.34
X126.3Y-115.51
X135.77Y-39.35
X135.77Y-96.37
X135.78Y-58.34
X135.78Y-77.34
X141.721Y-114.82
X145.72Y-89.87
X150.519Y-119.9
X155.88Y-89.87
X170.02Y-89.9
X177.26Y-113.001
X180.18Y-89.9
X182.34Y-121.799
X190.111Y-39.321
X190.12Y-58.4
X190.12Y-77.4
X190.12Y-96.4
X199.62Y-115.5
X200.271Y-39.321
X200.28Y-58.4
X200.28Y-77.4
X200.28Y-96.4
X209.108Y-36.924
X209.12Y-56.0
X209.12Y-75.0
X209.12Y-94.1
X209.78Y-115.5
X218.72Y-113.2
X219.268Y-36.924
X219.28Y-56.0
X219.28Y-75.0
X219.28Y-94.1
X228.22Y-34.6
X228.22Y-53.6
X228.22Y-72.7
X228.22Y-91.7
X228.88Y-113.2
X237.72Y-113.2
X238.38Y-34.6
X238.38Y-53.6
X238.38Y-72.7
X238.38Y-91.7
X247.22Y-36.9
X247.22Y-56.0
X247.22Y-75.0
X247.22Y-94.1
X247.88Y-113.2
X257.38Y-36.9
X257.38Y-56.0
X257.38Y-75.0
X257.38Y-94.1
X266.32Y-41.7
X266.32Y-60.7
X266.32Y-79.7
X266.32Y-98.8
X276.48Y-41.7
X276.48Y-60.7
X276.48Y-79.7
X276.48Y-98.8
X285.32Y-44.1
X285.32Y-63.1
X285.32Y-82.1
X285.32Y-101.2
X295.48Y-44.1
X295.48Y-63.1
X295.48Y-82.1
X295.48Y-101.2
T4
X30.02Y-101.16
X30.03Y-44.13
X30.03Y-63.14
X30.04Y-82.08
X41.02Y-101.16
X41.03Y-44.13
X41.03Y-63.14
X41.04Y-82.08
X49.06Y-60.7
X49.07Y-98.82
X49.08Y-79.73
X49.09Y-41.69
X60.06Y-60.7
X60.07Y-98.82
X60.08Y-79.73
X60.09Y-41.69
X68.09Y-94.0
X68.11Y-55.98
X68.11Y-74.97
X68.13Y-36.98
X77.66Y-113.09
X79.09Y-94.0
X79.11Y-55.98
X79.11Y-74.97
X79.13Y-36.98
X87.12Y-91.67
X87.14Y-72.58
X87.15Y-34.53
X87.15Y-53.58
X88.66Y-113.09
X96.69Y-113.1
X98.12Y-91.67
X98.14Y-72.58
X98.15Y-34.53
X98.15Y-53.58
X106.15Y-55.96
X106.16Y-36.96
X106.16Y-74.95
X106.16Y-94.0
X107.69Y-113.1
X115.72Y-115.51
X117.15Y-55.96
X117.16Y-36.96
X117.16Y-74.95
X117.16Y-94.0
X125.19Y-39.35
X125.19Y-96.37
X125.2Y-58.34
X125.2Y-77.34
X126.72Y-115.51
X136.19Y-39.35
X136.19Y-96.37
X136.2Y-58.34
X136.2Y-77.34
X141.357Y-114.61
X145.3Y-89.87
X150.883Y-120.11
X156.3Y-89.87
X169.6Y-89.9
X177.05Y-112.637
X180.6Y-89.9
X182.55Y-122.163
X189.691Y-39.321
X189.7Y-58.4
X189.7Y-77.4
X189.7Y-96.4
X199.2Y-115.5
X200.691Y-39.321
X200.7Y-58.4
X200.7Y-77.4
X200.7Y-96.4
X208.688Y-36.924
X208.7Y-56.0
X208.7Y-75.0
X208.7Y-94.1
X210.2Y-115.5
X218.3Y-113.2
X219.688Y-36.924
X219.7Y-56.0
X219.7Y-75.0
X219.7Y-94.1
X227.8Y-34.6
X227.8Y-53.6
X227.8Y-72.7
X227.8Y-91.7
X229.3Y-113.2
X237.3Y-113.2
X238.8Y-34.6
X238.8Y-53.6
X238.8Y-72.7
X238.8Y-91.7
X246.8Y-36.9
X246.8Y-56.0
X246.8Y-75.0
X246.8Y-94.1
X248.3Y-113.2
X257.8Y-36.9
X257.8Y-56.0
X257.8Y-75.0
X257.8Y-94.1
X265.9Y-41.7
X265.9Y-60.7
X265.9Y-79.7
X265.9Y-98.8
X276.9Y-41.7
X276.9Y-60.7
X276.9Y-79.7
X276.9Y-98.8
X284.9Y-44.1
X284.9Y-63.1
X284.9Y-82.1
X284.9Y-101.2
X295.9Y-44.1
X295.9Y-63.1
X295.9Y-82.1
X295.9Y-101.2
T5
X30.52Y-104.86
X30.53Y-47.83
X30.53Y-66.84
X30.54Y-85.78
X31.71Y-98.62
X31.72Y-41.59
X31.72Y-60.6
X31.73Y-79.54
X35.52Y-107.06
X35.53Y-50.03
X35.53Y-69.04
X35.54Y-87.98
X38.06Y-96.08
X38.07Y-39.05
X38.07Y-58.06
X38.08Y-77.0
X49.56Y-64.4
X49.57Y-102.52
X49.58Y-83.43
X49.59Y-45.39
X50.75Y-58.16
X50.76Y-96.28
X50.77Y-77.19
X50.78Y-39.15
X54.56Y-66.6
X54.57Y-104.72
X54.58Y-85.63
X54.59Y-47.59
X57.1Y-55.62
X57.11Y-93.74
X57.12Y-74.65
X57.13Y-36.61
X68.59Y-97.7
X68.61Y-59.68
X68.61Y-78.67
X68.63Y-40.68
X69.78Y-91.46
X69.8Y-53.44
X69.8Y-72.43
X69.82Y-34.44
X73.59Y-99.9
X73.61Y-61.88
X73.61Y-80.87
X73.63Y-42.88
X76.13Y-88.92
X76.15Y-50.9
X76.15Y-69.89
X76.17Y-31.9
X78.16Y-116.79
X79.35Y-110.55
X83.16Y-118.99
X85.7Y-108.01
X87.62Y-95.37
X87.64Y-76.28
X87.65Y-38.23
X87.65Y-57.28
X88.81Y-89.13
X88.83Y-70.04
X88.84Y-31.99
X88.84Y-51.04
X92.62Y-97.57
X92.64Y-78.48
X92.65Y-40.43
X92.65Y-59.48
X95.16Y-86.59
X95.18Y-67.5
X95.19Y-29.45
X95.19Y-48.5
X97.19Y-116.8
X98.38Y-110.56
X102.19Y-119.0
X104.73Y-108.02
X106.65Y-59.66
X106.66Y-40.66
X106.66Y-78.65
X106.66Y-97.7
X107.84Y-53.42
X107.85Y-34.42
X107.85Y-72.41
X107.85Y-91.46
X111.65Y-61.86
X111.66Y-42.86
X111.66Y-80.85
X111.66Y-99.9
X114.19Y-50.88
X114.2Y-31.88
X114.2Y-69.87
X114.2Y-88.92
X116.22Y-119.21
X117.41Y-112.97
X121.22Y-121.41
X123.76Y-110.43
X125.69Y-43.05
X125.69Y-100.07
X125.7Y-62.04
X125.7Y-81.04
X126.88Y-36.81
X126.88Y-93.83
X126.89Y-55.8
X126.89Y-74.8
X130.69Y-45.25
X130.69Y-102.27
X130.7Y-64.24
X130.7Y-83.24
X133.23Y-34.27
X133.23Y-91.29
X133.24Y-53.26
X133.24Y-72.26
X139.94Y-118.064
X143.17Y-122.47
X144.09Y-113.255
X145.8Y-93.57
X146.99Y-87.33
X150.8Y-95.77
X150.86Y-114.231
X153.34Y-84.79
X170.1Y-93.6
X171.29Y-87.36
X174.096Y-114.92
X174.69Y-120.35
X175.1Y-95.8
X177.64Y-84.82
X180.095Y-112.83
X185.469Y-117.06
X190.191Y-43.021
X190.2Y-62.1
X190.2Y-81.1
X190.2Y-100.1
X191.381Y-36.781
X191.39Y-55.86
X191.39Y-74.86
X191.39Y-93.86
X195.191Y-45.221
X195.2Y-64.3
X195.2Y-83.3
X195.2Y-102.3
X197.731Y-34.241
X197.74Y-53.32
X197.74Y-72.32
X197.74Y-91.32
X199.7Y-119.2
X200.89Y-112.96
X204.7Y-121.4
X207.24Y-110.42
X209.188Y-40.624
X209.2Y-59.7
X209.2Y-78.7
X209.2Y-97.8
X210.378Y-34.384
X210.39Y-53.46
X210.39Y-72.46
X210.39Y-91.56
X214.188Y-42.824
X214.2Y-61.9
X214.2Y-80.9
X214.2Y-100.0
X216.728Y-31.844
X216.74Y-50.92
X216.74Y-69.92
X216.74Y-89.02
X218.8Y-116.9
X219.99Y-110.66
X223.8Y-119.1
X226.34Y-108.12
X228.3Y-38.3
X228.3Y-57.3
X228.3Y-76.4
X228.3Y-95.4
X229.49Y-32.06
X229.49Y-51.06
X229.49Y-70.16
X229.49Y-89.16
X233.3Y-40.5
X233.3Y-59.5
X233.3Y-78.6
X233.3Y-97.6
X235.84Y-29.52
X235.84Y-48.52
X235.84Y-67.62
X235.84Y-86.62
X237.8Y-116.9
X238.99Y-110.66
X242.8Y-119.1
X245.34Y-108.12
X247.3Y-40.6
X247.3Y-59.7
X247.3Y-78.7
X247.3Y-97.8
X248.49Y-34.36
X248.49Y-53.46
X248.49Y-72.46
X248.49Y-91.56
X252.3Y-42.8
X252.3Y-61.9
X252.3Y-80.9
X252.3Y-100.0
X254.84Y-31.82
X254.84Y-50.92
X254.84Y-69.92
X254.84Y-89.02
X266.4Y-45.4
X266.4Y-64.4
X266.4Y-83.4
X266.4Y-102.5
X267.59Y-39.16
X267.59Y-58.16
X267.59Y-77.16
X267.59Y-96.26
X271.4Y-47.6
X271.4Y-66.6
X271.4Y-85.6
X271.4Y-104.7
X273.94Y-36.62
X273.94Y-55.62
X273.94Y-74.62
X273.94Y-93.72
X285.4Y-47.8
X285.4Y-66.8
X285.4Y-85.8
X285.4Y-104.9
X286.59Y-41.56
X286.59Y-60.56
X286.59Y-79.56
X286.59Y-98.66
X290.4Y-50.0
X290.4Y-69.0
X290.4Y-88.0
X290.4Y-107.1
X292.94Y-39.02
X292.94Y-58.02
X292.94Y-77.02
X292.94Y-96.12
T6
X35.52Y-101.16
X35.53Y-44.13
X35.53Y-63.14
X35.54Y-82.08
X54.56Y-60.7
X54.57Y-98.82
X54.58Y-79.73
X54.59Y-41.69
X73.59Y-94.0
X73.61Y-55.98
X73.61Y-74.97
X73.63Y-36.98
X83.16Y-113.09
X92.62Y-91.67
X92.64Y-72.58
X92.65Y-34.53
X92.65Y-53.58
X102.19Y-113.1
X111.65Y-55.96
X111.66Y-36.96
X111.66Y-74.95
X111.66Y-94.0
X121.22Y-115.51
X130.69Y-39.35
X130.69Y-96.37
X130.7Y-58.34
X130.7Y-77.34
X146.12Y-117.36
X150.8Y-89.87
X175.1Y-89.9
X179.8Y-117.4
X195.191Y-39.321
X195.2Y-58.4
X195.2Y-77.4
X195.2Y-96.4
X204.7Y-115.5
X214.188Y-36.924
X214.2Y-56.0
X214.2Y-75.0
X214.2Y-94.1
X223.8Y-113.2
X233.3Y-34.6
X233.3Y-53.6
X233.3Y-72.7
X233.3Y-91.7
X242.8Y-113.2
X252.3Y-36.9
X252.3Y-56.0
X252.3Y-75.0
X252.3Y-94.1
X271.4Y-41.7
X271.4Y-60.7
X271.4Y-79.7
X271.4Y-98.8
X290.4Y-44.1
X290.4Y-63.1
X290.4Y-82.1
X290.4Y-101.2
T0
M30
