%TF.GenerationSoftware,KiCad,Pcbnew,(6.0.10)*%
%TF.CreationDate,2023-10-04T19:43:37-05:00*%
%TF.ProjectId,RunType58,52756e54-7970-4653-9538-2e6b69636164,rev?*%
%TF.SameCoordinates,Original*%
%TF.FileFunction,Paste,Bot*%
%TF.FilePolarity,Positive*%
%FSLAX46Y46*%
G04 Gerber Fmt 4.6, Leading zero omitted, Abs format (unit mm)*
G04 Created by KiCad (PCBNEW (6.0.10)) date 2023-10-04 19:43:37*
%MOMM*%
%LPD*%
G01*
G04 APERTURE LIST*
G04 Aperture macros list*
%AMRotRect*
0 Rectangle, with rotation*
0 The origin of the aperture is its center*
0 $1 length*
0 $2 width*
0 $3 Rotation angle, in degrees counterclockwise*
0 Add horizontal line*
21,1,$1,$2,0,0,$3*%
G04 Aperture macros list end*
%ADD10R,2.500000X2.500000*%
%ADD11R,2.000000X2.000000*%
%ADD12R,1.900000X2.000000*%
%ADD13RotRect,2.500000X2.500000X120.000000*%
%ADD14RotRect,2.000000X2.000000X120.000000*%
%ADD15RotRect,1.900000X2.000000X120.000000*%
%ADD16RotRect,2.500000X2.500000X150.000000*%
%ADD17RotRect,2.000000X2.000000X150.000000*%
%ADD18RotRect,1.900000X2.000000X150.000000*%
G04 APERTURE END LIST*
D10*
%TO.C,SW53*%
X28620000Y-98620000D03*
D11*
X27420000Y-104860000D03*
D12*
X38320000Y-107060000D03*
D10*
X41120000Y-96080000D03*
%TD*%
%TO.C,SW2*%
X283500000Y-41560000D03*
D11*
X282300000Y-47800000D03*
D12*
X293200000Y-50000000D03*
D10*
X296000000Y-39020000D03*
%TD*%
%TO.C,SW25*%
X207300000Y-91560000D03*
D11*
X206100000Y-97800000D03*
D12*
X217000000Y-100000000D03*
D10*
X219800000Y-89020000D03*
%TD*%
%TO.C,SW12*%
X207300000Y-53460000D03*
D11*
X206100000Y-59700000D03*
D12*
X217000000Y-61900000D03*
D10*
X219800000Y-50920000D03*
%TD*%
%TO.C,SW1*%
X188291208Y-36781497D03*
D11*
X187091208Y-43021497D03*
D10*
X200791208Y-34241497D03*
D12*
X197991208Y-45221497D03*
%TD*%
D11*
%TO.C,SW13*%
X282300000Y-85800000D03*
D10*
X283500000Y-79560000D03*
D12*
X293200000Y-88000000D03*
D10*
X296000000Y-77020000D03*
%TD*%
D11*
%TO.C,SW14*%
X225200000Y-76400000D03*
D10*
X226400000Y-70160000D03*
D12*
X236100000Y-78600000D03*
D10*
X238900000Y-67620000D03*
%TD*%
D11*
%TO.C,SW38*%
X103550000Y-59660000D03*
D10*
X104750000Y-53420000D03*
X117250000Y-50880000D03*
D12*
X114450000Y-61860000D03*
%TD*%
D11*
%TO.C,SW26*%
X234700000Y-116900000D03*
D10*
X235900000Y-110660000D03*
D12*
X245600000Y-119100000D03*
D10*
X248400000Y-108120000D03*
%TD*%
%TO.C,SW54*%
X47670000Y-96280000D03*
D11*
X46470000Y-102520000D03*
D12*
X57370000Y-104720000D03*
D10*
X60170000Y-93740000D03*
%TD*%
D11*
%TO.C,SW5*%
X263300000Y-45400000D03*
D10*
X264500000Y-39160000D03*
X277000000Y-36620000D03*
D12*
X274200000Y-47600000D03*
%TD*%
D10*
%TO.C,SW39*%
X123800000Y-55800000D03*
D11*
X122600000Y-62040000D03*
D10*
X136300000Y-53260000D03*
D12*
X133500000Y-64240000D03*
%TD*%
D11*
%TO.C,SW57*%
X94090000Y-116800000D03*
D10*
X95290000Y-110560000D03*
X107790000Y-108020000D03*
D12*
X104990000Y-119000000D03*
%TD*%
D11*
%TO.C,SW48*%
X122590000Y-100070000D03*
D10*
X123790000Y-93830000D03*
D12*
X133490000Y-102270000D03*
D10*
X136290000Y-91290000D03*
%TD*%
D11*
%TO.C,SW4*%
X244200000Y-40600000D03*
D10*
X245400000Y-34360000D03*
D12*
X255100000Y-42800000D03*
D10*
X257900000Y-31820000D03*
%TD*%
D11*
%TO.C,SW32*%
X65530000Y-40680000D03*
D10*
X66730000Y-34440000D03*
X79230000Y-31900000D03*
D12*
X76430000Y-42880000D03*
%TD*%
D11*
%TO.C,SW21*%
X225200000Y-95400000D03*
D10*
X226400000Y-89160000D03*
D12*
X236100000Y-97600000D03*
D10*
X238900000Y-86620000D03*
%TD*%
D11*
%TO.C,SW45*%
X103560000Y-78650000D03*
D10*
X104760000Y-72410000D03*
D12*
X114460000Y-80850000D03*
D10*
X117260000Y-69870000D03*
%TD*%
%TO.C,SW36*%
X66710000Y-53440000D03*
D11*
X65510000Y-59680000D03*
D12*
X76410000Y-61880000D03*
D10*
X79210000Y-50900000D03*
%TD*%
%TO.C,SW20*%
X283500000Y-98660000D03*
D11*
X282300000Y-104900000D03*
D12*
X293200000Y-107100000D03*
D10*
X296000000Y-96120000D03*
%TD*%
D11*
%TO.C,SW51*%
X103560000Y-97700000D03*
D10*
X104760000Y-91460000D03*
D12*
X114460000Y-99900000D03*
D10*
X117260000Y-88920000D03*
%TD*%
D11*
%TO.C,SW6*%
X206088008Y-40624196D03*
D10*
X207288008Y-34384196D03*
D12*
X216988008Y-42824196D03*
D10*
X219788008Y-31844196D03*
%TD*%
%TO.C,SW49*%
X66690000Y-91460000D03*
D11*
X65490000Y-97700000D03*
D12*
X76390000Y-99900000D03*
D10*
X79190000Y-88920000D03*
%TD*%
D11*
%TO.C,SW23*%
X263300000Y-102500000D03*
D10*
X264500000Y-96260000D03*
X277000000Y-93720000D03*
D12*
X274200000Y-104700000D03*
%TD*%
D11*
%TO.C,SW10*%
X263300000Y-64400000D03*
D10*
X264500000Y-58160000D03*
D12*
X274200000Y-66600000D03*
D10*
X277000000Y-55620000D03*
%TD*%
D11*
%TO.C,SW33*%
X84550000Y-38230000D03*
D10*
X85750000Y-31990000D03*
D12*
X95450000Y-40430000D03*
D10*
X98250000Y-29450000D03*
%TD*%
D11*
%TO.C,SW37*%
X84550000Y-57280000D03*
D10*
X85750000Y-51040000D03*
D12*
X95450000Y-59480000D03*
D10*
X98250000Y-48500000D03*
%TD*%
%TO.C,SW8*%
X226400000Y-51060000D03*
D11*
X225200000Y-57300000D03*
D12*
X236100000Y-59500000D03*
D10*
X238900000Y-48520000D03*
%TD*%
D11*
%TO.C,SW30*%
X27430000Y-47830000D03*
D10*
X28630000Y-41590000D03*
D12*
X38330000Y-50030000D03*
D10*
X41130000Y-39050000D03*
%TD*%
%TO.C,SW16*%
X264500000Y-77160000D03*
D11*
X263300000Y-83400000D03*
D12*
X274200000Y-85600000D03*
D10*
X277000000Y-74620000D03*
%TD*%
%TO.C,SW35*%
X123790000Y-36810000D03*
D11*
X122590000Y-43050000D03*
D10*
X136290000Y-34270000D03*
D12*
X133490000Y-45250000D03*
%TD*%
D11*
%TO.C,SW52*%
X142700000Y-93570000D03*
D10*
X143900000Y-87330000D03*
X156400000Y-84790000D03*
D12*
X153600000Y-95770000D03*
%TD*%
D13*
%TO.C,SW29*%
X178549705Y-110154425D03*
D14*
X172545706Y-112235194D03*
D13*
X186999409Y-119709742D03*
D15*
X176090450Y-122774871D03*
%TD*%
D11*
%TO.C,SW15*%
X244200000Y-78700000D03*
D10*
X245400000Y-72460000D03*
X257900000Y-69920000D03*
D12*
X255100000Y-80900000D03*
%TD*%
D10*
%TO.C,SW40*%
X28630000Y-60600000D03*
D11*
X27430000Y-66840000D03*
D12*
X38330000Y-69040000D03*
D10*
X41130000Y-58060000D03*
%TD*%
D11*
%TO.C,SW58*%
X113120000Y-119210000D03*
D10*
X114320000Y-112970000D03*
X126820000Y-110430000D03*
D12*
X124020000Y-121410000D03*
%TD*%
D10*
%TO.C,SW11*%
X188300000Y-55860000D03*
D11*
X187100000Y-62100000D03*
D10*
X200800000Y-53320000D03*
D12*
X198000000Y-64300000D03*
%TD*%
D11*
%TO.C,SW27*%
X196600000Y-119200000D03*
D10*
X197800000Y-112960000D03*
D12*
X207500000Y-121400000D03*
D10*
X210300000Y-110420000D03*
%TD*%
D11*
%TO.C,SW22*%
X244200000Y-97800000D03*
D10*
X245400000Y-91560000D03*
X257900000Y-89020000D03*
D12*
X255100000Y-100000000D03*
%TD*%
D11*
%TO.C,SW17*%
X187100000Y-81100000D03*
D10*
X188300000Y-74860000D03*
D12*
X198000000Y-83300000D03*
D10*
X200800000Y-72320000D03*
%TD*%
D11*
%TO.C,SW7*%
X282300000Y-66800000D03*
D10*
X283500000Y-60560000D03*
X296000000Y-58020000D03*
D12*
X293200000Y-69000000D03*
%TD*%
D11*
%TO.C,SW9*%
X244200000Y-59700000D03*
D10*
X245400000Y-53460000D03*
D12*
X255100000Y-61900000D03*
D10*
X257900000Y-50920000D03*
%TD*%
D11*
%TO.C,SW41*%
X46460000Y-64400000D03*
D10*
X47660000Y-58160000D03*
D12*
X57360000Y-66600000D03*
D10*
X60160000Y-55620000D03*
%TD*%
%TO.C,SW55*%
X76260000Y-110550000D03*
D11*
X75060000Y-116790000D03*
D10*
X88760000Y-108010000D03*
D12*
X85960000Y-118990000D03*
%TD*%
D16*
%TO.C,SW56*%
X141414425Y-111710295D03*
D17*
X137255194Y-116514294D03*
D16*
X153509742Y-115760591D03*
D18*
X145594871Y-123869550D03*
%TD*%
D10*
%TO.C,SW43*%
X66710000Y-72430000D03*
D11*
X65510000Y-78670000D03*
D10*
X79210000Y-69890000D03*
D12*
X76410000Y-80870000D03*
%TD*%
D10*
%TO.C,SW24*%
X188300000Y-93860000D03*
D11*
X187100000Y-100100000D03*
D10*
X200800000Y-91320000D03*
D12*
X198000000Y-102300000D03*
%TD*%
D10*
%TO.C,SW46*%
X28640000Y-79540000D03*
D11*
X27440000Y-85780000D03*
D10*
X41140000Y-77000000D03*
D12*
X38340000Y-87980000D03*
%TD*%
D11*
%TO.C,SW28*%
X215700000Y-116900000D03*
D10*
X216900000Y-110660000D03*
X229400000Y-108120000D03*
D12*
X226600000Y-119100000D03*
%TD*%
D11*
%TO.C,SW50*%
X84520000Y-95370000D03*
D10*
X85720000Y-89130000D03*
D12*
X95420000Y-97570000D03*
D10*
X98220000Y-86590000D03*
%TD*%
D11*
%TO.C,SW34*%
X103560000Y-40660000D03*
D10*
X104760000Y-34420000D03*
D12*
X114460000Y-42860000D03*
D10*
X117260000Y-31880000D03*
%TD*%
D11*
%TO.C,SW3*%
X225200000Y-38300000D03*
D10*
X226400000Y-32060000D03*
X238900000Y-29520000D03*
D12*
X236100000Y-40500000D03*
%TD*%
D10*
%TO.C,SW18*%
X207300000Y-72460000D03*
D11*
X206100000Y-78700000D03*
D10*
X219800000Y-69920000D03*
D12*
X217000000Y-80900000D03*
%TD*%
D10*
%TO.C,SW31*%
X47690000Y-39150000D03*
D11*
X46490000Y-45390000D03*
D12*
X57390000Y-47590000D03*
D10*
X60190000Y-36610000D03*
%TD*%
%TO.C,SW19*%
X168200000Y-87360000D03*
D11*
X167000000Y-93600000D03*
D12*
X177900000Y-95800000D03*
D10*
X180700000Y-84820000D03*
%TD*%
%TO.C,SW42*%
X123800000Y-74800000D03*
D11*
X122600000Y-81040000D03*
D12*
X133500000Y-83240000D03*
D10*
X136300000Y-72260000D03*
%TD*%
%TO.C,SW44*%
X85740000Y-70040000D03*
D11*
X84540000Y-76280000D03*
D10*
X98240000Y-67500000D03*
D12*
X95440000Y-78480000D03*
%TD*%
D10*
%TO.C,SW47*%
X47680000Y-77190000D03*
D11*
X46480000Y-83430000D03*
D10*
X60180000Y-74650000D03*
D12*
X57380000Y-85630000D03*
%TD*%
M02*
