%TF.GenerationSoftware,KiCad,Pcbnew,(6.0.10)*%
%TF.CreationDate,2023-09-30T09:22:25-05:00*%
%TF.ProjectId,RunType58,52756e54-7970-4653-9538-2e6b69636164,rev?*%
%TF.SameCoordinates,Original*%
%TF.FileFunction,Drillmap*%
%TF.FilePolarity,Positive*%
%FSLAX45Y45*%
G04 Gerber Fmt 4.5, Leading zero omitted, Abs format (unit mm)*
G04 Created by KiCad (PCBNEW (6.0.10)) date 2023-09-30 09:22:25*
%MOMM*%
%LPD*%
G01*
G04 APERTURE LIST*
%ADD10C,0.100000*%
%ADD11C,0.200000*%
%ADD12C,0.010000*%
%ADD13C,0.090000*%
%ADD14C,0.170000*%
%ADD15C,0.190000*%
%ADD16C,0.300000*%
%ADD17C,0.400000*%
G04 APERTURE END LIST*
D10*
X16073808Y-11170788D02*
X15751665Y-11728755D01*
X21168876Y-12600255D02*
X25043876Y-12600255D01*
X2496377Y-10821505D02*
G75*
G03*
X2846376Y-11171505I350000J0D01*
G01*
X25643876Y-11171496D02*
G75*
G03*
X25343876Y-11471505I4J-300004D01*
G01*
X16114005Y-2549826D02*
G75*
G03*
X15814000Y-2249826I-300005J-5D01*
G01*
X2496376Y-3806505D02*
X2496376Y-10821505D01*
X14548070Y-13220851D02*
G75*
G03*
X14954659Y-13109211I146781J261641D01*
G01*
X18464195Y-12982696D02*
X18039682Y-13220850D01*
X29741376Y-11171496D02*
G75*
G03*
X30091376Y-10821505I4J349996D01*
G01*
X11418876Y-12600255D02*
X7543876Y-12600255D01*
X16114000Y-11020788D02*
X16114000Y-2549826D01*
X15751665Y-11728755D02*
X15101665Y-12854588D01*
X14954659Y-13109211D02*
X15101665Y-12854588D01*
X2846376Y-11171505D02*
X4146376Y-11171505D01*
X30005980Y-3577408D02*
G75*
G03*
X29968454Y-3551650I-68040J-58912D01*
G01*
X25343876Y-12300255D02*
X25343876Y-11851505D01*
X13513491Y-12640447D02*
X13441848Y-12600255D01*
X14123557Y-12982696D02*
X14548070Y-13220850D01*
X17633092Y-13109211D02*
G75*
G03*
X18039682Y-13220850I259808J150001D01*
G01*
X16836086Y-11728755D02*
X17486086Y-12854588D01*
X2619299Y-3551652D02*
G75*
G03*
X2581772Y-3577409I30511J-84668D01*
G01*
X10096148Y-2249826D02*
G75*
G03*
X2619298Y-3551650I-25098J-21977894D01*
G01*
X13513491Y-12640447D02*
X14123557Y-12982696D01*
X16473752Y-2549826D02*
X16473752Y-11020788D01*
X16473753Y-11020788D02*
G75*
G03*
X16513944Y-11170788I299997J-3D01*
G01*
X12718876Y-12600255D02*
X13441848Y-12600255D01*
X16073809Y-11170788D02*
G75*
G03*
X16114000Y-11020788I-259809J149998D01*
G01*
X25343876Y-11851505D02*
X25343876Y-11471505D01*
X11418876Y-12600255D02*
X12718876Y-12600255D01*
X25043876Y-12600246D02*
G75*
G03*
X25343876Y-12300255I4J299996D01*
G01*
X7243876Y-12300255D02*
X7243876Y-11851505D01*
X7243875Y-11471505D02*
G75*
G03*
X6943876Y-11171505I-299995J5D01*
G01*
X16773752Y-2249826D02*
X22491604Y-2249826D01*
X30091376Y-3806505D02*
X30091376Y-5106505D01*
X30091376Y-9521505D02*
X30091376Y-10821505D01*
X19074261Y-12640447D02*
X18464195Y-12982696D01*
X17633093Y-13109211D02*
X17486086Y-12854588D01*
X16773752Y-2249832D02*
G75*
G03*
X16473752Y-2549826I-2J-299998D01*
G01*
X15814000Y-2249826D02*
X10096148Y-2249826D01*
X19074261Y-12640447D02*
X19145904Y-12600255D01*
X4146376Y-11171505D02*
X6943876Y-11171505D01*
X30091376Y-5106505D02*
X30091376Y-9521505D01*
X19145904Y-12600255D02*
X21168876Y-12600255D01*
X30091374Y-3806505D02*
G75*
G03*
X30005979Y-3577409I-349994J5D01*
G01*
X16513944Y-11170788D02*
X16836086Y-11728755D01*
X25643876Y-11171505D02*
X29741376Y-11171505D01*
X2581773Y-3577409D02*
G75*
G03*
X2496376Y-3806505I264604J-229096D01*
G01*
X7243876Y-11471505D02*
X7243876Y-11851505D01*
X29968453Y-3551651D02*
G75*
G03*
X22491604Y-2249826I-7451753J-20676069D01*
G01*
X7243875Y-12300255D02*
G75*
G03*
X7543876Y-12600255I300005J5D01*
G01*
D11*
D12*
X3164500Y-9853000D02*
X3174500Y-9863000D01*
X3174500Y-9853000D02*
X3164500Y-9863000D01*
X3165500Y-4150000D02*
X3175500Y-4160000D01*
X3175500Y-4150000D02*
X3165500Y-4160000D01*
X3165500Y-6051000D02*
X3175500Y-6061000D01*
X3175500Y-6051000D02*
X3165500Y-6061000D01*
X3166500Y-7945000D02*
X3176500Y-7955000D01*
X3176500Y-7945000D02*
X3166500Y-7955000D01*
X5068500Y-5807000D02*
X5078500Y-5817000D01*
X5078500Y-5807000D02*
X5068500Y-5817000D01*
X5069500Y-9619000D02*
X5079500Y-9629000D01*
X5079500Y-9619000D02*
X5069500Y-9629000D01*
X5070500Y-7710000D02*
X5080500Y-7720000D01*
X5080500Y-7710000D02*
X5070500Y-7720000D01*
X5071500Y-3906000D02*
X5081500Y-3916000D01*
X5081500Y-3906000D02*
X5071500Y-3916000D01*
X6971500Y-9137000D02*
X6981500Y-9147000D01*
X6981500Y-9137000D02*
X6971500Y-9147000D01*
X6973500Y-5335000D02*
X6983500Y-5345000D01*
X6983500Y-5335000D02*
X6973500Y-5345000D01*
X6973500Y-7234000D02*
X6983500Y-7244000D01*
X6983500Y-7234000D02*
X6973500Y-7244000D01*
X6975500Y-3435000D02*
X6985500Y-3445000D01*
X6985500Y-3435000D02*
X6975500Y-3445000D01*
X7928500Y-11046000D02*
X7938500Y-11056000D01*
X7938500Y-11046000D02*
X7928500Y-11056000D01*
X8874500Y-8904000D02*
X8884500Y-8914000D01*
X8884500Y-8904000D02*
X8874500Y-8914000D01*
X8876500Y-6995000D02*
X8886500Y-7005000D01*
X8886500Y-6995000D02*
X8876500Y-7005000D01*
X8877500Y-3190000D02*
X8887500Y-3200000D01*
X8887500Y-3190000D02*
X8877500Y-3200000D01*
X8877500Y-5095000D02*
X8887500Y-5105000D01*
X8887500Y-5095000D02*
X8877500Y-5105000D01*
X9831500Y-11047000D02*
X9841500Y-11057000D01*
X9841500Y-11047000D02*
X9831500Y-11057000D01*
X10777500Y-5333000D02*
X10787500Y-5343000D01*
X10787500Y-5333000D02*
X10777500Y-5343000D01*
X10778500Y-3433000D02*
X10788500Y-3443000D01*
X10788500Y-3433000D02*
X10778500Y-3443000D01*
X10778500Y-7232000D02*
X10788500Y-7242000D01*
X10788500Y-7232000D02*
X10778500Y-7242000D01*
X10778500Y-9137000D02*
X10788500Y-9147000D01*
X10788500Y-9137000D02*
X10778500Y-9147000D01*
X11734500Y-11288000D02*
X11744500Y-11298000D01*
X11744500Y-11288000D02*
X11734500Y-11298000D01*
X12681500Y-3672000D02*
X12691500Y-3682000D01*
X12691500Y-3672000D02*
X12681500Y-3682000D01*
X12681500Y-9374000D02*
X12691500Y-9384000D01*
X12691500Y-9374000D02*
X12681500Y-9384000D01*
X12682500Y-5571000D02*
X12692500Y-5581000D01*
X12692500Y-5571000D02*
X12682500Y-5581000D01*
X12682500Y-7471000D02*
X12692500Y-7481000D01*
X12692500Y-7471000D02*
X12682500Y-7481000D01*
X14404745Y-11316315D02*
X14414745Y-11326315D01*
X14414745Y-11316315D02*
X14404745Y-11326315D01*
X14692500Y-8724000D02*
X14702500Y-8734000D01*
X14702500Y-8724000D02*
X14692500Y-8734000D01*
X17122500Y-8727000D02*
X17132500Y-8737000D01*
X17132500Y-8727000D02*
X17122500Y-8737000D01*
X18007185Y-11274745D02*
X18017185Y-11284745D01*
X18017185Y-11274745D02*
X18007185Y-11284745D01*
X19131621Y-3669150D02*
X19141621Y-3679150D01*
X19141621Y-3669150D02*
X19131621Y-3679150D01*
X19132500Y-5577000D02*
X19142500Y-5587000D01*
X19142500Y-5577000D02*
X19132500Y-5587000D01*
X19132500Y-7477000D02*
X19142500Y-7487000D01*
X19142500Y-7477000D02*
X19132500Y-7487000D01*
X19132500Y-9377000D02*
X19142500Y-9387000D01*
X19142500Y-9377000D02*
X19132500Y-9387000D01*
X20082500Y-11287000D02*
X20092500Y-11297000D01*
X20092500Y-11287000D02*
X20082500Y-11297000D01*
X21031301Y-3429420D02*
X21041301Y-3439420D01*
X21041301Y-3429420D02*
X21031301Y-3439420D01*
X21032500Y-5337000D02*
X21042500Y-5347000D01*
X21042500Y-5337000D02*
X21032500Y-5347000D01*
X21032500Y-7237000D02*
X21042500Y-7247000D01*
X21042500Y-7237000D02*
X21032500Y-7247000D01*
X21032500Y-9147000D02*
X21042500Y-9157000D01*
X21042500Y-9147000D02*
X21032500Y-9157000D01*
X21992500Y-11057000D02*
X22002500Y-11067000D01*
X22002500Y-11057000D02*
X21992500Y-11067000D01*
X22942500Y-3197000D02*
X22952500Y-3207000D01*
X22952500Y-3197000D02*
X22942500Y-3207000D01*
X22942500Y-5097000D02*
X22952500Y-5107000D01*
X22952500Y-5097000D02*
X22942500Y-5107000D01*
X22942500Y-7007000D02*
X22952500Y-7017000D01*
X22952500Y-7007000D02*
X22942500Y-7017000D01*
X22942500Y-8907000D02*
X22952500Y-8917000D01*
X22952500Y-8907000D02*
X22942500Y-8917000D01*
X23892500Y-11057000D02*
X23902500Y-11067000D01*
X23902500Y-11057000D02*
X23892500Y-11067000D01*
X24842500Y-3427000D02*
X24852500Y-3437000D01*
X24852500Y-3427000D02*
X24842500Y-3437000D01*
X24842500Y-5337000D02*
X24852500Y-5347000D01*
X24852500Y-5337000D02*
X24842500Y-5347000D01*
X24842500Y-7237000D02*
X24852500Y-7247000D01*
X24852500Y-7237000D02*
X24842500Y-7247000D01*
X24842500Y-9147000D02*
X24852500Y-9157000D01*
X24852500Y-9147000D02*
X24842500Y-9157000D01*
X26752500Y-3907000D02*
X26762500Y-3917000D01*
X26762500Y-3907000D02*
X26752500Y-3917000D01*
X26752500Y-5807000D02*
X26762500Y-5817000D01*
X26762500Y-5807000D02*
X26752500Y-5817000D01*
X26752500Y-7707000D02*
X26762500Y-7717000D01*
X26762500Y-7707000D02*
X26752500Y-7717000D01*
X26752500Y-9617000D02*
X26762500Y-9627000D01*
X26762500Y-9617000D02*
X26752500Y-9627000D01*
X28652500Y-4147000D02*
X28662500Y-4157000D01*
X28662500Y-4147000D02*
X28652500Y-4157000D01*
X28652500Y-6047000D02*
X28662500Y-6057000D01*
X28662500Y-6047000D02*
X28652500Y-6057000D01*
X28652500Y-7947000D02*
X28662500Y-7957000D01*
X28662500Y-7947000D02*
X28652500Y-7957000D01*
X28652500Y-9857000D02*
X28662500Y-9867000D01*
X28662500Y-9857000D02*
X28652500Y-9867000D01*
D13*
X15975000Y-10420000D02*
G75*
G03*
X15975000Y-10420000I-45000J0D01*
G01*
X15975000Y-10720000D02*
G75*
G03*
X15975000Y-10720000I-45000J0D01*
G01*
X16705000Y-10420000D02*
G75*
G03*
X16705000Y-10420000I-45000J0D01*
G01*
X16705000Y-10720000D02*
G75*
G03*
X16705000Y-10720000I-45000J0D01*
G01*
D14*
X3044000Y-10031000D02*
X3044000Y-10201000D01*
X2959000Y-10116000D02*
X3129000Y-10116000D01*
X3045000Y-4328000D02*
X3045000Y-4498000D01*
X2960000Y-4413000D02*
X3130000Y-4413000D01*
X3045000Y-6229000D02*
X3045000Y-6399000D01*
X2960000Y-6314000D02*
X3130000Y-6314000D01*
X3046000Y-8123000D02*
X3046000Y-8293000D01*
X2961000Y-8208000D02*
X3131000Y-8208000D01*
X4060000Y-10031000D02*
X4060000Y-10201000D01*
X3975000Y-10116000D02*
X4145000Y-10116000D01*
X4061000Y-4328000D02*
X4061000Y-4498000D01*
X3976000Y-4413000D02*
X4146000Y-4413000D01*
X4061000Y-6229000D02*
X4061000Y-6399000D01*
X3976000Y-6314000D02*
X4146000Y-6314000D01*
X4062000Y-8123000D02*
X4062000Y-8293000D01*
X3977000Y-8208000D02*
X4147000Y-8208000D01*
X4948000Y-5985000D02*
X4948000Y-6155000D01*
X4863000Y-6070000D02*
X5033000Y-6070000D01*
X4949000Y-9797000D02*
X4949000Y-9967000D01*
X4864000Y-9882000D02*
X5034000Y-9882000D01*
X4950000Y-7888000D02*
X4950000Y-8058000D01*
X4865000Y-7973000D02*
X5035000Y-7973000D01*
X4951000Y-4084000D02*
X4951000Y-4254000D01*
X4866000Y-4169000D02*
X5036000Y-4169000D01*
X5964000Y-5985000D02*
X5964000Y-6155000D01*
X5879000Y-6070000D02*
X6049000Y-6070000D01*
X5965000Y-9797000D02*
X5965000Y-9967000D01*
X5880000Y-9882000D02*
X6050000Y-9882000D01*
X5966000Y-7888000D02*
X5966000Y-8058000D01*
X5881000Y-7973000D02*
X6051000Y-7973000D01*
X5967000Y-4084000D02*
X5967000Y-4254000D01*
X5882000Y-4169000D02*
X6052000Y-4169000D01*
X6851000Y-9315000D02*
X6851000Y-9485000D01*
X6766000Y-9400000D02*
X6936000Y-9400000D01*
X6853000Y-5513000D02*
X6853000Y-5683000D01*
X6768000Y-5598000D02*
X6938000Y-5598000D01*
X6853000Y-7412000D02*
X6853000Y-7582000D01*
X6768000Y-7497000D02*
X6938000Y-7497000D01*
X6855000Y-3613000D02*
X6855000Y-3783000D01*
X6770000Y-3698000D02*
X6940000Y-3698000D01*
X7808000Y-11224000D02*
X7808000Y-11394000D01*
X7723000Y-11309000D02*
X7893000Y-11309000D01*
X7867000Y-9315000D02*
X7867000Y-9485000D01*
X7782000Y-9400000D02*
X7952000Y-9400000D01*
X7869000Y-5513000D02*
X7869000Y-5683000D01*
X7784000Y-5598000D02*
X7954000Y-5598000D01*
X7869000Y-7412000D02*
X7869000Y-7582000D01*
X7784000Y-7497000D02*
X7954000Y-7497000D01*
X7871000Y-3613000D02*
X7871000Y-3783000D01*
X7786000Y-3698000D02*
X7956000Y-3698000D01*
X8754000Y-9082000D02*
X8754000Y-9252000D01*
X8669000Y-9167000D02*
X8839000Y-9167000D01*
X8756000Y-7173000D02*
X8756000Y-7343000D01*
X8671000Y-7258000D02*
X8841000Y-7258000D01*
X8757000Y-3368000D02*
X8757000Y-3538000D01*
X8672000Y-3453000D02*
X8842000Y-3453000D01*
X8757000Y-5273000D02*
X8757000Y-5443000D01*
X8672000Y-5358000D02*
X8842000Y-5358000D01*
X8824000Y-11224000D02*
X8824000Y-11394000D01*
X8739000Y-11309000D02*
X8909000Y-11309000D01*
X9711000Y-11225000D02*
X9711000Y-11395000D01*
X9626000Y-11310000D02*
X9796000Y-11310000D01*
X9770000Y-9082000D02*
X9770000Y-9252000D01*
X9685000Y-9167000D02*
X9855000Y-9167000D01*
X9772000Y-7173000D02*
X9772000Y-7343000D01*
X9687000Y-7258000D02*
X9857000Y-7258000D01*
X9773000Y-3368000D02*
X9773000Y-3538000D01*
X9688000Y-3453000D02*
X9858000Y-3453000D01*
X9773000Y-5273000D02*
X9773000Y-5443000D01*
X9688000Y-5358000D02*
X9858000Y-5358000D01*
X10657000Y-5511000D02*
X10657000Y-5681000D01*
X10572000Y-5596000D02*
X10742000Y-5596000D01*
X10658000Y-3611000D02*
X10658000Y-3781000D01*
X10573000Y-3696000D02*
X10743000Y-3696000D01*
X10658000Y-7410000D02*
X10658000Y-7580000D01*
X10573000Y-7495000D02*
X10743000Y-7495000D01*
X10658000Y-9315000D02*
X10658000Y-9485000D01*
X10573000Y-9400000D02*
X10743000Y-9400000D01*
X10727000Y-11225000D02*
X10727000Y-11395000D01*
X10642000Y-11310000D02*
X10812000Y-11310000D01*
X11614000Y-11466000D02*
X11614000Y-11636000D01*
X11529000Y-11551000D02*
X11699000Y-11551000D01*
X11673000Y-5511000D02*
X11673000Y-5681000D01*
X11588000Y-5596000D02*
X11758000Y-5596000D01*
X11674000Y-3611000D02*
X11674000Y-3781000D01*
X11589000Y-3696000D02*
X11759000Y-3696000D01*
X11674000Y-7410000D02*
X11674000Y-7580000D01*
X11589000Y-7495000D02*
X11759000Y-7495000D01*
X11674000Y-9315000D02*
X11674000Y-9485000D01*
X11589000Y-9400000D02*
X11759000Y-9400000D01*
X12561000Y-3850000D02*
X12561000Y-4020000D01*
X12476000Y-3935000D02*
X12646000Y-3935000D01*
X12561000Y-9552000D02*
X12561000Y-9722000D01*
X12476000Y-9637000D02*
X12646000Y-9637000D01*
X12562000Y-5749000D02*
X12562000Y-5919000D01*
X12477000Y-5834000D02*
X12647000Y-5834000D01*
X12562000Y-7649000D02*
X12562000Y-7819000D01*
X12477000Y-7734000D02*
X12647000Y-7734000D01*
X12630000Y-11466000D02*
X12630000Y-11636000D01*
X12545000Y-11551000D02*
X12715000Y-11551000D01*
X13577000Y-3850000D02*
X13577000Y-4020000D01*
X13492000Y-3935000D02*
X13662000Y-3935000D01*
X13577000Y-9552000D02*
X13577000Y-9722000D01*
X13492000Y-9637000D02*
X13662000Y-9637000D01*
X13578000Y-5749000D02*
X13578000Y-5919000D01*
X13493000Y-5834000D02*
X13663000Y-5834000D01*
X13578000Y-7649000D02*
X13578000Y-7819000D01*
X13493000Y-7734000D02*
X13663000Y-7734000D01*
X14172059Y-11397000D02*
X14172059Y-11567000D01*
X14087059Y-11482000D02*
X14257059Y-11482000D01*
X14572000Y-8902000D02*
X14572000Y-9072000D01*
X14487000Y-8987000D02*
X14657000Y-8987000D01*
X15051941Y-11905000D02*
X15051941Y-12075000D01*
X14966941Y-11990000D02*
X15136941Y-11990000D01*
X15588000Y-8902000D02*
X15588000Y-9072000D01*
X15503000Y-8987000D02*
X15673000Y-8987000D01*
X17002000Y-8905000D02*
X17002000Y-9075000D01*
X16917000Y-8990000D02*
X17087000Y-8990000D01*
X17726000Y-11215059D02*
X17726000Y-11385059D01*
X17641000Y-11300059D02*
X17811000Y-11300059D01*
X18018000Y-8905000D02*
X18018000Y-9075000D01*
X17933000Y-8990000D02*
X18103000Y-8990000D01*
X18234000Y-12094941D02*
X18234000Y-12264941D01*
X18149000Y-12179941D02*
X18319000Y-12179941D01*
X19011121Y-3847150D02*
X19011121Y-4017150D01*
X18926121Y-3932150D02*
X19096121Y-3932150D01*
X19012000Y-5755000D02*
X19012000Y-5925000D01*
X18927000Y-5840000D02*
X19097000Y-5840000D01*
X19012000Y-7655000D02*
X19012000Y-7825000D01*
X18927000Y-7740000D02*
X19097000Y-7740000D01*
X19012000Y-9555000D02*
X19012000Y-9725000D01*
X18927000Y-9640000D02*
X19097000Y-9640000D01*
X19962000Y-11465000D02*
X19962000Y-11635000D01*
X19877000Y-11550000D02*
X20047000Y-11550000D01*
X20027121Y-3847150D02*
X20027121Y-4017150D01*
X19942121Y-3932150D02*
X20112121Y-3932150D01*
X20028000Y-5755000D02*
X20028000Y-5925000D01*
X19943000Y-5840000D02*
X20113000Y-5840000D01*
X20028000Y-7655000D02*
X20028000Y-7825000D01*
X19943000Y-7740000D02*
X20113000Y-7740000D01*
X20028000Y-9555000D02*
X20028000Y-9725000D01*
X19943000Y-9640000D02*
X20113000Y-9640000D01*
X20910801Y-3607420D02*
X20910801Y-3777420D01*
X20825801Y-3692420D02*
X20995801Y-3692420D01*
X20912000Y-5515000D02*
X20912000Y-5685000D01*
X20827000Y-5600000D02*
X20997000Y-5600000D01*
X20912000Y-7415000D02*
X20912000Y-7585000D01*
X20827000Y-7500000D02*
X20997000Y-7500000D01*
X20912000Y-9325000D02*
X20912000Y-9495000D01*
X20827000Y-9410000D02*
X20997000Y-9410000D01*
X20978000Y-11465000D02*
X20978000Y-11635000D01*
X20893000Y-11550000D02*
X21063000Y-11550000D01*
X21872000Y-11235000D02*
X21872000Y-11405000D01*
X21787000Y-11320000D02*
X21957000Y-11320000D01*
X21926801Y-3607420D02*
X21926801Y-3777420D01*
X21841801Y-3692420D02*
X22011801Y-3692420D01*
X21928000Y-5515000D02*
X21928000Y-5685000D01*
X21843000Y-5600000D02*
X22013000Y-5600000D01*
X21928000Y-7415000D02*
X21928000Y-7585000D01*
X21843000Y-7500000D02*
X22013000Y-7500000D01*
X21928000Y-9325000D02*
X21928000Y-9495000D01*
X21843000Y-9410000D02*
X22013000Y-9410000D01*
X22822000Y-3375000D02*
X22822000Y-3545000D01*
X22737000Y-3460000D02*
X22907000Y-3460000D01*
X22822000Y-5275000D02*
X22822000Y-5445000D01*
X22737000Y-5360000D02*
X22907000Y-5360000D01*
X22822000Y-7185000D02*
X22822000Y-7355000D01*
X22737000Y-7270000D02*
X22907000Y-7270000D01*
X22822000Y-9085000D02*
X22822000Y-9255000D01*
X22737000Y-9170000D02*
X22907000Y-9170000D01*
X22888000Y-11235000D02*
X22888000Y-11405000D01*
X22803000Y-11320000D02*
X22973000Y-11320000D01*
X23772000Y-11235000D02*
X23772000Y-11405000D01*
X23687000Y-11320000D02*
X23857000Y-11320000D01*
X23838000Y-3375000D02*
X23838000Y-3545000D01*
X23753000Y-3460000D02*
X23923000Y-3460000D01*
X23838000Y-5275000D02*
X23838000Y-5445000D01*
X23753000Y-5360000D02*
X23923000Y-5360000D01*
X23838000Y-7185000D02*
X23838000Y-7355000D01*
X23753000Y-7270000D02*
X23923000Y-7270000D01*
X23838000Y-9085000D02*
X23838000Y-9255000D01*
X23753000Y-9170000D02*
X23923000Y-9170000D01*
X24722000Y-3605000D02*
X24722000Y-3775000D01*
X24637000Y-3690000D02*
X24807000Y-3690000D01*
X24722000Y-5515000D02*
X24722000Y-5685000D01*
X24637000Y-5600000D02*
X24807000Y-5600000D01*
X24722000Y-7415000D02*
X24722000Y-7585000D01*
X24637000Y-7500000D02*
X24807000Y-7500000D01*
X24722000Y-9325000D02*
X24722000Y-9495000D01*
X24637000Y-9410000D02*
X24807000Y-9410000D01*
X24788000Y-11235000D02*
X24788000Y-11405000D01*
X24703000Y-11320000D02*
X24873000Y-11320000D01*
X25738000Y-3605000D02*
X25738000Y-3775000D01*
X25653000Y-3690000D02*
X25823000Y-3690000D01*
X25738000Y-5515000D02*
X25738000Y-5685000D01*
X25653000Y-5600000D02*
X25823000Y-5600000D01*
X25738000Y-7415000D02*
X25738000Y-7585000D01*
X25653000Y-7500000D02*
X25823000Y-7500000D01*
X25738000Y-9325000D02*
X25738000Y-9495000D01*
X25653000Y-9410000D02*
X25823000Y-9410000D01*
X26632000Y-4085000D02*
X26632000Y-4255000D01*
X26547000Y-4170000D02*
X26717000Y-4170000D01*
X26632000Y-5985000D02*
X26632000Y-6155000D01*
X26547000Y-6070000D02*
X26717000Y-6070000D01*
X26632000Y-7885000D02*
X26632000Y-8055000D01*
X26547000Y-7970000D02*
X26717000Y-7970000D01*
X26632000Y-9795000D02*
X26632000Y-9965000D01*
X26547000Y-9880000D02*
X26717000Y-9880000D01*
X27648000Y-4085000D02*
X27648000Y-4255000D01*
X27563000Y-4170000D02*
X27733000Y-4170000D01*
X27648000Y-5985000D02*
X27648000Y-6155000D01*
X27563000Y-6070000D02*
X27733000Y-6070000D01*
X27648000Y-7885000D02*
X27648000Y-8055000D01*
X27563000Y-7970000D02*
X27733000Y-7970000D01*
X27648000Y-9795000D02*
X27648000Y-9965000D01*
X27563000Y-9880000D02*
X27733000Y-9880000D01*
X28532000Y-4325000D02*
X28532000Y-4495000D01*
X28447000Y-4410000D02*
X28617000Y-4410000D01*
X28532000Y-6225000D02*
X28532000Y-6395000D01*
X28447000Y-6310000D02*
X28617000Y-6310000D01*
X28532000Y-8125000D02*
X28532000Y-8295000D01*
X28447000Y-8210000D02*
X28617000Y-8210000D01*
X28532000Y-10035000D02*
X28532000Y-10205000D01*
X28447000Y-10120000D02*
X28617000Y-10120000D01*
X29548000Y-4325000D02*
X29548000Y-4495000D01*
X29463000Y-4410000D02*
X29633000Y-4410000D01*
X29548000Y-6225000D02*
X29548000Y-6395000D01*
X29463000Y-6310000D02*
X29633000Y-6310000D01*
X29548000Y-8125000D02*
X29548000Y-8295000D01*
X29463000Y-8210000D02*
X29633000Y-8210000D01*
X29548000Y-10035000D02*
X29548000Y-10205000D01*
X29463000Y-10120000D02*
X29633000Y-10120000D01*
D15*
X3069176Y-10183176D02*
X3069176Y-10048824D01*
X2934824Y-10048824D01*
X2934824Y-10183176D01*
X3069176Y-10183176D01*
X3070176Y-4480176D02*
X3070176Y-4345824D01*
X2935824Y-4345824D01*
X2935824Y-4480176D01*
X3070176Y-4480176D01*
X3070176Y-6381176D02*
X3070176Y-6246824D01*
X2935824Y-6246824D01*
X2935824Y-6381176D01*
X3070176Y-6381176D01*
X3071176Y-8275176D02*
X3071176Y-8140824D01*
X2936824Y-8140824D01*
X2936824Y-8275176D01*
X3071176Y-8275176D01*
X4169176Y-10183176D02*
X4169176Y-10048824D01*
X4034824Y-10048824D01*
X4034824Y-10183176D01*
X4169176Y-10183176D01*
X4170176Y-4480176D02*
X4170176Y-4345824D01*
X4035824Y-4345824D01*
X4035824Y-4480176D01*
X4170176Y-4480176D01*
X4170176Y-6381176D02*
X4170176Y-6246824D01*
X4035824Y-6246824D01*
X4035824Y-6381176D01*
X4170176Y-6381176D01*
X4171176Y-8275176D02*
X4171176Y-8140824D01*
X4036824Y-8140824D01*
X4036824Y-8275176D01*
X4171176Y-8275176D01*
X4973176Y-6137176D02*
X4973176Y-6002824D01*
X4838824Y-6002824D01*
X4838824Y-6137176D01*
X4973176Y-6137176D01*
X4974176Y-9949176D02*
X4974176Y-9814824D01*
X4839824Y-9814824D01*
X4839824Y-9949176D01*
X4974176Y-9949176D01*
X4975176Y-8040176D02*
X4975176Y-7905824D01*
X4840824Y-7905824D01*
X4840824Y-8040176D01*
X4975176Y-8040176D01*
X4976176Y-4236176D02*
X4976176Y-4101824D01*
X4841824Y-4101824D01*
X4841824Y-4236176D01*
X4976176Y-4236176D01*
X6073176Y-6137176D02*
X6073176Y-6002824D01*
X5938824Y-6002824D01*
X5938824Y-6137176D01*
X6073176Y-6137176D01*
X6074176Y-9949176D02*
X6074176Y-9814824D01*
X5939824Y-9814824D01*
X5939824Y-9949176D01*
X6074176Y-9949176D01*
X6075176Y-8040176D02*
X6075176Y-7905824D01*
X5940824Y-7905824D01*
X5940824Y-8040176D01*
X6075176Y-8040176D01*
X6076176Y-4236176D02*
X6076176Y-4101824D01*
X5941824Y-4101824D01*
X5941824Y-4236176D01*
X6076176Y-4236176D01*
X6876176Y-9467176D02*
X6876176Y-9332824D01*
X6741824Y-9332824D01*
X6741824Y-9467176D01*
X6876176Y-9467176D01*
X6878176Y-5665176D02*
X6878176Y-5530824D01*
X6743824Y-5530824D01*
X6743824Y-5665176D01*
X6878176Y-5665176D01*
X6878176Y-7564176D02*
X6878176Y-7429824D01*
X6743824Y-7429824D01*
X6743824Y-7564176D01*
X6878176Y-7564176D01*
X6880176Y-3765176D02*
X6880176Y-3630824D01*
X6745824Y-3630824D01*
X6745824Y-3765176D01*
X6880176Y-3765176D01*
X7833176Y-11376176D02*
X7833176Y-11241824D01*
X7698824Y-11241824D01*
X7698824Y-11376176D01*
X7833176Y-11376176D01*
X7976176Y-9467176D02*
X7976176Y-9332824D01*
X7841824Y-9332824D01*
X7841824Y-9467176D01*
X7976176Y-9467176D01*
X7978176Y-5665176D02*
X7978176Y-5530824D01*
X7843824Y-5530824D01*
X7843824Y-5665176D01*
X7978176Y-5665176D01*
X7978176Y-7564176D02*
X7978176Y-7429824D01*
X7843824Y-7429824D01*
X7843824Y-7564176D01*
X7978176Y-7564176D01*
X7980176Y-3765176D02*
X7980176Y-3630824D01*
X7845824Y-3630824D01*
X7845824Y-3765176D01*
X7980176Y-3765176D01*
X8779176Y-9234176D02*
X8779176Y-9099824D01*
X8644824Y-9099824D01*
X8644824Y-9234176D01*
X8779176Y-9234176D01*
X8781176Y-7325176D02*
X8781176Y-7190824D01*
X8646824Y-7190824D01*
X8646824Y-7325176D01*
X8781176Y-7325176D01*
X8782176Y-3520176D02*
X8782176Y-3385824D01*
X8647824Y-3385824D01*
X8647824Y-3520176D01*
X8782176Y-3520176D01*
X8782176Y-5425176D02*
X8782176Y-5290824D01*
X8647824Y-5290824D01*
X8647824Y-5425176D01*
X8782176Y-5425176D01*
X8933176Y-11376176D02*
X8933176Y-11241824D01*
X8798824Y-11241824D01*
X8798824Y-11376176D01*
X8933176Y-11376176D01*
X9736176Y-11377176D02*
X9736176Y-11242824D01*
X9601824Y-11242824D01*
X9601824Y-11377176D01*
X9736176Y-11377176D01*
X9879176Y-9234176D02*
X9879176Y-9099824D01*
X9744824Y-9099824D01*
X9744824Y-9234176D01*
X9879176Y-9234176D01*
X9881176Y-7325176D02*
X9881176Y-7190824D01*
X9746824Y-7190824D01*
X9746824Y-7325176D01*
X9881176Y-7325176D01*
X9882176Y-3520176D02*
X9882176Y-3385824D01*
X9747824Y-3385824D01*
X9747824Y-3520176D01*
X9882176Y-3520176D01*
X9882176Y-5425176D02*
X9882176Y-5290824D01*
X9747824Y-5290824D01*
X9747824Y-5425176D01*
X9882176Y-5425176D01*
X10682176Y-5663176D02*
X10682176Y-5528824D01*
X10547824Y-5528824D01*
X10547824Y-5663176D01*
X10682176Y-5663176D01*
X10683176Y-3763176D02*
X10683176Y-3628824D01*
X10548824Y-3628824D01*
X10548824Y-3763176D01*
X10683176Y-3763176D01*
X10683176Y-7562176D02*
X10683176Y-7427824D01*
X10548824Y-7427824D01*
X10548824Y-7562176D01*
X10683176Y-7562176D01*
X10683176Y-9467176D02*
X10683176Y-9332824D01*
X10548824Y-9332824D01*
X10548824Y-9467176D01*
X10683176Y-9467176D01*
X10836176Y-11377176D02*
X10836176Y-11242824D01*
X10701824Y-11242824D01*
X10701824Y-11377176D01*
X10836176Y-11377176D01*
X11639176Y-11618176D02*
X11639176Y-11483824D01*
X11504824Y-11483824D01*
X11504824Y-11618176D01*
X11639176Y-11618176D01*
X11782176Y-5663176D02*
X11782176Y-5528824D01*
X11647824Y-5528824D01*
X11647824Y-5663176D01*
X11782176Y-5663176D01*
X11783176Y-3763176D02*
X11783176Y-3628824D01*
X11648824Y-3628824D01*
X11648824Y-3763176D01*
X11783176Y-3763176D01*
X11783176Y-7562176D02*
X11783176Y-7427824D01*
X11648824Y-7427824D01*
X11648824Y-7562176D01*
X11783176Y-7562176D01*
X11783176Y-9467176D02*
X11783176Y-9332824D01*
X11648824Y-9332824D01*
X11648824Y-9467176D01*
X11783176Y-9467176D01*
X12586176Y-4002176D02*
X12586176Y-3867824D01*
X12451824Y-3867824D01*
X12451824Y-4002176D01*
X12586176Y-4002176D01*
X12586176Y-9704176D02*
X12586176Y-9569824D01*
X12451824Y-9569824D01*
X12451824Y-9704176D01*
X12586176Y-9704176D01*
X12587176Y-5901176D02*
X12587176Y-5766824D01*
X12452824Y-5766824D01*
X12452824Y-5901176D01*
X12587176Y-5901176D01*
X12587176Y-7801176D02*
X12587176Y-7666824D01*
X12452824Y-7666824D01*
X12452824Y-7801176D01*
X12587176Y-7801176D01*
X12739176Y-11618176D02*
X12739176Y-11483824D01*
X12604824Y-11483824D01*
X12604824Y-11618176D01*
X12739176Y-11618176D01*
X13686176Y-4002176D02*
X13686176Y-3867824D01*
X13551824Y-3867824D01*
X13551824Y-4002176D01*
X13686176Y-4002176D01*
X13686176Y-9704176D02*
X13686176Y-9569824D01*
X13551824Y-9569824D01*
X13551824Y-9704176D01*
X13686176Y-9704176D01*
X13687176Y-5901176D02*
X13687176Y-5766824D01*
X13552824Y-5766824D01*
X13552824Y-5901176D01*
X13687176Y-5901176D01*
X13687176Y-7801176D02*
X13687176Y-7666824D01*
X13552824Y-7666824D01*
X13552824Y-7801176D01*
X13687176Y-7801176D01*
X14202862Y-11528176D02*
X14202862Y-11393824D01*
X14068510Y-11393824D01*
X14068510Y-11528176D01*
X14202862Y-11528176D01*
X14597176Y-9054176D02*
X14597176Y-8919824D01*
X14462824Y-8919824D01*
X14462824Y-9054176D01*
X14597176Y-9054176D01*
X15155490Y-12078176D02*
X15155490Y-11943824D01*
X15021138Y-11943824D01*
X15021138Y-12078176D01*
X15155490Y-12078176D01*
X15697176Y-9054176D02*
X15697176Y-8919824D01*
X15562824Y-8919824D01*
X15562824Y-9054176D01*
X15697176Y-9054176D01*
X17027176Y-9057176D02*
X17027176Y-8922824D01*
X16892824Y-8922824D01*
X16892824Y-9057176D01*
X17027176Y-9057176D01*
X17772176Y-11330862D02*
X17772176Y-11196510D01*
X17637824Y-11196510D01*
X17637824Y-11330862D01*
X17772176Y-11330862D01*
X18127176Y-9057176D02*
X18127176Y-8922824D01*
X17992824Y-8922824D01*
X17992824Y-9057176D01*
X18127176Y-9057176D01*
X18322176Y-12283490D02*
X18322176Y-12149138D01*
X18187824Y-12149138D01*
X18187824Y-12283490D01*
X18322176Y-12283490D01*
X19036297Y-3999325D02*
X19036297Y-3864974D01*
X18901945Y-3864974D01*
X18901945Y-3999325D01*
X19036297Y-3999325D01*
X19037176Y-5907176D02*
X19037176Y-5772824D01*
X18902824Y-5772824D01*
X18902824Y-5907176D01*
X19037176Y-5907176D01*
X19037176Y-7807176D02*
X19037176Y-7672824D01*
X18902824Y-7672824D01*
X18902824Y-7807176D01*
X19037176Y-7807176D01*
X19037176Y-9707176D02*
X19037176Y-9572824D01*
X18902824Y-9572824D01*
X18902824Y-9707176D01*
X19037176Y-9707176D01*
X19987176Y-11617176D02*
X19987176Y-11482824D01*
X19852824Y-11482824D01*
X19852824Y-11617176D01*
X19987176Y-11617176D01*
X20136297Y-3999325D02*
X20136297Y-3864974D01*
X20001945Y-3864974D01*
X20001945Y-3999325D01*
X20136297Y-3999325D01*
X20137176Y-5907176D02*
X20137176Y-5772824D01*
X20002824Y-5772824D01*
X20002824Y-5907176D01*
X20137176Y-5907176D01*
X20137176Y-7807176D02*
X20137176Y-7672824D01*
X20002824Y-7672824D01*
X20002824Y-7807176D01*
X20137176Y-7807176D01*
X20137176Y-9707176D02*
X20137176Y-9572824D01*
X20002824Y-9572824D01*
X20002824Y-9707176D01*
X20137176Y-9707176D01*
X20935977Y-3759595D02*
X20935977Y-3625244D01*
X20801625Y-3625244D01*
X20801625Y-3759595D01*
X20935977Y-3759595D01*
X20937176Y-5667176D02*
X20937176Y-5532824D01*
X20802824Y-5532824D01*
X20802824Y-5667176D01*
X20937176Y-5667176D01*
X20937176Y-7567176D02*
X20937176Y-7432824D01*
X20802824Y-7432824D01*
X20802824Y-7567176D01*
X20937176Y-7567176D01*
X20937176Y-9477176D02*
X20937176Y-9342824D01*
X20802824Y-9342824D01*
X20802824Y-9477176D01*
X20937176Y-9477176D01*
X21087176Y-11617176D02*
X21087176Y-11482824D01*
X20952824Y-11482824D01*
X20952824Y-11617176D01*
X21087176Y-11617176D01*
X21897176Y-11387176D02*
X21897176Y-11252824D01*
X21762824Y-11252824D01*
X21762824Y-11387176D01*
X21897176Y-11387176D01*
X22035977Y-3759595D02*
X22035977Y-3625244D01*
X21901625Y-3625244D01*
X21901625Y-3759595D01*
X22035977Y-3759595D01*
X22037176Y-5667176D02*
X22037176Y-5532824D01*
X21902824Y-5532824D01*
X21902824Y-5667176D01*
X22037176Y-5667176D01*
X22037176Y-7567176D02*
X22037176Y-7432824D01*
X21902824Y-7432824D01*
X21902824Y-7567176D01*
X22037176Y-7567176D01*
X22037176Y-9477176D02*
X22037176Y-9342824D01*
X21902824Y-9342824D01*
X21902824Y-9477176D01*
X22037176Y-9477176D01*
X22847176Y-3527176D02*
X22847176Y-3392824D01*
X22712824Y-3392824D01*
X22712824Y-3527176D01*
X22847176Y-3527176D01*
X22847176Y-5427176D02*
X22847176Y-5292824D01*
X22712824Y-5292824D01*
X22712824Y-5427176D01*
X22847176Y-5427176D01*
X22847176Y-7337176D02*
X22847176Y-7202824D01*
X22712824Y-7202824D01*
X22712824Y-7337176D01*
X22847176Y-7337176D01*
X22847176Y-9237176D02*
X22847176Y-9102824D01*
X22712824Y-9102824D01*
X22712824Y-9237176D01*
X22847176Y-9237176D01*
X22997176Y-11387176D02*
X22997176Y-11252824D01*
X22862824Y-11252824D01*
X22862824Y-11387176D01*
X22997176Y-11387176D01*
X23797176Y-11387176D02*
X23797176Y-11252824D01*
X23662824Y-11252824D01*
X23662824Y-11387176D01*
X23797176Y-11387176D01*
X23947176Y-3527176D02*
X23947176Y-3392824D01*
X23812824Y-3392824D01*
X23812824Y-3527176D01*
X23947176Y-3527176D01*
X23947176Y-5427176D02*
X23947176Y-5292824D01*
X23812824Y-5292824D01*
X23812824Y-5427176D01*
X23947176Y-5427176D01*
X23947176Y-7337176D02*
X23947176Y-7202824D01*
X23812824Y-7202824D01*
X23812824Y-7337176D01*
X23947176Y-7337176D01*
X23947176Y-9237176D02*
X23947176Y-9102824D01*
X23812824Y-9102824D01*
X23812824Y-9237176D01*
X23947176Y-9237176D01*
X24747176Y-3757176D02*
X24747176Y-3622824D01*
X24612824Y-3622824D01*
X24612824Y-3757176D01*
X24747176Y-3757176D01*
X24747176Y-5667176D02*
X24747176Y-5532824D01*
X24612824Y-5532824D01*
X24612824Y-5667176D01*
X24747176Y-5667176D01*
X24747176Y-7567176D02*
X24747176Y-7432824D01*
X24612824Y-7432824D01*
X24612824Y-7567176D01*
X24747176Y-7567176D01*
X24747176Y-9477176D02*
X24747176Y-9342824D01*
X24612824Y-9342824D01*
X24612824Y-9477176D01*
X24747176Y-9477176D01*
X24897176Y-11387176D02*
X24897176Y-11252824D01*
X24762824Y-11252824D01*
X24762824Y-11387176D01*
X24897176Y-11387176D01*
X25847176Y-3757176D02*
X25847176Y-3622824D01*
X25712824Y-3622824D01*
X25712824Y-3757176D01*
X25847176Y-3757176D01*
X25847176Y-5667176D02*
X25847176Y-5532824D01*
X25712824Y-5532824D01*
X25712824Y-5667176D01*
X25847176Y-5667176D01*
X25847176Y-7567176D02*
X25847176Y-7432824D01*
X25712824Y-7432824D01*
X25712824Y-7567176D01*
X25847176Y-7567176D01*
X25847176Y-9477176D02*
X25847176Y-9342824D01*
X25712824Y-9342824D01*
X25712824Y-9477176D01*
X25847176Y-9477176D01*
X26657176Y-4237176D02*
X26657176Y-4102824D01*
X26522824Y-4102824D01*
X26522824Y-4237176D01*
X26657176Y-4237176D01*
X26657176Y-6137176D02*
X26657176Y-6002824D01*
X26522824Y-6002824D01*
X26522824Y-6137176D01*
X26657176Y-6137176D01*
X26657176Y-8037176D02*
X26657176Y-7902824D01*
X26522824Y-7902824D01*
X26522824Y-8037176D01*
X26657176Y-8037176D01*
X26657176Y-9947176D02*
X26657176Y-9812824D01*
X26522824Y-9812824D01*
X26522824Y-9947176D01*
X26657176Y-9947176D01*
X27757176Y-4237176D02*
X27757176Y-4102824D01*
X27622824Y-4102824D01*
X27622824Y-4237176D01*
X27757176Y-4237176D01*
X27757176Y-6137176D02*
X27757176Y-6002824D01*
X27622824Y-6002824D01*
X27622824Y-6137176D01*
X27757176Y-6137176D01*
X27757176Y-8037176D02*
X27757176Y-7902824D01*
X27622824Y-7902824D01*
X27622824Y-8037176D01*
X27757176Y-8037176D01*
X27757176Y-9947176D02*
X27757176Y-9812824D01*
X27622824Y-9812824D01*
X27622824Y-9947176D01*
X27757176Y-9947176D01*
X28557176Y-4477176D02*
X28557176Y-4342824D01*
X28422824Y-4342824D01*
X28422824Y-4477176D01*
X28557176Y-4477176D01*
X28557176Y-6377176D02*
X28557176Y-6242824D01*
X28422824Y-6242824D01*
X28422824Y-6377176D01*
X28557176Y-6377176D01*
X28557176Y-8277176D02*
X28557176Y-8142824D01*
X28422824Y-8142824D01*
X28422824Y-8277176D01*
X28557176Y-8277176D01*
X28557176Y-10187176D02*
X28557176Y-10052824D01*
X28422824Y-10052824D01*
X28422824Y-10187176D01*
X28557176Y-10187176D01*
X29657176Y-4477176D02*
X29657176Y-4342824D01*
X29522824Y-4342824D01*
X29522824Y-4477176D01*
X29657176Y-4477176D01*
X29657176Y-6377176D02*
X29657176Y-6242824D01*
X29522824Y-6242824D01*
X29522824Y-6377176D01*
X29657176Y-6377176D01*
X29657176Y-8277176D02*
X29657176Y-8142824D01*
X29522824Y-8142824D01*
X29522824Y-8277176D01*
X29657176Y-8277176D01*
X29657176Y-10187176D02*
X29657176Y-10052824D01*
X29522824Y-10052824D01*
X29522824Y-10187176D01*
X29657176Y-10187176D01*
D16*
X3052000Y-10636000D02*
X3202000Y-10486000D01*
X3052000Y-10336000D01*
X2902000Y-10486000D01*
X3052000Y-10636000D01*
X3053000Y-4933000D02*
X3203000Y-4783000D01*
X3053000Y-4633000D01*
X2903000Y-4783000D01*
X3053000Y-4933000D01*
X3053000Y-6834000D02*
X3203000Y-6684000D01*
X3053000Y-6534000D01*
X2903000Y-6684000D01*
X3053000Y-6834000D01*
X3054000Y-8728000D02*
X3204000Y-8578000D01*
X3054000Y-8428000D01*
X2904000Y-8578000D01*
X3054000Y-8728000D01*
X3171000Y-10012000D02*
X3321000Y-9862000D01*
X3171000Y-9712000D01*
X3021000Y-9862000D01*
X3171000Y-10012000D01*
X3172000Y-4309000D02*
X3322000Y-4159000D01*
X3172000Y-4009000D01*
X3022000Y-4159000D01*
X3172000Y-4309000D01*
X3172000Y-6210000D02*
X3322000Y-6060000D01*
X3172000Y-5910000D01*
X3022000Y-6060000D01*
X3172000Y-6210000D01*
X3173000Y-8104000D02*
X3323000Y-7954000D01*
X3173000Y-7804000D01*
X3023000Y-7954000D01*
X3173000Y-8104000D01*
X3552000Y-10856000D02*
X3702000Y-10706000D01*
X3552000Y-10556000D01*
X3402000Y-10706000D01*
X3552000Y-10856000D01*
X3553000Y-5153000D02*
X3703000Y-5003000D01*
X3553000Y-4853000D01*
X3403000Y-5003000D01*
X3553000Y-5153000D01*
X3553000Y-7054000D02*
X3703000Y-6904000D01*
X3553000Y-6754000D01*
X3403000Y-6904000D01*
X3553000Y-7054000D01*
X3554000Y-8948000D02*
X3704000Y-8798000D01*
X3554000Y-8648000D01*
X3404000Y-8798000D01*
X3554000Y-8948000D01*
X3806000Y-9758000D02*
X3956000Y-9608000D01*
X3806000Y-9458000D01*
X3656000Y-9608000D01*
X3806000Y-9758000D01*
X3807000Y-4055000D02*
X3957000Y-3905000D01*
X3807000Y-3755000D01*
X3657000Y-3905000D01*
X3807000Y-4055000D01*
X3807000Y-5956000D02*
X3957000Y-5806000D01*
X3807000Y-5656000D01*
X3657000Y-5806000D01*
X3807000Y-5956000D01*
X3808000Y-7850000D02*
X3958000Y-7700000D01*
X3808000Y-7550000D01*
X3658000Y-7700000D01*
X3808000Y-7850000D01*
X4956000Y-6590000D02*
X5106000Y-6440000D01*
X4956000Y-6290000D01*
X4806000Y-6440000D01*
X4956000Y-6590000D01*
X4957000Y-10402000D02*
X5107000Y-10252000D01*
X4957000Y-10102000D01*
X4807000Y-10252000D01*
X4957000Y-10402000D01*
X4958000Y-8493000D02*
X5108000Y-8343000D01*
X4958000Y-8193000D01*
X4808000Y-8343000D01*
X4958000Y-8493000D01*
X4959000Y-4689000D02*
X5109000Y-4539000D01*
X4959000Y-4389000D01*
X4809000Y-4539000D01*
X4959000Y-4689000D01*
X5075000Y-5966000D02*
X5225000Y-5816000D01*
X5075000Y-5666000D01*
X4925000Y-5816000D01*
X5075000Y-5966000D01*
X5076000Y-9778000D02*
X5226000Y-9628000D01*
X5076000Y-9478000D01*
X4926000Y-9628000D01*
X5076000Y-9778000D01*
X5077000Y-7869000D02*
X5227000Y-7719000D01*
X5077000Y-7569000D01*
X4927000Y-7719000D01*
X5077000Y-7869000D01*
X5078000Y-4065000D02*
X5228000Y-3915000D01*
X5078000Y-3765000D01*
X4928000Y-3915000D01*
X5078000Y-4065000D01*
X5456000Y-6810000D02*
X5606000Y-6660000D01*
X5456000Y-6510000D01*
X5306000Y-6660000D01*
X5456000Y-6810000D01*
X5457000Y-10622000D02*
X5607000Y-10472000D01*
X5457000Y-10322000D01*
X5307000Y-10472000D01*
X5457000Y-10622000D01*
X5458000Y-8713000D02*
X5608000Y-8563000D01*
X5458000Y-8413000D01*
X5308000Y-8563000D01*
X5458000Y-8713000D01*
X5459000Y-4909000D02*
X5609000Y-4759000D01*
X5459000Y-4609000D01*
X5309000Y-4759000D01*
X5459000Y-4909000D01*
X5710000Y-5712000D02*
X5860000Y-5562000D01*
X5710000Y-5412000D01*
X5560000Y-5562000D01*
X5710000Y-5712000D01*
X5711000Y-9524000D02*
X5861000Y-9374000D01*
X5711000Y-9224000D01*
X5561000Y-9374000D01*
X5711000Y-9524000D01*
X5712000Y-7615000D02*
X5862000Y-7465000D01*
X5712000Y-7315000D01*
X5562000Y-7465000D01*
X5712000Y-7615000D01*
X5713000Y-3811000D02*
X5863000Y-3661000D01*
X5713000Y-3511000D01*
X5563000Y-3661000D01*
X5713000Y-3811000D01*
X6859000Y-9920000D02*
X7009000Y-9770000D01*
X6859000Y-9620000D01*
X6709000Y-9770000D01*
X6859000Y-9920000D01*
X6861000Y-6118000D02*
X7011000Y-5968000D01*
X6861000Y-5818000D01*
X6711000Y-5968000D01*
X6861000Y-6118000D01*
X6861000Y-8017000D02*
X7011000Y-7867000D01*
X6861000Y-7717000D01*
X6711000Y-7867000D01*
X6861000Y-8017000D01*
X6863000Y-4218000D02*
X7013000Y-4068000D01*
X6863000Y-3918000D01*
X6713000Y-4068000D01*
X6863000Y-4218000D01*
X6978000Y-9296000D02*
X7128000Y-9146000D01*
X6978000Y-8996000D01*
X6828000Y-9146000D01*
X6978000Y-9296000D01*
X6980000Y-5494000D02*
X7130000Y-5344000D01*
X6980000Y-5194000D01*
X6830000Y-5344000D01*
X6980000Y-5494000D01*
X6980000Y-7393000D02*
X7130000Y-7243000D01*
X6980000Y-7093000D01*
X6830000Y-7243000D01*
X6980000Y-7393000D01*
X6982000Y-3594000D02*
X7132000Y-3444000D01*
X6982000Y-3294000D01*
X6832000Y-3444000D01*
X6982000Y-3594000D01*
X7359000Y-10140000D02*
X7509000Y-9990000D01*
X7359000Y-9840000D01*
X7209000Y-9990000D01*
X7359000Y-10140000D01*
X7361000Y-6338000D02*
X7511000Y-6188000D01*
X7361000Y-6038000D01*
X7211000Y-6188000D01*
X7361000Y-6338000D01*
X7361000Y-8237000D02*
X7511000Y-8087000D01*
X7361000Y-7937000D01*
X7211000Y-8087000D01*
X7361000Y-8237000D01*
X7363000Y-4438000D02*
X7513000Y-4288000D01*
X7363000Y-4138000D01*
X7213000Y-4288000D01*
X7363000Y-4438000D01*
X7613000Y-9042000D02*
X7763000Y-8892000D01*
X7613000Y-8742000D01*
X7463000Y-8892000D01*
X7613000Y-9042000D01*
X7615000Y-5240000D02*
X7765000Y-5090000D01*
X7615000Y-4940000D01*
X7465000Y-5090000D01*
X7615000Y-5240000D01*
X7615000Y-7139000D02*
X7765000Y-6989000D01*
X7615000Y-6839000D01*
X7465000Y-6989000D01*
X7615000Y-7139000D01*
X7617000Y-3340000D02*
X7767000Y-3190000D01*
X7617000Y-3040000D01*
X7467000Y-3190000D01*
X7617000Y-3340000D01*
X7816000Y-11829000D02*
X7966000Y-11679000D01*
X7816000Y-11529000D01*
X7666000Y-11679000D01*
X7816000Y-11829000D01*
X7935000Y-11205000D02*
X8085000Y-11055000D01*
X7935000Y-10905000D01*
X7785000Y-11055000D01*
X7935000Y-11205000D01*
X8316000Y-12049000D02*
X8466000Y-11899000D01*
X8316000Y-11749000D01*
X8166000Y-11899000D01*
X8316000Y-12049000D01*
X8570000Y-10951000D02*
X8720000Y-10801000D01*
X8570000Y-10651000D01*
X8420000Y-10801000D01*
X8570000Y-10951000D01*
X8762000Y-9687000D02*
X8912000Y-9537000D01*
X8762000Y-9387000D01*
X8612000Y-9537000D01*
X8762000Y-9687000D01*
X8764000Y-7778000D02*
X8914000Y-7628000D01*
X8764000Y-7478000D01*
X8614000Y-7628000D01*
X8764000Y-7778000D01*
X8765000Y-3973000D02*
X8915000Y-3823000D01*
X8765000Y-3673000D01*
X8615000Y-3823000D01*
X8765000Y-3973000D01*
X8765000Y-5878000D02*
X8915000Y-5728000D01*
X8765000Y-5578000D01*
X8615000Y-5728000D01*
X8765000Y-5878000D01*
X8881000Y-9063000D02*
X9031000Y-8913000D01*
X8881000Y-8763000D01*
X8731000Y-8913000D01*
X8881000Y-9063000D01*
X8883000Y-7154000D02*
X9033000Y-7004000D01*
X8883000Y-6854000D01*
X8733000Y-7004000D01*
X8883000Y-7154000D01*
X8884000Y-3349000D02*
X9034000Y-3199000D01*
X8884000Y-3049000D01*
X8734000Y-3199000D01*
X8884000Y-3349000D01*
X8884000Y-5254000D02*
X9034000Y-5104000D01*
X8884000Y-4954000D01*
X8734000Y-5104000D01*
X8884000Y-5254000D01*
X9262000Y-9907000D02*
X9412000Y-9757000D01*
X9262000Y-9607000D01*
X9112000Y-9757000D01*
X9262000Y-9907000D01*
X9264000Y-7998000D02*
X9414000Y-7848000D01*
X9264000Y-7698000D01*
X9114000Y-7848000D01*
X9264000Y-7998000D01*
X9265000Y-4193000D02*
X9415000Y-4043000D01*
X9265000Y-3893000D01*
X9115000Y-4043000D01*
X9265000Y-4193000D01*
X9265000Y-6098000D02*
X9415000Y-5948000D01*
X9265000Y-5798000D01*
X9115000Y-5948000D01*
X9265000Y-6098000D01*
X9516000Y-8809000D02*
X9666000Y-8659000D01*
X9516000Y-8509000D01*
X9366000Y-8659000D01*
X9516000Y-8809000D01*
X9518000Y-6900000D02*
X9668000Y-6750000D01*
X9518000Y-6600000D01*
X9368000Y-6750000D01*
X9518000Y-6900000D01*
X9519000Y-3095000D02*
X9669000Y-2945000D01*
X9519000Y-2795000D01*
X9369000Y-2945000D01*
X9519000Y-3095000D01*
X9519000Y-5000000D02*
X9669000Y-4850000D01*
X9519000Y-4700000D01*
X9369000Y-4850000D01*
X9519000Y-5000000D01*
X9719000Y-11830000D02*
X9869000Y-11680000D01*
X9719000Y-11530000D01*
X9569000Y-11680000D01*
X9719000Y-11830000D01*
X9838000Y-11206000D02*
X9988000Y-11056000D01*
X9838000Y-10906000D01*
X9688000Y-11056000D01*
X9838000Y-11206000D01*
X10219000Y-12050000D02*
X10369000Y-11900000D01*
X10219000Y-11750000D01*
X10069000Y-11900000D01*
X10219000Y-12050000D01*
X10473000Y-10952000D02*
X10623000Y-10802000D01*
X10473000Y-10652000D01*
X10323000Y-10802000D01*
X10473000Y-10952000D01*
X10665000Y-6116000D02*
X10815000Y-5966000D01*
X10665000Y-5816000D01*
X10515000Y-5966000D01*
X10665000Y-6116000D01*
X10666000Y-4216000D02*
X10816000Y-4066000D01*
X10666000Y-3916000D01*
X10516000Y-4066000D01*
X10666000Y-4216000D01*
X10666000Y-8015000D02*
X10816000Y-7865000D01*
X10666000Y-7715000D01*
X10516000Y-7865000D01*
X10666000Y-8015000D01*
X10666000Y-9920000D02*
X10816000Y-9770000D01*
X10666000Y-9620000D01*
X10516000Y-9770000D01*
X10666000Y-9920000D01*
X10784000Y-5492000D02*
X10934000Y-5342000D01*
X10784000Y-5192000D01*
X10634000Y-5342000D01*
X10784000Y-5492000D01*
X10785000Y-3592000D02*
X10935000Y-3442000D01*
X10785000Y-3292000D01*
X10635000Y-3442000D01*
X10785000Y-3592000D01*
X10785000Y-7391000D02*
X10935000Y-7241000D01*
X10785000Y-7091000D01*
X10635000Y-7241000D01*
X10785000Y-7391000D01*
X10785000Y-9296000D02*
X10935000Y-9146000D01*
X10785000Y-8996000D01*
X10635000Y-9146000D01*
X10785000Y-9296000D01*
X11165000Y-6336000D02*
X11315000Y-6186000D01*
X11165000Y-6036000D01*
X11015000Y-6186000D01*
X11165000Y-6336000D01*
X11166000Y-4436000D02*
X11316000Y-4286000D01*
X11166000Y-4136000D01*
X11016000Y-4286000D01*
X11166000Y-4436000D01*
X11166000Y-8235000D02*
X11316000Y-8085000D01*
X11166000Y-7935000D01*
X11016000Y-8085000D01*
X11166000Y-8235000D01*
X11166000Y-10140000D02*
X11316000Y-9990000D01*
X11166000Y-9840000D01*
X11016000Y-9990000D01*
X11166000Y-10140000D01*
X11419000Y-5238000D02*
X11569000Y-5088000D01*
X11419000Y-4938000D01*
X11269000Y-5088000D01*
X11419000Y-5238000D01*
X11420000Y-3338000D02*
X11570000Y-3188000D01*
X11420000Y-3038000D01*
X11270000Y-3188000D01*
X11420000Y-3338000D01*
X11420000Y-7137000D02*
X11570000Y-6987000D01*
X11420000Y-6837000D01*
X11270000Y-6987000D01*
X11420000Y-7137000D01*
X11420000Y-9042000D02*
X11570000Y-8892000D01*
X11420000Y-8742000D01*
X11270000Y-8892000D01*
X11420000Y-9042000D01*
X11622000Y-12071000D02*
X11772000Y-11921000D01*
X11622000Y-11771000D01*
X11472000Y-11921000D01*
X11622000Y-12071000D01*
X11741000Y-11447000D02*
X11891000Y-11297000D01*
X11741000Y-11147000D01*
X11591000Y-11297000D01*
X11741000Y-11447000D01*
X12122000Y-12291000D02*
X12272000Y-12141000D01*
X12122000Y-11991000D01*
X11972000Y-12141000D01*
X12122000Y-12291000D01*
X12376000Y-11193000D02*
X12526000Y-11043000D01*
X12376000Y-10893000D01*
X12226000Y-11043000D01*
X12376000Y-11193000D01*
X12569000Y-4455000D02*
X12719000Y-4305000D01*
X12569000Y-4155000D01*
X12419000Y-4305000D01*
X12569000Y-4455000D01*
X12569000Y-10157000D02*
X12719000Y-10007000D01*
X12569000Y-9857000D01*
X12419000Y-10007000D01*
X12569000Y-10157000D01*
X12570000Y-6354000D02*
X12720000Y-6204000D01*
X12570000Y-6054000D01*
X12420000Y-6204000D01*
X12570000Y-6354000D01*
X12570000Y-8254000D02*
X12720000Y-8104000D01*
X12570000Y-7954000D01*
X12420000Y-8104000D01*
X12570000Y-8254000D01*
X12688000Y-3831000D02*
X12838000Y-3681000D01*
X12688000Y-3531000D01*
X12538000Y-3681000D01*
X12688000Y-3831000D01*
X12688000Y-9533000D02*
X12838000Y-9383000D01*
X12688000Y-9233000D01*
X12538000Y-9383000D01*
X12688000Y-9533000D01*
X12689000Y-5730000D02*
X12839000Y-5580000D01*
X12689000Y-5430000D01*
X12539000Y-5580000D01*
X12689000Y-5730000D01*
X12689000Y-7630000D02*
X12839000Y-7480000D01*
X12689000Y-7330000D01*
X12539000Y-7480000D01*
X12689000Y-7630000D01*
X13069000Y-4675000D02*
X13219000Y-4525000D01*
X13069000Y-4375000D01*
X12919000Y-4525000D01*
X13069000Y-4675000D01*
X13069000Y-10377000D02*
X13219000Y-10227000D01*
X13069000Y-10077000D01*
X12919000Y-10227000D01*
X13069000Y-10377000D01*
X13070000Y-6574000D02*
X13220000Y-6424000D01*
X13070000Y-6274000D01*
X12920000Y-6424000D01*
X13070000Y-6574000D01*
X13070000Y-8474000D02*
X13220000Y-8324000D01*
X13070000Y-8174000D01*
X12920000Y-8324000D01*
X13070000Y-8474000D01*
X13323000Y-3577000D02*
X13473000Y-3427000D01*
X13323000Y-3277000D01*
X13173000Y-3427000D01*
X13323000Y-3577000D01*
X13323000Y-9279000D02*
X13473000Y-9129000D01*
X13323000Y-8979000D01*
X13173000Y-9129000D01*
X13323000Y-9279000D01*
X13324000Y-5476000D02*
X13474000Y-5326000D01*
X13324000Y-5176000D01*
X13174000Y-5326000D01*
X13324000Y-5476000D01*
X13324000Y-7376000D02*
X13474000Y-7226000D01*
X13324000Y-7076000D01*
X13174000Y-7226000D01*
X13324000Y-7376000D01*
X13993987Y-11956429D02*
X14143987Y-11806429D01*
X13993987Y-11656429D01*
X13843987Y-11806429D01*
X13993987Y-11956429D01*
X14317000Y-12396955D02*
X14467000Y-12246955D01*
X14317000Y-12096955D01*
X14167000Y-12246955D01*
X14317000Y-12396955D01*
X14409044Y-11475529D02*
X14559044Y-11325529D01*
X14409044Y-11175530D01*
X14259044Y-11325529D01*
X14409044Y-11475529D01*
X14580000Y-9507000D02*
X14730000Y-9357000D01*
X14580000Y-9207000D01*
X14430000Y-9357000D01*
X14580000Y-9507000D01*
X14699000Y-8883000D02*
X14849000Y-8733000D01*
X14699000Y-8583000D01*
X14549000Y-8733000D01*
X14699000Y-8883000D01*
X15080000Y-9727000D02*
X15230000Y-9577000D01*
X15080000Y-9427000D01*
X14930000Y-9577000D01*
X15080000Y-9727000D01*
X15085970Y-11573059D02*
X15235970Y-11423059D01*
X15085970Y-11273059D01*
X14935970Y-11423059D01*
X15085970Y-11573059D01*
X15334000Y-8629000D02*
X15484000Y-8479000D01*
X15334000Y-8329000D01*
X15184000Y-8479000D01*
X15334000Y-8629000D01*
X17010000Y-9510000D02*
X17160000Y-9360000D01*
X17010000Y-9210000D01*
X16860000Y-9360000D01*
X17010000Y-9510000D01*
X17129000Y-8886000D02*
X17279000Y-8736000D01*
X17129000Y-8586000D01*
X16979000Y-8736000D01*
X17129000Y-8886000D01*
X17409571Y-11641987D02*
X17559571Y-11491987D01*
X17409571Y-11341987D01*
X17259571Y-11491987D01*
X17409571Y-11641987D01*
X17469045Y-12185000D02*
X17619045Y-12035000D01*
X17469045Y-11885000D01*
X17319045Y-12035000D01*
X17469045Y-12185000D01*
X17510000Y-9730000D02*
X17660000Y-9580000D01*
X17510000Y-9430000D01*
X17360000Y-9580000D01*
X17510000Y-9730000D01*
X17764000Y-8632000D02*
X17914000Y-8482000D01*
X17764000Y-8332000D01*
X17614000Y-8482000D01*
X17764000Y-8632000D01*
X18009471Y-11433044D02*
X18159471Y-11283044D01*
X18009471Y-11133044D01*
X17859471Y-11283044D01*
X18009471Y-11433044D01*
X18546941Y-11855970D02*
X18696941Y-11705970D01*
X18546941Y-11555970D01*
X18396941Y-11705970D01*
X18546941Y-11855970D01*
X19019121Y-4452150D02*
X19169121Y-4302150D01*
X19019121Y-4152150D01*
X18869121Y-4302150D01*
X19019121Y-4452150D01*
X19020000Y-6360000D02*
X19170000Y-6210000D01*
X19020000Y-6060000D01*
X18870000Y-6210000D01*
X19020000Y-6360000D01*
X19020000Y-8260000D02*
X19170000Y-8110000D01*
X19020000Y-7960000D01*
X18870000Y-8110000D01*
X19020000Y-8260000D01*
X19020000Y-10160000D02*
X19170000Y-10010000D01*
X19020000Y-9860000D01*
X18870000Y-10010000D01*
X19020000Y-10160000D01*
X19138121Y-3828150D02*
X19288121Y-3678150D01*
X19138121Y-3528150D01*
X18988121Y-3678150D01*
X19138121Y-3828150D01*
X19139000Y-5736000D02*
X19289000Y-5586000D01*
X19139000Y-5436000D01*
X18989000Y-5586000D01*
X19139000Y-5736000D01*
X19139000Y-7636000D02*
X19289000Y-7486000D01*
X19139000Y-7336000D01*
X18989000Y-7486000D01*
X19139000Y-7636000D01*
X19139000Y-9536000D02*
X19289000Y-9386000D01*
X19139000Y-9236000D01*
X18989000Y-9386000D01*
X19139000Y-9536000D01*
X19519121Y-4672150D02*
X19669121Y-4522150D01*
X19519121Y-4372150D01*
X19369121Y-4522150D01*
X19519121Y-4672150D01*
X19520000Y-6580000D02*
X19670000Y-6430000D01*
X19520000Y-6280000D01*
X19370000Y-6430000D01*
X19520000Y-6580000D01*
X19520000Y-8480000D02*
X19670000Y-8330000D01*
X19520000Y-8180000D01*
X19370000Y-8330000D01*
X19520000Y-8480000D01*
X19520000Y-10380000D02*
X19670000Y-10230000D01*
X19520000Y-10080000D01*
X19370000Y-10230000D01*
X19520000Y-10380000D01*
X19773121Y-3574150D02*
X19923121Y-3424150D01*
X19773121Y-3274150D01*
X19623121Y-3424150D01*
X19773121Y-3574150D01*
X19774000Y-5482000D02*
X19924000Y-5332000D01*
X19774000Y-5182000D01*
X19624000Y-5332000D01*
X19774000Y-5482000D01*
X19774000Y-7382000D02*
X19924000Y-7232000D01*
X19774000Y-7082000D01*
X19624000Y-7232000D01*
X19774000Y-7382000D01*
X19774000Y-9282000D02*
X19924000Y-9132000D01*
X19774000Y-8982000D01*
X19624000Y-9132000D01*
X19774000Y-9282000D01*
X19970000Y-12070000D02*
X20120000Y-11920000D01*
X19970000Y-11770000D01*
X19820000Y-11920000D01*
X19970000Y-12070000D01*
X20089000Y-11446000D02*
X20239000Y-11296000D01*
X20089000Y-11146000D01*
X19939000Y-11296000D01*
X20089000Y-11446000D01*
X20470000Y-12290000D02*
X20620000Y-12140000D01*
X20470000Y-11990000D01*
X20320000Y-12140000D01*
X20470000Y-12290000D01*
X20724000Y-11192000D02*
X20874000Y-11042000D01*
X20724000Y-10892000D01*
X20574000Y-11042000D01*
X20724000Y-11192000D01*
X20918801Y-4212420D02*
X21068801Y-4062420D01*
X20918801Y-3912420D01*
X20768801Y-4062420D01*
X20918801Y-4212420D01*
X20920000Y-6120000D02*
X21070000Y-5970000D01*
X20920000Y-5820000D01*
X20770000Y-5970000D01*
X20920000Y-6120000D01*
X20920000Y-8020000D02*
X21070000Y-7870000D01*
X20920000Y-7720000D01*
X20770000Y-7870000D01*
X20920000Y-8020000D01*
X20920000Y-9930000D02*
X21070000Y-9780000D01*
X20920000Y-9630000D01*
X20770000Y-9780000D01*
X20920000Y-9930000D01*
X21037801Y-3588420D02*
X21187801Y-3438420D01*
X21037801Y-3288420D01*
X20887801Y-3438420D01*
X21037801Y-3588420D01*
X21039000Y-5496000D02*
X21189000Y-5346000D01*
X21039000Y-5196000D01*
X20889000Y-5346000D01*
X21039000Y-5496000D01*
X21039000Y-7396000D02*
X21189000Y-7246000D01*
X21039000Y-7096000D01*
X20889000Y-7246000D01*
X21039000Y-7396000D01*
X21039000Y-9306000D02*
X21189000Y-9156000D01*
X21039000Y-9006000D01*
X20889000Y-9156000D01*
X21039000Y-9306000D01*
X21418801Y-4432420D02*
X21568801Y-4282420D01*
X21418801Y-4132420D01*
X21268801Y-4282420D01*
X21418801Y-4432420D01*
X21420000Y-6340000D02*
X21570000Y-6190000D01*
X21420000Y-6040000D01*
X21270000Y-6190000D01*
X21420000Y-6340000D01*
X21420000Y-8240000D02*
X21570000Y-8090000D01*
X21420000Y-7940000D01*
X21270000Y-8090000D01*
X21420000Y-8240000D01*
X21420000Y-10150000D02*
X21570000Y-10000000D01*
X21420000Y-9850000D01*
X21270000Y-10000000D01*
X21420000Y-10150000D01*
X21672801Y-3334420D02*
X21822801Y-3184420D01*
X21672801Y-3034420D01*
X21522801Y-3184420D01*
X21672801Y-3334420D01*
X21674000Y-5242000D02*
X21824000Y-5092000D01*
X21674000Y-4942000D01*
X21524000Y-5092000D01*
X21674000Y-5242000D01*
X21674000Y-7142000D02*
X21824000Y-6992000D01*
X21674000Y-6842000D01*
X21524000Y-6992000D01*
X21674000Y-7142000D01*
X21674000Y-9052000D02*
X21824000Y-8902000D01*
X21674000Y-8752000D01*
X21524000Y-8902000D01*
X21674000Y-9052000D01*
X21880000Y-11840000D02*
X22030000Y-11690000D01*
X21880000Y-11540000D01*
X21730000Y-11690000D01*
X21880000Y-11840000D01*
X21999000Y-11216000D02*
X22149000Y-11066000D01*
X21999000Y-10916000D01*
X21849000Y-11066000D01*
X21999000Y-11216000D01*
X22380000Y-12060000D02*
X22530000Y-11910000D01*
X22380000Y-11760000D01*
X22230000Y-11910000D01*
X22380000Y-12060000D01*
X22634000Y-10962000D02*
X22784000Y-10812000D01*
X22634000Y-10662000D01*
X22484000Y-10812000D01*
X22634000Y-10962000D01*
X22830000Y-3980000D02*
X22980000Y-3830000D01*
X22830000Y-3680000D01*
X22680000Y-3830000D01*
X22830000Y-3980000D01*
X22830000Y-5880000D02*
X22980000Y-5730000D01*
X22830000Y-5580000D01*
X22680000Y-5730000D01*
X22830000Y-5880000D01*
X22830000Y-7790000D02*
X22980000Y-7640000D01*
X22830000Y-7490000D01*
X22680000Y-7640000D01*
X22830000Y-7790000D01*
X22830000Y-9690000D02*
X22980000Y-9540000D01*
X22830000Y-9390000D01*
X22680000Y-9540000D01*
X22830000Y-9690000D01*
X22949000Y-3356000D02*
X23099000Y-3206000D01*
X22949000Y-3056000D01*
X22799000Y-3206000D01*
X22949000Y-3356000D01*
X22949000Y-5256000D02*
X23099000Y-5106000D01*
X22949000Y-4956000D01*
X22799000Y-5106000D01*
X22949000Y-5256000D01*
X22949000Y-7166000D02*
X23099000Y-7016000D01*
X22949000Y-6866000D01*
X22799000Y-7016000D01*
X22949000Y-7166000D01*
X22949000Y-9066000D02*
X23099000Y-8916000D01*
X22949000Y-8766000D01*
X22799000Y-8916000D01*
X22949000Y-9066000D01*
X23330000Y-4200000D02*
X23480000Y-4050000D01*
X23330000Y-3900000D01*
X23180000Y-4050000D01*
X23330000Y-4200000D01*
X23330000Y-6100000D02*
X23480000Y-5950000D01*
X23330000Y-5800000D01*
X23180000Y-5950000D01*
X23330000Y-6100000D01*
X23330000Y-8010000D02*
X23480000Y-7860000D01*
X23330000Y-7710000D01*
X23180000Y-7860000D01*
X23330000Y-8010000D01*
X23330000Y-9910000D02*
X23480000Y-9760000D01*
X23330000Y-9610000D01*
X23180000Y-9760000D01*
X23330000Y-9910000D01*
X23584000Y-3102000D02*
X23734000Y-2952000D01*
X23584000Y-2802000D01*
X23434000Y-2952000D01*
X23584000Y-3102000D01*
X23584000Y-5002000D02*
X23734000Y-4852000D01*
X23584000Y-4702000D01*
X23434000Y-4852000D01*
X23584000Y-5002000D01*
X23584000Y-6912000D02*
X23734000Y-6762000D01*
X23584000Y-6612000D01*
X23434000Y-6762000D01*
X23584000Y-6912000D01*
X23584000Y-8812000D02*
X23734000Y-8662000D01*
X23584000Y-8512000D01*
X23434000Y-8662000D01*
X23584000Y-8812000D01*
X23780000Y-11840000D02*
X23930000Y-11690000D01*
X23780000Y-11540000D01*
X23630000Y-11690000D01*
X23780000Y-11840000D01*
X23899000Y-11216000D02*
X24049000Y-11066000D01*
X23899000Y-10916000D01*
X23749000Y-11066000D01*
X23899000Y-11216000D01*
X24280000Y-12060000D02*
X24430000Y-11910000D01*
X24280000Y-11760000D01*
X24130000Y-11910000D01*
X24280000Y-12060000D01*
X24534000Y-10962000D02*
X24684000Y-10812000D01*
X24534000Y-10662000D01*
X24384000Y-10812000D01*
X24534000Y-10962000D01*
X24730000Y-4210000D02*
X24880000Y-4060000D01*
X24730000Y-3910000D01*
X24580000Y-4060000D01*
X24730000Y-4210000D01*
X24730000Y-6120000D02*
X24880000Y-5970000D01*
X24730000Y-5820000D01*
X24580000Y-5970000D01*
X24730000Y-6120000D01*
X24730000Y-8020000D02*
X24880000Y-7870000D01*
X24730000Y-7720000D01*
X24580000Y-7870000D01*
X24730000Y-8020000D01*
X24730000Y-9930000D02*
X24880000Y-9780000D01*
X24730000Y-9630000D01*
X24580000Y-9780000D01*
X24730000Y-9930000D01*
X24849000Y-3586000D02*
X24999000Y-3436000D01*
X24849000Y-3286000D01*
X24699000Y-3436000D01*
X24849000Y-3586000D01*
X24849000Y-5496000D02*
X24999000Y-5346000D01*
X24849000Y-5196000D01*
X24699000Y-5346000D01*
X24849000Y-5496000D01*
X24849000Y-7396000D02*
X24999000Y-7246000D01*
X24849000Y-7096000D01*
X24699000Y-7246000D01*
X24849000Y-7396000D01*
X24849000Y-9306000D02*
X24999000Y-9156000D01*
X24849000Y-9006000D01*
X24699000Y-9156000D01*
X24849000Y-9306000D01*
X25230000Y-4430000D02*
X25380000Y-4280000D01*
X25230000Y-4130000D01*
X25080000Y-4280000D01*
X25230000Y-4430000D01*
X25230000Y-6340000D02*
X25380000Y-6190000D01*
X25230000Y-6040000D01*
X25080000Y-6190000D01*
X25230000Y-6340000D01*
X25230000Y-8240000D02*
X25380000Y-8090000D01*
X25230000Y-7940000D01*
X25080000Y-8090000D01*
X25230000Y-8240000D01*
X25230000Y-10150000D02*
X25380000Y-10000000D01*
X25230000Y-9850000D01*
X25080000Y-10000000D01*
X25230000Y-10150000D01*
X25484000Y-3332000D02*
X25634000Y-3182000D01*
X25484000Y-3032000D01*
X25334000Y-3182000D01*
X25484000Y-3332000D01*
X25484000Y-5242000D02*
X25634000Y-5092000D01*
X25484000Y-4942000D01*
X25334000Y-5092000D01*
X25484000Y-5242000D01*
X25484000Y-7142000D02*
X25634000Y-6992000D01*
X25484000Y-6842000D01*
X25334000Y-6992000D01*
X25484000Y-7142000D01*
X25484000Y-9052000D02*
X25634000Y-8902000D01*
X25484000Y-8752000D01*
X25334000Y-8902000D01*
X25484000Y-9052000D01*
X26640000Y-4690000D02*
X26790000Y-4540000D01*
X26640000Y-4390000D01*
X26490000Y-4540000D01*
X26640000Y-4690000D01*
X26640000Y-6590000D02*
X26790000Y-6440000D01*
X26640000Y-6290000D01*
X26490000Y-6440000D01*
X26640000Y-6590000D01*
X26640000Y-8490000D02*
X26790000Y-8340000D01*
X26640000Y-8190000D01*
X26490000Y-8340000D01*
X26640000Y-8490000D01*
X26640000Y-10400000D02*
X26790000Y-10250000D01*
X26640000Y-10100000D01*
X26490000Y-10250000D01*
X26640000Y-10400000D01*
X26759000Y-4066000D02*
X26909000Y-3916000D01*
X26759000Y-3766000D01*
X26609000Y-3916000D01*
X26759000Y-4066000D01*
X26759000Y-5966000D02*
X26909000Y-5816000D01*
X26759000Y-5666000D01*
X26609000Y-5816000D01*
X26759000Y-5966000D01*
X26759000Y-7866000D02*
X26909000Y-7716000D01*
X26759000Y-7566000D01*
X26609000Y-7716000D01*
X26759000Y-7866000D01*
X26759000Y-9776000D02*
X26909000Y-9626000D01*
X26759000Y-9476000D01*
X26609000Y-9626000D01*
X26759000Y-9776000D01*
X27140000Y-4910000D02*
X27290000Y-4760000D01*
X27140000Y-4610000D01*
X26990000Y-4760000D01*
X27140000Y-4910000D01*
X27140000Y-6810000D02*
X27290000Y-6660000D01*
X27140000Y-6510000D01*
X26990000Y-6660000D01*
X27140000Y-6810000D01*
X27140000Y-8710000D02*
X27290000Y-8560000D01*
X27140000Y-8410000D01*
X26990000Y-8560000D01*
X27140000Y-8710000D01*
X27140000Y-10620000D02*
X27290000Y-10470000D01*
X27140000Y-10320000D01*
X26990000Y-10470000D01*
X27140000Y-10620000D01*
X27394000Y-3812000D02*
X27544000Y-3662000D01*
X27394000Y-3512000D01*
X27244000Y-3662000D01*
X27394000Y-3812000D01*
X27394000Y-5712000D02*
X27544000Y-5562000D01*
X27394000Y-5412000D01*
X27244000Y-5562000D01*
X27394000Y-5712000D01*
X27394000Y-7612000D02*
X27544000Y-7462000D01*
X27394000Y-7312000D01*
X27244000Y-7462000D01*
X27394000Y-7612000D01*
X27394000Y-9522000D02*
X27544000Y-9372000D01*
X27394000Y-9222000D01*
X27244000Y-9372000D01*
X27394000Y-9522000D01*
X28540000Y-4930000D02*
X28690000Y-4780000D01*
X28540000Y-4630000D01*
X28390000Y-4780000D01*
X28540000Y-4930000D01*
X28540000Y-6830000D02*
X28690000Y-6680000D01*
X28540000Y-6530000D01*
X28390000Y-6680000D01*
X28540000Y-6830000D01*
X28540000Y-8730000D02*
X28690000Y-8580000D01*
X28540000Y-8430000D01*
X28390000Y-8580000D01*
X28540000Y-8730000D01*
X28540000Y-10640000D02*
X28690000Y-10490000D01*
X28540000Y-10340000D01*
X28390000Y-10490000D01*
X28540000Y-10640000D01*
X28659000Y-4306000D02*
X28809000Y-4156000D01*
X28659000Y-4006000D01*
X28509000Y-4156000D01*
X28659000Y-4306000D01*
X28659000Y-6206000D02*
X28809000Y-6056000D01*
X28659000Y-5906000D01*
X28509000Y-6056000D01*
X28659000Y-6206000D01*
X28659000Y-8106000D02*
X28809000Y-7956000D01*
X28659000Y-7806000D01*
X28509000Y-7956000D01*
X28659000Y-8106000D01*
X28659000Y-10016000D02*
X28809000Y-9866000D01*
X28659000Y-9716000D01*
X28509000Y-9866000D01*
X28659000Y-10016000D01*
X29040000Y-5150000D02*
X29190000Y-5000000D01*
X29040000Y-4850000D01*
X28890000Y-5000000D01*
X29040000Y-5150000D01*
X29040000Y-7050000D02*
X29190000Y-6900000D01*
X29040000Y-6750000D01*
X28890000Y-6900000D01*
X29040000Y-7050000D01*
X29040000Y-8950000D02*
X29190000Y-8800000D01*
X29040000Y-8650000D01*
X28890000Y-8800000D01*
X29040000Y-8950000D01*
X29040000Y-10860000D02*
X29190000Y-10710000D01*
X29040000Y-10560000D01*
X28890000Y-10710000D01*
X29040000Y-10860000D01*
X29294000Y-4052000D02*
X29444000Y-3902000D01*
X29294000Y-3752000D01*
X29144000Y-3902000D01*
X29294000Y-4052000D01*
X29294000Y-5952000D02*
X29444000Y-5802000D01*
X29294000Y-5652000D01*
X29144000Y-5802000D01*
X29294000Y-5952000D01*
X29294000Y-7852000D02*
X29444000Y-7702000D01*
X29294000Y-7552000D01*
X29144000Y-7702000D01*
X29294000Y-7852000D01*
X29294000Y-9762000D02*
X29444000Y-9612000D01*
X29294000Y-9462000D01*
X29144000Y-9612000D01*
X29294000Y-9762000D01*
D17*
X3352000Y-9916000D02*
X3752000Y-10316000D01*
X3752000Y-9916000D02*
X3352000Y-10316000D01*
X3752000Y-10116000D02*
G75*
G03*
X3752000Y-10116000I-200000J0D01*
G01*
X3353000Y-4213000D02*
X3753000Y-4613000D01*
X3753000Y-4213000D02*
X3353000Y-4613000D01*
X3753000Y-4413000D02*
G75*
G03*
X3753000Y-4413000I-200000J0D01*
G01*
X3353000Y-6114000D02*
X3753000Y-6514000D01*
X3753000Y-6114000D02*
X3353000Y-6514000D01*
X3753000Y-6314000D02*
G75*
G03*
X3753000Y-6314000I-200000J0D01*
G01*
X3354000Y-8008000D02*
X3754000Y-8408000D01*
X3754000Y-8008000D02*
X3354000Y-8408000D01*
X3754000Y-8208000D02*
G75*
G03*
X3754000Y-8208000I-200000J0D01*
G01*
X5256000Y-5870000D02*
X5656000Y-6270000D01*
X5656000Y-5870000D02*
X5256000Y-6270000D01*
X5656000Y-6070000D02*
G75*
G03*
X5656000Y-6070000I-200000J0D01*
G01*
X5257000Y-9682000D02*
X5657000Y-10082000D01*
X5657000Y-9682000D02*
X5257000Y-10082000D01*
X5657000Y-9882000D02*
G75*
G03*
X5657000Y-9882000I-200000J0D01*
G01*
X5258000Y-7773000D02*
X5658000Y-8173000D01*
X5658000Y-7773000D02*
X5258000Y-8173000D01*
X5658000Y-7973000D02*
G75*
G03*
X5658000Y-7973000I-200000J0D01*
G01*
X5259000Y-3969000D02*
X5659000Y-4369000D01*
X5659000Y-3969000D02*
X5259000Y-4369000D01*
X5659000Y-4169000D02*
G75*
G03*
X5659000Y-4169000I-200000J0D01*
G01*
X7159000Y-9200000D02*
X7559000Y-9600000D01*
X7559000Y-9200000D02*
X7159000Y-9600000D01*
X7559000Y-9400000D02*
G75*
G03*
X7559000Y-9400000I-200000J0D01*
G01*
X7161000Y-5398000D02*
X7561000Y-5798000D01*
X7561000Y-5398000D02*
X7161000Y-5798000D01*
X7561000Y-5598000D02*
G75*
G03*
X7561000Y-5598000I-200000J0D01*
G01*
X7161000Y-7297000D02*
X7561000Y-7697000D01*
X7561000Y-7297000D02*
X7161000Y-7697000D01*
X7561000Y-7497000D02*
G75*
G03*
X7561000Y-7497000I-200000J0D01*
G01*
X7163000Y-3498000D02*
X7563000Y-3898000D01*
X7563000Y-3498000D02*
X7163000Y-3898000D01*
X7563000Y-3698000D02*
G75*
G03*
X7563000Y-3698000I-200000J0D01*
G01*
X8116000Y-11109000D02*
X8516000Y-11509000D01*
X8516000Y-11109000D02*
X8116000Y-11509000D01*
X8516000Y-11309000D02*
G75*
G03*
X8516000Y-11309000I-200000J0D01*
G01*
X9062000Y-8967000D02*
X9462000Y-9367000D01*
X9462000Y-8967000D02*
X9062000Y-9367000D01*
X9462000Y-9167000D02*
G75*
G03*
X9462000Y-9167000I-200000J0D01*
G01*
X9064000Y-7058000D02*
X9464000Y-7458000D01*
X9464000Y-7058000D02*
X9064000Y-7458000D01*
X9464000Y-7258000D02*
G75*
G03*
X9464000Y-7258000I-200000J0D01*
G01*
X9065000Y-3253000D02*
X9465000Y-3653000D01*
X9465000Y-3253000D02*
X9065000Y-3653000D01*
X9465000Y-3453000D02*
G75*
G03*
X9465000Y-3453000I-200000J0D01*
G01*
X9065000Y-5158000D02*
X9465000Y-5558000D01*
X9465000Y-5158000D02*
X9065000Y-5558000D01*
X9465000Y-5358000D02*
G75*
G03*
X9465000Y-5358000I-200000J0D01*
G01*
X10019000Y-11110000D02*
X10419000Y-11510000D01*
X10419000Y-11110000D02*
X10019000Y-11510000D01*
X10419000Y-11310000D02*
G75*
G03*
X10419000Y-11310000I-200000J0D01*
G01*
X10965000Y-5396000D02*
X11365000Y-5796000D01*
X11365000Y-5396000D02*
X10965000Y-5796000D01*
X11365000Y-5596000D02*
G75*
G03*
X11365000Y-5596000I-200000J0D01*
G01*
X10966000Y-3496000D02*
X11366000Y-3896000D01*
X11366000Y-3496000D02*
X10966000Y-3896000D01*
X11366000Y-3696000D02*
G75*
G03*
X11366000Y-3696000I-200000J0D01*
G01*
X10966000Y-7295000D02*
X11366000Y-7695000D01*
X11366000Y-7295000D02*
X10966000Y-7695000D01*
X11366000Y-7495000D02*
G75*
G03*
X11366000Y-7495000I-200000J0D01*
G01*
X10966000Y-9200000D02*
X11366000Y-9600000D01*
X11366000Y-9200000D02*
X10966000Y-9600000D01*
X11366000Y-9400000D02*
G75*
G03*
X11366000Y-9400000I-200000J0D01*
G01*
X11922000Y-11351000D02*
X12322000Y-11751000D01*
X12322000Y-11351000D02*
X11922000Y-11751000D01*
X12322000Y-11551000D02*
G75*
G03*
X12322000Y-11551000I-200000J0D01*
G01*
X12869000Y-3735000D02*
X13269000Y-4135000D01*
X13269000Y-3735000D02*
X12869000Y-4135000D01*
X13269000Y-3935000D02*
G75*
G03*
X13269000Y-3935000I-200000J0D01*
G01*
X12869000Y-9437000D02*
X13269000Y-9837000D01*
X13269000Y-9437000D02*
X12869000Y-9837000D01*
X13269000Y-9637000D02*
G75*
G03*
X13269000Y-9637000I-200000J0D01*
G01*
X12870000Y-5634000D02*
X13270000Y-6034000D01*
X13270000Y-5634000D02*
X12870000Y-6034000D01*
X13270000Y-5834000D02*
G75*
G03*
X13270000Y-5834000I-200000J0D01*
G01*
X12870000Y-7534000D02*
X13270000Y-7934000D01*
X13270000Y-7534000D02*
X12870000Y-7934000D01*
X13270000Y-7734000D02*
G75*
G03*
X13270000Y-7734000I-200000J0D01*
G01*
X14412000Y-11536000D02*
X14812000Y-11936000D01*
X14812000Y-11536000D02*
X14412000Y-11936000D01*
X14812000Y-11736000D02*
G75*
G03*
X14812000Y-11736000I-200000J0D01*
G01*
X14880000Y-8787000D02*
X15280000Y-9187000D01*
X15280000Y-8787000D02*
X14880000Y-9187000D01*
X15280000Y-8987000D02*
G75*
G03*
X15280000Y-8987000I-200000J0D01*
G01*
X17310000Y-8790000D02*
X17710000Y-9190000D01*
X17710000Y-8790000D02*
X17310000Y-9190000D01*
X17710000Y-8990000D02*
G75*
G03*
X17710000Y-8990000I-200000J0D01*
G01*
X17780000Y-11540000D02*
X18180000Y-11940000D01*
X18180000Y-11540000D02*
X17780000Y-11940000D01*
X18180000Y-11740000D02*
G75*
G03*
X18180000Y-11740000I-200000J0D01*
G01*
X19319121Y-3732150D02*
X19719121Y-4132150D01*
X19719121Y-3732150D02*
X19319121Y-4132150D01*
X19719121Y-3932150D02*
G75*
G03*
X19719121Y-3932150I-200000J0D01*
G01*
X19320000Y-5640000D02*
X19720000Y-6040000D01*
X19720000Y-5640000D02*
X19320000Y-6040000D01*
X19720000Y-5840000D02*
G75*
G03*
X19720000Y-5840000I-200000J0D01*
G01*
X19320000Y-7540000D02*
X19720000Y-7940000D01*
X19720000Y-7540000D02*
X19320000Y-7940000D01*
X19720000Y-7740000D02*
G75*
G03*
X19720000Y-7740000I-200000J0D01*
G01*
X19320000Y-9440000D02*
X19720000Y-9840000D01*
X19720000Y-9440000D02*
X19320000Y-9840000D01*
X19720000Y-9640000D02*
G75*
G03*
X19720000Y-9640000I-200000J0D01*
G01*
X20270000Y-11350000D02*
X20670000Y-11750000D01*
X20670000Y-11350000D02*
X20270000Y-11750000D01*
X20670000Y-11550000D02*
G75*
G03*
X20670000Y-11550000I-200000J0D01*
G01*
X21218801Y-3492420D02*
X21618801Y-3892420D01*
X21618801Y-3492420D02*
X21218801Y-3892420D01*
X21618801Y-3692420D02*
G75*
G03*
X21618801Y-3692420I-200000J0D01*
G01*
X21220000Y-5400000D02*
X21620000Y-5800000D01*
X21620000Y-5400000D02*
X21220000Y-5800000D01*
X21620000Y-5600000D02*
G75*
G03*
X21620000Y-5600000I-200000J0D01*
G01*
X21220000Y-7300000D02*
X21620000Y-7700000D01*
X21620000Y-7300000D02*
X21220000Y-7700000D01*
X21620000Y-7500000D02*
G75*
G03*
X21620000Y-7500000I-200000J0D01*
G01*
X21220000Y-9210000D02*
X21620000Y-9610000D01*
X21620000Y-9210000D02*
X21220000Y-9610000D01*
X21620000Y-9410000D02*
G75*
G03*
X21620000Y-9410000I-200000J0D01*
G01*
X22180000Y-11120000D02*
X22580000Y-11520000D01*
X22580000Y-11120000D02*
X22180000Y-11520000D01*
X22580000Y-11320000D02*
G75*
G03*
X22580000Y-11320000I-200000J0D01*
G01*
X23130000Y-3260000D02*
X23530000Y-3660000D01*
X23530000Y-3260000D02*
X23130000Y-3660000D01*
X23530000Y-3460000D02*
G75*
G03*
X23530000Y-3460000I-200000J0D01*
G01*
X23130000Y-5160000D02*
X23530000Y-5560000D01*
X23530000Y-5160000D02*
X23130000Y-5560000D01*
X23530000Y-5360000D02*
G75*
G03*
X23530000Y-5360000I-200000J0D01*
G01*
X23130000Y-7070000D02*
X23530000Y-7470000D01*
X23530000Y-7070000D02*
X23130000Y-7470000D01*
X23530000Y-7270000D02*
G75*
G03*
X23530000Y-7270000I-200000J0D01*
G01*
X23130000Y-8970000D02*
X23530000Y-9370000D01*
X23530000Y-8970000D02*
X23130000Y-9370000D01*
X23530000Y-9170000D02*
G75*
G03*
X23530000Y-9170000I-200000J0D01*
G01*
X24080000Y-11120000D02*
X24480000Y-11520000D01*
X24480000Y-11120000D02*
X24080000Y-11520000D01*
X24480000Y-11320000D02*
G75*
G03*
X24480000Y-11320000I-200000J0D01*
G01*
X25030000Y-3490000D02*
X25430000Y-3890000D01*
X25430000Y-3490000D02*
X25030000Y-3890000D01*
X25430000Y-3690000D02*
G75*
G03*
X25430000Y-3690000I-200000J0D01*
G01*
X25030000Y-5400000D02*
X25430000Y-5800000D01*
X25430000Y-5400000D02*
X25030000Y-5800000D01*
X25430000Y-5600000D02*
G75*
G03*
X25430000Y-5600000I-200000J0D01*
G01*
X25030000Y-7300000D02*
X25430000Y-7700000D01*
X25430000Y-7300000D02*
X25030000Y-7700000D01*
X25430000Y-7500000D02*
G75*
G03*
X25430000Y-7500000I-200000J0D01*
G01*
X25030000Y-9210000D02*
X25430000Y-9610000D01*
X25430000Y-9210000D02*
X25030000Y-9610000D01*
X25430000Y-9410000D02*
G75*
G03*
X25430000Y-9410000I-200000J0D01*
G01*
X26940000Y-3970000D02*
X27340000Y-4370000D01*
X27340000Y-3970000D02*
X26940000Y-4370000D01*
X27340000Y-4170000D02*
G75*
G03*
X27340000Y-4170000I-200000J0D01*
G01*
X26940000Y-5870000D02*
X27340000Y-6270000D01*
X27340000Y-5870000D02*
X26940000Y-6270000D01*
X27340000Y-6070000D02*
G75*
G03*
X27340000Y-6070000I-200000J0D01*
G01*
X26940000Y-7770000D02*
X27340000Y-8170000D01*
X27340000Y-7770000D02*
X26940000Y-8170000D01*
X27340000Y-7970000D02*
G75*
G03*
X27340000Y-7970000I-200000J0D01*
G01*
X26940000Y-9680000D02*
X27340000Y-10080000D01*
X27340000Y-9680000D02*
X26940000Y-10080000D01*
X27340000Y-9880000D02*
G75*
G03*
X27340000Y-9880000I-200000J0D01*
G01*
X28840000Y-4210000D02*
X29240000Y-4610000D01*
X29240000Y-4210000D02*
X28840000Y-4610000D01*
X29240000Y-4410000D02*
G75*
G03*
X29240000Y-4410000I-200000J0D01*
G01*
X28840000Y-6110000D02*
X29240000Y-6510000D01*
X29240000Y-6110000D02*
X28840000Y-6510000D01*
X29240000Y-6310000D02*
G75*
G03*
X29240000Y-6310000I-200000J0D01*
G01*
X28840000Y-8010000D02*
X29240000Y-8410000D01*
X29240000Y-8010000D02*
X28840000Y-8410000D01*
X29240000Y-8210000D02*
G75*
G03*
X29240000Y-8210000I-200000J0D01*
G01*
X28840000Y-9920000D02*
X29240000Y-10320000D01*
X29240000Y-9920000D02*
X28840000Y-10320000D01*
X29240000Y-10120000D02*
G75*
G03*
X29240000Y-10120000I-200000J0D01*
G01*
D11*
X2748995Y-13574687D02*
X2748995Y-13374687D01*
X2796614Y-13374687D01*
X2825185Y-13384211D01*
X2844233Y-13403259D01*
X2853757Y-13422307D01*
X2863281Y-13460402D01*
X2863281Y-13488973D01*
X2853757Y-13527068D01*
X2844233Y-13546116D01*
X2825185Y-13565164D01*
X2796614Y-13574687D01*
X2748995Y-13574687D01*
X2948995Y-13574687D02*
X2948995Y-13441354D01*
X2948995Y-13479449D02*
X2958519Y-13460402D01*
X2968042Y-13450878D01*
X2987090Y-13441354D01*
X3006138Y-13441354D01*
X3072804Y-13574687D02*
X3072804Y-13441354D01*
X3072804Y-13374687D02*
X3063281Y-13384211D01*
X3072804Y-13393735D01*
X3082328Y-13384211D01*
X3072804Y-13374687D01*
X3072804Y-13393735D01*
X3196614Y-13574687D02*
X3177566Y-13565164D01*
X3168042Y-13546116D01*
X3168042Y-13374687D01*
X3301376Y-13574687D02*
X3282328Y-13565164D01*
X3272804Y-13546116D01*
X3272804Y-13374687D01*
X3529947Y-13574687D02*
X3529947Y-13374687D01*
X3596614Y-13517545D01*
X3663281Y-13374687D01*
X3663281Y-13574687D01*
X3844233Y-13574687D02*
X3844233Y-13469926D01*
X3834709Y-13450878D01*
X3815662Y-13441354D01*
X3777566Y-13441354D01*
X3758519Y-13450878D01*
X3844233Y-13565164D02*
X3825185Y-13574687D01*
X3777566Y-13574687D01*
X3758519Y-13565164D01*
X3748995Y-13546116D01*
X3748995Y-13527068D01*
X3758519Y-13508021D01*
X3777566Y-13498497D01*
X3825185Y-13498497D01*
X3844233Y-13488973D01*
X3939471Y-13441354D02*
X3939471Y-13641354D01*
X3939471Y-13450878D02*
X3958519Y-13441354D01*
X3996614Y-13441354D01*
X4015662Y-13450878D01*
X4025185Y-13460402D01*
X4034709Y-13479449D01*
X4034709Y-13536592D01*
X4025185Y-13555640D01*
X4015662Y-13565164D01*
X3996614Y-13574687D01*
X3958519Y-13574687D01*
X3939471Y-13565164D01*
X4120423Y-13555640D02*
X4129947Y-13565164D01*
X4120423Y-13574687D01*
X4110900Y-13565164D01*
X4120423Y-13555640D01*
X4120423Y-13574687D01*
X4120423Y-13450878D02*
X4129947Y-13460402D01*
X4120423Y-13469926D01*
X4110900Y-13460402D01*
X4120423Y-13450878D01*
X4120423Y-13469926D01*
D12*
X2481376Y-13899211D02*
X2491376Y-13909211D01*
X2491376Y-13899211D02*
X2481376Y-13909211D01*
D11*
X2787090Y-13794687D02*
X2806138Y-13794687D01*
X2825185Y-13804211D01*
X2834709Y-13813735D01*
X2844233Y-13832783D01*
X2853757Y-13870878D01*
X2853757Y-13918497D01*
X2844233Y-13956592D01*
X2834709Y-13975640D01*
X2825185Y-13985164D01*
X2806138Y-13994687D01*
X2787090Y-13994687D01*
X2768043Y-13985164D01*
X2758519Y-13975640D01*
X2748995Y-13956592D01*
X2739471Y-13918497D01*
X2739471Y-13870878D01*
X2748995Y-13832783D01*
X2758519Y-13813735D01*
X2768043Y-13804211D01*
X2787090Y-13794687D01*
X2939471Y-13975640D02*
X2948995Y-13985164D01*
X2939471Y-13994687D01*
X2929947Y-13985164D01*
X2939471Y-13975640D01*
X2939471Y-13994687D01*
X3139471Y-13994687D02*
X3025185Y-13994687D01*
X3082328Y-13994687D02*
X3082328Y-13794687D01*
X3063281Y-13823259D01*
X3044233Y-13842307D01*
X3025185Y-13851830D01*
X3263281Y-13794687D02*
X3282328Y-13794687D01*
X3301376Y-13804211D01*
X3310900Y-13813735D01*
X3320423Y-13832783D01*
X3329947Y-13870878D01*
X3329947Y-13918497D01*
X3320423Y-13956592D01*
X3310900Y-13975640D01*
X3301376Y-13985164D01*
X3282328Y-13994687D01*
X3263281Y-13994687D01*
X3244233Y-13985164D01*
X3234709Y-13975640D01*
X3225185Y-13956592D01*
X3215662Y-13918497D01*
X3215662Y-13870878D01*
X3225185Y-13832783D01*
X3234709Y-13813735D01*
X3244233Y-13804211D01*
X3263281Y-13794687D01*
X3453757Y-13794687D02*
X3472804Y-13794687D01*
X3491852Y-13804211D01*
X3501376Y-13813735D01*
X3510900Y-13832783D01*
X3520423Y-13870878D01*
X3520423Y-13918497D01*
X3510900Y-13956592D01*
X3501376Y-13975640D01*
X3491852Y-13985164D01*
X3472804Y-13994687D01*
X3453757Y-13994687D01*
X3434709Y-13985164D01*
X3425185Y-13975640D01*
X3415662Y-13956592D01*
X3406138Y-13918497D01*
X3406138Y-13870878D01*
X3415662Y-13832783D01*
X3425185Y-13813735D01*
X3434709Y-13804211D01*
X3453757Y-13794687D01*
X3606138Y-13994687D02*
X3606138Y-13861354D01*
X3606138Y-13880402D02*
X3615662Y-13870878D01*
X3634709Y-13861354D01*
X3663281Y-13861354D01*
X3682328Y-13870878D01*
X3691852Y-13889926D01*
X3691852Y-13994687D01*
X3691852Y-13889926D02*
X3701376Y-13870878D01*
X3720423Y-13861354D01*
X3748995Y-13861354D01*
X3768042Y-13870878D01*
X3777566Y-13889926D01*
X3777566Y-13994687D01*
X3872804Y-13994687D02*
X3872804Y-13861354D01*
X3872804Y-13880402D02*
X3882328Y-13870878D01*
X3901376Y-13861354D01*
X3929947Y-13861354D01*
X3948995Y-13870878D01*
X3958519Y-13889926D01*
X3958519Y-13994687D01*
X3958519Y-13889926D02*
X3968042Y-13870878D01*
X3987090Y-13861354D01*
X4015662Y-13861354D01*
X4034709Y-13870878D01*
X4044233Y-13889926D01*
X4044233Y-13994687D01*
X4434709Y-13785164D02*
X4263281Y-14042307D01*
X4691852Y-13794687D02*
X4710900Y-13794687D01*
X4729947Y-13804211D01*
X4739471Y-13813735D01*
X4748995Y-13832783D01*
X4758519Y-13870878D01*
X4758519Y-13918497D01*
X4748995Y-13956592D01*
X4739471Y-13975640D01*
X4729947Y-13985164D01*
X4710900Y-13994687D01*
X4691852Y-13994687D01*
X4672804Y-13985164D01*
X4663281Y-13975640D01*
X4653757Y-13956592D01*
X4644233Y-13918497D01*
X4644233Y-13870878D01*
X4653757Y-13832783D01*
X4663281Y-13813735D01*
X4672804Y-13804211D01*
X4691852Y-13794687D01*
X4844233Y-13975640D02*
X4853757Y-13985164D01*
X4844233Y-13994687D01*
X4834709Y-13985164D01*
X4844233Y-13975640D01*
X4844233Y-13994687D01*
X4977566Y-13794687D02*
X4996614Y-13794687D01*
X5015662Y-13804211D01*
X5025185Y-13813735D01*
X5034709Y-13832783D01*
X5044233Y-13870878D01*
X5044233Y-13918497D01*
X5034709Y-13956592D01*
X5025185Y-13975640D01*
X5015662Y-13985164D01*
X4996614Y-13994687D01*
X4977566Y-13994687D01*
X4958519Y-13985164D01*
X4948995Y-13975640D01*
X4939471Y-13956592D01*
X4929947Y-13918497D01*
X4929947Y-13870878D01*
X4939471Y-13832783D01*
X4948995Y-13813735D01*
X4958519Y-13804211D01*
X4977566Y-13794687D01*
X5168043Y-13794687D02*
X5187090Y-13794687D01*
X5206138Y-13804211D01*
X5215662Y-13813735D01*
X5225185Y-13832783D01*
X5234709Y-13870878D01*
X5234709Y-13918497D01*
X5225185Y-13956592D01*
X5215662Y-13975640D01*
X5206138Y-13985164D01*
X5187090Y-13994687D01*
X5168043Y-13994687D01*
X5148995Y-13985164D01*
X5139471Y-13975640D01*
X5129947Y-13956592D01*
X5120424Y-13918497D01*
X5120424Y-13870878D01*
X5129947Y-13832783D01*
X5139471Y-13813735D01*
X5148995Y-13804211D01*
X5168043Y-13794687D01*
X5301376Y-13794687D02*
X5425185Y-13794687D01*
X5358519Y-13870878D01*
X5387090Y-13870878D01*
X5406138Y-13880402D01*
X5415662Y-13889926D01*
X5425185Y-13908973D01*
X5425185Y-13956592D01*
X5415662Y-13975640D01*
X5406138Y-13985164D01*
X5387090Y-13994687D01*
X5329947Y-13994687D01*
X5310900Y-13985164D01*
X5301376Y-13975640D01*
X5520424Y-13994687D02*
X5558519Y-13994687D01*
X5577566Y-13985164D01*
X5587090Y-13975640D01*
X5606138Y-13947068D01*
X5615662Y-13908973D01*
X5615662Y-13832783D01*
X5606138Y-13813735D01*
X5596614Y-13804211D01*
X5577566Y-13794687D01*
X5539471Y-13794687D01*
X5520424Y-13804211D01*
X5510900Y-13813735D01*
X5501376Y-13832783D01*
X5501376Y-13880402D01*
X5510900Y-13899449D01*
X5520424Y-13908973D01*
X5539471Y-13918497D01*
X5577566Y-13918497D01*
X5596614Y-13908973D01*
X5606138Y-13899449D01*
X5615662Y-13880402D01*
X5691852Y-13794687D02*
X5691852Y-13832783D01*
X5768042Y-13794687D02*
X5768042Y-13832783D01*
X6063281Y-14070878D02*
X6053757Y-14061354D01*
X6034709Y-14032783D01*
X6025185Y-14013735D01*
X6015662Y-13985164D01*
X6006138Y-13937545D01*
X6006138Y-13899449D01*
X6015662Y-13851830D01*
X6025185Y-13823259D01*
X6034709Y-13804211D01*
X6053757Y-13775640D01*
X6063281Y-13766116D01*
X6234709Y-13794687D02*
X6139471Y-13794687D01*
X6129947Y-13889926D01*
X6139471Y-13880402D01*
X6158519Y-13870878D01*
X6206138Y-13870878D01*
X6225185Y-13880402D01*
X6234709Y-13889926D01*
X6244233Y-13908973D01*
X6244233Y-13956592D01*
X6234709Y-13975640D01*
X6225185Y-13985164D01*
X6206138Y-13994687D01*
X6158519Y-13994687D01*
X6139471Y-13985164D01*
X6129947Y-13975640D01*
X6358519Y-13880402D02*
X6339471Y-13870878D01*
X6329947Y-13861354D01*
X6320423Y-13842307D01*
X6320423Y-13832783D01*
X6329947Y-13813735D01*
X6339471Y-13804211D01*
X6358519Y-13794687D01*
X6396614Y-13794687D01*
X6415662Y-13804211D01*
X6425185Y-13813735D01*
X6434709Y-13832783D01*
X6434709Y-13842307D01*
X6425185Y-13861354D01*
X6415662Y-13870878D01*
X6396614Y-13880402D01*
X6358519Y-13880402D01*
X6339471Y-13889926D01*
X6329947Y-13899449D01*
X6320423Y-13918497D01*
X6320423Y-13956592D01*
X6329947Y-13975640D01*
X6339471Y-13985164D01*
X6358519Y-13994687D01*
X6396614Y-13994687D01*
X6415662Y-13985164D01*
X6425185Y-13975640D01*
X6434709Y-13956592D01*
X6434709Y-13918497D01*
X6425185Y-13899449D01*
X6415662Y-13889926D01*
X6396614Y-13880402D01*
X6672804Y-13994687D02*
X6672804Y-13794687D01*
X6758519Y-13994687D02*
X6758519Y-13889926D01*
X6748995Y-13870878D01*
X6729947Y-13861354D01*
X6701376Y-13861354D01*
X6682328Y-13870878D01*
X6672804Y-13880402D01*
X6882328Y-13994687D02*
X6863281Y-13985164D01*
X6853757Y-13975640D01*
X6844233Y-13956592D01*
X6844233Y-13899449D01*
X6853757Y-13880402D01*
X6863281Y-13870878D01*
X6882328Y-13861354D01*
X6910900Y-13861354D01*
X6929947Y-13870878D01*
X6939471Y-13880402D01*
X6948995Y-13899449D01*
X6948995Y-13956592D01*
X6939471Y-13975640D01*
X6929947Y-13985164D01*
X6910900Y-13994687D01*
X6882328Y-13994687D01*
X7063281Y-13994687D02*
X7044233Y-13985164D01*
X7034709Y-13966116D01*
X7034709Y-13794687D01*
X7215662Y-13985164D02*
X7196614Y-13994687D01*
X7158519Y-13994687D01*
X7139471Y-13985164D01*
X7129947Y-13966116D01*
X7129947Y-13889926D01*
X7139471Y-13870878D01*
X7158519Y-13861354D01*
X7196614Y-13861354D01*
X7215662Y-13870878D01*
X7225185Y-13889926D01*
X7225185Y-13908973D01*
X7129947Y-13928021D01*
X7301376Y-13985164D02*
X7320423Y-13994687D01*
X7358519Y-13994687D01*
X7377566Y-13985164D01*
X7387090Y-13966116D01*
X7387090Y-13956592D01*
X7377566Y-13937545D01*
X7358519Y-13928021D01*
X7329947Y-13928021D01*
X7310900Y-13918497D01*
X7301376Y-13899449D01*
X7301376Y-13889926D01*
X7310900Y-13870878D01*
X7329947Y-13861354D01*
X7358519Y-13861354D01*
X7377566Y-13870878D01*
X7453757Y-14070878D02*
X7463281Y-14061354D01*
X7482328Y-14032783D01*
X7491852Y-14013735D01*
X7501376Y-13985164D01*
X7510900Y-13937545D01*
X7510900Y-13899449D01*
X7501376Y-13851830D01*
X7491852Y-13823259D01*
X7482328Y-13804211D01*
X7463281Y-13775640D01*
X7453757Y-13766116D01*
X7815662Y-14070878D02*
X7806138Y-14061354D01*
X7787090Y-14032783D01*
X7777566Y-14013735D01*
X7768042Y-13985164D01*
X7758519Y-13937545D01*
X7758519Y-13899449D01*
X7768042Y-13851830D01*
X7777566Y-13823259D01*
X7787090Y-13804211D01*
X7806138Y-13775640D01*
X7815662Y-13766116D01*
X7891852Y-13861354D02*
X7891852Y-13994687D01*
X7891852Y-13880402D02*
X7901376Y-13870878D01*
X7920423Y-13861354D01*
X7948995Y-13861354D01*
X7968042Y-13870878D01*
X7977566Y-13889926D01*
X7977566Y-13994687D01*
X8101376Y-13994687D02*
X8082328Y-13985164D01*
X8072804Y-13975640D01*
X8063281Y-13956592D01*
X8063281Y-13899449D01*
X8072804Y-13880402D01*
X8082328Y-13870878D01*
X8101376Y-13861354D01*
X8129947Y-13861354D01*
X8148995Y-13870878D01*
X8158519Y-13880402D01*
X8168042Y-13899449D01*
X8168042Y-13956592D01*
X8158519Y-13975640D01*
X8148995Y-13985164D01*
X8129947Y-13994687D01*
X8101376Y-13994687D01*
X8225185Y-13861354D02*
X8301376Y-13861354D01*
X8253757Y-13794687D02*
X8253757Y-13966116D01*
X8263281Y-13985164D01*
X8282328Y-13994687D01*
X8301376Y-13994687D01*
X8520424Y-13861354D02*
X8520424Y-14061354D01*
X8520424Y-13870878D02*
X8539471Y-13861354D01*
X8577566Y-13861354D01*
X8596614Y-13870878D01*
X8606138Y-13880402D01*
X8615662Y-13899449D01*
X8615662Y-13956592D01*
X8606138Y-13975640D01*
X8596614Y-13985164D01*
X8577566Y-13994687D01*
X8539471Y-13994687D01*
X8520424Y-13985164D01*
X8729947Y-13994687D02*
X8710900Y-13985164D01*
X8701376Y-13966116D01*
X8701376Y-13794687D01*
X8891852Y-13994687D02*
X8891852Y-13889926D01*
X8882328Y-13870878D01*
X8863281Y-13861354D01*
X8825185Y-13861354D01*
X8806138Y-13870878D01*
X8891852Y-13985164D02*
X8872804Y-13994687D01*
X8825185Y-13994687D01*
X8806138Y-13985164D01*
X8796614Y-13966116D01*
X8796614Y-13947068D01*
X8806138Y-13928021D01*
X8825185Y-13918497D01*
X8872804Y-13918497D01*
X8891852Y-13908973D01*
X8958519Y-13861354D02*
X9034709Y-13861354D01*
X8987090Y-13794687D02*
X8987090Y-13966116D01*
X8996614Y-13985164D01*
X9015662Y-13994687D01*
X9034709Y-13994687D01*
X9177566Y-13985164D02*
X9158519Y-13994687D01*
X9120424Y-13994687D01*
X9101376Y-13985164D01*
X9091852Y-13966116D01*
X9091852Y-13889926D01*
X9101376Y-13870878D01*
X9120424Y-13861354D01*
X9158519Y-13861354D01*
X9177566Y-13870878D01*
X9187090Y-13889926D01*
X9187090Y-13908973D01*
X9091852Y-13928021D01*
X9358519Y-13994687D02*
X9358519Y-13794687D01*
X9358519Y-13985164D02*
X9339471Y-13994687D01*
X9301376Y-13994687D01*
X9282328Y-13985164D01*
X9272804Y-13975640D01*
X9263281Y-13956592D01*
X9263281Y-13899449D01*
X9272804Y-13880402D01*
X9282328Y-13870878D01*
X9301376Y-13861354D01*
X9339471Y-13861354D01*
X9358519Y-13870878D01*
X9434709Y-14070878D02*
X9444233Y-14061354D01*
X9463281Y-14032783D01*
X9472804Y-14013735D01*
X9482328Y-13985164D01*
X9491852Y-13937545D01*
X9491852Y-13899449D01*
X9482328Y-13851830D01*
X9472804Y-13823259D01*
X9463281Y-13804211D01*
X9444233Y-13775640D01*
X9434709Y-13766116D01*
D13*
X2491376Y-14168211D02*
G75*
G03*
X2491376Y-14168211I-45000J0D01*
G01*
D11*
X2787090Y-14058687D02*
X2806138Y-14058687D01*
X2825185Y-14068211D01*
X2834709Y-14077735D01*
X2844233Y-14096783D01*
X2853757Y-14134878D01*
X2853757Y-14182497D01*
X2844233Y-14220592D01*
X2834709Y-14239640D01*
X2825185Y-14249164D01*
X2806138Y-14258687D01*
X2787090Y-14258687D01*
X2768043Y-14249164D01*
X2758519Y-14239640D01*
X2748995Y-14220592D01*
X2739471Y-14182497D01*
X2739471Y-14134878D01*
X2748995Y-14096783D01*
X2758519Y-14077735D01*
X2768043Y-14068211D01*
X2787090Y-14058687D01*
X2939471Y-14239640D02*
X2948995Y-14249164D01*
X2939471Y-14258687D01*
X2929947Y-14249164D01*
X2939471Y-14239640D01*
X2939471Y-14258687D01*
X3044233Y-14258687D02*
X3082328Y-14258687D01*
X3101376Y-14249164D01*
X3110900Y-14239640D01*
X3129947Y-14211068D01*
X3139471Y-14172973D01*
X3139471Y-14096783D01*
X3129947Y-14077735D01*
X3120423Y-14068211D01*
X3101376Y-14058687D01*
X3063281Y-14058687D01*
X3044233Y-14068211D01*
X3034709Y-14077735D01*
X3025185Y-14096783D01*
X3025185Y-14144402D01*
X3034709Y-14163449D01*
X3044233Y-14172973D01*
X3063281Y-14182497D01*
X3101376Y-14182497D01*
X3120423Y-14172973D01*
X3129947Y-14163449D01*
X3139471Y-14144402D01*
X3263281Y-14058687D02*
X3282328Y-14058687D01*
X3301376Y-14068211D01*
X3310900Y-14077735D01*
X3320423Y-14096783D01*
X3329947Y-14134878D01*
X3329947Y-14182497D01*
X3320423Y-14220592D01*
X3310900Y-14239640D01*
X3301376Y-14249164D01*
X3282328Y-14258687D01*
X3263281Y-14258687D01*
X3244233Y-14249164D01*
X3234709Y-14239640D01*
X3225185Y-14220592D01*
X3215662Y-14182497D01*
X3215662Y-14134878D01*
X3225185Y-14096783D01*
X3234709Y-14077735D01*
X3244233Y-14068211D01*
X3263281Y-14058687D01*
X3453757Y-14058687D02*
X3472804Y-14058687D01*
X3491852Y-14068211D01*
X3501376Y-14077735D01*
X3510900Y-14096783D01*
X3520423Y-14134878D01*
X3520423Y-14182497D01*
X3510900Y-14220592D01*
X3501376Y-14239640D01*
X3491852Y-14249164D01*
X3472804Y-14258687D01*
X3453757Y-14258687D01*
X3434709Y-14249164D01*
X3425185Y-14239640D01*
X3415662Y-14220592D01*
X3406138Y-14182497D01*
X3406138Y-14134878D01*
X3415662Y-14096783D01*
X3425185Y-14077735D01*
X3434709Y-14068211D01*
X3453757Y-14058687D01*
X3606138Y-14258687D02*
X3606138Y-14125354D01*
X3606138Y-14144402D02*
X3615662Y-14134878D01*
X3634709Y-14125354D01*
X3663281Y-14125354D01*
X3682328Y-14134878D01*
X3691852Y-14153926D01*
X3691852Y-14258687D01*
X3691852Y-14153926D02*
X3701376Y-14134878D01*
X3720423Y-14125354D01*
X3748995Y-14125354D01*
X3768042Y-14134878D01*
X3777566Y-14153926D01*
X3777566Y-14258687D01*
X3872804Y-14258687D02*
X3872804Y-14125354D01*
X3872804Y-14144402D02*
X3882328Y-14134878D01*
X3901376Y-14125354D01*
X3929947Y-14125354D01*
X3948995Y-14134878D01*
X3958519Y-14153926D01*
X3958519Y-14258687D01*
X3958519Y-14153926D02*
X3968042Y-14134878D01*
X3987090Y-14125354D01*
X4015662Y-14125354D01*
X4034709Y-14134878D01*
X4044233Y-14153926D01*
X4044233Y-14258687D01*
X4434709Y-14049164D02*
X4263281Y-14306307D01*
X4691852Y-14058687D02*
X4710900Y-14058687D01*
X4729947Y-14068211D01*
X4739471Y-14077735D01*
X4748995Y-14096783D01*
X4758519Y-14134878D01*
X4758519Y-14182497D01*
X4748995Y-14220592D01*
X4739471Y-14239640D01*
X4729947Y-14249164D01*
X4710900Y-14258687D01*
X4691852Y-14258687D01*
X4672804Y-14249164D01*
X4663281Y-14239640D01*
X4653757Y-14220592D01*
X4644233Y-14182497D01*
X4644233Y-14134878D01*
X4653757Y-14096783D01*
X4663281Y-14077735D01*
X4672804Y-14068211D01*
X4691852Y-14058687D01*
X4844233Y-14239640D02*
X4853757Y-14249164D01*
X4844233Y-14258687D01*
X4834709Y-14249164D01*
X4844233Y-14239640D01*
X4844233Y-14258687D01*
X4977566Y-14058687D02*
X4996614Y-14058687D01*
X5015662Y-14068211D01*
X5025185Y-14077735D01*
X5034709Y-14096783D01*
X5044233Y-14134878D01*
X5044233Y-14182497D01*
X5034709Y-14220592D01*
X5025185Y-14239640D01*
X5015662Y-14249164D01*
X4996614Y-14258687D01*
X4977566Y-14258687D01*
X4958519Y-14249164D01*
X4948995Y-14239640D01*
X4939471Y-14220592D01*
X4929947Y-14182497D01*
X4929947Y-14134878D01*
X4939471Y-14096783D01*
X4948995Y-14077735D01*
X4958519Y-14068211D01*
X4977566Y-14058687D01*
X5110900Y-14058687D02*
X5234709Y-14058687D01*
X5168043Y-14134878D01*
X5196614Y-14134878D01*
X5215662Y-14144402D01*
X5225185Y-14153926D01*
X5234709Y-14172973D01*
X5234709Y-14220592D01*
X5225185Y-14239640D01*
X5215662Y-14249164D01*
X5196614Y-14258687D01*
X5139471Y-14258687D01*
X5120424Y-14249164D01*
X5110900Y-14239640D01*
X5415662Y-14058687D02*
X5320424Y-14058687D01*
X5310900Y-14153926D01*
X5320424Y-14144402D01*
X5339471Y-14134878D01*
X5387090Y-14134878D01*
X5406138Y-14144402D01*
X5415662Y-14153926D01*
X5425185Y-14172973D01*
X5425185Y-14220592D01*
X5415662Y-14239640D01*
X5406138Y-14249164D01*
X5387090Y-14258687D01*
X5339471Y-14258687D01*
X5320424Y-14249164D01*
X5310900Y-14239640D01*
X5596614Y-14125354D02*
X5596614Y-14258687D01*
X5548995Y-14049164D02*
X5501376Y-14192021D01*
X5625185Y-14192021D01*
X5691852Y-14058687D02*
X5691852Y-14096783D01*
X5768042Y-14058687D02*
X5768042Y-14096783D01*
X6063281Y-14334878D02*
X6053757Y-14325354D01*
X6034709Y-14296783D01*
X6025185Y-14277735D01*
X6015662Y-14249164D01*
X6006138Y-14201545D01*
X6006138Y-14163449D01*
X6015662Y-14115830D01*
X6025185Y-14087259D01*
X6034709Y-14068211D01*
X6053757Y-14039640D01*
X6063281Y-14030116D01*
X6225185Y-14125354D02*
X6225185Y-14258687D01*
X6177566Y-14049164D02*
X6129947Y-14192021D01*
X6253757Y-14192021D01*
X6482328Y-14258687D02*
X6482328Y-14058687D01*
X6568042Y-14258687D02*
X6568042Y-14153926D01*
X6558519Y-14134878D01*
X6539471Y-14125354D01*
X6510900Y-14125354D01*
X6491852Y-14134878D01*
X6482328Y-14144402D01*
X6691852Y-14258687D02*
X6672804Y-14249164D01*
X6663281Y-14239640D01*
X6653757Y-14220592D01*
X6653757Y-14163449D01*
X6663281Y-14144402D01*
X6672804Y-14134878D01*
X6691852Y-14125354D01*
X6720423Y-14125354D01*
X6739471Y-14134878D01*
X6748995Y-14144402D01*
X6758519Y-14163449D01*
X6758519Y-14220592D01*
X6748995Y-14239640D01*
X6739471Y-14249164D01*
X6720423Y-14258687D01*
X6691852Y-14258687D01*
X6872804Y-14258687D02*
X6853757Y-14249164D01*
X6844233Y-14230116D01*
X6844233Y-14058687D01*
X7025185Y-14249164D02*
X7006138Y-14258687D01*
X6968042Y-14258687D01*
X6948995Y-14249164D01*
X6939471Y-14230116D01*
X6939471Y-14153926D01*
X6948995Y-14134878D01*
X6968042Y-14125354D01*
X7006138Y-14125354D01*
X7025185Y-14134878D01*
X7034709Y-14153926D01*
X7034709Y-14172973D01*
X6939471Y-14192021D01*
X7110900Y-14249164D02*
X7129947Y-14258687D01*
X7168042Y-14258687D01*
X7187090Y-14249164D01*
X7196614Y-14230116D01*
X7196614Y-14220592D01*
X7187090Y-14201545D01*
X7168042Y-14192021D01*
X7139471Y-14192021D01*
X7120423Y-14182497D01*
X7110900Y-14163449D01*
X7110900Y-14153926D01*
X7120423Y-14134878D01*
X7139471Y-14125354D01*
X7168042Y-14125354D01*
X7187090Y-14134878D01*
X7263281Y-14334878D02*
X7272804Y-14325354D01*
X7291852Y-14296783D01*
X7301376Y-14277735D01*
X7310900Y-14249164D01*
X7320423Y-14201545D01*
X7320423Y-14163449D01*
X7310900Y-14115830D01*
X7301376Y-14087259D01*
X7291852Y-14068211D01*
X7272804Y-14039640D01*
X7263281Y-14030116D01*
X7625185Y-14334878D02*
X7615662Y-14325354D01*
X7596614Y-14296783D01*
X7587090Y-14277735D01*
X7577566Y-14249164D01*
X7568042Y-14201545D01*
X7568042Y-14163449D01*
X7577566Y-14115830D01*
X7587090Y-14087259D01*
X7596614Y-14068211D01*
X7615662Y-14039640D01*
X7625185Y-14030116D01*
X7701376Y-14125354D02*
X7701376Y-14258687D01*
X7701376Y-14144402D02*
X7710900Y-14134878D01*
X7729947Y-14125354D01*
X7758519Y-14125354D01*
X7777566Y-14134878D01*
X7787090Y-14153926D01*
X7787090Y-14258687D01*
X7910900Y-14258687D02*
X7891852Y-14249164D01*
X7882328Y-14239640D01*
X7872804Y-14220592D01*
X7872804Y-14163449D01*
X7882328Y-14144402D01*
X7891852Y-14134878D01*
X7910900Y-14125354D01*
X7939471Y-14125354D01*
X7958519Y-14134878D01*
X7968042Y-14144402D01*
X7977566Y-14163449D01*
X7977566Y-14220592D01*
X7968042Y-14239640D01*
X7958519Y-14249164D01*
X7939471Y-14258687D01*
X7910900Y-14258687D01*
X8034709Y-14125354D02*
X8110900Y-14125354D01*
X8063281Y-14058687D02*
X8063281Y-14230116D01*
X8072804Y-14249164D01*
X8091852Y-14258687D01*
X8110900Y-14258687D01*
X8329947Y-14125354D02*
X8329947Y-14325354D01*
X8329947Y-14134878D02*
X8348995Y-14125354D01*
X8387090Y-14125354D01*
X8406138Y-14134878D01*
X8415662Y-14144402D01*
X8425185Y-14163449D01*
X8425185Y-14220592D01*
X8415662Y-14239640D01*
X8406138Y-14249164D01*
X8387090Y-14258687D01*
X8348995Y-14258687D01*
X8329947Y-14249164D01*
X8539471Y-14258687D02*
X8520424Y-14249164D01*
X8510900Y-14230116D01*
X8510900Y-14058687D01*
X8701376Y-14258687D02*
X8701376Y-14153926D01*
X8691852Y-14134878D01*
X8672804Y-14125354D01*
X8634709Y-14125354D01*
X8615662Y-14134878D01*
X8701376Y-14249164D02*
X8682328Y-14258687D01*
X8634709Y-14258687D01*
X8615662Y-14249164D01*
X8606138Y-14230116D01*
X8606138Y-14211068D01*
X8615662Y-14192021D01*
X8634709Y-14182497D01*
X8682328Y-14182497D01*
X8701376Y-14172973D01*
X8768043Y-14125354D02*
X8844233Y-14125354D01*
X8796614Y-14058687D02*
X8796614Y-14230116D01*
X8806138Y-14249164D01*
X8825185Y-14258687D01*
X8844233Y-14258687D01*
X8987090Y-14249164D02*
X8968043Y-14258687D01*
X8929947Y-14258687D01*
X8910900Y-14249164D01*
X8901376Y-14230116D01*
X8901376Y-14153926D01*
X8910900Y-14134878D01*
X8929947Y-14125354D01*
X8968043Y-14125354D01*
X8987090Y-14134878D01*
X8996614Y-14153926D01*
X8996614Y-14172973D01*
X8901376Y-14192021D01*
X9168043Y-14258687D02*
X9168043Y-14058687D01*
X9168043Y-14249164D02*
X9148995Y-14258687D01*
X9110900Y-14258687D01*
X9091852Y-14249164D01*
X9082328Y-14239640D01*
X9072804Y-14220592D01*
X9072804Y-14163449D01*
X9082328Y-14144402D01*
X9091852Y-14134878D01*
X9110900Y-14125354D01*
X9148995Y-14125354D01*
X9168043Y-14134878D01*
X9244233Y-14334878D02*
X9253757Y-14325354D01*
X9272804Y-14296783D01*
X9282328Y-14277735D01*
X9291852Y-14249164D01*
X9301376Y-14201545D01*
X9301376Y-14163449D01*
X9291852Y-14115830D01*
X9282328Y-14087259D01*
X9272804Y-14068211D01*
X9253757Y-14039640D01*
X9244233Y-14030116D01*
D14*
X2406376Y-14347211D02*
X2406376Y-14517211D01*
X2321376Y-14432211D02*
X2491376Y-14432211D01*
D11*
X2853757Y-14522687D02*
X2739471Y-14522687D01*
X2796614Y-14522687D02*
X2796614Y-14322687D01*
X2777566Y-14351259D01*
X2758519Y-14370307D01*
X2739471Y-14379830D01*
X2939471Y-14503640D02*
X2948995Y-14513164D01*
X2939471Y-14522687D01*
X2929947Y-14513164D01*
X2939471Y-14503640D01*
X2939471Y-14522687D01*
X3015662Y-14322687D02*
X3148995Y-14322687D01*
X3063281Y-14522687D01*
X3263281Y-14322687D02*
X3282328Y-14322687D01*
X3301376Y-14332211D01*
X3310900Y-14341735D01*
X3320423Y-14360783D01*
X3329947Y-14398878D01*
X3329947Y-14446497D01*
X3320423Y-14484592D01*
X3310900Y-14503640D01*
X3301376Y-14513164D01*
X3282328Y-14522687D01*
X3263281Y-14522687D01*
X3244233Y-14513164D01*
X3234709Y-14503640D01*
X3225185Y-14484592D01*
X3215662Y-14446497D01*
X3215662Y-14398878D01*
X3225185Y-14360783D01*
X3234709Y-14341735D01*
X3244233Y-14332211D01*
X3263281Y-14322687D01*
X3453757Y-14322687D02*
X3472804Y-14322687D01*
X3491852Y-14332211D01*
X3501376Y-14341735D01*
X3510900Y-14360783D01*
X3520423Y-14398878D01*
X3520423Y-14446497D01*
X3510900Y-14484592D01*
X3501376Y-14503640D01*
X3491852Y-14513164D01*
X3472804Y-14522687D01*
X3453757Y-14522687D01*
X3434709Y-14513164D01*
X3425185Y-14503640D01*
X3415662Y-14484592D01*
X3406138Y-14446497D01*
X3406138Y-14398878D01*
X3415662Y-14360783D01*
X3425185Y-14341735D01*
X3434709Y-14332211D01*
X3453757Y-14322687D01*
X3606138Y-14522687D02*
X3606138Y-14389354D01*
X3606138Y-14408402D02*
X3615662Y-14398878D01*
X3634709Y-14389354D01*
X3663281Y-14389354D01*
X3682328Y-14398878D01*
X3691852Y-14417926D01*
X3691852Y-14522687D01*
X3691852Y-14417926D02*
X3701376Y-14398878D01*
X3720423Y-14389354D01*
X3748995Y-14389354D01*
X3768042Y-14398878D01*
X3777566Y-14417926D01*
X3777566Y-14522687D01*
X3872804Y-14522687D02*
X3872804Y-14389354D01*
X3872804Y-14408402D02*
X3882328Y-14398878D01*
X3901376Y-14389354D01*
X3929947Y-14389354D01*
X3948995Y-14398878D01*
X3958519Y-14417926D01*
X3958519Y-14522687D01*
X3958519Y-14417926D02*
X3968042Y-14398878D01*
X3987090Y-14389354D01*
X4015662Y-14389354D01*
X4034709Y-14398878D01*
X4044233Y-14417926D01*
X4044233Y-14522687D01*
X4434709Y-14313164D02*
X4263281Y-14570307D01*
X4691852Y-14322687D02*
X4710900Y-14322687D01*
X4729947Y-14332211D01*
X4739471Y-14341735D01*
X4748995Y-14360783D01*
X4758519Y-14398878D01*
X4758519Y-14446497D01*
X4748995Y-14484592D01*
X4739471Y-14503640D01*
X4729947Y-14513164D01*
X4710900Y-14522687D01*
X4691852Y-14522687D01*
X4672804Y-14513164D01*
X4663281Y-14503640D01*
X4653757Y-14484592D01*
X4644233Y-14446497D01*
X4644233Y-14398878D01*
X4653757Y-14360783D01*
X4663281Y-14341735D01*
X4672804Y-14332211D01*
X4691852Y-14322687D01*
X4844233Y-14503640D02*
X4853757Y-14513164D01*
X4844233Y-14522687D01*
X4834709Y-14513164D01*
X4844233Y-14503640D01*
X4844233Y-14522687D01*
X4977566Y-14322687D02*
X4996614Y-14322687D01*
X5015662Y-14332211D01*
X5025185Y-14341735D01*
X5034709Y-14360783D01*
X5044233Y-14398878D01*
X5044233Y-14446497D01*
X5034709Y-14484592D01*
X5025185Y-14503640D01*
X5015662Y-14513164D01*
X4996614Y-14522687D01*
X4977566Y-14522687D01*
X4958519Y-14513164D01*
X4948995Y-14503640D01*
X4939471Y-14484592D01*
X4929947Y-14446497D01*
X4929947Y-14398878D01*
X4939471Y-14360783D01*
X4948995Y-14341735D01*
X4958519Y-14332211D01*
X4977566Y-14322687D01*
X5215662Y-14322687D02*
X5177566Y-14322687D01*
X5158519Y-14332211D01*
X5148995Y-14341735D01*
X5129947Y-14370307D01*
X5120424Y-14408402D01*
X5120424Y-14484592D01*
X5129947Y-14503640D01*
X5139471Y-14513164D01*
X5158519Y-14522687D01*
X5196614Y-14522687D01*
X5215662Y-14513164D01*
X5225185Y-14503640D01*
X5234709Y-14484592D01*
X5234709Y-14436973D01*
X5225185Y-14417926D01*
X5215662Y-14408402D01*
X5196614Y-14398878D01*
X5158519Y-14398878D01*
X5139471Y-14408402D01*
X5129947Y-14417926D01*
X5120424Y-14436973D01*
X5406138Y-14322687D02*
X5368043Y-14322687D01*
X5348995Y-14332211D01*
X5339471Y-14341735D01*
X5320424Y-14370307D01*
X5310900Y-14408402D01*
X5310900Y-14484592D01*
X5320424Y-14503640D01*
X5329947Y-14513164D01*
X5348995Y-14522687D01*
X5387090Y-14522687D01*
X5406138Y-14513164D01*
X5415662Y-14503640D01*
X5425185Y-14484592D01*
X5425185Y-14436973D01*
X5415662Y-14417926D01*
X5406138Y-14408402D01*
X5387090Y-14398878D01*
X5348995Y-14398878D01*
X5329947Y-14408402D01*
X5320424Y-14417926D01*
X5310900Y-14436973D01*
X5520424Y-14522687D02*
X5558519Y-14522687D01*
X5577566Y-14513164D01*
X5587090Y-14503640D01*
X5606138Y-14475068D01*
X5615662Y-14436973D01*
X5615662Y-14360783D01*
X5606138Y-14341735D01*
X5596614Y-14332211D01*
X5577566Y-14322687D01*
X5539471Y-14322687D01*
X5520424Y-14332211D01*
X5510900Y-14341735D01*
X5501376Y-14360783D01*
X5501376Y-14408402D01*
X5510900Y-14427449D01*
X5520424Y-14436973D01*
X5539471Y-14446497D01*
X5577566Y-14446497D01*
X5596614Y-14436973D01*
X5606138Y-14427449D01*
X5615662Y-14408402D01*
X5691852Y-14322687D02*
X5691852Y-14360783D01*
X5768042Y-14322687D02*
X5768042Y-14360783D01*
X6063281Y-14598878D02*
X6053757Y-14589354D01*
X6034709Y-14560783D01*
X6025185Y-14541735D01*
X6015662Y-14513164D01*
X6006138Y-14465545D01*
X6006138Y-14427449D01*
X6015662Y-14379830D01*
X6025185Y-14351259D01*
X6034709Y-14332211D01*
X6053757Y-14303640D01*
X6063281Y-14294116D01*
X6244233Y-14522687D02*
X6129947Y-14522687D01*
X6187090Y-14522687D02*
X6187090Y-14322687D01*
X6168042Y-14351259D01*
X6148995Y-14370307D01*
X6129947Y-14379830D01*
X6434709Y-14522687D02*
X6320423Y-14522687D01*
X6377566Y-14522687D02*
X6377566Y-14322687D01*
X6358519Y-14351259D01*
X6339471Y-14370307D01*
X6320423Y-14379830D01*
X6606138Y-14322687D02*
X6568042Y-14322687D01*
X6548995Y-14332211D01*
X6539471Y-14341735D01*
X6520423Y-14370307D01*
X6510900Y-14408402D01*
X6510900Y-14484592D01*
X6520423Y-14503640D01*
X6529947Y-14513164D01*
X6548995Y-14522687D01*
X6587090Y-14522687D01*
X6606138Y-14513164D01*
X6615662Y-14503640D01*
X6625185Y-14484592D01*
X6625185Y-14436973D01*
X6615662Y-14417926D01*
X6606138Y-14408402D01*
X6587090Y-14398878D01*
X6548995Y-14398878D01*
X6529947Y-14408402D01*
X6520423Y-14417926D01*
X6510900Y-14436973D01*
X6863281Y-14522687D02*
X6863281Y-14322687D01*
X6948995Y-14522687D02*
X6948995Y-14417926D01*
X6939471Y-14398878D01*
X6920423Y-14389354D01*
X6891852Y-14389354D01*
X6872804Y-14398878D01*
X6863281Y-14408402D01*
X7072804Y-14522687D02*
X7053757Y-14513164D01*
X7044233Y-14503640D01*
X7034709Y-14484592D01*
X7034709Y-14427449D01*
X7044233Y-14408402D01*
X7053757Y-14398878D01*
X7072804Y-14389354D01*
X7101376Y-14389354D01*
X7120423Y-14398878D01*
X7129947Y-14408402D01*
X7139471Y-14427449D01*
X7139471Y-14484592D01*
X7129947Y-14503640D01*
X7120423Y-14513164D01*
X7101376Y-14522687D01*
X7072804Y-14522687D01*
X7253757Y-14522687D02*
X7234709Y-14513164D01*
X7225185Y-14494116D01*
X7225185Y-14322687D01*
X7406138Y-14513164D02*
X7387090Y-14522687D01*
X7348995Y-14522687D01*
X7329947Y-14513164D01*
X7320423Y-14494116D01*
X7320423Y-14417926D01*
X7329947Y-14398878D01*
X7348995Y-14389354D01*
X7387090Y-14389354D01*
X7406138Y-14398878D01*
X7415662Y-14417926D01*
X7415662Y-14436973D01*
X7320423Y-14456021D01*
X7491852Y-14513164D02*
X7510900Y-14522687D01*
X7548995Y-14522687D01*
X7568042Y-14513164D01*
X7577566Y-14494116D01*
X7577566Y-14484592D01*
X7568042Y-14465545D01*
X7548995Y-14456021D01*
X7520423Y-14456021D01*
X7501376Y-14446497D01*
X7491852Y-14427449D01*
X7491852Y-14417926D01*
X7501376Y-14398878D01*
X7520423Y-14389354D01*
X7548995Y-14389354D01*
X7568042Y-14398878D01*
X7644233Y-14598878D02*
X7653757Y-14589354D01*
X7672804Y-14560783D01*
X7682328Y-14541735D01*
X7691852Y-14513164D01*
X7701376Y-14465545D01*
X7701376Y-14427449D01*
X7691852Y-14379830D01*
X7682328Y-14351259D01*
X7672804Y-14332211D01*
X7653757Y-14303640D01*
X7644233Y-14294116D01*
X8006138Y-14598878D02*
X7996614Y-14589354D01*
X7977566Y-14560783D01*
X7968042Y-14541735D01*
X7958519Y-14513164D01*
X7948995Y-14465545D01*
X7948995Y-14427449D01*
X7958519Y-14379830D01*
X7968042Y-14351259D01*
X7977566Y-14332211D01*
X7996614Y-14303640D01*
X8006138Y-14294116D01*
X8082328Y-14389354D02*
X8082328Y-14522687D01*
X8082328Y-14408402D02*
X8091852Y-14398878D01*
X8110900Y-14389354D01*
X8139471Y-14389354D01*
X8158519Y-14398878D01*
X8168042Y-14417926D01*
X8168042Y-14522687D01*
X8291852Y-14522687D02*
X8272804Y-14513164D01*
X8263281Y-14503640D01*
X8253757Y-14484592D01*
X8253757Y-14427449D01*
X8263281Y-14408402D01*
X8272804Y-14398878D01*
X8291852Y-14389354D01*
X8320423Y-14389354D01*
X8339471Y-14398878D01*
X8348995Y-14408402D01*
X8358519Y-14427449D01*
X8358519Y-14484592D01*
X8348995Y-14503640D01*
X8339471Y-14513164D01*
X8320423Y-14522687D01*
X8291852Y-14522687D01*
X8415662Y-14389354D02*
X8491852Y-14389354D01*
X8444233Y-14322687D02*
X8444233Y-14494116D01*
X8453757Y-14513164D01*
X8472804Y-14522687D01*
X8491852Y-14522687D01*
X8710900Y-14389354D02*
X8710900Y-14589354D01*
X8710900Y-14398878D02*
X8729947Y-14389354D01*
X8768043Y-14389354D01*
X8787090Y-14398878D01*
X8796614Y-14408402D01*
X8806138Y-14427449D01*
X8806138Y-14484592D01*
X8796614Y-14503640D01*
X8787090Y-14513164D01*
X8768043Y-14522687D01*
X8729947Y-14522687D01*
X8710900Y-14513164D01*
X8920424Y-14522687D02*
X8901376Y-14513164D01*
X8891852Y-14494116D01*
X8891852Y-14322687D01*
X9082328Y-14522687D02*
X9082328Y-14417926D01*
X9072804Y-14398878D01*
X9053757Y-14389354D01*
X9015662Y-14389354D01*
X8996614Y-14398878D01*
X9082328Y-14513164D02*
X9063281Y-14522687D01*
X9015662Y-14522687D01*
X8996614Y-14513164D01*
X8987090Y-14494116D01*
X8987090Y-14475068D01*
X8996614Y-14456021D01*
X9015662Y-14446497D01*
X9063281Y-14446497D01*
X9082328Y-14436973D01*
X9148995Y-14389354D02*
X9225185Y-14389354D01*
X9177566Y-14322687D02*
X9177566Y-14494116D01*
X9187090Y-14513164D01*
X9206138Y-14522687D01*
X9225185Y-14522687D01*
X9368043Y-14513164D02*
X9348995Y-14522687D01*
X9310900Y-14522687D01*
X9291852Y-14513164D01*
X9282328Y-14494116D01*
X9282328Y-14417926D01*
X9291852Y-14398878D01*
X9310900Y-14389354D01*
X9348995Y-14389354D01*
X9368043Y-14398878D01*
X9377566Y-14417926D01*
X9377566Y-14436973D01*
X9282328Y-14456021D01*
X9548995Y-14522687D02*
X9548995Y-14322687D01*
X9548995Y-14513164D02*
X9529947Y-14522687D01*
X9491852Y-14522687D01*
X9472804Y-14513164D01*
X9463281Y-14503640D01*
X9453757Y-14484592D01*
X9453757Y-14427449D01*
X9463281Y-14408402D01*
X9472804Y-14398878D01*
X9491852Y-14389354D01*
X9529947Y-14389354D01*
X9548995Y-14398878D01*
X9625185Y-14598878D02*
X9634709Y-14589354D01*
X9653757Y-14560783D01*
X9663281Y-14541735D01*
X9672804Y-14513164D01*
X9682328Y-14465545D01*
X9682328Y-14427449D01*
X9672804Y-14379830D01*
X9663281Y-14351259D01*
X9653757Y-14332211D01*
X9634709Y-14303640D01*
X9625185Y-14294116D01*
D15*
X2463552Y-14789387D02*
X2463552Y-14655036D01*
X2329200Y-14655036D01*
X2329200Y-14789387D01*
X2463552Y-14789387D01*
D11*
X2853757Y-14812687D02*
X2739471Y-14812687D01*
X2796614Y-14812687D02*
X2796614Y-14612687D01*
X2777566Y-14641259D01*
X2758519Y-14660307D01*
X2739471Y-14669830D01*
X2939471Y-14793640D02*
X2948995Y-14803164D01*
X2939471Y-14812687D01*
X2929947Y-14803164D01*
X2939471Y-14793640D01*
X2939471Y-14812687D01*
X3044233Y-14812687D02*
X3082328Y-14812687D01*
X3101376Y-14803164D01*
X3110900Y-14793640D01*
X3129947Y-14765068D01*
X3139471Y-14726973D01*
X3139471Y-14650783D01*
X3129947Y-14631735D01*
X3120423Y-14622211D01*
X3101376Y-14612687D01*
X3063281Y-14612687D01*
X3044233Y-14622211D01*
X3034709Y-14631735D01*
X3025185Y-14650783D01*
X3025185Y-14698402D01*
X3034709Y-14717449D01*
X3044233Y-14726973D01*
X3063281Y-14736497D01*
X3101376Y-14736497D01*
X3120423Y-14726973D01*
X3129947Y-14717449D01*
X3139471Y-14698402D01*
X3263281Y-14612687D02*
X3282328Y-14612687D01*
X3301376Y-14622211D01*
X3310900Y-14631735D01*
X3320423Y-14650783D01*
X3329947Y-14688878D01*
X3329947Y-14736497D01*
X3320423Y-14774592D01*
X3310900Y-14793640D01*
X3301376Y-14803164D01*
X3282328Y-14812687D01*
X3263281Y-14812687D01*
X3244233Y-14803164D01*
X3234709Y-14793640D01*
X3225185Y-14774592D01*
X3215662Y-14736497D01*
X3215662Y-14688878D01*
X3225185Y-14650783D01*
X3234709Y-14631735D01*
X3244233Y-14622211D01*
X3263281Y-14612687D01*
X3453757Y-14612687D02*
X3472804Y-14612687D01*
X3491852Y-14622211D01*
X3501376Y-14631735D01*
X3510900Y-14650783D01*
X3520423Y-14688878D01*
X3520423Y-14736497D01*
X3510900Y-14774592D01*
X3501376Y-14793640D01*
X3491852Y-14803164D01*
X3472804Y-14812687D01*
X3453757Y-14812687D01*
X3434709Y-14803164D01*
X3425185Y-14793640D01*
X3415662Y-14774592D01*
X3406138Y-14736497D01*
X3406138Y-14688878D01*
X3415662Y-14650783D01*
X3425185Y-14631735D01*
X3434709Y-14622211D01*
X3453757Y-14612687D01*
X3606138Y-14812687D02*
X3606138Y-14679354D01*
X3606138Y-14698402D02*
X3615662Y-14688878D01*
X3634709Y-14679354D01*
X3663281Y-14679354D01*
X3682328Y-14688878D01*
X3691852Y-14707926D01*
X3691852Y-14812687D01*
X3691852Y-14707926D02*
X3701376Y-14688878D01*
X3720423Y-14679354D01*
X3748995Y-14679354D01*
X3768042Y-14688878D01*
X3777566Y-14707926D01*
X3777566Y-14812687D01*
X3872804Y-14812687D02*
X3872804Y-14679354D01*
X3872804Y-14698402D02*
X3882328Y-14688878D01*
X3901376Y-14679354D01*
X3929947Y-14679354D01*
X3948995Y-14688878D01*
X3958519Y-14707926D01*
X3958519Y-14812687D01*
X3958519Y-14707926D02*
X3968042Y-14688878D01*
X3987090Y-14679354D01*
X4015662Y-14679354D01*
X4034709Y-14688878D01*
X4044233Y-14707926D01*
X4044233Y-14812687D01*
X4434709Y-14603164D02*
X4263281Y-14860307D01*
X4691852Y-14612687D02*
X4710900Y-14612687D01*
X4729947Y-14622211D01*
X4739471Y-14631735D01*
X4748995Y-14650783D01*
X4758519Y-14688878D01*
X4758519Y-14736497D01*
X4748995Y-14774592D01*
X4739471Y-14793640D01*
X4729947Y-14803164D01*
X4710900Y-14812687D01*
X4691852Y-14812687D01*
X4672804Y-14803164D01*
X4663281Y-14793640D01*
X4653757Y-14774592D01*
X4644233Y-14736497D01*
X4644233Y-14688878D01*
X4653757Y-14650783D01*
X4663281Y-14631735D01*
X4672804Y-14622211D01*
X4691852Y-14612687D01*
X4844233Y-14793640D02*
X4853757Y-14803164D01*
X4844233Y-14812687D01*
X4834709Y-14803164D01*
X4844233Y-14793640D01*
X4844233Y-14812687D01*
X4977566Y-14612687D02*
X4996614Y-14612687D01*
X5015662Y-14622211D01*
X5025185Y-14631735D01*
X5034709Y-14650783D01*
X5044233Y-14688878D01*
X5044233Y-14736497D01*
X5034709Y-14774592D01*
X5025185Y-14793640D01*
X5015662Y-14803164D01*
X4996614Y-14812687D01*
X4977566Y-14812687D01*
X4958519Y-14803164D01*
X4948995Y-14793640D01*
X4939471Y-14774592D01*
X4929947Y-14736497D01*
X4929947Y-14688878D01*
X4939471Y-14650783D01*
X4948995Y-14631735D01*
X4958519Y-14622211D01*
X4977566Y-14612687D01*
X5110900Y-14612687D02*
X5244233Y-14612687D01*
X5158519Y-14812687D01*
X5406138Y-14679354D02*
X5406138Y-14812687D01*
X5358519Y-14603164D02*
X5310900Y-14746021D01*
X5434709Y-14746021D01*
X5539471Y-14698402D02*
X5520424Y-14688878D01*
X5510900Y-14679354D01*
X5501376Y-14660307D01*
X5501376Y-14650783D01*
X5510900Y-14631735D01*
X5520424Y-14622211D01*
X5539471Y-14612687D01*
X5577566Y-14612687D01*
X5596614Y-14622211D01*
X5606138Y-14631735D01*
X5615662Y-14650783D01*
X5615662Y-14660307D01*
X5606138Y-14679354D01*
X5596614Y-14688878D01*
X5577566Y-14698402D01*
X5539471Y-14698402D01*
X5520424Y-14707926D01*
X5510900Y-14717449D01*
X5501376Y-14736497D01*
X5501376Y-14774592D01*
X5510900Y-14793640D01*
X5520424Y-14803164D01*
X5539471Y-14812687D01*
X5577566Y-14812687D01*
X5596614Y-14803164D01*
X5606138Y-14793640D01*
X5615662Y-14774592D01*
X5615662Y-14736497D01*
X5606138Y-14717449D01*
X5596614Y-14707926D01*
X5577566Y-14698402D01*
X5691852Y-14612687D02*
X5691852Y-14650783D01*
X5768042Y-14612687D02*
X5768042Y-14650783D01*
X6063281Y-14888878D02*
X6053757Y-14879354D01*
X6034709Y-14850783D01*
X6025185Y-14831735D01*
X6015662Y-14803164D01*
X6006138Y-14755545D01*
X6006138Y-14717449D01*
X6015662Y-14669830D01*
X6025185Y-14641259D01*
X6034709Y-14622211D01*
X6053757Y-14593640D01*
X6063281Y-14584116D01*
X6244233Y-14812687D02*
X6129947Y-14812687D01*
X6187090Y-14812687D02*
X6187090Y-14612687D01*
X6168042Y-14641259D01*
X6148995Y-14660307D01*
X6129947Y-14669830D01*
X6434709Y-14812687D02*
X6320423Y-14812687D01*
X6377566Y-14812687D02*
X6377566Y-14612687D01*
X6358519Y-14641259D01*
X6339471Y-14660307D01*
X6320423Y-14669830D01*
X6606138Y-14612687D02*
X6568042Y-14612687D01*
X6548995Y-14622211D01*
X6539471Y-14631735D01*
X6520423Y-14660307D01*
X6510900Y-14698402D01*
X6510900Y-14774592D01*
X6520423Y-14793640D01*
X6529947Y-14803164D01*
X6548995Y-14812687D01*
X6587090Y-14812687D01*
X6606138Y-14803164D01*
X6615662Y-14793640D01*
X6625185Y-14774592D01*
X6625185Y-14726973D01*
X6615662Y-14707926D01*
X6606138Y-14698402D01*
X6587090Y-14688878D01*
X6548995Y-14688878D01*
X6529947Y-14698402D01*
X6520423Y-14707926D01*
X6510900Y-14726973D01*
X6863281Y-14812687D02*
X6863281Y-14612687D01*
X6948995Y-14812687D02*
X6948995Y-14707926D01*
X6939471Y-14688878D01*
X6920423Y-14679354D01*
X6891852Y-14679354D01*
X6872804Y-14688878D01*
X6863281Y-14698402D01*
X7072804Y-14812687D02*
X7053757Y-14803164D01*
X7044233Y-14793640D01*
X7034709Y-14774592D01*
X7034709Y-14717449D01*
X7044233Y-14698402D01*
X7053757Y-14688878D01*
X7072804Y-14679354D01*
X7101376Y-14679354D01*
X7120423Y-14688878D01*
X7129947Y-14698402D01*
X7139471Y-14717449D01*
X7139471Y-14774592D01*
X7129947Y-14793640D01*
X7120423Y-14803164D01*
X7101376Y-14812687D01*
X7072804Y-14812687D01*
X7253757Y-14812687D02*
X7234709Y-14803164D01*
X7225185Y-14784116D01*
X7225185Y-14612687D01*
X7406138Y-14803164D02*
X7387090Y-14812687D01*
X7348995Y-14812687D01*
X7329947Y-14803164D01*
X7320423Y-14784116D01*
X7320423Y-14707926D01*
X7329947Y-14688878D01*
X7348995Y-14679354D01*
X7387090Y-14679354D01*
X7406138Y-14688878D01*
X7415662Y-14707926D01*
X7415662Y-14726973D01*
X7320423Y-14746021D01*
X7491852Y-14803164D02*
X7510900Y-14812687D01*
X7548995Y-14812687D01*
X7568042Y-14803164D01*
X7577566Y-14784116D01*
X7577566Y-14774592D01*
X7568042Y-14755545D01*
X7548995Y-14746021D01*
X7520423Y-14746021D01*
X7501376Y-14736497D01*
X7491852Y-14717449D01*
X7491852Y-14707926D01*
X7501376Y-14688878D01*
X7520423Y-14679354D01*
X7548995Y-14679354D01*
X7568042Y-14688878D01*
X7644233Y-14888878D02*
X7653757Y-14879354D01*
X7672804Y-14850783D01*
X7682328Y-14831735D01*
X7691852Y-14803164D01*
X7701376Y-14755545D01*
X7701376Y-14717449D01*
X7691852Y-14669830D01*
X7682328Y-14641259D01*
X7672804Y-14622211D01*
X7653757Y-14593640D01*
X7644233Y-14584116D01*
X8006138Y-14888878D02*
X7996614Y-14879354D01*
X7977566Y-14850783D01*
X7968042Y-14831735D01*
X7958519Y-14803164D01*
X7948995Y-14755545D01*
X7948995Y-14717449D01*
X7958519Y-14669830D01*
X7968042Y-14641259D01*
X7977566Y-14622211D01*
X7996614Y-14593640D01*
X8006138Y-14584116D01*
X8082328Y-14679354D02*
X8082328Y-14812687D01*
X8082328Y-14698402D02*
X8091852Y-14688878D01*
X8110900Y-14679354D01*
X8139471Y-14679354D01*
X8158519Y-14688878D01*
X8168042Y-14707926D01*
X8168042Y-14812687D01*
X8291852Y-14812687D02*
X8272804Y-14803164D01*
X8263281Y-14793640D01*
X8253757Y-14774592D01*
X8253757Y-14717449D01*
X8263281Y-14698402D01*
X8272804Y-14688878D01*
X8291852Y-14679354D01*
X8320423Y-14679354D01*
X8339471Y-14688878D01*
X8348995Y-14698402D01*
X8358519Y-14717449D01*
X8358519Y-14774592D01*
X8348995Y-14793640D01*
X8339471Y-14803164D01*
X8320423Y-14812687D01*
X8291852Y-14812687D01*
X8415662Y-14679354D02*
X8491852Y-14679354D01*
X8444233Y-14612687D02*
X8444233Y-14784116D01*
X8453757Y-14803164D01*
X8472804Y-14812687D01*
X8491852Y-14812687D01*
X8710900Y-14679354D02*
X8710900Y-14879354D01*
X8710900Y-14688878D02*
X8729947Y-14679354D01*
X8768043Y-14679354D01*
X8787090Y-14688878D01*
X8796614Y-14698402D01*
X8806138Y-14717449D01*
X8806138Y-14774592D01*
X8796614Y-14793640D01*
X8787090Y-14803164D01*
X8768043Y-14812687D01*
X8729947Y-14812687D01*
X8710900Y-14803164D01*
X8920424Y-14812687D02*
X8901376Y-14803164D01*
X8891852Y-14784116D01*
X8891852Y-14612687D01*
X9082328Y-14812687D02*
X9082328Y-14707926D01*
X9072804Y-14688878D01*
X9053757Y-14679354D01*
X9015662Y-14679354D01*
X8996614Y-14688878D01*
X9082328Y-14803164D02*
X9063281Y-14812687D01*
X9015662Y-14812687D01*
X8996614Y-14803164D01*
X8987090Y-14784116D01*
X8987090Y-14765068D01*
X8996614Y-14746021D01*
X9015662Y-14736497D01*
X9063281Y-14736497D01*
X9082328Y-14726973D01*
X9148995Y-14679354D02*
X9225185Y-14679354D01*
X9177566Y-14612687D02*
X9177566Y-14784116D01*
X9187090Y-14803164D01*
X9206138Y-14812687D01*
X9225185Y-14812687D01*
X9368043Y-14803164D02*
X9348995Y-14812687D01*
X9310900Y-14812687D01*
X9291852Y-14803164D01*
X9282328Y-14784116D01*
X9282328Y-14707926D01*
X9291852Y-14688878D01*
X9310900Y-14679354D01*
X9348995Y-14679354D01*
X9368043Y-14688878D01*
X9377566Y-14707926D01*
X9377566Y-14726973D01*
X9282328Y-14746021D01*
X9548995Y-14812687D02*
X9548995Y-14612687D01*
X9548995Y-14803164D02*
X9529947Y-14812687D01*
X9491852Y-14812687D01*
X9472804Y-14803164D01*
X9463281Y-14793640D01*
X9453757Y-14774592D01*
X9453757Y-14717449D01*
X9463281Y-14698402D01*
X9472804Y-14688878D01*
X9491852Y-14679354D01*
X9529947Y-14679354D01*
X9548995Y-14688878D01*
X9625185Y-14888878D02*
X9634709Y-14879354D01*
X9653757Y-14850783D01*
X9663281Y-14831735D01*
X9672804Y-14803164D01*
X9682328Y-14755545D01*
X9682328Y-14717449D01*
X9672804Y-14669830D01*
X9663281Y-14641259D01*
X9653757Y-14622211D01*
X9634709Y-14593640D01*
X9625185Y-14584116D01*
X2391376Y-15132211D02*
X2491376Y-15032211D01*
X2391376Y-14932211D01*
X2291376Y-15032211D01*
X2391376Y-15132211D01*
X2729947Y-14922687D02*
X2853757Y-14922687D01*
X2787090Y-14998878D01*
X2815662Y-14998878D01*
X2834709Y-15008402D01*
X2844233Y-15017926D01*
X2853757Y-15036973D01*
X2853757Y-15084592D01*
X2844233Y-15103640D01*
X2834709Y-15113164D01*
X2815662Y-15122687D01*
X2758519Y-15122687D01*
X2739471Y-15113164D01*
X2729947Y-15103640D01*
X2939471Y-15103640D02*
X2948995Y-15113164D01*
X2939471Y-15122687D01*
X2929947Y-15113164D01*
X2939471Y-15103640D01*
X2939471Y-15122687D01*
X3072804Y-14922687D02*
X3091852Y-14922687D01*
X3110900Y-14932211D01*
X3120423Y-14941735D01*
X3129947Y-14960783D01*
X3139471Y-14998878D01*
X3139471Y-15046497D01*
X3129947Y-15084592D01*
X3120423Y-15103640D01*
X3110900Y-15113164D01*
X3091852Y-15122687D01*
X3072804Y-15122687D01*
X3053757Y-15113164D01*
X3044233Y-15103640D01*
X3034709Y-15084592D01*
X3025185Y-15046497D01*
X3025185Y-14998878D01*
X3034709Y-14960783D01*
X3044233Y-14941735D01*
X3053757Y-14932211D01*
X3072804Y-14922687D01*
X3263281Y-14922687D02*
X3282328Y-14922687D01*
X3301376Y-14932211D01*
X3310900Y-14941735D01*
X3320423Y-14960783D01*
X3329947Y-14998878D01*
X3329947Y-15046497D01*
X3320423Y-15084592D01*
X3310900Y-15103640D01*
X3301376Y-15113164D01*
X3282328Y-15122687D01*
X3263281Y-15122687D01*
X3244233Y-15113164D01*
X3234709Y-15103640D01*
X3225185Y-15084592D01*
X3215662Y-15046497D01*
X3215662Y-14998878D01*
X3225185Y-14960783D01*
X3234709Y-14941735D01*
X3244233Y-14932211D01*
X3263281Y-14922687D01*
X3453757Y-14922687D02*
X3472804Y-14922687D01*
X3491852Y-14932211D01*
X3501376Y-14941735D01*
X3510900Y-14960783D01*
X3520423Y-14998878D01*
X3520423Y-15046497D01*
X3510900Y-15084592D01*
X3501376Y-15103640D01*
X3491852Y-15113164D01*
X3472804Y-15122687D01*
X3453757Y-15122687D01*
X3434709Y-15113164D01*
X3425185Y-15103640D01*
X3415662Y-15084592D01*
X3406138Y-15046497D01*
X3406138Y-14998878D01*
X3415662Y-14960783D01*
X3425185Y-14941735D01*
X3434709Y-14932211D01*
X3453757Y-14922687D01*
X3606138Y-15122687D02*
X3606138Y-14989354D01*
X3606138Y-15008402D02*
X3615662Y-14998878D01*
X3634709Y-14989354D01*
X3663281Y-14989354D01*
X3682328Y-14998878D01*
X3691852Y-15017926D01*
X3691852Y-15122687D01*
X3691852Y-15017926D02*
X3701376Y-14998878D01*
X3720423Y-14989354D01*
X3748995Y-14989354D01*
X3768042Y-14998878D01*
X3777566Y-15017926D01*
X3777566Y-15122687D01*
X3872804Y-15122687D02*
X3872804Y-14989354D01*
X3872804Y-15008402D02*
X3882328Y-14998878D01*
X3901376Y-14989354D01*
X3929947Y-14989354D01*
X3948995Y-14998878D01*
X3958519Y-15017926D01*
X3958519Y-15122687D01*
X3958519Y-15017926D02*
X3968042Y-14998878D01*
X3987090Y-14989354D01*
X4015662Y-14989354D01*
X4034709Y-14998878D01*
X4044233Y-15017926D01*
X4044233Y-15122687D01*
X4434709Y-14913164D02*
X4263281Y-15170307D01*
X4691852Y-14922687D02*
X4710900Y-14922687D01*
X4729947Y-14932211D01*
X4739471Y-14941735D01*
X4748995Y-14960783D01*
X4758519Y-14998878D01*
X4758519Y-15046497D01*
X4748995Y-15084592D01*
X4739471Y-15103640D01*
X4729947Y-15113164D01*
X4710900Y-15122687D01*
X4691852Y-15122687D01*
X4672804Y-15113164D01*
X4663281Y-15103640D01*
X4653757Y-15084592D01*
X4644233Y-15046497D01*
X4644233Y-14998878D01*
X4653757Y-14960783D01*
X4663281Y-14941735D01*
X4672804Y-14932211D01*
X4691852Y-14922687D01*
X4844233Y-15103640D02*
X4853757Y-15113164D01*
X4844233Y-15122687D01*
X4834709Y-15113164D01*
X4844233Y-15103640D01*
X4844233Y-15122687D01*
X5044233Y-15122687D02*
X4929947Y-15122687D01*
X4987090Y-15122687D02*
X4987090Y-14922687D01*
X4968043Y-14951259D01*
X4948995Y-14970307D01*
X4929947Y-14979830D01*
X5234709Y-15122687D02*
X5120424Y-15122687D01*
X5177566Y-15122687D02*
X5177566Y-14922687D01*
X5158519Y-14951259D01*
X5139471Y-14970307D01*
X5120424Y-14979830D01*
X5348995Y-15008402D02*
X5329947Y-14998878D01*
X5320424Y-14989354D01*
X5310900Y-14970307D01*
X5310900Y-14960783D01*
X5320424Y-14941735D01*
X5329947Y-14932211D01*
X5348995Y-14922687D01*
X5387090Y-14922687D01*
X5406138Y-14932211D01*
X5415662Y-14941735D01*
X5425185Y-14960783D01*
X5425185Y-14970307D01*
X5415662Y-14989354D01*
X5406138Y-14998878D01*
X5387090Y-15008402D01*
X5348995Y-15008402D01*
X5329947Y-15017926D01*
X5320424Y-15027449D01*
X5310900Y-15046497D01*
X5310900Y-15084592D01*
X5320424Y-15103640D01*
X5329947Y-15113164D01*
X5348995Y-15122687D01*
X5387090Y-15122687D01*
X5406138Y-15113164D01*
X5415662Y-15103640D01*
X5425185Y-15084592D01*
X5425185Y-15046497D01*
X5415662Y-15027449D01*
X5406138Y-15017926D01*
X5387090Y-15008402D01*
X5615662Y-15122687D02*
X5501376Y-15122687D01*
X5558519Y-15122687D02*
X5558519Y-14922687D01*
X5539471Y-14951259D01*
X5520424Y-14970307D01*
X5501376Y-14979830D01*
X5691852Y-14922687D02*
X5691852Y-14960783D01*
X5768042Y-14922687D02*
X5768042Y-14960783D01*
X6063281Y-15198878D02*
X6053757Y-15189354D01*
X6034709Y-15160783D01*
X6025185Y-15141735D01*
X6015662Y-15113164D01*
X6006138Y-15065545D01*
X6006138Y-15027449D01*
X6015662Y-14979830D01*
X6025185Y-14951259D01*
X6034709Y-14932211D01*
X6053757Y-14903640D01*
X6063281Y-14894116D01*
X6129947Y-14941735D02*
X6139471Y-14932211D01*
X6158519Y-14922687D01*
X6206138Y-14922687D01*
X6225185Y-14932211D01*
X6234709Y-14941735D01*
X6244233Y-14960783D01*
X6244233Y-14979830D01*
X6234709Y-15008402D01*
X6120423Y-15122687D01*
X6244233Y-15122687D01*
X6310900Y-14922687D02*
X6434709Y-14922687D01*
X6368042Y-14998878D01*
X6396614Y-14998878D01*
X6415662Y-15008402D01*
X6425185Y-15017926D01*
X6434709Y-15036973D01*
X6434709Y-15084592D01*
X6425185Y-15103640D01*
X6415662Y-15113164D01*
X6396614Y-15122687D01*
X6339471Y-15122687D01*
X6320423Y-15113164D01*
X6310900Y-15103640D01*
X6510900Y-14941735D02*
X6520423Y-14932211D01*
X6539471Y-14922687D01*
X6587090Y-14922687D01*
X6606138Y-14932211D01*
X6615662Y-14941735D01*
X6625185Y-14960783D01*
X6625185Y-14979830D01*
X6615662Y-15008402D01*
X6501376Y-15122687D01*
X6625185Y-15122687D01*
X6863281Y-15122687D02*
X6863281Y-14922687D01*
X6948995Y-15122687D02*
X6948995Y-15017926D01*
X6939471Y-14998878D01*
X6920423Y-14989354D01*
X6891852Y-14989354D01*
X6872804Y-14998878D01*
X6863281Y-15008402D01*
X7072804Y-15122687D02*
X7053757Y-15113164D01*
X7044233Y-15103640D01*
X7034709Y-15084592D01*
X7034709Y-15027449D01*
X7044233Y-15008402D01*
X7053757Y-14998878D01*
X7072804Y-14989354D01*
X7101376Y-14989354D01*
X7120423Y-14998878D01*
X7129947Y-15008402D01*
X7139471Y-15027449D01*
X7139471Y-15084592D01*
X7129947Y-15103640D01*
X7120423Y-15113164D01*
X7101376Y-15122687D01*
X7072804Y-15122687D01*
X7253757Y-15122687D02*
X7234709Y-15113164D01*
X7225185Y-15094116D01*
X7225185Y-14922687D01*
X7406138Y-15113164D02*
X7387090Y-15122687D01*
X7348995Y-15122687D01*
X7329947Y-15113164D01*
X7320423Y-15094116D01*
X7320423Y-15017926D01*
X7329947Y-14998878D01*
X7348995Y-14989354D01*
X7387090Y-14989354D01*
X7406138Y-14998878D01*
X7415662Y-15017926D01*
X7415662Y-15036973D01*
X7320423Y-15056021D01*
X7491852Y-15113164D02*
X7510900Y-15122687D01*
X7548995Y-15122687D01*
X7568042Y-15113164D01*
X7577566Y-15094116D01*
X7577566Y-15084592D01*
X7568042Y-15065545D01*
X7548995Y-15056021D01*
X7520423Y-15056021D01*
X7501376Y-15046497D01*
X7491852Y-15027449D01*
X7491852Y-15017926D01*
X7501376Y-14998878D01*
X7520423Y-14989354D01*
X7548995Y-14989354D01*
X7568042Y-14998878D01*
X7644233Y-15198878D02*
X7653757Y-15189354D01*
X7672804Y-15160783D01*
X7682328Y-15141735D01*
X7691852Y-15113164D01*
X7701376Y-15065545D01*
X7701376Y-15027449D01*
X7691852Y-14979830D01*
X7682328Y-14951259D01*
X7672804Y-14932211D01*
X7653757Y-14903640D01*
X7644233Y-14894116D01*
X8006138Y-15198878D02*
X7996614Y-15189354D01*
X7977566Y-15160783D01*
X7968042Y-15141735D01*
X7958519Y-15113164D01*
X7948995Y-15065545D01*
X7948995Y-15027449D01*
X7958519Y-14979830D01*
X7968042Y-14951259D01*
X7977566Y-14932211D01*
X7996614Y-14903640D01*
X8006138Y-14894116D01*
X8082328Y-14989354D02*
X8082328Y-15122687D01*
X8082328Y-15008402D02*
X8091852Y-14998878D01*
X8110900Y-14989354D01*
X8139471Y-14989354D01*
X8158519Y-14998878D01*
X8168042Y-15017926D01*
X8168042Y-15122687D01*
X8291852Y-15122687D02*
X8272804Y-15113164D01*
X8263281Y-15103640D01*
X8253757Y-15084592D01*
X8253757Y-15027449D01*
X8263281Y-15008402D01*
X8272804Y-14998878D01*
X8291852Y-14989354D01*
X8320423Y-14989354D01*
X8339471Y-14998878D01*
X8348995Y-15008402D01*
X8358519Y-15027449D01*
X8358519Y-15084592D01*
X8348995Y-15103640D01*
X8339471Y-15113164D01*
X8320423Y-15122687D01*
X8291852Y-15122687D01*
X8415662Y-14989354D02*
X8491852Y-14989354D01*
X8444233Y-14922687D02*
X8444233Y-15094116D01*
X8453757Y-15113164D01*
X8472804Y-15122687D01*
X8491852Y-15122687D01*
X8710900Y-14989354D02*
X8710900Y-15189354D01*
X8710900Y-14998878D02*
X8729947Y-14989354D01*
X8768043Y-14989354D01*
X8787090Y-14998878D01*
X8796614Y-15008402D01*
X8806138Y-15027449D01*
X8806138Y-15084592D01*
X8796614Y-15103640D01*
X8787090Y-15113164D01*
X8768043Y-15122687D01*
X8729947Y-15122687D01*
X8710900Y-15113164D01*
X8920424Y-15122687D02*
X8901376Y-15113164D01*
X8891852Y-15094116D01*
X8891852Y-14922687D01*
X9082328Y-15122687D02*
X9082328Y-15017926D01*
X9072804Y-14998878D01*
X9053757Y-14989354D01*
X9015662Y-14989354D01*
X8996614Y-14998878D01*
X9082328Y-15113164D02*
X9063281Y-15122687D01*
X9015662Y-15122687D01*
X8996614Y-15113164D01*
X8987090Y-15094116D01*
X8987090Y-15075068D01*
X8996614Y-15056021D01*
X9015662Y-15046497D01*
X9063281Y-15046497D01*
X9082328Y-15036973D01*
X9148995Y-14989354D02*
X9225185Y-14989354D01*
X9177566Y-14922687D02*
X9177566Y-15094116D01*
X9187090Y-15113164D01*
X9206138Y-15122687D01*
X9225185Y-15122687D01*
X9368043Y-15113164D02*
X9348995Y-15122687D01*
X9310900Y-15122687D01*
X9291852Y-15113164D01*
X9282328Y-15094116D01*
X9282328Y-15017926D01*
X9291852Y-14998878D01*
X9310900Y-14989354D01*
X9348995Y-14989354D01*
X9368043Y-14998878D01*
X9377566Y-15017926D01*
X9377566Y-15036973D01*
X9282328Y-15056021D01*
X9548995Y-15122687D02*
X9548995Y-14922687D01*
X9548995Y-15113164D02*
X9529947Y-15122687D01*
X9491852Y-15122687D01*
X9472804Y-15113164D01*
X9463281Y-15103640D01*
X9453757Y-15084592D01*
X9453757Y-15027449D01*
X9463281Y-15008402D01*
X9472804Y-14998878D01*
X9491852Y-14989354D01*
X9529947Y-14989354D01*
X9548995Y-14998878D01*
X9625185Y-15198878D02*
X9634709Y-15189354D01*
X9653757Y-15160783D01*
X9663281Y-15141735D01*
X9672804Y-15113164D01*
X9682328Y-15065545D01*
X9682328Y-15027449D01*
X9672804Y-14979830D01*
X9663281Y-14951259D01*
X9653757Y-14932211D01*
X9634709Y-14903640D01*
X9625185Y-14894116D01*
X2291376Y-15252211D02*
X2491376Y-15452211D01*
X2491376Y-15252211D02*
X2291376Y-15452211D01*
X2491376Y-15352211D02*
G75*
G03*
X2491376Y-15352211I-100000J0D01*
G01*
X2834709Y-15309354D02*
X2834709Y-15442687D01*
X2787090Y-15233164D02*
X2739471Y-15376021D01*
X2863281Y-15376021D01*
X2939471Y-15423640D02*
X2948995Y-15433164D01*
X2939471Y-15442687D01*
X2929947Y-15433164D01*
X2939471Y-15423640D01*
X2939471Y-15442687D01*
X3072804Y-15242687D02*
X3091852Y-15242687D01*
X3110900Y-15252211D01*
X3120423Y-15261735D01*
X3129947Y-15280783D01*
X3139471Y-15318878D01*
X3139471Y-15366497D01*
X3129947Y-15404592D01*
X3120423Y-15423640D01*
X3110900Y-15433164D01*
X3091852Y-15442687D01*
X3072804Y-15442687D01*
X3053757Y-15433164D01*
X3044233Y-15423640D01*
X3034709Y-15404592D01*
X3025185Y-15366497D01*
X3025185Y-15318878D01*
X3034709Y-15280783D01*
X3044233Y-15261735D01*
X3053757Y-15252211D01*
X3072804Y-15242687D01*
X3263281Y-15242687D02*
X3282328Y-15242687D01*
X3301376Y-15252211D01*
X3310900Y-15261735D01*
X3320423Y-15280783D01*
X3329947Y-15318878D01*
X3329947Y-15366497D01*
X3320423Y-15404592D01*
X3310900Y-15423640D01*
X3301376Y-15433164D01*
X3282328Y-15442687D01*
X3263281Y-15442687D01*
X3244233Y-15433164D01*
X3234709Y-15423640D01*
X3225185Y-15404592D01*
X3215662Y-15366497D01*
X3215662Y-15318878D01*
X3225185Y-15280783D01*
X3234709Y-15261735D01*
X3244233Y-15252211D01*
X3263281Y-15242687D01*
X3453757Y-15242687D02*
X3472804Y-15242687D01*
X3491852Y-15252211D01*
X3501376Y-15261735D01*
X3510900Y-15280783D01*
X3520423Y-15318878D01*
X3520423Y-15366497D01*
X3510900Y-15404592D01*
X3501376Y-15423640D01*
X3491852Y-15433164D01*
X3472804Y-15442687D01*
X3453757Y-15442687D01*
X3434709Y-15433164D01*
X3425185Y-15423640D01*
X3415662Y-15404592D01*
X3406138Y-15366497D01*
X3406138Y-15318878D01*
X3415662Y-15280783D01*
X3425185Y-15261735D01*
X3434709Y-15252211D01*
X3453757Y-15242687D01*
X3606138Y-15442687D02*
X3606138Y-15309354D01*
X3606138Y-15328402D02*
X3615662Y-15318878D01*
X3634709Y-15309354D01*
X3663281Y-15309354D01*
X3682328Y-15318878D01*
X3691852Y-15337926D01*
X3691852Y-15442687D01*
X3691852Y-15337926D02*
X3701376Y-15318878D01*
X3720423Y-15309354D01*
X3748995Y-15309354D01*
X3768042Y-15318878D01*
X3777566Y-15337926D01*
X3777566Y-15442687D01*
X3872804Y-15442687D02*
X3872804Y-15309354D01*
X3872804Y-15328402D02*
X3882328Y-15318878D01*
X3901376Y-15309354D01*
X3929947Y-15309354D01*
X3948995Y-15318878D01*
X3958519Y-15337926D01*
X3958519Y-15442687D01*
X3958519Y-15337926D02*
X3968042Y-15318878D01*
X3987090Y-15309354D01*
X4015662Y-15309354D01*
X4034709Y-15318878D01*
X4044233Y-15337926D01*
X4044233Y-15442687D01*
X4434709Y-15233164D02*
X4263281Y-15490307D01*
X4691852Y-15242687D02*
X4710900Y-15242687D01*
X4729947Y-15252211D01*
X4739471Y-15261735D01*
X4748995Y-15280783D01*
X4758519Y-15318878D01*
X4758519Y-15366497D01*
X4748995Y-15404592D01*
X4739471Y-15423640D01*
X4729947Y-15433164D01*
X4710900Y-15442687D01*
X4691852Y-15442687D01*
X4672804Y-15433164D01*
X4663281Y-15423640D01*
X4653757Y-15404592D01*
X4644233Y-15366497D01*
X4644233Y-15318878D01*
X4653757Y-15280783D01*
X4663281Y-15261735D01*
X4672804Y-15252211D01*
X4691852Y-15242687D01*
X4844233Y-15423640D02*
X4853757Y-15433164D01*
X4844233Y-15442687D01*
X4834709Y-15433164D01*
X4844233Y-15423640D01*
X4844233Y-15442687D01*
X5044233Y-15442687D02*
X4929947Y-15442687D01*
X4987090Y-15442687D02*
X4987090Y-15242687D01*
X4968043Y-15271259D01*
X4948995Y-15290307D01*
X4929947Y-15299830D01*
X5225185Y-15242687D02*
X5129947Y-15242687D01*
X5120424Y-15337926D01*
X5129947Y-15328402D01*
X5148995Y-15318878D01*
X5196614Y-15318878D01*
X5215662Y-15328402D01*
X5225185Y-15337926D01*
X5234709Y-15356973D01*
X5234709Y-15404592D01*
X5225185Y-15423640D01*
X5215662Y-15433164D01*
X5196614Y-15442687D01*
X5148995Y-15442687D01*
X5129947Y-15433164D01*
X5120424Y-15423640D01*
X5301376Y-15242687D02*
X5434709Y-15242687D01*
X5348995Y-15442687D01*
X5606138Y-15242687D02*
X5510900Y-15242687D01*
X5501376Y-15337926D01*
X5510900Y-15328402D01*
X5529947Y-15318878D01*
X5577566Y-15318878D01*
X5596614Y-15328402D01*
X5606138Y-15337926D01*
X5615662Y-15356973D01*
X5615662Y-15404592D01*
X5606138Y-15423640D01*
X5596614Y-15433164D01*
X5577566Y-15442687D01*
X5529947Y-15442687D01*
X5510900Y-15433164D01*
X5501376Y-15423640D01*
X5691852Y-15242687D02*
X5691852Y-15280783D01*
X5768042Y-15242687D02*
X5768042Y-15280783D01*
X6063281Y-15518878D02*
X6053757Y-15509354D01*
X6034709Y-15480783D01*
X6025185Y-15461735D01*
X6015662Y-15433164D01*
X6006138Y-15385545D01*
X6006138Y-15347449D01*
X6015662Y-15299830D01*
X6025185Y-15271259D01*
X6034709Y-15252211D01*
X6053757Y-15223640D01*
X6063281Y-15214116D01*
X6234709Y-15242687D02*
X6139471Y-15242687D01*
X6129947Y-15337926D01*
X6139471Y-15328402D01*
X6158519Y-15318878D01*
X6206138Y-15318878D01*
X6225185Y-15328402D01*
X6234709Y-15337926D01*
X6244233Y-15356973D01*
X6244233Y-15404592D01*
X6234709Y-15423640D01*
X6225185Y-15433164D01*
X6206138Y-15442687D01*
X6158519Y-15442687D01*
X6139471Y-15433164D01*
X6129947Y-15423640D01*
X6358519Y-15328402D02*
X6339471Y-15318878D01*
X6329947Y-15309354D01*
X6320423Y-15290307D01*
X6320423Y-15280783D01*
X6329947Y-15261735D01*
X6339471Y-15252211D01*
X6358519Y-15242687D01*
X6396614Y-15242687D01*
X6415662Y-15252211D01*
X6425185Y-15261735D01*
X6434709Y-15280783D01*
X6434709Y-15290307D01*
X6425185Y-15309354D01*
X6415662Y-15318878D01*
X6396614Y-15328402D01*
X6358519Y-15328402D01*
X6339471Y-15337926D01*
X6329947Y-15347449D01*
X6320423Y-15366497D01*
X6320423Y-15404592D01*
X6329947Y-15423640D01*
X6339471Y-15433164D01*
X6358519Y-15442687D01*
X6396614Y-15442687D01*
X6415662Y-15433164D01*
X6425185Y-15423640D01*
X6434709Y-15404592D01*
X6434709Y-15366497D01*
X6425185Y-15347449D01*
X6415662Y-15337926D01*
X6396614Y-15328402D01*
X6672804Y-15442687D02*
X6672804Y-15242687D01*
X6758519Y-15442687D02*
X6758519Y-15337926D01*
X6748995Y-15318878D01*
X6729947Y-15309354D01*
X6701376Y-15309354D01*
X6682328Y-15318878D01*
X6672804Y-15328402D01*
X6882328Y-15442687D02*
X6863281Y-15433164D01*
X6853757Y-15423640D01*
X6844233Y-15404592D01*
X6844233Y-15347449D01*
X6853757Y-15328402D01*
X6863281Y-15318878D01*
X6882328Y-15309354D01*
X6910900Y-15309354D01*
X6929947Y-15318878D01*
X6939471Y-15328402D01*
X6948995Y-15347449D01*
X6948995Y-15404592D01*
X6939471Y-15423640D01*
X6929947Y-15433164D01*
X6910900Y-15442687D01*
X6882328Y-15442687D01*
X7063281Y-15442687D02*
X7044233Y-15433164D01*
X7034709Y-15414116D01*
X7034709Y-15242687D01*
X7215662Y-15433164D02*
X7196614Y-15442687D01*
X7158519Y-15442687D01*
X7139471Y-15433164D01*
X7129947Y-15414116D01*
X7129947Y-15337926D01*
X7139471Y-15318878D01*
X7158519Y-15309354D01*
X7196614Y-15309354D01*
X7215662Y-15318878D01*
X7225185Y-15337926D01*
X7225185Y-15356973D01*
X7129947Y-15376021D01*
X7301376Y-15433164D02*
X7320423Y-15442687D01*
X7358519Y-15442687D01*
X7377566Y-15433164D01*
X7387090Y-15414116D01*
X7387090Y-15404592D01*
X7377566Y-15385545D01*
X7358519Y-15376021D01*
X7329947Y-15376021D01*
X7310900Y-15366497D01*
X7301376Y-15347449D01*
X7301376Y-15337926D01*
X7310900Y-15318878D01*
X7329947Y-15309354D01*
X7358519Y-15309354D01*
X7377566Y-15318878D01*
X7453757Y-15518878D02*
X7463281Y-15509354D01*
X7482328Y-15480783D01*
X7491852Y-15461735D01*
X7501376Y-15433164D01*
X7510900Y-15385545D01*
X7510900Y-15347449D01*
X7501376Y-15299830D01*
X7491852Y-15271259D01*
X7482328Y-15252211D01*
X7463281Y-15223640D01*
X7453757Y-15214116D01*
X7815662Y-15518878D02*
X7806138Y-15509354D01*
X7787090Y-15480783D01*
X7777566Y-15461735D01*
X7768042Y-15433164D01*
X7758519Y-15385545D01*
X7758519Y-15347449D01*
X7768042Y-15299830D01*
X7777566Y-15271259D01*
X7787090Y-15252211D01*
X7806138Y-15223640D01*
X7815662Y-15214116D01*
X7891852Y-15309354D02*
X7891852Y-15442687D01*
X7891852Y-15328402D02*
X7901376Y-15318878D01*
X7920423Y-15309354D01*
X7948995Y-15309354D01*
X7968042Y-15318878D01*
X7977566Y-15337926D01*
X7977566Y-15442687D01*
X8101376Y-15442687D02*
X8082328Y-15433164D01*
X8072804Y-15423640D01*
X8063281Y-15404592D01*
X8063281Y-15347449D01*
X8072804Y-15328402D01*
X8082328Y-15318878D01*
X8101376Y-15309354D01*
X8129947Y-15309354D01*
X8148995Y-15318878D01*
X8158519Y-15328402D01*
X8168042Y-15347449D01*
X8168042Y-15404592D01*
X8158519Y-15423640D01*
X8148995Y-15433164D01*
X8129947Y-15442687D01*
X8101376Y-15442687D01*
X8225185Y-15309354D02*
X8301376Y-15309354D01*
X8253757Y-15242687D02*
X8253757Y-15414116D01*
X8263281Y-15433164D01*
X8282328Y-15442687D01*
X8301376Y-15442687D01*
X8520424Y-15309354D02*
X8520424Y-15509354D01*
X8520424Y-15318878D02*
X8539471Y-15309354D01*
X8577566Y-15309354D01*
X8596614Y-15318878D01*
X8606138Y-15328402D01*
X8615662Y-15347449D01*
X8615662Y-15404592D01*
X8606138Y-15423640D01*
X8596614Y-15433164D01*
X8577566Y-15442687D01*
X8539471Y-15442687D01*
X8520424Y-15433164D01*
X8729947Y-15442687D02*
X8710900Y-15433164D01*
X8701376Y-15414116D01*
X8701376Y-15242687D01*
X8891852Y-15442687D02*
X8891852Y-15337926D01*
X8882328Y-15318878D01*
X8863281Y-15309354D01*
X8825185Y-15309354D01*
X8806138Y-15318878D01*
X8891852Y-15433164D02*
X8872804Y-15442687D01*
X8825185Y-15442687D01*
X8806138Y-15433164D01*
X8796614Y-15414116D01*
X8796614Y-15395068D01*
X8806138Y-15376021D01*
X8825185Y-15366497D01*
X8872804Y-15366497D01*
X8891852Y-15356973D01*
X8958519Y-15309354D02*
X9034709Y-15309354D01*
X8987090Y-15242687D02*
X8987090Y-15414116D01*
X8996614Y-15433164D01*
X9015662Y-15442687D01*
X9034709Y-15442687D01*
X9177566Y-15433164D02*
X9158519Y-15442687D01*
X9120424Y-15442687D01*
X9101376Y-15433164D01*
X9091852Y-15414116D01*
X9091852Y-15337926D01*
X9101376Y-15318878D01*
X9120424Y-15309354D01*
X9158519Y-15309354D01*
X9177566Y-15318878D01*
X9187090Y-15337926D01*
X9187090Y-15356973D01*
X9091852Y-15376021D01*
X9358519Y-15442687D02*
X9358519Y-15242687D01*
X9358519Y-15433164D02*
X9339471Y-15442687D01*
X9301376Y-15442687D01*
X9282328Y-15433164D01*
X9272804Y-15423640D01*
X9263281Y-15404592D01*
X9263281Y-15347449D01*
X9272804Y-15328402D01*
X9282328Y-15318878D01*
X9301376Y-15309354D01*
X9339471Y-15309354D01*
X9358519Y-15318878D01*
X9434709Y-15518878D02*
X9444233Y-15509354D01*
X9463281Y-15480783D01*
X9472804Y-15461735D01*
X9482328Y-15433164D01*
X9491852Y-15385545D01*
X9491852Y-15347449D01*
X9482328Y-15299830D01*
X9472804Y-15271259D01*
X9463281Y-15252211D01*
X9444233Y-15223640D01*
X9434709Y-15214116D01*
M02*
