%TF.GenerationSoftware,KiCad,Pcbnew,(6.0.10)*%
%TF.CreationDate,2023-10-04T19:43:44-05:00*%
%TF.ProjectId,RunType58,52756e54-7970-4653-9538-2e6b69636164,rev?*%
%TF.SameCoordinates,Original*%
%TF.FileFunction,Drillmap*%
%TF.FilePolarity,Positive*%
%FSLAX45Y45*%
G04 Gerber Fmt 4.5, Leading zero omitted, Abs format (unit mm)*
G04 Created by KiCad (PCBNEW (6.0.10)) date 2023-10-04 19:43:44*
%MOMM*%
%LPD*%
G01*
G04 APERTURE LIST*
%ADD10C,0.100000*%
%ADD11C,0.200000*%
%ADD12C,0.040000*%
%ADD13C,0.081280*%
%ADD14C,0.109220*%
%ADD15C,0.130000*%
%ADD16C,0.250000*%
G04 APERTURE END LIST*
D10*
X16073808Y-11170788D02*
X15751665Y-11728755D01*
X21168876Y-12600255D02*
X25043876Y-12600255D01*
X2496375Y-10821505D02*
G75*
G03*
X2846376Y-11171505I350001J1D01*
G01*
X25643876Y-11171506D02*
G75*
G03*
X25343876Y-11471505I-16J-299984D01*
G01*
X16113994Y-2549826D02*
G75*
G03*
X15814000Y-2249826I-299994J6D01*
G01*
X2496376Y-3806505D02*
X2496376Y-10821505D01*
X14548069Y-13220852D02*
G75*
G03*
X14954659Y-13109211I146781J261642D01*
G01*
X18464195Y-12982696D02*
X18039682Y-13220850D01*
X29741376Y-11171496D02*
G75*
G03*
X30091376Y-10821505I-6J350006D01*
G01*
X11418876Y-12600255D02*
X7543876Y-12600255D01*
X16114000Y-11020788D02*
X16114000Y-2549826D01*
X15751665Y-11728755D02*
X15101665Y-12854588D01*
X14954659Y-13109211D02*
X15101665Y-12854588D01*
X2846376Y-11171505D02*
X4146376Y-11171505D01*
X30005981Y-3577408D02*
G75*
G03*
X29968454Y-3551650I-68031J-58902D01*
G01*
X25343876Y-12300255D02*
X25343876Y-11851505D01*
X13513491Y-12640447D02*
X13441848Y-12600255D01*
X14123557Y-12982696D02*
X14548070Y-13220850D01*
X17633092Y-13109211D02*
G75*
G03*
X18039682Y-13220850I259808J150001D01*
G01*
X16836086Y-11728755D02*
X17486086Y-12854588D01*
X2619298Y-3551649D02*
G75*
G03*
X2581772Y-3577409I30532J-84691D01*
G01*
X10096148Y-2249826D02*
G75*
G03*
X2619298Y-3551650I-25098J-21977894D01*
G01*
X13513491Y-12640447D02*
X14123557Y-12982696D01*
X16473752Y-2549826D02*
X16473752Y-11020788D01*
X16473754Y-11020788D02*
G75*
G03*
X16513944Y-11170788I300006J-2D01*
G01*
X12718876Y-12600255D02*
X13441848Y-12600255D01*
X16073806Y-11170787D02*
G75*
G03*
X16114000Y-11020788I-259786J149997D01*
G01*
X25343876Y-11851505D02*
X25343876Y-11471505D01*
X11418876Y-12600255D02*
X12718876Y-12600255D01*
X25043876Y-12600256D02*
G75*
G03*
X25343876Y-12300255I-16J300016D01*
G01*
X7243876Y-12300255D02*
X7243876Y-11851505D01*
X7243875Y-11471505D02*
G75*
G03*
X6943876Y-11171505I-299995J5D01*
G01*
X16773752Y-2249826D02*
X22491604Y-2249826D01*
X30091376Y-3806505D02*
X30091376Y-5106505D01*
X30091376Y-9521505D02*
X30091376Y-10821505D01*
X19074261Y-12640447D02*
X18464195Y-12982696D01*
X17633093Y-13109211D02*
X17486086Y-12854588D01*
X16773752Y-2249822D02*
G75*
G03*
X16473752Y-2549826I8J-300008D01*
G01*
X15814000Y-2249826D02*
X10096148Y-2249826D01*
X19074261Y-12640447D02*
X19145904Y-12600255D01*
X4146376Y-11171505D02*
X6943876Y-11171505D01*
X30091376Y-5106505D02*
X30091376Y-9521505D01*
X19145904Y-12600255D02*
X21168876Y-12600255D01*
X30091378Y-3806505D02*
G75*
G03*
X30005979Y-3577409I-350008J-5D01*
G01*
X16513944Y-11170788D02*
X16836086Y-11728755D01*
X25643876Y-11171505D02*
X29741376Y-11171505D01*
X2581773Y-3577409D02*
G75*
G03*
X2496376Y-3806505I264605J-229097D01*
G01*
X7243876Y-11471505D02*
X7243876Y-11851505D01*
X29968454Y-3551650D02*
G75*
G03*
X22491604Y-2249826I-7451754J-20676080D01*
G01*
X7243875Y-12300255D02*
G75*
G03*
X7543876Y-12600255I300005J5D01*
G01*
D11*
D12*
X8100000Y-10651000D02*
X8140000Y-10691000D01*
X8140000Y-10651000D02*
X8100000Y-10691000D01*
X8598000Y-10504000D02*
X8638000Y-10544000D01*
X8638000Y-10504000D02*
X8598000Y-10544000D01*
X9814206Y-2677450D02*
X9854206Y-2717450D01*
X9854206Y-2677450D02*
X9814206Y-2717450D01*
X9909314Y-2632450D02*
X9949314Y-2672450D01*
X9949314Y-2632450D02*
X9909314Y-2672450D01*
X9987000Y-2554000D02*
X10027000Y-2594000D01*
X10027000Y-2554000D02*
X9987000Y-2594000D01*
X10120517Y-2729582D02*
X10160517Y-2769582D01*
X10160517Y-2729582D02*
X10120517Y-2769582D01*
X10775000Y-12045000D02*
X10815000Y-12085000D01*
X10815000Y-12045000D02*
X10775000Y-12085000D01*
X10923000Y-2917000D02*
X10963000Y-2957000D01*
X10963000Y-2917000D02*
X10923000Y-2957000D01*
X11567000Y-10780000D02*
X11607000Y-10820000D01*
X11607000Y-10780000D02*
X11567000Y-10820000D01*
X12518000Y-3117000D02*
X12558000Y-3157000D01*
X12558000Y-3117000D02*
X12518000Y-3157000D01*
X12728000Y-2723540D02*
X12768000Y-2763540D01*
X12768000Y-2723540D02*
X12728000Y-2763540D01*
X12829000Y-2693000D02*
X12869000Y-2733000D01*
X12869000Y-2693000D02*
X12829000Y-2733000D01*
X12939770Y-2655230D02*
X12979770Y-2695230D01*
X12979770Y-2655230D02*
X12939770Y-2695230D01*
X13061000Y-11918000D02*
X13101000Y-11958000D01*
X13101000Y-11918000D02*
X13061000Y-11958000D01*
X13063000Y-2676000D02*
X13103000Y-2716000D01*
X13103000Y-2676000D02*
X13063000Y-2716000D01*
X13508000Y-2967000D02*
X13548000Y-3007000D01*
X13548000Y-2967000D02*
X13508000Y-3007000D01*
X13781000Y-3121000D02*
X13821000Y-3161000D01*
X13821000Y-3121000D02*
X13781000Y-3161000D01*
X13794950Y-5314000D02*
X13834950Y-5354000D01*
X13834950Y-5314000D02*
X13794950Y-5354000D01*
X13859763Y-4874516D02*
X13899763Y-4914516D01*
X13899763Y-4874516D02*
X13859763Y-4914516D01*
X13867400Y-5430000D02*
X13907400Y-5470000D01*
X13907400Y-5430000D02*
X13867400Y-5470000D01*
X13922000Y-6056000D02*
X13962000Y-6096000D01*
X13962000Y-6056000D02*
X13922000Y-6096000D01*
X13966000Y-2673095D02*
X14006000Y-2713095D01*
X14006000Y-2673095D02*
X13966000Y-2713095D01*
X14019000Y-10577000D02*
X14059000Y-10617000D01*
X14059000Y-10577000D02*
X14019000Y-10617000D01*
X14107450Y-5346000D02*
X14147450Y-5386000D01*
X14147450Y-5346000D02*
X14107450Y-5386000D01*
X14218205Y-7780205D02*
X14258205Y-7820205D01*
X14258205Y-7780205D02*
X14218205Y-7820205D01*
X14815000Y-3304000D02*
X14855000Y-3344000D01*
X14855000Y-3304000D02*
X14815000Y-3344000D01*
X15371000Y-4078000D02*
X15411000Y-4118000D01*
X15411000Y-4078000D02*
X15371000Y-4118000D01*
X15375000Y-4306000D02*
X15415000Y-4346000D01*
X15415000Y-4306000D02*
X15375000Y-4346000D01*
X15376000Y-4198000D02*
X15416000Y-4238000D01*
X15416000Y-4198000D02*
X15376000Y-4238000D01*
X15396000Y-5197000D02*
X15436000Y-5237000D01*
X15436000Y-5197000D02*
X15396000Y-5237000D01*
X15402000Y-4469000D02*
X15442000Y-4509000D01*
X15442000Y-4469000D02*
X15402000Y-4509000D01*
X15428000Y-7882000D02*
X15468000Y-7922000D01*
X15468000Y-7882000D02*
X15428000Y-7922000D01*
X15505471Y-3760686D02*
X15545471Y-3800686D01*
X15545471Y-3760686D02*
X15505471Y-3800686D01*
X15550000Y-5280000D02*
X15590000Y-5320000D01*
X15590000Y-5280000D02*
X15550000Y-5320000D01*
X15652023Y-4123000D02*
X15692023Y-4163000D01*
X15692023Y-4123000D02*
X15652023Y-4163000D01*
X15833000Y-8209000D02*
X15873000Y-8249000D01*
X15873000Y-8209000D02*
X15833000Y-8249000D01*
X15987550Y-9140000D02*
X16027550Y-9180000D01*
X16027550Y-9140000D02*
X15987550Y-9180000D01*
X16020000Y-9330000D02*
X16060000Y-9370000D01*
X16060000Y-9330000D02*
X16020000Y-9370000D01*
X16540000Y-6190000D02*
X16580000Y-6230000D01*
X16580000Y-6190000D02*
X16540000Y-6230000D01*
X16617550Y-6980000D02*
X16657550Y-7020000D01*
X16657550Y-6980000D02*
X16617550Y-7020000D01*
X16650000Y-9700000D02*
X16690000Y-9740000D01*
X16690000Y-9700000D02*
X16650000Y-9740000D01*
X16690000Y-5760000D02*
X16730000Y-5800000D01*
X16730000Y-5760000D02*
X16690000Y-5800000D01*
X16701000Y-5666000D02*
X16741000Y-5706000D01*
X16741000Y-5666000D02*
X16701000Y-5706000D01*
X16762450Y-5900000D02*
X16802450Y-5940000D01*
X16802450Y-5900000D02*
X16762450Y-5940000D01*
X16780000Y-7180000D02*
X16820000Y-7220000D01*
X16820000Y-7180000D02*
X16780000Y-7220000D01*
X16790000Y-7860000D02*
X16830000Y-7900000D01*
X16830000Y-7860000D02*
X16790000Y-7900000D01*
X16800000Y-8160000D02*
X16840000Y-8200000D01*
X16840000Y-8160000D02*
X16800000Y-8200000D01*
X16834000Y-4814000D02*
X16874000Y-4854000D01*
X16874000Y-4814000D02*
X16834000Y-4854000D01*
X16910000Y-10080000D02*
X16950000Y-10120000D01*
X16950000Y-10080000D02*
X16910000Y-10120000D01*
X16999000Y-11829000D02*
X17039000Y-11869000D01*
X17039000Y-11829000D02*
X16999000Y-11869000D01*
X17003000Y-11283000D02*
X17043000Y-11323000D01*
X17043000Y-11283000D02*
X17003000Y-11323000D01*
X17140000Y-10320000D02*
X17180000Y-10360000D01*
X17180000Y-10320000D02*
X17140000Y-10360000D01*
X17191000Y-5420000D02*
X17231000Y-5460000D01*
X17231000Y-5420000D02*
X17191000Y-5460000D01*
X17210000Y-7920000D02*
X17250000Y-7960000D01*
X17250000Y-7920000D02*
X17210000Y-7960000D01*
X17345000Y-5138000D02*
X17385000Y-5178000D01*
X17385000Y-5138000D02*
X17345000Y-5178000D01*
X17370000Y-5420000D02*
X17410000Y-5460000D01*
X17410000Y-5420000D02*
X17370000Y-5460000D01*
X17372450Y-8500000D02*
X17412450Y-8540000D01*
X17412450Y-8500000D02*
X17372450Y-8540000D01*
X17471000Y-5155000D02*
X17511000Y-5195000D01*
X17511000Y-5155000D02*
X17471000Y-5195000D01*
X17542000Y-3027000D02*
X17582000Y-3067000D01*
X17582000Y-3027000D02*
X17542000Y-3067000D01*
X17656550Y-4746000D02*
X17696550Y-4786000D01*
X17696550Y-4746000D02*
X17656550Y-4786000D01*
X17657780Y-5134320D02*
X17697780Y-5174320D01*
X17697780Y-5134320D02*
X17657780Y-5174320D01*
X17800000Y-7877450D02*
X17840000Y-7917450D01*
X17840000Y-7877450D02*
X17800000Y-7917450D01*
X17820000Y-12700000D02*
X17860000Y-12740000D01*
X17860000Y-12700000D02*
X17820000Y-12740000D01*
X17835000Y-5408406D02*
X17875000Y-5448406D01*
X17875000Y-5408406D02*
X17835000Y-5448406D01*
X17859000Y-5641000D02*
X17899000Y-5681000D01*
X17899000Y-5641000D02*
X17859000Y-5681000D01*
X17912520Y-5066000D02*
X17952520Y-5106000D01*
X17952520Y-5066000D02*
X17912520Y-5106000D01*
X17988000Y-5481000D02*
X18028000Y-5521000D01*
X18028000Y-5481000D02*
X17988000Y-5521000D01*
X18090000Y-9853000D02*
X18130000Y-9893000D01*
X18130000Y-9853000D02*
X18090000Y-9893000D01*
X18230000Y-8020000D02*
X18270000Y-8060000D01*
X18270000Y-8020000D02*
X18230000Y-8060000D01*
X18236950Y-8303050D02*
X18276950Y-8343050D01*
X18276950Y-8303050D02*
X18236950Y-8343050D01*
X18242000Y-9278000D02*
X18282000Y-9318000D01*
X18282000Y-9278000D02*
X18242000Y-9318000D01*
X18300000Y-7880000D02*
X18340000Y-7920000D01*
X18340000Y-7880000D02*
X18300000Y-7920000D01*
X18370000Y-7770000D02*
X18410000Y-7810000D01*
X18410000Y-7770000D02*
X18370000Y-7810000D01*
X18412450Y-8500000D02*
X18452450Y-8540000D01*
X18452450Y-8500000D02*
X18412450Y-8540000D01*
X18460000Y-7690000D02*
X18500000Y-7730000D01*
X18500000Y-7690000D02*
X18460000Y-7730000D01*
X18730000Y-11380000D02*
X18770000Y-11420000D01*
X18770000Y-11380000D02*
X18730000Y-11420000D01*
X18750000Y-10920000D02*
X18790000Y-10960000D01*
X18790000Y-10920000D02*
X18750000Y-10960000D01*
X18751976Y-2864355D02*
X18791976Y-2904355D01*
X18791976Y-2864355D02*
X18751976Y-2904355D01*
X18770000Y-3020000D02*
X18810000Y-3060000D01*
X18810000Y-3020000D02*
X18770000Y-3060000D01*
X18780000Y-3310000D02*
X18820000Y-3350000D01*
X18820000Y-3310000D02*
X18780000Y-3350000D01*
X18840000Y-11150000D02*
X18880000Y-11190000D01*
X18880000Y-11150000D02*
X18840000Y-11190000D01*
X18870000Y-11510000D02*
X18910000Y-11550000D01*
X18910000Y-11510000D02*
X18870000Y-11550000D01*
X18880000Y-12150000D02*
X18920000Y-12190000D01*
X18920000Y-12150000D02*
X18880000Y-12190000D01*
X19310000Y-2864355D02*
X19350000Y-2904355D01*
X19350000Y-2864355D02*
X19310000Y-2904355D01*
X19540000Y-11340000D02*
X19580000Y-11380000D01*
X19580000Y-11340000D02*
X19540000Y-11380000D01*
X19540000Y-12340000D02*
X19580000Y-12380000D01*
X19580000Y-12340000D02*
X19540000Y-12380000D01*
X19634821Y-12308393D02*
X19674821Y-12348393D01*
X19674821Y-12308393D02*
X19634821Y-12348393D01*
X19807000Y-6226000D02*
X19847000Y-6266000D01*
X19847000Y-6226000D02*
X19807000Y-6266000D01*
X19863000Y-2467000D02*
X19903000Y-2507000D01*
X19903000Y-2467000D02*
X19863000Y-2507000D01*
X19918837Y-2549899D02*
X19958837Y-2589899D01*
X19958837Y-2549899D02*
X19918837Y-2589899D01*
X19991337Y-2622349D02*
X20031337Y-2662349D01*
X20031337Y-2622349D02*
X19991337Y-2662349D01*
X20048000Y-2705000D02*
X20088000Y-2745000D01*
X20088000Y-2705000D02*
X20048000Y-2745000D01*
X20064000Y-5536000D02*
X20104000Y-5576000D01*
X20104000Y-5536000D02*
X20064000Y-5576000D01*
X20210000Y-4812000D02*
X20250000Y-4852000D01*
X20250000Y-4812000D02*
X20210000Y-4852000D01*
X20260000Y-3120000D02*
X20300000Y-3160000D01*
X20300000Y-3120000D02*
X20260000Y-3160000D01*
X20320000Y-7030000D02*
X20360000Y-7070000D01*
X20360000Y-7030000D02*
X20320000Y-7070000D01*
X20321000Y-6562000D02*
X20361000Y-6602000D01*
X20361000Y-6562000D02*
X20321000Y-6602000D01*
X20730000Y-11920000D02*
X20770000Y-11960000D01*
X20770000Y-11920000D02*
X20730000Y-11960000D01*
X20760000Y-11240000D02*
X20800000Y-11280000D01*
X20800000Y-11240000D02*
X20760000Y-11280000D01*
X21961000Y-10236000D02*
X22001000Y-10276000D01*
X22001000Y-10236000D02*
X21961000Y-10276000D01*
X22182000Y-2735000D02*
X22222000Y-2775000D01*
X22222000Y-2735000D02*
X22182000Y-2775000D01*
X22190000Y-12325050D02*
X22230000Y-12365050D01*
X22230000Y-12325050D02*
X22190000Y-12365050D01*
X22272000Y-10236000D02*
X22312000Y-10276000D01*
X22312000Y-10236000D02*
X22272000Y-10276000D01*
X22420000Y-12100000D02*
X22460000Y-12140000D01*
X22460000Y-12100000D02*
X22420000Y-12140000D01*
X22645000Y-2474000D02*
X22685000Y-2514000D01*
X22685000Y-2474000D02*
X22645000Y-2514000D01*
X22650000Y-11710000D02*
X22690000Y-11750000D01*
X22690000Y-11710000D02*
X22650000Y-11750000D01*
X22711126Y-10984165D02*
X22751126Y-11024165D01*
X22751126Y-10984165D02*
X22711126Y-11024165D01*
X22752000Y-2540365D02*
X22792000Y-2580365D01*
X22792000Y-2540365D02*
X22752000Y-2580365D01*
X22844342Y-2585365D02*
X22884342Y-2625365D01*
X22884342Y-2585365D02*
X22844342Y-2625365D01*
X24011000Y-2672000D02*
X24051000Y-2712000D01*
X24051000Y-2672000D02*
X24011000Y-2712000D01*
X24365000Y-3022000D02*
X24405000Y-3062000D01*
X24405000Y-3022000D02*
X24365000Y-3062000D01*
X24550000Y-11700000D02*
X24590000Y-11740000D01*
X24590000Y-11700000D02*
X24550000Y-11740000D01*
X24640000Y-10980000D02*
X24680000Y-11020000D01*
X24680000Y-10980000D02*
X24640000Y-11020000D01*
X27589000Y-3259000D02*
X27629000Y-3299000D01*
X27629000Y-3259000D02*
X27589000Y-3299000D01*
X28092000Y-3756000D02*
X28132000Y-3796000D01*
X28132000Y-3756000D02*
X28092000Y-3796000D01*
X3390000Y-9211000D02*
G75*
G03*
X3390000Y-9211000I-20000J0D01*
G01*
X3404000Y-5410254D02*
G75*
G03*
X3404000Y-5410254I-20000J0D01*
G01*
X3425000Y-7313000D02*
G75*
G03*
X3425000Y-7313000I-20000J0D01*
G01*
X3730000Y-9211000D02*
G75*
G03*
X3730000Y-9211000I-20000J0D01*
G01*
X3744000Y-5410254D02*
G75*
G03*
X3744000Y-5410254I-20000J0D01*
G01*
X3765000Y-7313000D02*
G75*
G03*
X3765000Y-7313000I-20000J0D01*
G01*
X4875000Y-10916000D02*
G75*
G03*
X4875000Y-10916000I-20000J0D01*
G01*
X5215000Y-10916000D02*
G75*
G03*
X5215000Y-10916000I-20000J0D01*
G01*
X5340000Y-7078000D02*
G75*
G03*
X5340000Y-7078000I-20000J0D01*
G01*
X5354000Y-5180000D02*
G75*
G03*
X5354000Y-5180000I-20000J0D01*
G01*
X5362000Y-8968000D02*
G75*
G03*
X5362000Y-8968000I-20000J0D01*
G01*
X5680000Y-7078000D02*
G75*
G03*
X5680000Y-7078000I-20000J0D01*
G01*
X5694000Y-5180000D02*
G75*
G03*
X5694000Y-5180000I-20000J0D01*
G01*
X5702000Y-8968000D02*
G75*
G03*
X5702000Y-8968000I-20000J0D01*
G01*
X6424000Y-10916000D02*
G75*
G03*
X6424000Y-10916000I-20000J0D01*
G01*
X6764000Y-10916000D02*
G75*
G03*
X6764000Y-10916000I-20000J0D01*
G01*
X7183000Y-6596000D02*
G75*
G03*
X7183000Y-6596000I-20000J0D01*
G01*
X7186000Y-8495000D02*
G75*
G03*
X7186000Y-8495000I-20000J0D01*
G01*
X7198000Y-4703000D02*
G75*
G03*
X7198000Y-4703000I-20000J0D01*
G01*
X7206000Y-10408000D02*
G75*
G03*
X7206000Y-10408000I-20000J0D01*
G01*
X7523000Y-6596000D02*
G75*
G03*
X7523000Y-6596000I-20000J0D01*
G01*
X7526000Y-8495000D02*
G75*
G03*
X7526000Y-8495000I-20000J0D01*
G01*
X7538000Y-4703000D02*
G75*
G03*
X7538000Y-4703000I-20000J0D01*
G01*
X7546000Y-10408000D02*
G75*
G03*
X7546000Y-10408000I-20000J0D01*
G01*
X9090000Y-8263000D02*
G75*
G03*
X9090000Y-8263000I-20000J0D01*
G01*
X9102000Y-6352000D02*
G75*
G03*
X9102000Y-6352000I-20000J0D01*
G01*
X9123000Y-4455000D02*
G75*
G03*
X9123000Y-4455000I-20000J0D01*
G01*
X9328000Y-10397000D02*
G75*
G03*
X9328000Y-10397000I-20000J0D01*
G01*
X9430000Y-8263000D02*
G75*
G03*
X9430000Y-8263000I-20000J0D01*
G01*
X9442000Y-6352000D02*
G75*
G03*
X9442000Y-6352000I-20000J0D01*
G01*
X9463000Y-4455000D02*
G75*
G03*
X9463000Y-4455000I-20000J0D01*
G01*
X9668000Y-10397000D02*
G75*
G03*
X9668000Y-10397000I-20000J0D01*
G01*
X10971000Y-4695000D02*
G75*
G03*
X10971000Y-4695000I-20000J0D01*
G01*
X10995000Y-8500000D02*
G75*
G03*
X10995000Y-8500000I-20000J0D01*
G01*
X11013000Y-6601000D02*
G75*
G03*
X11013000Y-6601000I-20000J0D01*
G01*
X11022000Y-10412000D02*
G75*
G03*
X11022000Y-10412000I-20000J0D01*
G01*
X11311000Y-4695000D02*
G75*
G03*
X11311000Y-4695000I-20000J0D01*
G01*
X11335000Y-8500000D02*
G75*
G03*
X11335000Y-8500000I-20000J0D01*
G01*
X11353000Y-6601000D02*
G75*
G03*
X11353000Y-6601000I-20000J0D01*
G01*
X11362000Y-10412000D02*
G75*
G03*
X11362000Y-10412000I-20000J0D01*
G01*
X12871000Y-4922000D02*
G75*
G03*
X12871000Y-4922000I-20000J0D01*
G01*
X12902000Y-8720746D02*
G75*
G03*
X12902000Y-8720746I-20000J0D01*
G01*
X12918000Y-6825746D02*
G75*
G03*
X12918000Y-6825746I-20000J0D01*
G01*
X12946000Y-10648000D02*
G75*
G03*
X12946000Y-10648000I-20000J0D01*
G01*
X13211000Y-4922000D02*
G75*
G03*
X13211000Y-4922000I-20000J0D01*
G01*
X13242000Y-8720746D02*
G75*
G03*
X13242000Y-8720746I-20000J0D01*
G01*
X13258000Y-6825746D02*
G75*
G03*
X13258000Y-6825746I-20000J0D01*
G01*
X13286000Y-10648000D02*
G75*
G03*
X13286000Y-10648000I-20000J0D01*
G01*
X14350000Y-6802000D02*
G75*
G03*
X14350000Y-6802000I-20000J0D01*
G01*
X14350000Y-7142000D02*
G75*
G03*
X14350000Y-7142000I-20000J0D01*
G01*
X14651000Y-6802000D02*
G75*
G03*
X14651000Y-6802000I-20000J0D01*
G01*
X14651000Y-7142000D02*
G75*
G03*
X14651000Y-7142000I-20000J0D01*
G01*
X14951746Y-6802000D02*
G75*
G03*
X14951746Y-6802000I-20000J0D01*
G01*
X14951746Y-7142000D02*
G75*
G03*
X14951746Y-7142000I-20000J0D01*
G01*
X15251746Y-6802000D02*
G75*
G03*
X15251746Y-6802000I-20000J0D01*
G01*
X15251746Y-7142000D02*
G75*
G03*
X15251746Y-7142000I-20000J0D01*
G01*
X15551746Y-6802000D02*
G75*
G03*
X15551746Y-6802000I-20000J0D01*
G01*
X15551746Y-7142000D02*
G75*
G03*
X15551746Y-7142000I-20000J0D01*
G01*
X17070000Y-6810000D02*
G75*
G03*
X17070000Y-6810000I-20000J0D01*
G01*
X17070000Y-7150000D02*
G75*
G03*
X17070000Y-7150000I-20000J0D01*
G01*
X17370000Y-6810000D02*
G75*
G03*
X17370000Y-6810000I-20000J0D01*
G01*
X17370000Y-7150000D02*
G75*
G03*
X17370000Y-7150000I-20000J0D01*
G01*
X17670000Y-6810000D02*
G75*
G03*
X17670000Y-6810000I-20000J0D01*
G01*
X17670000Y-7150000D02*
G75*
G03*
X17670000Y-7150000I-20000J0D01*
G01*
X17970000Y-6810000D02*
G75*
G03*
X17970000Y-6810000I-20000J0D01*
G01*
X17970000Y-7150000D02*
G75*
G03*
X17970000Y-7150000I-20000J0D01*
G01*
X18270000Y-6810000D02*
G75*
G03*
X18270000Y-6810000I-20000J0D01*
G01*
X18270000Y-7150000D02*
G75*
G03*
X18270000Y-7150000I-20000J0D01*
G01*
X19300000Y-8700000D02*
G75*
G03*
X19300000Y-8700000I-20000J0D01*
G01*
X19370000Y-6840000D02*
G75*
G03*
X19370000Y-6840000I-20000J0D01*
G01*
X19380000Y-4950000D02*
G75*
G03*
X19380000Y-4950000I-20000J0D01*
G01*
X19394000Y-10660254D02*
G75*
G03*
X19394000Y-10660254I-20000J0D01*
G01*
X19640000Y-8700000D02*
G75*
G03*
X19640000Y-8700000I-20000J0D01*
G01*
X19710000Y-6840000D02*
G75*
G03*
X19710000Y-6840000I-20000J0D01*
G01*
X19720000Y-4950000D02*
G75*
G03*
X19720000Y-4950000I-20000J0D01*
G01*
X19734000Y-10660254D02*
G75*
G03*
X19734000Y-10660254I-20000J0D01*
G01*
X21260000Y-8510000D02*
G75*
G03*
X21260000Y-8510000I-20000J0D01*
G01*
X21270000Y-6610000D02*
G75*
G03*
X21270000Y-6610000I-20000J0D01*
G01*
X21270000Y-10480000D02*
G75*
G03*
X21270000Y-10480000I-20000J0D01*
G01*
X21305000Y-4688000D02*
G75*
G03*
X21305000Y-4688000I-20000J0D01*
G01*
X21600000Y-8510000D02*
G75*
G03*
X21600000Y-8510000I-20000J0D01*
G01*
X21610000Y-6610000D02*
G75*
G03*
X21610000Y-6610000I-20000J0D01*
G01*
X21610000Y-10480000D02*
G75*
G03*
X21610000Y-10480000I-20000J0D01*
G01*
X21645000Y-4688000D02*
G75*
G03*
X21645000Y-4688000I-20000J0D01*
G01*
X23013000Y-10435000D02*
G75*
G03*
X23013000Y-10435000I-20000J0D01*
G01*
X23160000Y-4470000D02*
G75*
G03*
X23160000Y-4470000I-20000J0D01*
G01*
X23174000Y-8270254D02*
G75*
G03*
X23174000Y-8270254I-20000J0D01*
G01*
X23200000Y-6370000D02*
G75*
G03*
X23200000Y-6370000I-20000J0D01*
G01*
X23353000Y-10435000D02*
G75*
G03*
X23353000Y-10435000I-20000J0D01*
G01*
X23500000Y-4470000D02*
G75*
G03*
X23500000Y-4470000I-20000J0D01*
G01*
X23514000Y-8270254D02*
G75*
G03*
X23514000Y-8270254I-20000J0D01*
G01*
X23540000Y-6370000D02*
G75*
G03*
X23540000Y-6370000I-20000J0D01*
G01*
X25074000Y-10420000D02*
G75*
G03*
X25074000Y-10420000I-20000J0D01*
G01*
X25090000Y-4700000D02*
G75*
G03*
X25090000Y-4700000I-20000J0D01*
G01*
X25094000Y-8510254D02*
G75*
G03*
X25094000Y-8510254I-20000J0D01*
G01*
X25100000Y-6610000D02*
G75*
G03*
X25100000Y-6610000I-20000J0D01*
G01*
X25414000Y-10420000D02*
G75*
G03*
X25414000Y-10420000I-20000J0D01*
G01*
X25430000Y-4700000D02*
G75*
G03*
X25430000Y-4700000I-20000J0D01*
G01*
X25434000Y-8510254D02*
G75*
G03*
X25434000Y-8510254I-20000J0D01*
G01*
X25440000Y-6610000D02*
G75*
G03*
X25440000Y-6610000I-20000J0D01*
G01*
X25890000Y-10930000D02*
G75*
G03*
X25890000Y-10930000I-20000J0D01*
G01*
X26230000Y-10930000D02*
G75*
G03*
X26230000Y-10930000I-20000J0D01*
G01*
X26990000Y-5180000D02*
G75*
G03*
X26990000Y-5180000I-20000J0D01*
G01*
X26990000Y-7070000D02*
G75*
G03*
X26990000Y-7070000I-20000J0D01*
G01*
X27000000Y-8980000D02*
G75*
G03*
X27000000Y-8980000I-20000J0D01*
G01*
X27330000Y-5180000D02*
G75*
G03*
X27330000Y-5180000I-20000J0D01*
G01*
X27330000Y-7070000D02*
G75*
G03*
X27330000Y-7070000I-20000J0D01*
G01*
X27340000Y-8980000D02*
G75*
G03*
X27340000Y-8980000I-20000J0D01*
G01*
X27410000Y-10930000D02*
G75*
G03*
X27410000Y-10930000I-20000J0D01*
G01*
X27750000Y-10930000D02*
G75*
G03*
X27750000Y-10930000I-20000J0D01*
G01*
X28880000Y-9220000D02*
G75*
G03*
X28880000Y-9220000I-20000J0D01*
G01*
X28884000Y-7320254D02*
G75*
G03*
X28884000Y-7320254I-20000J0D01*
G01*
X28900000Y-5420000D02*
G75*
G03*
X28900000Y-5420000I-20000J0D01*
G01*
X29220000Y-9220000D02*
G75*
G03*
X29220000Y-9220000I-20000J0D01*
G01*
X29224000Y-7320254D02*
G75*
G03*
X29224000Y-7320254I-20000J0D01*
G01*
X29240000Y-5420000D02*
G75*
G03*
X29240000Y-5420000I-20000J0D01*
G01*
D13*
X14470000Y-2379360D02*
X14470000Y-2460640D01*
X14429360Y-2420000D02*
X14510640Y-2420000D01*
X14940000Y-2706010D02*
X14940000Y-2787290D01*
X14899360Y-2746650D02*
X14980640Y-2746650D01*
X15737000Y-2381360D02*
X15737000Y-2462640D01*
X15696360Y-2422000D02*
X15777640Y-2422000D01*
X16894650Y-2404360D02*
X16894650Y-2485640D01*
X16854010Y-2445000D02*
X16935290Y-2445000D01*
X17635000Y-2697010D02*
X17635000Y-2778290D01*
X17594360Y-2737650D02*
X17675640Y-2737650D01*
X18151000Y-2397360D02*
X18151000Y-2478640D01*
X18110360Y-2438000D02*
X18191640Y-2438000D01*
D10*
X3059356Y-9246610D02*
X3059356Y-9175898D01*
X2988644Y-9175898D01*
X2988644Y-9246610D01*
X3059356Y-9246610D01*
X3073356Y-5445864D02*
X3073356Y-5375152D01*
X3002644Y-5375152D01*
X3002644Y-5445864D01*
X3073356Y-5445864D01*
X3094356Y-7348610D02*
X3094356Y-7277898D01*
X3023644Y-7277898D01*
X3023644Y-7348610D01*
X3094356Y-7348610D01*
X4075356Y-9246610D02*
X4075356Y-9175898D01*
X4004644Y-9175898D01*
X4004644Y-9246610D01*
X4075356Y-9246610D01*
X4089356Y-5445864D02*
X4089356Y-5375152D01*
X4018644Y-5375152D01*
X4018644Y-5445864D01*
X4089356Y-5445864D01*
X4110356Y-7348610D02*
X4110356Y-7277898D01*
X4039644Y-7277898D01*
X4039644Y-7348610D01*
X4110356Y-7348610D01*
X4544356Y-10951610D02*
X4544356Y-10880898D01*
X4473644Y-10880898D01*
X4473644Y-10951610D01*
X4544356Y-10951610D01*
X5009356Y-7113610D02*
X5009356Y-7042898D01*
X4938644Y-7042898D01*
X4938644Y-7113610D01*
X5009356Y-7113610D01*
X5023356Y-5215610D02*
X5023356Y-5144898D01*
X4952644Y-5144898D01*
X4952644Y-5215610D01*
X5023356Y-5215610D01*
X5031356Y-9003610D02*
X5031356Y-8932898D01*
X4960644Y-8932898D01*
X4960644Y-9003610D01*
X5031356Y-9003610D01*
X5560356Y-10951610D02*
X5560356Y-10880898D01*
X5489644Y-10880898D01*
X5489644Y-10951610D01*
X5560356Y-10951610D01*
X6025356Y-7113610D02*
X6025356Y-7042898D01*
X5954644Y-7042898D01*
X5954644Y-7113610D01*
X6025356Y-7113610D01*
X6039356Y-5215610D02*
X6039356Y-5144898D01*
X5968644Y-5144898D01*
X5968644Y-5215610D01*
X6039356Y-5215610D01*
X6047356Y-9003610D02*
X6047356Y-8932898D01*
X5976644Y-8932898D01*
X5976644Y-9003610D01*
X6047356Y-9003610D01*
X6093356Y-10951610D02*
X6093356Y-10880898D01*
X6022644Y-10880898D01*
X6022644Y-10951610D01*
X6093356Y-10951610D01*
X6852356Y-6631610D02*
X6852356Y-6560898D01*
X6781644Y-6560898D01*
X6781644Y-6631610D01*
X6852356Y-6631610D01*
X6855356Y-8530610D02*
X6855356Y-8459898D01*
X6784644Y-8459898D01*
X6784644Y-8530610D01*
X6855356Y-8530610D01*
X6867356Y-4738610D02*
X6867356Y-4667898D01*
X6796644Y-4667898D01*
X6796644Y-4738610D01*
X6867356Y-4738610D01*
X6875356Y-10443610D02*
X6875356Y-10372898D01*
X6804644Y-10372898D01*
X6804644Y-10443610D01*
X6875356Y-10443610D01*
X7109356Y-10951610D02*
X7109356Y-10880898D01*
X7038644Y-10880898D01*
X7038644Y-10951610D01*
X7109356Y-10951610D01*
X7868356Y-6631610D02*
X7868356Y-6560898D01*
X7797644Y-6560898D01*
X7797644Y-6631610D01*
X7868356Y-6631610D01*
X7871356Y-8530610D02*
X7871356Y-8459898D01*
X7800644Y-8459898D01*
X7800644Y-8530610D01*
X7871356Y-8530610D01*
X7883356Y-4738610D02*
X7883356Y-4667898D01*
X7812644Y-4667898D01*
X7812644Y-4738610D01*
X7883356Y-4738610D01*
X7891356Y-10443610D02*
X7891356Y-10372898D01*
X7820644Y-10372898D01*
X7820644Y-10443610D01*
X7891356Y-10443610D01*
X8759356Y-8298610D02*
X8759356Y-8227898D01*
X8688644Y-8227898D01*
X8688644Y-8298610D01*
X8759356Y-8298610D01*
X8771356Y-6387610D02*
X8771356Y-6316898D01*
X8700644Y-6316898D01*
X8700644Y-6387610D01*
X8771356Y-6387610D01*
X8792356Y-4490610D02*
X8792356Y-4419898D01*
X8721644Y-4419898D01*
X8721644Y-4490610D01*
X8792356Y-4490610D01*
X8997356Y-10432610D02*
X8997356Y-10361898D01*
X8926644Y-10361898D01*
X8926644Y-10432610D01*
X8997356Y-10432610D01*
X9775356Y-8298610D02*
X9775356Y-8227898D01*
X9704644Y-8227898D01*
X9704644Y-8298610D01*
X9775356Y-8298610D01*
X9787356Y-6387610D02*
X9787356Y-6316898D01*
X9716644Y-6316898D01*
X9716644Y-6387610D01*
X9787356Y-6387610D01*
X9808356Y-4490610D02*
X9808356Y-4419898D01*
X9737644Y-4419898D01*
X9737644Y-4490610D01*
X9808356Y-4490610D01*
X10013356Y-10432610D02*
X10013356Y-10361898D01*
X9942644Y-10361898D01*
X9942644Y-10432610D01*
X10013356Y-10432610D01*
X10640356Y-4730610D02*
X10640356Y-4659898D01*
X10569644Y-4659898D01*
X10569644Y-4730610D01*
X10640356Y-4730610D01*
X10664356Y-8535610D02*
X10664356Y-8464898D01*
X10593644Y-8464898D01*
X10593644Y-8535610D01*
X10664356Y-8535610D01*
X10682356Y-6636610D02*
X10682356Y-6565898D01*
X10611644Y-6565898D01*
X10611644Y-6636610D01*
X10682356Y-6636610D01*
X10691356Y-10447610D02*
X10691356Y-10376898D01*
X10620644Y-10376898D01*
X10620644Y-10447610D01*
X10691356Y-10447610D01*
X11656356Y-4730610D02*
X11656356Y-4659898D01*
X11585644Y-4659898D01*
X11585644Y-4730610D01*
X11656356Y-4730610D01*
X11680356Y-8535610D02*
X11680356Y-8464898D01*
X11609644Y-8464898D01*
X11609644Y-8535610D01*
X11680356Y-8535610D01*
X11698356Y-6636610D02*
X11698356Y-6565898D01*
X11627644Y-6565898D01*
X11627644Y-6636610D01*
X11698356Y-6636610D01*
X11707356Y-10447610D02*
X11707356Y-10376898D01*
X11636644Y-10376898D01*
X11636644Y-10447610D01*
X11707356Y-10447610D01*
X12540356Y-4957610D02*
X12540356Y-4886898D01*
X12469644Y-4886898D01*
X12469644Y-4957610D01*
X12540356Y-4957610D01*
X12571356Y-8756356D02*
X12571356Y-8685644D01*
X12500644Y-8685644D01*
X12500644Y-8756356D01*
X12571356Y-8756356D01*
X12587356Y-6861356D02*
X12587356Y-6790644D01*
X12516644Y-6790644D01*
X12516644Y-6861356D01*
X12587356Y-6861356D01*
X12615356Y-10683610D02*
X12615356Y-10612898D01*
X12544644Y-10612898D01*
X12544644Y-10683610D01*
X12615356Y-10683610D01*
X13556356Y-4957610D02*
X13556356Y-4886898D01*
X13485644Y-4886898D01*
X13485644Y-4957610D01*
X13556356Y-4957610D01*
X13587356Y-8756356D02*
X13587356Y-8685644D01*
X13516644Y-8685644D01*
X13516644Y-8756356D01*
X13587356Y-8756356D01*
X13603356Y-6861356D02*
X13603356Y-6790644D01*
X13532644Y-6790644D01*
X13532644Y-6861356D01*
X13603356Y-6861356D01*
X13631356Y-10683610D02*
X13631356Y-10612898D01*
X13560644Y-10612898D01*
X13560644Y-10683610D01*
X13631356Y-10683610D01*
X14365610Y-6507356D02*
X14365610Y-6436644D01*
X14294898Y-6436644D01*
X14294898Y-6507356D01*
X14365610Y-6507356D01*
X14365610Y-7523356D02*
X14365610Y-7452644D01*
X14294898Y-7452644D01*
X14294898Y-7523356D01*
X14365610Y-7523356D01*
X14666610Y-6507356D02*
X14666610Y-6436644D01*
X14595898Y-6436644D01*
X14595898Y-6507356D01*
X14666610Y-6507356D01*
X14666610Y-7523356D02*
X14666610Y-7452644D01*
X14595898Y-7452644D01*
X14595898Y-7523356D01*
X14666610Y-7523356D01*
X14967356Y-6507356D02*
X14967356Y-6436644D01*
X14896644Y-6436644D01*
X14896644Y-6507356D01*
X14967356Y-6507356D01*
X14967356Y-7523356D02*
X14967356Y-7452644D01*
X14896644Y-7452644D01*
X14896644Y-7523356D01*
X14967356Y-7523356D01*
X15267356Y-6507356D02*
X15267356Y-6436644D01*
X15196644Y-6436644D01*
X15196644Y-6507356D01*
X15267356Y-6507356D01*
X15267356Y-7523356D02*
X15267356Y-7452644D01*
X15196644Y-7452644D01*
X15196644Y-7523356D01*
X15267356Y-7523356D01*
X15567356Y-6507356D02*
X15567356Y-6436644D01*
X15496644Y-6436644D01*
X15496644Y-6507356D01*
X15567356Y-6507356D01*
X15567356Y-7523356D02*
X15567356Y-7452644D01*
X15496644Y-7452644D01*
X15496644Y-7523356D01*
X15567356Y-7523356D01*
X17085610Y-6515356D02*
X17085610Y-6444644D01*
X17014898Y-6444644D01*
X17014898Y-6515356D01*
X17085610Y-6515356D01*
X17085610Y-7531356D02*
X17085610Y-7460644D01*
X17014898Y-7460644D01*
X17014898Y-7531356D01*
X17085610Y-7531356D01*
X17385610Y-6515356D02*
X17385610Y-6444644D01*
X17314898Y-6444644D01*
X17314898Y-6515356D01*
X17385610Y-6515356D01*
X17385610Y-7531356D02*
X17385610Y-7460644D01*
X17314898Y-7460644D01*
X17314898Y-7531356D01*
X17385610Y-7531356D01*
X17685610Y-6515356D02*
X17685610Y-6444644D01*
X17614898Y-6444644D01*
X17614898Y-6515356D01*
X17685610Y-6515356D01*
X17685610Y-7531356D02*
X17685610Y-7460644D01*
X17614898Y-7460644D01*
X17614898Y-7531356D01*
X17685610Y-7531356D01*
X17985610Y-6515356D02*
X17985610Y-6444644D01*
X17914898Y-6444644D01*
X17914898Y-6515356D01*
X17985610Y-6515356D01*
X17985610Y-7531356D02*
X17985610Y-7460644D01*
X17914898Y-7460644D01*
X17914898Y-7531356D01*
X17985610Y-7531356D01*
X18285610Y-6515356D02*
X18285610Y-6444644D01*
X18214898Y-6444644D01*
X18214898Y-6515356D01*
X18285610Y-6515356D01*
X18285610Y-7531356D02*
X18285610Y-7460644D01*
X18214898Y-7460644D01*
X18214898Y-7531356D01*
X18285610Y-7531356D01*
X18985356Y-8735102D02*
X18985356Y-8664390D01*
X18914644Y-8664390D01*
X18914644Y-8735102D01*
X18985356Y-8735102D01*
X19055356Y-6875102D02*
X19055356Y-6804390D01*
X18984644Y-6804390D01*
X18984644Y-6875102D01*
X19055356Y-6875102D01*
X19065356Y-4985102D02*
X19065356Y-4914390D01*
X18994644Y-4914390D01*
X18994644Y-4985102D01*
X19065356Y-4985102D01*
X19079356Y-10695356D02*
X19079356Y-10624644D01*
X19008644Y-10624644D01*
X19008644Y-10695356D01*
X19079356Y-10695356D01*
X20001356Y-8735102D02*
X20001356Y-8664390D01*
X19930644Y-8664390D01*
X19930644Y-8735102D01*
X20001356Y-8735102D01*
X20071356Y-6875102D02*
X20071356Y-6804390D01*
X20000644Y-6804390D01*
X20000644Y-6875102D01*
X20071356Y-6875102D01*
X20081356Y-4985102D02*
X20081356Y-4914390D01*
X20010644Y-4914390D01*
X20010644Y-4985102D01*
X20081356Y-4985102D01*
X20095356Y-10695356D02*
X20095356Y-10624644D01*
X20024644Y-10624644D01*
X20024644Y-10695356D01*
X20095356Y-10695356D01*
X20945356Y-8545102D02*
X20945356Y-8474390D01*
X20874644Y-8474390D01*
X20874644Y-8545102D01*
X20945356Y-8545102D01*
X20955356Y-6645102D02*
X20955356Y-6574390D01*
X20884644Y-6574390D01*
X20884644Y-6645102D01*
X20955356Y-6645102D01*
X20955356Y-10515102D02*
X20955356Y-10444390D01*
X20884644Y-10444390D01*
X20884644Y-10515102D01*
X20955356Y-10515102D01*
X20990356Y-4723102D02*
X20990356Y-4652390D01*
X20919644Y-4652390D01*
X20919644Y-4723102D01*
X20990356Y-4723102D01*
X21961356Y-8545102D02*
X21961356Y-8474390D01*
X21890644Y-8474390D01*
X21890644Y-8545102D01*
X21961356Y-8545102D01*
X21971356Y-6645102D02*
X21971356Y-6574390D01*
X21900644Y-6574390D01*
X21900644Y-6645102D01*
X21971356Y-6645102D01*
X21971356Y-10515102D02*
X21971356Y-10444390D01*
X21900644Y-10444390D01*
X21900644Y-10515102D01*
X21971356Y-10515102D01*
X22006356Y-4723102D02*
X22006356Y-4652390D01*
X21935644Y-4652390D01*
X21935644Y-4723102D01*
X22006356Y-4723102D01*
X22698356Y-10470102D02*
X22698356Y-10399390D01*
X22627644Y-10399390D01*
X22627644Y-10470102D01*
X22698356Y-10470102D01*
X22845356Y-4505102D02*
X22845356Y-4434390D01*
X22774644Y-4434390D01*
X22774644Y-4505102D01*
X22845356Y-4505102D01*
X22859356Y-8305356D02*
X22859356Y-8234644D01*
X22788644Y-8234644D01*
X22788644Y-8305356D01*
X22859356Y-8305356D01*
X22885356Y-6405102D02*
X22885356Y-6334390D01*
X22814644Y-6334390D01*
X22814644Y-6405102D01*
X22885356Y-6405102D01*
X23714356Y-10470102D02*
X23714356Y-10399390D01*
X23643644Y-10399390D01*
X23643644Y-10470102D01*
X23714356Y-10470102D01*
X23861356Y-4505102D02*
X23861356Y-4434390D01*
X23790644Y-4434390D01*
X23790644Y-4505102D01*
X23861356Y-4505102D01*
X23875356Y-8305356D02*
X23875356Y-8234644D01*
X23804644Y-8234644D01*
X23804644Y-8305356D01*
X23875356Y-8305356D01*
X23901356Y-6405102D02*
X23901356Y-6334390D01*
X23830644Y-6334390D01*
X23830644Y-6405102D01*
X23901356Y-6405102D01*
X24759356Y-10455102D02*
X24759356Y-10384390D01*
X24688644Y-10384390D01*
X24688644Y-10455102D01*
X24759356Y-10455102D01*
X24775356Y-4735102D02*
X24775356Y-4664390D01*
X24704644Y-4664390D01*
X24704644Y-4735102D01*
X24775356Y-4735102D01*
X24779356Y-8545356D02*
X24779356Y-8474644D01*
X24708644Y-8474644D01*
X24708644Y-8545356D01*
X24779356Y-8545356D01*
X24785356Y-6645102D02*
X24785356Y-6574390D01*
X24714644Y-6574390D01*
X24714644Y-6645102D01*
X24785356Y-6645102D01*
X25575356Y-10965102D02*
X25575356Y-10894390D01*
X25504644Y-10894390D01*
X25504644Y-10965102D01*
X25575356Y-10965102D01*
X25775356Y-10455102D02*
X25775356Y-10384390D01*
X25704644Y-10384390D01*
X25704644Y-10455102D01*
X25775356Y-10455102D01*
X25791356Y-4735102D02*
X25791356Y-4664390D01*
X25720644Y-4664390D01*
X25720644Y-4735102D01*
X25791356Y-4735102D01*
X25795356Y-8545356D02*
X25795356Y-8474644D01*
X25724644Y-8474644D01*
X25724644Y-8545356D01*
X25795356Y-8545356D01*
X25801356Y-6645102D02*
X25801356Y-6574390D01*
X25730644Y-6574390D01*
X25730644Y-6645102D01*
X25801356Y-6645102D01*
X26591356Y-10965102D02*
X26591356Y-10894390D01*
X26520644Y-10894390D01*
X26520644Y-10965102D01*
X26591356Y-10965102D01*
X26675356Y-5215102D02*
X26675356Y-5144390D01*
X26604644Y-5144390D01*
X26604644Y-5215102D01*
X26675356Y-5215102D01*
X26675356Y-7105102D02*
X26675356Y-7034390D01*
X26604644Y-7034390D01*
X26604644Y-7105102D01*
X26675356Y-7105102D01*
X26685356Y-9015102D02*
X26685356Y-8944390D01*
X26614644Y-8944390D01*
X26614644Y-9015102D01*
X26685356Y-9015102D01*
X27095356Y-10965102D02*
X27095356Y-10894390D01*
X27024644Y-10894390D01*
X27024644Y-10965102D01*
X27095356Y-10965102D01*
X27691356Y-5215102D02*
X27691356Y-5144390D01*
X27620644Y-5144390D01*
X27620644Y-5215102D01*
X27691356Y-5215102D01*
X27691356Y-7105102D02*
X27691356Y-7034390D01*
X27620644Y-7034390D01*
X27620644Y-7105102D01*
X27691356Y-7105102D01*
X27701356Y-9015102D02*
X27701356Y-8944390D01*
X27630644Y-8944390D01*
X27630644Y-9015102D01*
X27701356Y-9015102D01*
X28111356Y-10965102D02*
X28111356Y-10894390D01*
X28040644Y-10894390D01*
X28040644Y-10965102D01*
X28111356Y-10965102D01*
X28565356Y-9255102D02*
X28565356Y-9184390D01*
X28494644Y-9184390D01*
X28494644Y-9255102D01*
X28565356Y-9255102D01*
X28569356Y-7355356D02*
X28569356Y-7284644D01*
X28498644Y-7284644D01*
X28498644Y-7355356D01*
X28569356Y-7355356D01*
X28585356Y-5455102D02*
X28585356Y-5384390D01*
X28514644Y-5384390D01*
X28514644Y-5455102D01*
X28585356Y-5455102D01*
X29581356Y-9255102D02*
X29581356Y-9184390D01*
X29510644Y-9184390D01*
X29510644Y-9255102D01*
X29581356Y-9255102D01*
X29585356Y-7355356D02*
X29585356Y-7284644D01*
X29514644Y-7284644D01*
X29514644Y-7355356D01*
X29585356Y-7355356D01*
X29601356Y-5455102D02*
X29601356Y-5384390D01*
X29530644Y-5384390D01*
X29530644Y-5455102D01*
X29601356Y-5455102D01*
D14*
X14319000Y-2731285D02*
X14373610Y-2676675D01*
X14319000Y-2622065D01*
X14264390Y-2676675D01*
X14319000Y-2731285D01*
X14319000Y-2985285D02*
X14373610Y-2930675D01*
X14319000Y-2876065D01*
X14264390Y-2930675D01*
X14319000Y-2985285D01*
X14319000Y-3239285D02*
X14373610Y-3184675D01*
X14319000Y-3130065D01*
X14264390Y-3184675D01*
X14319000Y-3239285D01*
X14319000Y-3493285D02*
X14373610Y-3438675D01*
X14319000Y-3384065D01*
X14264390Y-3438675D01*
X14319000Y-3493285D01*
X14319000Y-3747285D02*
X14373610Y-3692675D01*
X14319000Y-3638065D01*
X14264390Y-3692675D01*
X14319000Y-3747285D01*
X14319000Y-4001285D02*
X14373610Y-3946675D01*
X14319000Y-3892065D01*
X14264390Y-3946675D01*
X14319000Y-4001285D01*
X14319000Y-4255285D02*
X14373610Y-4200675D01*
X14319000Y-4146065D01*
X14264390Y-4200675D01*
X14319000Y-4255285D01*
X14319000Y-4509285D02*
X14373610Y-4454675D01*
X14319000Y-4400065D01*
X14264390Y-4454675D01*
X14319000Y-4509285D01*
X14319000Y-4763285D02*
X14373610Y-4708675D01*
X14319000Y-4654065D01*
X14264390Y-4708675D01*
X14319000Y-4763285D01*
X14319000Y-5017285D02*
X14373610Y-4962675D01*
X14319000Y-4908065D01*
X14264390Y-4962675D01*
X14319000Y-5017285D01*
X14319000Y-5271285D02*
X14373610Y-5216675D01*
X14319000Y-5162065D01*
X14264390Y-5216675D01*
X14319000Y-5271285D01*
X14319000Y-5525285D02*
X14373610Y-5470675D01*
X14319000Y-5416065D01*
X14264390Y-5470675D01*
X14319000Y-5525285D01*
X14573000Y-5017285D02*
X14627610Y-4962675D01*
X14573000Y-4908065D01*
X14518390Y-4962675D01*
X14573000Y-5017285D01*
X14573000Y-5915341D02*
X14627610Y-5860731D01*
X14573000Y-5806121D01*
X14518390Y-5860731D01*
X14573000Y-5915341D01*
X14827000Y-5017285D02*
X14881610Y-4962675D01*
X14827000Y-4908065D01*
X14772390Y-4962675D01*
X14827000Y-5017285D01*
X14827000Y-5915341D02*
X14881610Y-5860731D01*
X14827000Y-5806121D01*
X14772390Y-5860731D01*
X14827000Y-5915341D01*
X15081000Y-5017285D02*
X15135610Y-4962675D01*
X15081000Y-4908065D01*
X15026390Y-4962675D01*
X15081000Y-5017285D01*
X15081000Y-5915341D02*
X15135610Y-5860731D01*
X15081000Y-5806121D01*
X15026390Y-5860731D01*
X15081000Y-5915341D01*
X15335000Y-5915341D02*
X15389610Y-5860731D01*
X15335000Y-5806121D01*
X15280390Y-5860731D01*
X15335000Y-5915341D01*
X15589000Y-5915341D02*
X15643610Y-5860731D01*
X15589000Y-5806121D01*
X15534390Y-5860731D01*
X15589000Y-5915341D01*
X15843000Y-2731285D02*
X15897610Y-2676675D01*
X15843000Y-2622065D01*
X15788390Y-2676675D01*
X15843000Y-2731285D01*
X15843000Y-2985285D02*
X15897610Y-2930675D01*
X15843000Y-2876065D01*
X15788390Y-2930675D01*
X15843000Y-2985285D01*
X15843000Y-3239285D02*
X15897610Y-3184675D01*
X15843000Y-3130065D01*
X15788390Y-3184675D01*
X15843000Y-3239285D01*
X15843000Y-3493285D02*
X15897610Y-3438675D01*
X15843000Y-3384065D01*
X15788390Y-3438675D01*
X15843000Y-3493285D01*
X15843000Y-3747285D02*
X15897610Y-3692675D01*
X15843000Y-3638065D01*
X15788390Y-3692675D01*
X15843000Y-3747285D01*
X15843000Y-4001285D02*
X15897610Y-3946675D01*
X15843000Y-3892065D01*
X15788390Y-3946675D01*
X15843000Y-4001285D01*
X15843000Y-4255285D02*
X15897610Y-4200675D01*
X15843000Y-4146065D01*
X15788390Y-4200675D01*
X15843000Y-4255285D01*
X15843000Y-4509285D02*
X15897610Y-4454675D01*
X15843000Y-4400065D01*
X15788390Y-4454675D01*
X15843000Y-4509285D01*
X15843000Y-4763285D02*
X15897610Y-4708675D01*
X15843000Y-4654065D01*
X15788390Y-4708675D01*
X15843000Y-4763285D01*
X15843000Y-5017285D02*
X15897610Y-4962675D01*
X15843000Y-4908065D01*
X15788390Y-4962675D01*
X15843000Y-5017285D01*
X15843000Y-5271285D02*
X15897610Y-5216675D01*
X15843000Y-5162065D01*
X15788390Y-5216675D01*
X15843000Y-5271285D01*
X15843000Y-5525285D02*
X15897610Y-5470675D01*
X15843000Y-5416065D01*
X15788390Y-5470675D01*
X15843000Y-5525285D01*
X16716000Y-2731655D02*
X16770610Y-2677045D01*
X16716000Y-2622435D01*
X16661390Y-2677045D01*
X16716000Y-2731655D01*
X16716000Y-2985655D02*
X16770610Y-2931045D01*
X16716000Y-2876435D01*
X16661390Y-2931045D01*
X16716000Y-2985655D01*
X16716000Y-3239655D02*
X16770610Y-3185045D01*
X16716000Y-3130435D01*
X16661390Y-3185045D01*
X16716000Y-3239655D01*
X16716000Y-3493655D02*
X16770610Y-3439045D01*
X16716000Y-3384435D01*
X16661390Y-3439045D01*
X16716000Y-3493655D01*
X16716000Y-3747655D02*
X16770610Y-3693045D01*
X16716000Y-3638435D01*
X16661390Y-3693045D01*
X16716000Y-3747655D01*
X16716000Y-4001655D02*
X16770610Y-3947045D01*
X16716000Y-3892435D01*
X16661390Y-3947045D01*
X16716000Y-4001655D01*
X16716000Y-4255655D02*
X16770610Y-4201045D01*
X16716000Y-4146435D01*
X16661390Y-4201045D01*
X16716000Y-4255655D01*
X16716000Y-4509655D02*
X16770610Y-4455045D01*
X16716000Y-4400435D01*
X16661390Y-4455045D01*
X16716000Y-4509655D01*
X16716000Y-4763655D02*
X16770610Y-4709045D01*
X16716000Y-4654435D01*
X16661390Y-4709045D01*
X16716000Y-4763655D01*
X16716000Y-5017655D02*
X16770610Y-4963045D01*
X16716000Y-4908435D01*
X16661390Y-4963045D01*
X16716000Y-5017655D01*
X16716000Y-5271655D02*
X16770610Y-5217045D01*
X16716000Y-5162435D01*
X16661390Y-5217045D01*
X16716000Y-5271655D01*
X16716000Y-5525655D02*
X16770610Y-5471045D01*
X16716000Y-5416435D01*
X16661390Y-5471045D01*
X16716000Y-5525655D01*
X16970000Y-5017655D02*
X17024610Y-4963045D01*
X16970000Y-4908435D01*
X16915390Y-4963045D01*
X16970000Y-5017655D01*
X16970000Y-5917610D02*
X17024610Y-5863000D01*
X16970000Y-5808390D01*
X16915390Y-5863000D01*
X16970000Y-5917610D01*
X17224000Y-5017655D02*
X17278610Y-4963045D01*
X17224000Y-4908435D01*
X17169390Y-4963045D01*
X17224000Y-5017655D01*
X17224000Y-5917610D02*
X17278610Y-5863000D01*
X17224000Y-5808390D01*
X17169390Y-5863000D01*
X17224000Y-5917610D01*
X17478000Y-5017655D02*
X17532610Y-4963045D01*
X17478000Y-4908435D01*
X17423390Y-4963045D01*
X17478000Y-5017655D01*
X17478000Y-5917610D02*
X17532610Y-5863000D01*
X17478000Y-5808390D01*
X17423390Y-5863000D01*
X17478000Y-5917610D01*
X17732000Y-5917610D02*
X17786610Y-5863000D01*
X17732000Y-5808390D01*
X17677390Y-5863000D01*
X17732000Y-5917610D01*
X17986000Y-5917610D02*
X18040610Y-5863000D01*
X17986000Y-5808390D01*
X17931390Y-5863000D01*
X17986000Y-5917610D01*
X18240000Y-2731655D02*
X18294610Y-2677045D01*
X18240000Y-2622435D01*
X18185390Y-2677045D01*
X18240000Y-2731655D01*
X18240000Y-2985655D02*
X18294610Y-2931045D01*
X18240000Y-2876435D01*
X18185390Y-2931045D01*
X18240000Y-2985655D01*
X18240000Y-3239655D02*
X18294610Y-3185045D01*
X18240000Y-3130435D01*
X18185390Y-3185045D01*
X18240000Y-3239655D01*
X18240000Y-3493655D02*
X18294610Y-3439045D01*
X18240000Y-3384435D01*
X18185390Y-3439045D01*
X18240000Y-3493655D01*
X18240000Y-3747655D02*
X18294610Y-3693045D01*
X18240000Y-3638435D01*
X18185390Y-3693045D01*
X18240000Y-3747655D01*
X18240000Y-4001655D02*
X18294610Y-3947045D01*
X18240000Y-3892435D01*
X18185390Y-3947045D01*
X18240000Y-4001655D01*
X18240000Y-4255655D02*
X18294610Y-4201045D01*
X18240000Y-4146435D01*
X18185390Y-4201045D01*
X18240000Y-4255655D01*
X18240000Y-4509655D02*
X18294610Y-4455045D01*
X18240000Y-4400435D01*
X18185390Y-4455045D01*
X18240000Y-4509655D01*
X18240000Y-4763655D02*
X18294610Y-4709045D01*
X18240000Y-4654435D01*
X18185390Y-4709045D01*
X18240000Y-4763655D01*
X18240000Y-5017655D02*
X18294610Y-4963045D01*
X18240000Y-4908435D01*
X18185390Y-4963045D01*
X18240000Y-5017655D01*
X18240000Y-5271655D02*
X18294610Y-5217045D01*
X18240000Y-5162435D01*
X18185390Y-5217045D01*
X18240000Y-5271655D01*
X18240000Y-5525655D02*
X18294610Y-5471045D01*
X18240000Y-5416435D01*
X18185390Y-5471045D01*
X18240000Y-5525655D01*
D15*
X13198839Y-2380387D02*
X13328839Y-2510387D01*
X13328839Y-2380387D02*
X13198839Y-2510387D01*
X13328839Y-2445387D02*
G75*
G03*
X13328839Y-2445387I-65000J0D01*
G01*
X13848839Y-2380387D02*
X13978839Y-2510387D01*
X13978839Y-2380387D02*
X13848839Y-2510387D01*
X13978839Y-2445387D02*
G75*
G03*
X13978839Y-2445387I-65000J0D01*
G01*
X18665015Y-2382105D02*
X18795015Y-2512105D01*
X18795015Y-2382105D02*
X18665015Y-2512105D01*
X18795015Y-2447105D02*
G75*
G03*
X18795015Y-2447105I-65000J0D01*
G01*
X19315015Y-2382105D02*
X19445015Y-2512105D01*
X19445015Y-2382105D02*
X19315015Y-2512105D01*
X19445015Y-2447105D02*
G75*
G03*
X19445015Y-2447105I-65000J0D01*
G01*
D16*
X4422000Y-8779000D02*
X4672000Y-9029000D01*
X4672000Y-8779000D02*
X4422000Y-9029000D01*
X4547000Y-8779000D02*
X4547000Y-9029000D01*
X4422000Y-8904000D02*
X4672000Y-8904000D01*
X4429000Y-5077000D02*
X4679000Y-5327000D01*
X4679000Y-5077000D02*
X4429000Y-5327000D01*
X4554000Y-5077000D02*
X4554000Y-5327000D01*
X4429000Y-5202000D02*
X4679000Y-5202000D01*
X11917000Y-4571000D02*
X12167000Y-4821000D01*
X12167000Y-4571000D02*
X11917000Y-4821000D01*
X12042000Y-4571000D02*
X12042000Y-4821000D01*
X11917000Y-4696000D02*
X12167000Y-4696000D01*
X11959000Y-8312000D02*
X12209000Y-8562000D01*
X12209000Y-8312000D02*
X11959000Y-8562000D01*
X12084000Y-8312000D02*
X12084000Y-8562000D01*
X11959000Y-8437000D02*
X12209000Y-8437000D01*
X14322000Y-10172000D02*
X14572000Y-10422000D01*
X14572000Y-10172000D02*
X14322000Y-10422000D01*
X14447000Y-10172000D02*
X14447000Y-10422000D01*
X14322000Y-10297000D02*
X14572000Y-10297000D01*
X18014000Y-10170000D02*
X18264000Y-10420000D01*
X18264000Y-10170000D02*
X18014000Y-10420000D01*
X18139000Y-10170000D02*
X18139000Y-10420000D01*
X18014000Y-10295000D02*
X18264000Y-10295000D01*
X20415000Y-4570000D02*
X20665000Y-4820000D01*
X20665000Y-4570000D02*
X20415000Y-4820000D01*
X20540000Y-4570000D02*
X20540000Y-4820000D01*
X20415000Y-4695000D02*
X20665000Y-4695000D01*
X23922000Y-10068000D02*
X24172000Y-10318000D01*
X24172000Y-10068000D02*
X23922000Y-10318000D01*
X24047000Y-10068000D02*
X24047000Y-10318000D01*
X23922000Y-10193000D02*
X24172000Y-10193000D01*
X27918000Y-5071000D02*
X28168000Y-5321000D01*
X28168000Y-5071000D02*
X27918000Y-5321000D01*
X28043000Y-5071000D02*
X28043000Y-5321000D01*
X27918000Y-5196000D02*
X28168000Y-5196000D01*
X27927000Y-8786000D02*
X28177000Y-9036000D01*
X28177000Y-8786000D02*
X27927000Y-9036000D01*
X28052000Y-8786000D02*
X28052000Y-9036000D01*
X27927000Y-8911000D02*
X28177000Y-8911000D01*
D11*
X2748995Y-13574687D02*
X2748995Y-13374687D01*
X2796614Y-13374687D01*
X2825185Y-13384211D01*
X2844233Y-13403259D01*
X2853757Y-13422307D01*
X2863281Y-13460402D01*
X2863281Y-13488973D01*
X2853757Y-13527068D01*
X2844233Y-13546116D01*
X2825185Y-13565164D01*
X2796614Y-13574687D01*
X2748995Y-13574687D01*
X2948995Y-13574687D02*
X2948995Y-13441354D01*
X2948995Y-13479449D02*
X2958519Y-13460402D01*
X2968042Y-13450878D01*
X2987090Y-13441354D01*
X3006138Y-13441354D01*
X3072804Y-13574687D02*
X3072804Y-13441354D01*
X3072804Y-13374687D02*
X3063281Y-13384211D01*
X3072804Y-13393735D01*
X3082328Y-13384211D01*
X3072804Y-13374687D01*
X3072804Y-13393735D01*
X3196614Y-13574687D02*
X3177566Y-13565164D01*
X3168042Y-13546116D01*
X3168042Y-13374687D01*
X3301376Y-13574687D02*
X3282328Y-13565164D01*
X3272804Y-13546116D01*
X3272804Y-13374687D01*
X3529947Y-13574687D02*
X3529947Y-13374687D01*
X3596614Y-13517545D01*
X3663281Y-13374687D01*
X3663281Y-13574687D01*
X3844233Y-13574687D02*
X3844233Y-13469926D01*
X3834709Y-13450878D01*
X3815662Y-13441354D01*
X3777566Y-13441354D01*
X3758519Y-13450878D01*
X3844233Y-13565164D02*
X3825185Y-13574687D01*
X3777566Y-13574687D01*
X3758519Y-13565164D01*
X3748995Y-13546116D01*
X3748995Y-13527068D01*
X3758519Y-13508021D01*
X3777566Y-13498497D01*
X3825185Y-13498497D01*
X3844233Y-13488973D01*
X3939471Y-13441354D02*
X3939471Y-13641354D01*
X3939471Y-13450878D02*
X3958519Y-13441354D01*
X3996614Y-13441354D01*
X4015662Y-13450878D01*
X4025185Y-13460402D01*
X4034709Y-13479449D01*
X4034709Y-13536592D01*
X4025185Y-13555640D01*
X4015662Y-13565164D01*
X3996614Y-13574687D01*
X3958519Y-13574687D01*
X3939471Y-13565164D01*
X4120423Y-13555640D02*
X4129947Y-13565164D01*
X4120423Y-13574687D01*
X4110900Y-13565164D01*
X4120423Y-13555640D01*
X4120423Y-13574687D01*
X4120423Y-13450878D02*
X4129947Y-13460402D01*
X4120423Y-13469926D01*
X4110900Y-13460402D01*
X4120423Y-13450878D01*
X4120423Y-13469926D01*
D12*
X2451376Y-13884211D02*
X2491376Y-13924211D01*
X2491376Y-13884211D02*
X2451376Y-13924211D01*
D11*
X2787090Y-13794687D02*
X2806138Y-13794687D01*
X2825185Y-13804211D01*
X2834709Y-13813735D01*
X2844233Y-13832783D01*
X2853757Y-13870878D01*
X2853757Y-13918497D01*
X2844233Y-13956592D01*
X2834709Y-13975640D01*
X2825185Y-13985164D01*
X2806138Y-13994687D01*
X2787090Y-13994687D01*
X2768043Y-13985164D01*
X2758519Y-13975640D01*
X2748995Y-13956592D01*
X2739471Y-13918497D01*
X2739471Y-13870878D01*
X2748995Y-13832783D01*
X2758519Y-13813735D01*
X2768043Y-13804211D01*
X2787090Y-13794687D01*
X2939471Y-13975640D02*
X2948995Y-13985164D01*
X2939471Y-13994687D01*
X2929947Y-13985164D01*
X2939471Y-13975640D01*
X2939471Y-13994687D01*
X3120423Y-13861354D02*
X3120423Y-13994687D01*
X3072804Y-13785164D02*
X3025185Y-13928021D01*
X3148995Y-13928021D01*
X3263281Y-13794687D02*
X3282328Y-13794687D01*
X3301376Y-13804211D01*
X3310900Y-13813735D01*
X3320423Y-13832783D01*
X3329947Y-13870878D01*
X3329947Y-13918497D01*
X3320423Y-13956592D01*
X3310900Y-13975640D01*
X3301376Y-13985164D01*
X3282328Y-13994687D01*
X3263281Y-13994687D01*
X3244233Y-13985164D01*
X3234709Y-13975640D01*
X3225185Y-13956592D01*
X3215662Y-13918497D01*
X3215662Y-13870878D01*
X3225185Y-13832783D01*
X3234709Y-13813735D01*
X3244233Y-13804211D01*
X3263281Y-13794687D01*
X3453757Y-13794687D02*
X3472804Y-13794687D01*
X3491852Y-13804211D01*
X3501376Y-13813735D01*
X3510900Y-13832783D01*
X3520423Y-13870878D01*
X3520423Y-13918497D01*
X3510900Y-13956592D01*
X3501376Y-13975640D01*
X3491852Y-13985164D01*
X3472804Y-13994687D01*
X3453757Y-13994687D01*
X3434709Y-13985164D01*
X3425185Y-13975640D01*
X3415662Y-13956592D01*
X3406138Y-13918497D01*
X3406138Y-13870878D01*
X3415662Y-13832783D01*
X3425185Y-13813735D01*
X3434709Y-13804211D01*
X3453757Y-13794687D01*
X3606138Y-13994687D02*
X3606138Y-13861354D01*
X3606138Y-13880402D02*
X3615662Y-13870878D01*
X3634709Y-13861354D01*
X3663281Y-13861354D01*
X3682328Y-13870878D01*
X3691852Y-13889926D01*
X3691852Y-13994687D01*
X3691852Y-13889926D02*
X3701376Y-13870878D01*
X3720423Y-13861354D01*
X3748995Y-13861354D01*
X3768042Y-13870878D01*
X3777566Y-13889926D01*
X3777566Y-13994687D01*
X3872804Y-13994687D02*
X3872804Y-13861354D01*
X3872804Y-13880402D02*
X3882328Y-13870878D01*
X3901376Y-13861354D01*
X3929947Y-13861354D01*
X3948995Y-13870878D01*
X3958519Y-13889926D01*
X3958519Y-13994687D01*
X3958519Y-13889926D02*
X3968042Y-13870878D01*
X3987090Y-13861354D01*
X4015662Y-13861354D01*
X4034709Y-13870878D01*
X4044233Y-13889926D01*
X4044233Y-13994687D01*
X4434709Y-13785164D02*
X4263281Y-14042307D01*
X4691852Y-13794687D02*
X4710900Y-13794687D01*
X4729947Y-13804211D01*
X4739471Y-13813735D01*
X4748995Y-13832783D01*
X4758519Y-13870878D01*
X4758519Y-13918497D01*
X4748995Y-13956592D01*
X4739471Y-13975640D01*
X4729947Y-13985164D01*
X4710900Y-13994687D01*
X4691852Y-13994687D01*
X4672804Y-13985164D01*
X4663281Y-13975640D01*
X4653757Y-13956592D01*
X4644233Y-13918497D01*
X4644233Y-13870878D01*
X4653757Y-13832783D01*
X4663281Y-13813735D01*
X4672804Y-13804211D01*
X4691852Y-13794687D01*
X4844233Y-13975640D02*
X4853757Y-13985164D01*
X4844233Y-13994687D01*
X4834709Y-13985164D01*
X4844233Y-13975640D01*
X4844233Y-13994687D01*
X4977566Y-13794687D02*
X4996614Y-13794687D01*
X5015662Y-13804211D01*
X5025185Y-13813735D01*
X5034709Y-13832783D01*
X5044233Y-13870878D01*
X5044233Y-13918497D01*
X5034709Y-13956592D01*
X5025185Y-13975640D01*
X5015662Y-13985164D01*
X4996614Y-13994687D01*
X4977566Y-13994687D01*
X4958519Y-13985164D01*
X4948995Y-13975640D01*
X4939471Y-13956592D01*
X4929947Y-13918497D01*
X4929947Y-13870878D01*
X4939471Y-13832783D01*
X4948995Y-13813735D01*
X4958519Y-13804211D01*
X4977566Y-13794687D01*
X5234709Y-13994687D02*
X5120424Y-13994687D01*
X5177566Y-13994687D02*
X5177566Y-13794687D01*
X5158519Y-13823259D01*
X5139471Y-13842307D01*
X5120424Y-13851830D01*
X5415662Y-13794687D02*
X5320424Y-13794687D01*
X5310900Y-13889926D01*
X5320424Y-13880402D01*
X5339471Y-13870878D01*
X5387090Y-13870878D01*
X5406138Y-13880402D01*
X5415662Y-13889926D01*
X5425185Y-13908973D01*
X5425185Y-13956592D01*
X5415662Y-13975640D01*
X5406138Y-13985164D01*
X5387090Y-13994687D01*
X5339471Y-13994687D01*
X5320424Y-13985164D01*
X5310900Y-13975640D01*
X5491852Y-13794687D02*
X5625185Y-13794687D01*
X5539471Y-13994687D01*
X5691852Y-13794687D02*
X5691852Y-13832783D01*
X5768042Y-13794687D02*
X5768042Y-13832783D01*
X6063281Y-14070878D02*
X6053757Y-14061354D01*
X6034709Y-14032783D01*
X6025185Y-14013735D01*
X6015662Y-13985164D01*
X6006138Y-13937545D01*
X6006138Y-13899449D01*
X6015662Y-13851830D01*
X6025185Y-13823259D01*
X6034709Y-13804211D01*
X6053757Y-13775640D01*
X6063281Y-13766116D01*
X6244233Y-13994687D02*
X6129947Y-13994687D01*
X6187090Y-13994687D02*
X6187090Y-13794687D01*
X6168042Y-13823259D01*
X6148995Y-13842307D01*
X6129947Y-13851830D01*
X6434709Y-13994687D02*
X6320423Y-13994687D01*
X6377566Y-13994687D02*
X6377566Y-13794687D01*
X6358519Y-13823259D01*
X6339471Y-13842307D01*
X6320423Y-13851830D01*
X6615662Y-13794687D02*
X6520423Y-13794687D01*
X6510900Y-13889926D01*
X6520423Y-13880402D01*
X6539471Y-13870878D01*
X6587090Y-13870878D01*
X6606138Y-13880402D01*
X6615662Y-13889926D01*
X6625185Y-13908973D01*
X6625185Y-13956592D01*
X6615662Y-13975640D01*
X6606138Y-13985164D01*
X6587090Y-13994687D01*
X6539471Y-13994687D01*
X6520423Y-13985164D01*
X6510900Y-13975640D01*
X6863281Y-13994687D02*
X6863281Y-13794687D01*
X6948995Y-13994687D02*
X6948995Y-13889926D01*
X6939471Y-13870878D01*
X6920423Y-13861354D01*
X6891852Y-13861354D01*
X6872804Y-13870878D01*
X6863281Y-13880402D01*
X7072804Y-13994687D02*
X7053757Y-13985164D01*
X7044233Y-13975640D01*
X7034709Y-13956592D01*
X7034709Y-13899449D01*
X7044233Y-13880402D01*
X7053757Y-13870878D01*
X7072804Y-13861354D01*
X7101376Y-13861354D01*
X7120423Y-13870878D01*
X7129947Y-13880402D01*
X7139471Y-13899449D01*
X7139471Y-13956592D01*
X7129947Y-13975640D01*
X7120423Y-13985164D01*
X7101376Y-13994687D01*
X7072804Y-13994687D01*
X7253757Y-13994687D02*
X7234709Y-13985164D01*
X7225185Y-13966116D01*
X7225185Y-13794687D01*
X7406138Y-13985164D02*
X7387090Y-13994687D01*
X7348995Y-13994687D01*
X7329947Y-13985164D01*
X7320423Y-13966116D01*
X7320423Y-13889926D01*
X7329947Y-13870878D01*
X7348995Y-13861354D01*
X7387090Y-13861354D01*
X7406138Y-13870878D01*
X7415662Y-13889926D01*
X7415662Y-13908973D01*
X7320423Y-13928021D01*
X7491852Y-13985164D02*
X7510900Y-13994687D01*
X7548995Y-13994687D01*
X7568042Y-13985164D01*
X7577566Y-13966116D01*
X7577566Y-13956592D01*
X7568042Y-13937545D01*
X7548995Y-13928021D01*
X7520423Y-13928021D01*
X7501376Y-13918497D01*
X7491852Y-13899449D01*
X7491852Y-13889926D01*
X7501376Y-13870878D01*
X7520423Y-13861354D01*
X7548995Y-13861354D01*
X7568042Y-13870878D01*
X7644233Y-14070878D02*
X7653757Y-14061354D01*
X7672804Y-14032783D01*
X7682328Y-14013735D01*
X7691852Y-13985164D01*
X7701376Y-13937545D01*
X7701376Y-13899449D01*
X7691852Y-13851830D01*
X7682328Y-13823259D01*
X7672804Y-13804211D01*
X7653757Y-13775640D01*
X7644233Y-13766116D01*
D12*
X2491376Y-14168211D02*
G75*
G03*
X2491376Y-14168211I-20000J0D01*
G01*
D11*
X2787090Y-14058687D02*
X2806138Y-14058687D01*
X2825185Y-14068211D01*
X2834709Y-14077735D01*
X2844233Y-14096783D01*
X2853757Y-14134878D01*
X2853757Y-14182497D01*
X2844233Y-14220592D01*
X2834709Y-14239640D01*
X2825185Y-14249164D01*
X2806138Y-14258687D01*
X2787090Y-14258687D01*
X2768043Y-14249164D01*
X2758519Y-14239640D01*
X2748995Y-14220592D01*
X2739471Y-14182497D01*
X2739471Y-14134878D01*
X2748995Y-14096783D01*
X2758519Y-14077735D01*
X2768043Y-14068211D01*
X2787090Y-14058687D01*
X2939471Y-14239640D02*
X2948995Y-14249164D01*
X2939471Y-14258687D01*
X2929947Y-14249164D01*
X2939471Y-14239640D01*
X2939471Y-14258687D01*
X3120423Y-14125354D02*
X3120423Y-14258687D01*
X3072804Y-14049164D02*
X3025185Y-14192021D01*
X3148995Y-14192021D01*
X3263281Y-14058687D02*
X3282328Y-14058687D01*
X3301376Y-14068211D01*
X3310900Y-14077735D01*
X3320423Y-14096783D01*
X3329947Y-14134878D01*
X3329947Y-14182497D01*
X3320423Y-14220592D01*
X3310900Y-14239640D01*
X3301376Y-14249164D01*
X3282328Y-14258687D01*
X3263281Y-14258687D01*
X3244233Y-14249164D01*
X3234709Y-14239640D01*
X3225185Y-14220592D01*
X3215662Y-14182497D01*
X3215662Y-14134878D01*
X3225185Y-14096783D01*
X3234709Y-14077735D01*
X3244233Y-14068211D01*
X3263281Y-14058687D01*
X3453757Y-14058687D02*
X3472804Y-14058687D01*
X3491852Y-14068211D01*
X3501376Y-14077735D01*
X3510900Y-14096783D01*
X3520423Y-14134878D01*
X3520423Y-14182497D01*
X3510900Y-14220592D01*
X3501376Y-14239640D01*
X3491852Y-14249164D01*
X3472804Y-14258687D01*
X3453757Y-14258687D01*
X3434709Y-14249164D01*
X3425185Y-14239640D01*
X3415662Y-14220592D01*
X3406138Y-14182497D01*
X3406138Y-14134878D01*
X3415662Y-14096783D01*
X3425185Y-14077735D01*
X3434709Y-14068211D01*
X3453757Y-14058687D01*
X3606138Y-14258687D02*
X3606138Y-14125354D01*
X3606138Y-14144402D02*
X3615662Y-14134878D01*
X3634709Y-14125354D01*
X3663281Y-14125354D01*
X3682328Y-14134878D01*
X3691852Y-14153926D01*
X3691852Y-14258687D01*
X3691852Y-14153926D02*
X3701376Y-14134878D01*
X3720423Y-14125354D01*
X3748995Y-14125354D01*
X3768042Y-14134878D01*
X3777566Y-14153926D01*
X3777566Y-14258687D01*
X3872804Y-14258687D02*
X3872804Y-14125354D01*
X3872804Y-14144402D02*
X3882328Y-14134878D01*
X3901376Y-14125354D01*
X3929947Y-14125354D01*
X3948995Y-14134878D01*
X3958519Y-14153926D01*
X3958519Y-14258687D01*
X3958519Y-14153926D02*
X3968042Y-14134878D01*
X3987090Y-14125354D01*
X4015662Y-14125354D01*
X4034709Y-14134878D01*
X4044233Y-14153926D01*
X4044233Y-14258687D01*
X4434709Y-14049164D02*
X4263281Y-14306307D01*
X4691852Y-14058687D02*
X4710900Y-14058687D01*
X4729947Y-14068211D01*
X4739471Y-14077735D01*
X4748995Y-14096783D01*
X4758519Y-14134878D01*
X4758519Y-14182497D01*
X4748995Y-14220592D01*
X4739471Y-14239640D01*
X4729947Y-14249164D01*
X4710900Y-14258687D01*
X4691852Y-14258687D01*
X4672804Y-14249164D01*
X4663281Y-14239640D01*
X4653757Y-14220592D01*
X4644233Y-14182497D01*
X4644233Y-14134878D01*
X4653757Y-14096783D01*
X4663281Y-14077735D01*
X4672804Y-14068211D01*
X4691852Y-14058687D01*
X4844233Y-14239640D02*
X4853757Y-14249164D01*
X4844233Y-14258687D01*
X4834709Y-14249164D01*
X4844233Y-14239640D01*
X4844233Y-14258687D01*
X4977566Y-14058687D02*
X4996614Y-14058687D01*
X5015662Y-14068211D01*
X5025185Y-14077735D01*
X5034709Y-14096783D01*
X5044233Y-14134878D01*
X5044233Y-14182497D01*
X5034709Y-14220592D01*
X5025185Y-14239640D01*
X5015662Y-14249164D01*
X4996614Y-14258687D01*
X4977566Y-14258687D01*
X4958519Y-14249164D01*
X4948995Y-14239640D01*
X4939471Y-14220592D01*
X4929947Y-14182497D01*
X4929947Y-14134878D01*
X4939471Y-14096783D01*
X4948995Y-14077735D01*
X4958519Y-14068211D01*
X4977566Y-14058687D01*
X5234709Y-14258687D02*
X5120424Y-14258687D01*
X5177566Y-14258687D02*
X5177566Y-14058687D01*
X5158519Y-14087259D01*
X5139471Y-14106307D01*
X5120424Y-14115830D01*
X5415662Y-14058687D02*
X5320424Y-14058687D01*
X5310900Y-14153926D01*
X5320424Y-14144402D01*
X5339471Y-14134878D01*
X5387090Y-14134878D01*
X5406138Y-14144402D01*
X5415662Y-14153926D01*
X5425185Y-14172973D01*
X5425185Y-14220592D01*
X5415662Y-14239640D01*
X5406138Y-14249164D01*
X5387090Y-14258687D01*
X5339471Y-14258687D01*
X5320424Y-14249164D01*
X5310900Y-14239640D01*
X5491852Y-14058687D02*
X5625185Y-14058687D01*
X5539471Y-14258687D01*
X5691852Y-14058687D02*
X5691852Y-14096783D01*
X5768042Y-14058687D02*
X5768042Y-14096783D01*
X6063281Y-14334878D02*
X6053757Y-14325354D01*
X6034709Y-14296783D01*
X6025185Y-14277735D01*
X6015662Y-14249164D01*
X6006138Y-14201545D01*
X6006138Y-14163449D01*
X6015662Y-14115830D01*
X6025185Y-14087259D01*
X6034709Y-14068211D01*
X6053757Y-14039640D01*
X6063281Y-14030116D01*
X6244233Y-14258687D02*
X6129947Y-14258687D01*
X6187090Y-14258687D02*
X6187090Y-14058687D01*
X6168042Y-14087259D01*
X6148995Y-14106307D01*
X6129947Y-14115830D01*
X6434709Y-14258687D02*
X6320423Y-14258687D01*
X6377566Y-14258687D02*
X6377566Y-14058687D01*
X6358519Y-14087259D01*
X6339471Y-14106307D01*
X6320423Y-14115830D01*
X6606138Y-14058687D02*
X6568042Y-14058687D01*
X6548995Y-14068211D01*
X6539471Y-14077735D01*
X6520423Y-14106307D01*
X6510900Y-14144402D01*
X6510900Y-14220592D01*
X6520423Y-14239640D01*
X6529947Y-14249164D01*
X6548995Y-14258687D01*
X6587090Y-14258687D01*
X6606138Y-14249164D01*
X6615662Y-14239640D01*
X6625185Y-14220592D01*
X6625185Y-14172973D01*
X6615662Y-14153926D01*
X6606138Y-14144402D01*
X6587090Y-14134878D01*
X6548995Y-14134878D01*
X6529947Y-14144402D01*
X6520423Y-14153926D01*
X6510900Y-14172973D01*
X6863281Y-14258687D02*
X6863281Y-14058687D01*
X6948995Y-14258687D02*
X6948995Y-14153926D01*
X6939471Y-14134878D01*
X6920423Y-14125354D01*
X6891852Y-14125354D01*
X6872804Y-14134878D01*
X6863281Y-14144402D01*
X7072804Y-14258687D02*
X7053757Y-14249164D01*
X7044233Y-14239640D01*
X7034709Y-14220592D01*
X7034709Y-14163449D01*
X7044233Y-14144402D01*
X7053757Y-14134878D01*
X7072804Y-14125354D01*
X7101376Y-14125354D01*
X7120423Y-14134878D01*
X7129947Y-14144402D01*
X7139471Y-14163449D01*
X7139471Y-14220592D01*
X7129947Y-14239640D01*
X7120423Y-14249164D01*
X7101376Y-14258687D01*
X7072804Y-14258687D01*
X7253757Y-14258687D02*
X7234709Y-14249164D01*
X7225185Y-14230116D01*
X7225185Y-14058687D01*
X7406138Y-14249164D02*
X7387090Y-14258687D01*
X7348995Y-14258687D01*
X7329947Y-14249164D01*
X7320423Y-14230116D01*
X7320423Y-14153926D01*
X7329947Y-14134878D01*
X7348995Y-14125354D01*
X7387090Y-14125354D01*
X7406138Y-14134878D01*
X7415662Y-14153926D01*
X7415662Y-14172973D01*
X7320423Y-14192021D01*
X7491852Y-14249164D02*
X7510900Y-14258687D01*
X7548995Y-14258687D01*
X7568042Y-14249164D01*
X7577566Y-14230116D01*
X7577566Y-14220592D01*
X7568042Y-14201545D01*
X7548995Y-14192021D01*
X7520423Y-14192021D01*
X7501376Y-14182497D01*
X7491852Y-14163449D01*
X7491852Y-14153926D01*
X7501376Y-14134878D01*
X7520423Y-14125354D01*
X7548995Y-14125354D01*
X7568042Y-14134878D01*
X7644233Y-14334878D02*
X7653757Y-14325354D01*
X7672804Y-14296783D01*
X7682328Y-14277735D01*
X7691852Y-14249164D01*
X7701376Y-14201545D01*
X7701376Y-14163449D01*
X7691852Y-14115830D01*
X7682328Y-14087259D01*
X7672804Y-14068211D01*
X7653757Y-14039640D01*
X7644233Y-14030116D01*
D13*
X2450736Y-14391571D02*
X2450736Y-14472851D01*
X2410096Y-14432211D02*
X2491376Y-14432211D01*
D11*
X2787090Y-14322687D02*
X2806138Y-14322687D01*
X2825185Y-14332211D01*
X2834709Y-14341735D01*
X2844233Y-14360783D01*
X2853757Y-14398878D01*
X2853757Y-14446497D01*
X2844233Y-14484592D01*
X2834709Y-14503640D01*
X2825185Y-14513164D01*
X2806138Y-14522687D01*
X2787090Y-14522687D01*
X2768043Y-14513164D01*
X2758519Y-14503640D01*
X2748995Y-14484592D01*
X2739471Y-14446497D01*
X2739471Y-14398878D01*
X2748995Y-14360783D01*
X2758519Y-14341735D01*
X2768043Y-14332211D01*
X2787090Y-14322687D01*
X2939471Y-14503640D02*
X2948995Y-14513164D01*
X2939471Y-14522687D01*
X2929947Y-14513164D01*
X2939471Y-14503640D01*
X2939471Y-14522687D01*
X3063281Y-14408402D02*
X3044233Y-14398878D01*
X3034709Y-14389354D01*
X3025185Y-14370307D01*
X3025185Y-14360783D01*
X3034709Y-14341735D01*
X3044233Y-14332211D01*
X3063281Y-14322687D01*
X3101376Y-14322687D01*
X3120423Y-14332211D01*
X3129947Y-14341735D01*
X3139471Y-14360783D01*
X3139471Y-14370307D01*
X3129947Y-14389354D01*
X3120423Y-14398878D01*
X3101376Y-14408402D01*
X3063281Y-14408402D01*
X3044233Y-14417926D01*
X3034709Y-14427449D01*
X3025185Y-14446497D01*
X3025185Y-14484592D01*
X3034709Y-14503640D01*
X3044233Y-14513164D01*
X3063281Y-14522687D01*
X3101376Y-14522687D01*
X3120423Y-14513164D01*
X3129947Y-14503640D01*
X3139471Y-14484592D01*
X3139471Y-14446497D01*
X3129947Y-14427449D01*
X3120423Y-14417926D01*
X3101376Y-14408402D01*
X3329947Y-14522687D02*
X3215662Y-14522687D01*
X3272804Y-14522687D02*
X3272804Y-14322687D01*
X3253757Y-14351259D01*
X3234709Y-14370307D01*
X3215662Y-14379830D01*
X3396614Y-14322687D02*
X3520423Y-14322687D01*
X3453757Y-14398878D01*
X3482328Y-14398878D01*
X3501376Y-14408402D01*
X3510900Y-14417926D01*
X3520423Y-14436973D01*
X3520423Y-14484592D01*
X3510900Y-14503640D01*
X3501376Y-14513164D01*
X3482328Y-14522687D01*
X3425185Y-14522687D01*
X3406138Y-14513164D01*
X3396614Y-14503640D01*
X3606138Y-14522687D02*
X3606138Y-14389354D01*
X3606138Y-14408402D02*
X3615662Y-14398878D01*
X3634709Y-14389354D01*
X3663281Y-14389354D01*
X3682328Y-14398878D01*
X3691852Y-14417926D01*
X3691852Y-14522687D01*
X3691852Y-14417926D02*
X3701376Y-14398878D01*
X3720423Y-14389354D01*
X3748995Y-14389354D01*
X3768042Y-14398878D01*
X3777566Y-14417926D01*
X3777566Y-14522687D01*
X3872804Y-14522687D02*
X3872804Y-14389354D01*
X3872804Y-14408402D02*
X3882328Y-14398878D01*
X3901376Y-14389354D01*
X3929947Y-14389354D01*
X3948995Y-14398878D01*
X3958519Y-14417926D01*
X3958519Y-14522687D01*
X3958519Y-14417926D02*
X3968042Y-14398878D01*
X3987090Y-14389354D01*
X4015662Y-14389354D01*
X4034709Y-14398878D01*
X4044233Y-14417926D01*
X4044233Y-14522687D01*
X4434709Y-14313164D02*
X4263281Y-14570307D01*
X4691852Y-14322687D02*
X4710900Y-14322687D01*
X4729947Y-14332211D01*
X4739471Y-14341735D01*
X4748995Y-14360783D01*
X4758519Y-14398878D01*
X4758519Y-14446497D01*
X4748995Y-14484592D01*
X4739471Y-14503640D01*
X4729947Y-14513164D01*
X4710900Y-14522687D01*
X4691852Y-14522687D01*
X4672804Y-14513164D01*
X4663281Y-14503640D01*
X4653757Y-14484592D01*
X4644233Y-14446497D01*
X4644233Y-14398878D01*
X4653757Y-14360783D01*
X4663281Y-14341735D01*
X4672804Y-14332211D01*
X4691852Y-14322687D01*
X4844233Y-14503640D02*
X4853757Y-14513164D01*
X4844233Y-14522687D01*
X4834709Y-14513164D01*
X4844233Y-14503640D01*
X4844233Y-14522687D01*
X4977566Y-14322687D02*
X4996614Y-14322687D01*
X5015662Y-14332211D01*
X5025185Y-14341735D01*
X5034709Y-14360783D01*
X5044233Y-14398878D01*
X5044233Y-14446497D01*
X5034709Y-14484592D01*
X5025185Y-14503640D01*
X5015662Y-14513164D01*
X4996614Y-14522687D01*
X4977566Y-14522687D01*
X4958519Y-14513164D01*
X4948995Y-14503640D01*
X4939471Y-14484592D01*
X4929947Y-14446497D01*
X4929947Y-14398878D01*
X4939471Y-14360783D01*
X4948995Y-14341735D01*
X4958519Y-14332211D01*
X4977566Y-14322687D01*
X5110900Y-14322687D02*
X5234709Y-14322687D01*
X5168043Y-14398878D01*
X5196614Y-14398878D01*
X5215662Y-14408402D01*
X5225185Y-14417926D01*
X5234709Y-14436973D01*
X5234709Y-14484592D01*
X5225185Y-14503640D01*
X5215662Y-14513164D01*
X5196614Y-14522687D01*
X5139471Y-14522687D01*
X5120424Y-14513164D01*
X5110900Y-14503640D01*
X5310900Y-14341735D02*
X5320424Y-14332211D01*
X5339471Y-14322687D01*
X5387090Y-14322687D01*
X5406138Y-14332211D01*
X5415662Y-14341735D01*
X5425185Y-14360783D01*
X5425185Y-14379830D01*
X5415662Y-14408402D01*
X5301376Y-14522687D01*
X5425185Y-14522687D01*
X5548995Y-14322687D02*
X5568043Y-14322687D01*
X5587090Y-14332211D01*
X5596614Y-14341735D01*
X5606138Y-14360783D01*
X5615662Y-14398878D01*
X5615662Y-14446497D01*
X5606138Y-14484592D01*
X5596614Y-14503640D01*
X5587090Y-14513164D01*
X5568043Y-14522687D01*
X5548995Y-14522687D01*
X5529947Y-14513164D01*
X5520424Y-14503640D01*
X5510900Y-14484592D01*
X5501376Y-14446497D01*
X5501376Y-14398878D01*
X5510900Y-14360783D01*
X5520424Y-14341735D01*
X5529947Y-14332211D01*
X5548995Y-14322687D01*
X5691852Y-14322687D02*
X5691852Y-14360783D01*
X5768042Y-14322687D02*
X5768042Y-14360783D01*
X6063281Y-14598878D02*
X6053757Y-14589354D01*
X6034709Y-14560783D01*
X6025185Y-14541735D01*
X6015662Y-14513164D01*
X6006138Y-14465545D01*
X6006138Y-14427449D01*
X6015662Y-14379830D01*
X6025185Y-14351259D01*
X6034709Y-14332211D01*
X6053757Y-14303640D01*
X6063281Y-14294116D01*
X6225185Y-14322687D02*
X6187090Y-14322687D01*
X6168042Y-14332211D01*
X6158519Y-14341735D01*
X6139471Y-14370307D01*
X6129947Y-14408402D01*
X6129947Y-14484592D01*
X6139471Y-14503640D01*
X6148995Y-14513164D01*
X6168042Y-14522687D01*
X6206138Y-14522687D01*
X6225185Y-14513164D01*
X6234709Y-14503640D01*
X6244233Y-14484592D01*
X6244233Y-14436973D01*
X6234709Y-14417926D01*
X6225185Y-14408402D01*
X6206138Y-14398878D01*
X6168042Y-14398878D01*
X6148995Y-14408402D01*
X6139471Y-14417926D01*
X6129947Y-14436973D01*
X6482328Y-14522687D02*
X6482328Y-14322687D01*
X6568042Y-14522687D02*
X6568042Y-14417926D01*
X6558519Y-14398878D01*
X6539471Y-14389354D01*
X6510900Y-14389354D01*
X6491852Y-14398878D01*
X6482328Y-14408402D01*
X6691852Y-14522687D02*
X6672804Y-14513164D01*
X6663281Y-14503640D01*
X6653757Y-14484592D01*
X6653757Y-14427449D01*
X6663281Y-14408402D01*
X6672804Y-14398878D01*
X6691852Y-14389354D01*
X6720423Y-14389354D01*
X6739471Y-14398878D01*
X6748995Y-14408402D01*
X6758519Y-14427449D01*
X6758519Y-14484592D01*
X6748995Y-14503640D01*
X6739471Y-14513164D01*
X6720423Y-14522687D01*
X6691852Y-14522687D01*
X6872804Y-14522687D02*
X6853757Y-14513164D01*
X6844233Y-14494116D01*
X6844233Y-14322687D01*
X7025185Y-14513164D02*
X7006138Y-14522687D01*
X6968042Y-14522687D01*
X6948995Y-14513164D01*
X6939471Y-14494116D01*
X6939471Y-14417926D01*
X6948995Y-14398878D01*
X6968042Y-14389354D01*
X7006138Y-14389354D01*
X7025185Y-14398878D01*
X7034709Y-14417926D01*
X7034709Y-14436973D01*
X6939471Y-14456021D01*
X7110900Y-14513164D02*
X7129947Y-14522687D01*
X7168042Y-14522687D01*
X7187090Y-14513164D01*
X7196614Y-14494116D01*
X7196614Y-14484592D01*
X7187090Y-14465545D01*
X7168042Y-14456021D01*
X7139471Y-14456021D01*
X7120423Y-14446497D01*
X7110900Y-14427449D01*
X7110900Y-14417926D01*
X7120423Y-14398878D01*
X7139471Y-14389354D01*
X7168042Y-14389354D01*
X7187090Y-14398878D01*
X7263281Y-14598878D02*
X7272804Y-14589354D01*
X7291852Y-14560783D01*
X7301376Y-14541735D01*
X7310900Y-14513164D01*
X7320423Y-14465545D01*
X7320423Y-14427449D01*
X7310900Y-14379830D01*
X7301376Y-14351259D01*
X7291852Y-14332211D01*
X7272804Y-14303640D01*
X7263281Y-14294116D01*
D10*
X2476732Y-14731567D02*
X2476732Y-14660856D01*
X2406020Y-14660856D01*
X2406020Y-14731567D01*
X2476732Y-14731567D01*
D11*
X2853757Y-14786687D02*
X2739471Y-14786687D01*
X2796614Y-14786687D02*
X2796614Y-14586687D01*
X2777566Y-14615259D01*
X2758519Y-14634307D01*
X2739471Y-14643830D01*
X2939471Y-14767640D02*
X2948995Y-14777164D01*
X2939471Y-14786687D01*
X2929947Y-14777164D01*
X2939471Y-14767640D01*
X2939471Y-14786687D01*
X3072804Y-14586687D02*
X3091852Y-14586687D01*
X3110900Y-14596211D01*
X3120423Y-14605735D01*
X3129947Y-14624783D01*
X3139471Y-14662878D01*
X3139471Y-14710497D01*
X3129947Y-14748592D01*
X3120423Y-14767640D01*
X3110900Y-14777164D01*
X3091852Y-14786687D01*
X3072804Y-14786687D01*
X3053757Y-14777164D01*
X3044233Y-14767640D01*
X3034709Y-14748592D01*
X3025185Y-14710497D01*
X3025185Y-14662878D01*
X3034709Y-14624783D01*
X3044233Y-14605735D01*
X3053757Y-14596211D01*
X3072804Y-14586687D01*
X3263281Y-14586687D02*
X3282328Y-14586687D01*
X3301376Y-14596211D01*
X3310900Y-14605735D01*
X3320423Y-14624783D01*
X3329947Y-14662878D01*
X3329947Y-14710497D01*
X3320423Y-14748592D01*
X3310900Y-14767640D01*
X3301376Y-14777164D01*
X3282328Y-14786687D01*
X3263281Y-14786687D01*
X3244233Y-14777164D01*
X3234709Y-14767640D01*
X3225185Y-14748592D01*
X3215662Y-14710497D01*
X3215662Y-14662878D01*
X3225185Y-14624783D01*
X3234709Y-14605735D01*
X3244233Y-14596211D01*
X3263281Y-14586687D01*
X3453757Y-14586687D02*
X3472804Y-14586687D01*
X3491852Y-14596211D01*
X3501376Y-14605735D01*
X3510900Y-14624783D01*
X3520423Y-14662878D01*
X3520423Y-14710497D01*
X3510900Y-14748592D01*
X3501376Y-14767640D01*
X3491852Y-14777164D01*
X3472804Y-14786687D01*
X3453757Y-14786687D01*
X3434709Y-14777164D01*
X3425185Y-14767640D01*
X3415662Y-14748592D01*
X3406138Y-14710497D01*
X3406138Y-14662878D01*
X3415662Y-14624783D01*
X3425185Y-14605735D01*
X3434709Y-14596211D01*
X3453757Y-14586687D01*
X3606138Y-14786687D02*
X3606138Y-14653354D01*
X3606138Y-14672402D02*
X3615662Y-14662878D01*
X3634709Y-14653354D01*
X3663281Y-14653354D01*
X3682328Y-14662878D01*
X3691852Y-14681926D01*
X3691852Y-14786687D01*
X3691852Y-14681926D02*
X3701376Y-14662878D01*
X3720423Y-14653354D01*
X3748995Y-14653354D01*
X3768042Y-14662878D01*
X3777566Y-14681926D01*
X3777566Y-14786687D01*
X3872804Y-14786687D02*
X3872804Y-14653354D01*
X3872804Y-14672402D02*
X3882328Y-14662878D01*
X3901376Y-14653354D01*
X3929947Y-14653354D01*
X3948995Y-14662878D01*
X3958519Y-14681926D01*
X3958519Y-14786687D01*
X3958519Y-14681926D02*
X3968042Y-14662878D01*
X3987090Y-14653354D01*
X4015662Y-14653354D01*
X4034709Y-14662878D01*
X4044233Y-14681926D01*
X4044233Y-14786687D01*
X4434709Y-14577164D02*
X4263281Y-14834307D01*
X4691852Y-14586687D02*
X4710900Y-14586687D01*
X4729947Y-14596211D01*
X4739471Y-14605735D01*
X4748995Y-14624783D01*
X4758519Y-14662878D01*
X4758519Y-14710497D01*
X4748995Y-14748592D01*
X4739471Y-14767640D01*
X4729947Y-14777164D01*
X4710900Y-14786687D01*
X4691852Y-14786687D01*
X4672804Y-14777164D01*
X4663281Y-14767640D01*
X4653757Y-14748592D01*
X4644233Y-14710497D01*
X4644233Y-14662878D01*
X4653757Y-14624783D01*
X4663281Y-14605735D01*
X4672804Y-14596211D01*
X4691852Y-14586687D01*
X4844233Y-14767640D02*
X4853757Y-14777164D01*
X4844233Y-14786687D01*
X4834709Y-14777164D01*
X4844233Y-14767640D01*
X4844233Y-14786687D01*
X4977566Y-14586687D02*
X4996614Y-14586687D01*
X5015662Y-14596211D01*
X5025185Y-14605735D01*
X5034709Y-14624783D01*
X5044233Y-14662878D01*
X5044233Y-14710497D01*
X5034709Y-14748592D01*
X5025185Y-14767640D01*
X5015662Y-14777164D01*
X4996614Y-14786687D01*
X4977566Y-14786687D01*
X4958519Y-14777164D01*
X4948995Y-14767640D01*
X4939471Y-14748592D01*
X4929947Y-14710497D01*
X4929947Y-14662878D01*
X4939471Y-14624783D01*
X4948995Y-14605735D01*
X4958519Y-14596211D01*
X4977566Y-14586687D01*
X5110900Y-14586687D02*
X5234709Y-14586687D01*
X5168043Y-14662878D01*
X5196614Y-14662878D01*
X5215662Y-14672402D01*
X5225185Y-14681926D01*
X5234709Y-14700973D01*
X5234709Y-14748592D01*
X5225185Y-14767640D01*
X5215662Y-14777164D01*
X5196614Y-14786687D01*
X5139471Y-14786687D01*
X5120424Y-14777164D01*
X5110900Y-14767640D01*
X5329947Y-14786687D02*
X5368043Y-14786687D01*
X5387090Y-14777164D01*
X5396614Y-14767640D01*
X5415662Y-14739068D01*
X5425185Y-14700973D01*
X5425185Y-14624783D01*
X5415662Y-14605735D01*
X5406138Y-14596211D01*
X5387090Y-14586687D01*
X5348995Y-14586687D01*
X5329947Y-14596211D01*
X5320424Y-14605735D01*
X5310900Y-14624783D01*
X5310900Y-14672402D01*
X5320424Y-14691449D01*
X5329947Y-14700973D01*
X5348995Y-14710497D01*
X5387090Y-14710497D01*
X5406138Y-14700973D01*
X5415662Y-14691449D01*
X5425185Y-14672402D01*
X5596614Y-14653354D02*
X5596614Y-14786687D01*
X5548995Y-14577164D02*
X5501376Y-14720021D01*
X5625185Y-14720021D01*
X5691852Y-14586687D02*
X5691852Y-14624783D01*
X5768042Y-14586687D02*
X5768042Y-14624783D01*
X6063281Y-14862878D02*
X6053757Y-14853354D01*
X6034709Y-14824783D01*
X6025185Y-14805735D01*
X6015662Y-14777164D01*
X6006138Y-14729545D01*
X6006138Y-14691449D01*
X6015662Y-14643830D01*
X6025185Y-14615259D01*
X6034709Y-14596211D01*
X6053757Y-14567640D01*
X6063281Y-14558116D01*
X6244233Y-14786687D02*
X6129947Y-14786687D01*
X6187090Y-14786687D02*
X6187090Y-14586687D01*
X6168042Y-14615259D01*
X6148995Y-14634307D01*
X6129947Y-14643830D01*
X6434709Y-14786687D02*
X6320423Y-14786687D01*
X6377566Y-14786687D02*
X6377566Y-14586687D01*
X6358519Y-14615259D01*
X6339471Y-14634307D01*
X6320423Y-14643830D01*
X6606138Y-14586687D02*
X6568042Y-14586687D01*
X6548995Y-14596211D01*
X6539471Y-14605735D01*
X6520423Y-14634307D01*
X6510900Y-14672402D01*
X6510900Y-14748592D01*
X6520423Y-14767640D01*
X6529947Y-14777164D01*
X6548995Y-14786687D01*
X6587090Y-14786687D01*
X6606138Y-14777164D01*
X6615662Y-14767640D01*
X6625185Y-14748592D01*
X6625185Y-14700973D01*
X6615662Y-14681926D01*
X6606138Y-14672402D01*
X6587090Y-14662878D01*
X6548995Y-14662878D01*
X6529947Y-14672402D01*
X6520423Y-14681926D01*
X6510900Y-14700973D01*
X6863281Y-14786687D02*
X6863281Y-14586687D01*
X6948995Y-14786687D02*
X6948995Y-14681926D01*
X6939471Y-14662878D01*
X6920423Y-14653354D01*
X6891852Y-14653354D01*
X6872804Y-14662878D01*
X6863281Y-14672402D01*
X7072804Y-14786687D02*
X7053757Y-14777164D01*
X7044233Y-14767640D01*
X7034709Y-14748592D01*
X7034709Y-14691449D01*
X7044233Y-14672402D01*
X7053757Y-14662878D01*
X7072804Y-14653354D01*
X7101376Y-14653354D01*
X7120423Y-14662878D01*
X7129947Y-14672402D01*
X7139471Y-14691449D01*
X7139471Y-14748592D01*
X7129947Y-14767640D01*
X7120423Y-14777164D01*
X7101376Y-14786687D01*
X7072804Y-14786687D01*
X7253757Y-14786687D02*
X7234709Y-14777164D01*
X7225185Y-14758116D01*
X7225185Y-14586687D01*
X7406138Y-14777164D02*
X7387090Y-14786687D01*
X7348995Y-14786687D01*
X7329947Y-14777164D01*
X7320423Y-14758116D01*
X7320423Y-14681926D01*
X7329947Y-14662878D01*
X7348995Y-14653354D01*
X7387090Y-14653354D01*
X7406138Y-14662878D01*
X7415662Y-14681926D01*
X7415662Y-14700973D01*
X7320423Y-14720021D01*
X7491852Y-14777164D02*
X7510900Y-14786687D01*
X7548995Y-14786687D01*
X7568042Y-14777164D01*
X7577566Y-14758116D01*
X7577566Y-14748592D01*
X7568042Y-14729545D01*
X7548995Y-14720021D01*
X7520423Y-14720021D01*
X7501376Y-14710497D01*
X7491852Y-14691449D01*
X7491852Y-14681926D01*
X7501376Y-14662878D01*
X7520423Y-14653354D01*
X7548995Y-14653354D01*
X7568042Y-14662878D01*
X7644233Y-14862878D02*
X7653757Y-14853354D01*
X7672804Y-14824783D01*
X7682328Y-14805735D01*
X7691852Y-14777164D01*
X7701376Y-14729545D01*
X7701376Y-14691449D01*
X7691852Y-14643830D01*
X7682328Y-14615259D01*
X7672804Y-14596211D01*
X7653757Y-14567640D01*
X7644233Y-14558116D01*
D14*
X2436766Y-15014821D02*
X2491376Y-14960211D01*
X2436766Y-14905601D01*
X2382156Y-14960211D01*
X2436766Y-15014821D01*
D11*
X2853757Y-15050687D02*
X2739471Y-15050687D01*
X2796614Y-15050687D02*
X2796614Y-14850687D01*
X2777566Y-14879259D01*
X2758519Y-14898307D01*
X2739471Y-14907830D01*
X2939471Y-15031640D02*
X2948995Y-15041164D01*
X2939471Y-15050687D01*
X2929947Y-15041164D01*
X2939471Y-15031640D01*
X2939471Y-15050687D01*
X3072804Y-14850687D02*
X3091852Y-14850687D01*
X3110900Y-14860211D01*
X3120423Y-14869735D01*
X3129947Y-14888783D01*
X3139471Y-14926878D01*
X3139471Y-14974497D01*
X3129947Y-15012592D01*
X3120423Y-15031640D01*
X3110900Y-15041164D01*
X3091852Y-15050687D01*
X3072804Y-15050687D01*
X3053757Y-15041164D01*
X3044233Y-15031640D01*
X3034709Y-15012592D01*
X3025185Y-14974497D01*
X3025185Y-14926878D01*
X3034709Y-14888783D01*
X3044233Y-14869735D01*
X3053757Y-14860211D01*
X3072804Y-14850687D01*
X3234709Y-15050687D02*
X3272804Y-15050687D01*
X3291852Y-15041164D01*
X3301376Y-15031640D01*
X3320423Y-15003068D01*
X3329947Y-14964973D01*
X3329947Y-14888783D01*
X3320423Y-14869735D01*
X3310900Y-14860211D01*
X3291852Y-14850687D01*
X3253757Y-14850687D01*
X3234709Y-14860211D01*
X3225185Y-14869735D01*
X3215662Y-14888783D01*
X3215662Y-14936402D01*
X3225185Y-14955449D01*
X3234709Y-14964973D01*
X3253757Y-14974497D01*
X3291852Y-14974497D01*
X3310900Y-14964973D01*
X3320423Y-14955449D01*
X3329947Y-14936402D01*
X3406138Y-14869735D02*
X3415662Y-14860211D01*
X3434709Y-14850687D01*
X3482328Y-14850687D01*
X3501376Y-14860211D01*
X3510900Y-14869735D01*
X3520423Y-14888783D01*
X3520423Y-14907830D01*
X3510900Y-14936402D01*
X3396614Y-15050687D01*
X3520423Y-15050687D01*
X3606138Y-15050687D02*
X3606138Y-14917354D01*
X3606138Y-14936402D02*
X3615662Y-14926878D01*
X3634709Y-14917354D01*
X3663281Y-14917354D01*
X3682328Y-14926878D01*
X3691852Y-14945926D01*
X3691852Y-15050687D01*
X3691852Y-14945926D02*
X3701376Y-14926878D01*
X3720423Y-14917354D01*
X3748995Y-14917354D01*
X3768042Y-14926878D01*
X3777566Y-14945926D01*
X3777566Y-15050687D01*
X3872804Y-15050687D02*
X3872804Y-14917354D01*
X3872804Y-14936402D02*
X3882328Y-14926878D01*
X3901376Y-14917354D01*
X3929947Y-14917354D01*
X3948995Y-14926878D01*
X3958519Y-14945926D01*
X3958519Y-15050687D01*
X3958519Y-14945926D02*
X3968042Y-14926878D01*
X3987090Y-14917354D01*
X4015662Y-14917354D01*
X4034709Y-14926878D01*
X4044233Y-14945926D01*
X4044233Y-15050687D01*
X4434709Y-14841164D02*
X4263281Y-15098307D01*
X4691852Y-14850687D02*
X4710900Y-14850687D01*
X4729947Y-14860211D01*
X4739471Y-14869735D01*
X4748995Y-14888783D01*
X4758519Y-14926878D01*
X4758519Y-14974497D01*
X4748995Y-15012592D01*
X4739471Y-15031640D01*
X4729947Y-15041164D01*
X4710900Y-15050687D01*
X4691852Y-15050687D01*
X4672804Y-15041164D01*
X4663281Y-15031640D01*
X4653757Y-15012592D01*
X4644233Y-14974497D01*
X4644233Y-14926878D01*
X4653757Y-14888783D01*
X4663281Y-14869735D01*
X4672804Y-14860211D01*
X4691852Y-14850687D01*
X4844233Y-15031640D02*
X4853757Y-15041164D01*
X4844233Y-15050687D01*
X4834709Y-15041164D01*
X4844233Y-15031640D01*
X4844233Y-15050687D01*
X4977566Y-14850687D02*
X4996614Y-14850687D01*
X5015662Y-14860211D01*
X5025185Y-14869735D01*
X5034709Y-14888783D01*
X5044233Y-14926878D01*
X5044233Y-14974497D01*
X5034709Y-15012592D01*
X5025185Y-15031640D01*
X5015662Y-15041164D01*
X4996614Y-15050687D01*
X4977566Y-15050687D01*
X4958519Y-15041164D01*
X4948995Y-15031640D01*
X4939471Y-15012592D01*
X4929947Y-14974497D01*
X4929947Y-14926878D01*
X4939471Y-14888783D01*
X4948995Y-14869735D01*
X4958519Y-14860211D01*
X4977566Y-14850687D01*
X5215662Y-14917354D02*
X5215662Y-15050687D01*
X5168043Y-14841164D02*
X5120424Y-14984021D01*
X5244233Y-14984021D01*
X5301376Y-14850687D02*
X5425185Y-14850687D01*
X5358519Y-14926878D01*
X5387090Y-14926878D01*
X5406138Y-14936402D01*
X5415662Y-14945926D01*
X5425185Y-14964973D01*
X5425185Y-15012592D01*
X5415662Y-15031640D01*
X5406138Y-15041164D01*
X5387090Y-15050687D01*
X5329947Y-15050687D01*
X5310900Y-15041164D01*
X5301376Y-15031640D01*
X5548995Y-14850687D02*
X5568043Y-14850687D01*
X5587090Y-14860211D01*
X5596614Y-14869735D01*
X5606138Y-14888783D01*
X5615662Y-14926878D01*
X5615662Y-14974497D01*
X5606138Y-15012592D01*
X5596614Y-15031640D01*
X5587090Y-15041164D01*
X5568043Y-15050687D01*
X5548995Y-15050687D01*
X5529947Y-15041164D01*
X5520424Y-15031640D01*
X5510900Y-15012592D01*
X5501376Y-14974497D01*
X5501376Y-14926878D01*
X5510900Y-14888783D01*
X5520424Y-14869735D01*
X5529947Y-14860211D01*
X5548995Y-14850687D01*
X5691852Y-14850687D02*
X5691852Y-14888783D01*
X5768042Y-14850687D02*
X5768042Y-14888783D01*
X6063281Y-15126878D02*
X6053757Y-15117354D01*
X6034709Y-15088783D01*
X6025185Y-15069735D01*
X6015662Y-15041164D01*
X6006138Y-14993545D01*
X6006138Y-14955449D01*
X6015662Y-14907830D01*
X6025185Y-14879259D01*
X6034709Y-14860211D01*
X6053757Y-14831640D01*
X6063281Y-14822116D01*
X6225185Y-14850687D02*
X6187090Y-14850687D01*
X6168042Y-14860211D01*
X6158519Y-14869735D01*
X6139471Y-14898307D01*
X6129947Y-14936402D01*
X6129947Y-15012592D01*
X6139471Y-15031640D01*
X6148995Y-15041164D01*
X6168042Y-15050687D01*
X6206138Y-15050687D01*
X6225185Y-15041164D01*
X6234709Y-15031640D01*
X6244233Y-15012592D01*
X6244233Y-14964973D01*
X6234709Y-14945926D01*
X6225185Y-14936402D01*
X6206138Y-14926878D01*
X6168042Y-14926878D01*
X6148995Y-14936402D01*
X6139471Y-14945926D01*
X6129947Y-14964973D01*
X6415662Y-14917354D02*
X6415662Y-15050687D01*
X6368042Y-14841164D02*
X6320423Y-14984021D01*
X6444233Y-14984021D01*
X6672804Y-15050687D02*
X6672804Y-14850687D01*
X6758519Y-15050687D02*
X6758519Y-14945926D01*
X6748995Y-14926878D01*
X6729947Y-14917354D01*
X6701376Y-14917354D01*
X6682328Y-14926878D01*
X6672804Y-14936402D01*
X6882328Y-15050687D02*
X6863281Y-15041164D01*
X6853757Y-15031640D01*
X6844233Y-15012592D01*
X6844233Y-14955449D01*
X6853757Y-14936402D01*
X6863281Y-14926878D01*
X6882328Y-14917354D01*
X6910900Y-14917354D01*
X6929947Y-14926878D01*
X6939471Y-14936402D01*
X6948995Y-14955449D01*
X6948995Y-15012592D01*
X6939471Y-15031640D01*
X6929947Y-15041164D01*
X6910900Y-15050687D01*
X6882328Y-15050687D01*
X7063281Y-15050687D02*
X7044233Y-15041164D01*
X7034709Y-15022116D01*
X7034709Y-14850687D01*
X7215662Y-15041164D02*
X7196614Y-15050687D01*
X7158519Y-15050687D01*
X7139471Y-15041164D01*
X7129947Y-15022116D01*
X7129947Y-14945926D01*
X7139471Y-14926878D01*
X7158519Y-14917354D01*
X7196614Y-14917354D01*
X7215662Y-14926878D01*
X7225185Y-14945926D01*
X7225185Y-14964973D01*
X7129947Y-14984021D01*
X7301376Y-15041164D02*
X7320423Y-15050687D01*
X7358519Y-15050687D01*
X7377566Y-15041164D01*
X7387090Y-15022116D01*
X7387090Y-15012592D01*
X7377566Y-14993545D01*
X7358519Y-14984021D01*
X7329947Y-14984021D01*
X7310900Y-14974497D01*
X7301376Y-14955449D01*
X7301376Y-14945926D01*
X7310900Y-14926878D01*
X7329947Y-14917354D01*
X7358519Y-14917354D01*
X7377566Y-14926878D01*
X7453757Y-15126878D02*
X7463281Y-15117354D01*
X7482328Y-15088783D01*
X7491852Y-15069735D01*
X7501376Y-15041164D01*
X7510900Y-14993545D01*
X7510900Y-14955449D01*
X7501376Y-14907830D01*
X7491852Y-14879259D01*
X7482328Y-14860211D01*
X7463281Y-14831640D01*
X7453757Y-14822116D01*
D15*
X2361376Y-15159211D02*
X2491376Y-15289211D01*
X2491376Y-15159211D02*
X2361376Y-15289211D01*
X2491376Y-15224211D02*
G75*
G03*
X2491376Y-15224211I-65000J0D01*
G01*
D11*
X2853757Y-15314687D02*
X2739471Y-15314687D01*
X2796614Y-15314687D02*
X2796614Y-15114687D01*
X2777566Y-15143259D01*
X2758519Y-15162307D01*
X2739471Y-15171830D01*
X2939471Y-15295640D02*
X2948995Y-15305164D01*
X2939471Y-15314687D01*
X2929947Y-15305164D01*
X2939471Y-15295640D01*
X2939471Y-15314687D01*
X3015662Y-15114687D02*
X3139471Y-15114687D01*
X3072804Y-15190878D01*
X3101376Y-15190878D01*
X3120423Y-15200402D01*
X3129947Y-15209926D01*
X3139471Y-15228973D01*
X3139471Y-15276592D01*
X3129947Y-15295640D01*
X3120423Y-15305164D01*
X3101376Y-15314687D01*
X3044233Y-15314687D01*
X3025185Y-15305164D01*
X3015662Y-15295640D01*
X3263281Y-15114687D02*
X3282328Y-15114687D01*
X3301376Y-15124211D01*
X3310900Y-15133735D01*
X3320423Y-15152783D01*
X3329947Y-15190878D01*
X3329947Y-15238497D01*
X3320423Y-15276592D01*
X3310900Y-15295640D01*
X3301376Y-15305164D01*
X3282328Y-15314687D01*
X3263281Y-15314687D01*
X3244233Y-15305164D01*
X3234709Y-15295640D01*
X3225185Y-15276592D01*
X3215662Y-15238497D01*
X3215662Y-15190878D01*
X3225185Y-15152783D01*
X3234709Y-15133735D01*
X3244233Y-15124211D01*
X3263281Y-15114687D01*
X3453757Y-15114687D02*
X3472804Y-15114687D01*
X3491852Y-15124211D01*
X3501376Y-15133735D01*
X3510900Y-15152783D01*
X3520423Y-15190878D01*
X3520423Y-15238497D01*
X3510900Y-15276592D01*
X3501376Y-15295640D01*
X3491852Y-15305164D01*
X3472804Y-15314687D01*
X3453757Y-15314687D01*
X3434709Y-15305164D01*
X3425185Y-15295640D01*
X3415662Y-15276592D01*
X3406138Y-15238497D01*
X3406138Y-15190878D01*
X3415662Y-15152783D01*
X3425185Y-15133735D01*
X3434709Y-15124211D01*
X3453757Y-15114687D01*
X3606138Y-15314687D02*
X3606138Y-15181354D01*
X3606138Y-15200402D02*
X3615662Y-15190878D01*
X3634709Y-15181354D01*
X3663281Y-15181354D01*
X3682328Y-15190878D01*
X3691852Y-15209926D01*
X3691852Y-15314687D01*
X3691852Y-15209926D02*
X3701376Y-15190878D01*
X3720423Y-15181354D01*
X3748995Y-15181354D01*
X3768042Y-15190878D01*
X3777566Y-15209926D01*
X3777566Y-15314687D01*
X3872804Y-15314687D02*
X3872804Y-15181354D01*
X3872804Y-15200402D02*
X3882328Y-15190878D01*
X3901376Y-15181354D01*
X3929947Y-15181354D01*
X3948995Y-15190878D01*
X3958519Y-15209926D01*
X3958519Y-15314687D01*
X3958519Y-15209926D02*
X3968042Y-15190878D01*
X3987090Y-15181354D01*
X4015662Y-15181354D01*
X4034709Y-15190878D01*
X4044233Y-15209926D01*
X4044233Y-15314687D01*
X4434709Y-15105164D02*
X4263281Y-15362307D01*
X4691852Y-15114687D02*
X4710900Y-15114687D01*
X4729947Y-15124211D01*
X4739471Y-15133735D01*
X4748995Y-15152783D01*
X4758519Y-15190878D01*
X4758519Y-15238497D01*
X4748995Y-15276592D01*
X4739471Y-15295640D01*
X4729947Y-15305164D01*
X4710900Y-15314687D01*
X4691852Y-15314687D01*
X4672804Y-15305164D01*
X4663281Y-15295640D01*
X4653757Y-15276592D01*
X4644233Y-15238497D01*
X4644233Y-15190878D01*
X4653757Y-15152783D01*
X4663281Y-15133735D01*
X4672804Y-15124211D01*
X4691852Y-15114687D01*
X4844233Y-15295640D02*
X4853757Y-15305164D01*
X4844233Y-15314687D01*
X4834709Y-15305164D01*
X4844233Y-15295640D01*
X4844233Y-15314687D01*
X4977566Y-15114687D02*
X4996614Y-15114687D01*
X5015662Y-15124211D01*
X5025185Y-15133735D01*
X5034709Y-15152783D01*
X5044233Y-15190878D01*
X5044233Y-15238497D01*
X5034709Y-15276592D01*
X5025185Y-15295640D01*
X5015662Y-15305164D01*
X4996614Y-15314687D01*
X4977566Y-15314687D01*
X4958519Y-15305164D01*
X4948995Y-15295640D01*
X4939471Y-15276592D01*
X4929947Y-15238497D01*
X4929947Y-15190878D01*
X4939471Y-15152783D01*
X4948995Y-15133735D01*
X4958519Y-15124211D01*
X4977566Y-15114687D01*
X5225185Y-15114687D02*
X5129947Y-15114687D01*
X5120424Y-15209926D01*
X5129947Y-15200402D01*
X5148995Y-15190878D01*
X5196614Y-15190878D01*
X5215662Y-15200402D01*
X5225185Y-15209926D01*
X5234709Y-15228973D01*
X5234709Y-15276592D01*
X5225185Y-15295640D01*
X5215662Y-15305164D01*
X5196614Y-15314687D01*
X5148995Y-15314687D01*
X5129947Y-15305164D01*
X5120424Y-15295640D01*
X5425185Y-15314687D02*
X5310900Y-15314687D01*
X5368043Y-15314687D02*
X5368043Y-15114687D01*
X5348995Y-15143259D01*
X5329947Y-15162307D01*
X5310900Y-15171830D01*
X5501376Y-15133735D02*
X5510900Y-15124211D01*
X5529947Y-15114687D01*
X5577566Y-15114687D01*
X5596614Y-15124211D01*
X5606138Y-15133735D01*
X5615662Y-15152783D01*
X5615662Y-15171830D01*
X5606138Y-15200402D01*
X5491852Y-15314687D01*
X5615662Y-15314687D01*
X5691852Y-15114687D02*
X5691852Y-15152783D01*
X5768042Y-15114687D02*
X5768042Y-15152783D01*
X6063281Y-15390878D02*
X6053757Y-15381354D01*
X6034709Y-15352783D01*
X6025185Y-15333735D01*
X6015662Y-15305164D01*
X6006138Y-15257545D01*
X6006138Y-15219449D01*
X6015662Y-15171830D01*
X6025185Y-15143259D01*
X6034709Y-15124211D01*
X6053757Y-15095640D01*
X6063281Y-15086116D01*
X6225185Y-15181354D02*
X6225185Y-15314687D01*
X6177566Y-15105164D02*
X6129947Y-15248021D01*
X6253757Y-15248021D01*
X6482328Y-15314687D02*
X6482328Y-15114687D01*
X6568042Y-15314687D02*
X6568042Y-15209926D01*
X6558519Y-15190878D01*
X6539471Y-15181354D01*
X6510900Y-15181354D01*
X6491852Y-15190878D01*
X6482328Y-15200402D01*
X6691852Y-15314687D02*
X6672804Y-15305164D01*
X6663281Y-15295640D01*
X6653757Y-15276592D01*
X6653757Y-15219449D01*
X6663281Y-15200402D01*
X6672804Y-15190878D01*
X6691852Y-15181354D01*
X6720423Y-15181354D01*
X6739471Y-15190878D01*
X6748995Y-15200402D01*
X6758519Y-15219449D01*
X6758519Y-15276592D01*
X6748995Y-15295640D01*
X6739471Y-15305164D01*
X6720423Y-15314687D01*
X6691852Y-15314687D01*
X6872804Y-15314687D02*
X6853757Y-15305164D01*
X6844233Y-15286116D01*
X6844233Y-15114687D01*
X7025185Y-15305164D02*
X7006138Y-15314687D01*
X6968042Y-15314687D01*
X6948995Y-15305164D01*
X6939471Y-15286116D01*
X6939471Y-15209926D01*
X6948995Y-15190878D01*
X6968042Y-15181354D01*
X7006138Y-15181354D01*
X7025185Y-15190878D01*
X7034709Y-15209926D01*
X7034709Y-15228973D01*
X6939471Y-15248021D01*
X7110900Y-15305164D02*
X7129947Y-15314687D01*
X7168042Y-15314687D01*
X7187090Y-15305164D01*
X7196614Y-15286116D01*
X7196614Y-15276592D01*
X7187090Y-15257545D01*
X7168042Y-15248021D01*
X7139471Y-15248021D01*
X7120423Y-15238497D01*
X7110900Y-15219449D01*
X7110900Y-15209926D01*
X7120423Y-15190878D01*
X7139471Y-15181354D01*
X7168042Y-15181354D01*
X7187090Y-15190878D01*
X7263281Y-15390878D02*
X7272804Y-15381354D01*
X7291852Y-15352783D01*
X7301376Y-15333735D01*
X7310900Y-15305164D01*
X7320423Y-15257545D01*
X7320423Y-15219449D01*
X7310900Y-15171830D01*
X7301376Y-15143259D01*
X7291852Y-15124211D01*
X7272804Y-15095640D01*
X7263281Y-15086116D01*
X2291376Y-15388211D02*
X2491376Y-15588211D01*
X2491376Y-15388211D02*
X2291376Y-15588211D01*
X2391376Y-15388211D02*
X2391376Y-15588211D01*
X2291376Y-15488211D02*
X2491376Y-15488211D01*
X2739471Y-15397735D02*
X2748995Y-15388211D01*
X2768043Y-15378687D01*
X2815662Y-15378687D01*
X2834709Y-15388211D01*
X2844233Y-15397735D01*
X2853757Y-15416783D01*
X2853757Y-15435830D01*
X2844233Y-15464402D01*
X2729947Y-15578687D01*
X2853757Y-15578687D01*
X2939471Y-15559640D02*
X2948995Y-15569164D01*
X2939471Y-15578687D01*
X2929947Y-15569164D01*
X2939471Y-15559640D01*
X2939471Y-15578687D01*
X3129947Y-15378687D02*
X3034709Y-15378687D01*
X3025185Y-15473926D01*
X3034709Y-15464402D01*
X3053757Y-15454878D01*
X3101376Y-15454878D01*
X3120423Y-15464402D01*
X3129947Y-15473926D01*
X3139471Y-15492973D01*
X3139471Y-15540592D01*
X3129947Y-15559640D01*
X3120423Y-15569164D01*
X3101376Y-15578687D01*
X3053757Y-15578687D01*
X3034709Y-15569164D01*
X3025185Y-15559640D01*
X3263281Y-15378687D02*
X3282328Y-15378687D01*
X3301376Y-15388211D01*
X3310900Y-15397735D01*
X3320423Y-15416783D01*
X3329947Y-15454878D01*
X3329947Y-15502497D01*
X3320423Y-15540592D01*
X3310900Y-15559640D01*
X3301376Y-15569164D01*
X3282328Y-15578687D01*
X3263281Y-15578687D01*
X3244233Y-15569164D01*
X3234709Y-15559640D01*
X3225185Y-15540592D01*
X3215662Y-15502497D01*
X3215662Y-15454878D01*
X3225185Y-15416783D01*
X3234709Y-15397735D01*
X3244233Y-15388211D01*
X3263281Y-15378687D01*
X3453757Y-15378687D02*
X3472804Y-15378687D01*
X3491852Y-15388211D01*
X3501376Y-15397735D01*
X3510900Y-15416783D01*
X3520423Y-15454878D01*
X3520423Y-15502497D01*
X3510900Y-15540592D01*
X3501376Y-15559640D01*
X3491852Y-15569164D01*
X3472804Y-15578687D01*
X3453757Y-15578687D01*
X3434709Y-15569164D01*
X3425185Y-15559640D01*
X3415662Y-15540592D01*
X3406138Y-15502497D01*
X3406138Y-15454878D01*
X3415662Y-15416783D01*
X3425185Y-15397735D01*
X3434709Y-15388211D01*
X3453757Y-15378687D01*
X3606138Y-15578687D02*
X3606138Y-15445354D01*
X3606138Y-15464402D02*
X3615662Y-15454878D01*
X3634709Y-15445354D01*
X3663281Y-15445354D01*
X3682328Y-15454878D01*
X3691852Y-15473926D01*
X3691852Y-15578687D01*
X3691852Y-15473926D02*
X3701376Y-15454878D01*
X3720423Y-15445354D01*
X3748995Y-15445354D01*
X3768042Y-15454878D01*
X3777566Y-15473926D01*
X3777566Y-15578687D01*
X3872804Y-15578687D02*
X3872804Y-15445354D01*
X3872804Y-15464402D02*
X3882328Y-15454878D01*
X3901376Y-15445354D01*
X3929947Y-15445354D01*
X3948995Y-15454878D01*
X3958519Y-15473926D01*
X3958519Y-15578687D01*
X3958519Y-15473926D02*
X3968042Y-15454878D01*
X3987090Y-15445354D01*
X4015662Y-15445354D01*
X4034709Y-15454878D01*
X4044233Y-15473926D01*
X4044233Y-15578687D01*
X4434709Y-15369164D02*
X4263281Y-15626307D01*
X4691852Y-15378687D02*
X4710900Y-15378687D01*
X4729947Y-15388211D01*
X4739471Y-15397735D01*
X4748995Y-15416783D01*
X4758519Y-15454878D01*
X4758519Y-15502497D01*
X4748995Y-15540592D01*
X4739471Y-15559640D01*
X4729947Y-15569164D01*
X4710900Y-15578687D01*
X4691852Y-15578687D01*
X4672804Y-15569164D01*
X4663281Y-15559640D01*
X4653757Y-15540592D01*
X4644233Y-15502497D01*
X4644233Y-15454878D01*
X4653757Y-15416783D01*
X4663281Y-15397735D01*
X4672804Y-15388211D01*
X4691852Y-15378687D01*
X4844233Y-15559640D02*
X4853757Y-15569164D01*
X4844233Y-15578687D01*
X4834709Y-15569164D01*
X4844233Y-15559640D01*
X4844233Y-15578687D01*
X4977566Y-15378687D02*
X4996614Y-15378687D01*
X5015662Y-15388211D01*
X5025185Y-15397735D01*
X5034709Y-15416783D01*
X5044233Y-15454878D01*
X5044233Y-15502497D01*
X5034709Y-15540592D01*
X5025185Y-15559640D01*
X5015662Y-15569164D01*
X4996614Y-15578687D01*
X4977566Y-15578687D01*
X4958519Y-15569164D01*
X4948995Y-15559640D01*
X4939471Y-15540592D01*
X4929947Y-15502497D01*
X4929947Y-15454878D01*
X4939471Y-15416783D01*
X4948995Y-15397735D01*
X4958519Y-15388211D01*
X4977566Y-15378687D01*
X5139471Y-15578687D02*
X5177566Y-15578687D01*
X5196614Y-15569164D01*
X5206138Y-15559640D01*
X5225185Y-15531068D01*
X5234709Y-15492973D01*
X5234709Y-15416783D01*
X5225185Y-15397735D01*
X5215662Y-15388211D01*
X5196614Y-15378687D01*
X5158519Y-15378687D01*
X5139471Y-15388211D01*
X5129947Y-15397735D01*
X5120424Y-15416783D01*
X5120424Y-15464402D01*
X5129947Y-15483449D01*
X5139471Y-15492973D01*
X5158519Y-15502497D01*
X5196614Y-15502497D01*
X5215662Y-15492973D01*
X5225185Y-15483449D01*
X5234709Y-15464402D01*
X5348995Y-15464402D02*
X5329947Y-15454878D01*
X5320424Y-15445354D01*
X5310900Y-15426307D01*
X5310900Y-15416783D01*
X5320424Y-15397735D01*
X5329947Y-15388211D01*
X5348995Y-15378687D01*
X5387090Y-15378687D01*
X5406138Y-15388211D01*
X5415662Y-15397735D01*
X5425185Y-15416783D01*
X5425185Y-15426307D01*
X5415662Y-15445354D01*
X5406138Y-15454878D01*
X5387090Y-15464402D01*
X5348995Y-15464402D01*
X5329947Y-15473926D01*
X5320424Y-15483449D01*
X5310900Y-15502497D01*
X5310900Y-15540592D01*
X5320424Y-15559640D01*
X5329947Y-15569164D01*
X5348995Y-15578687D01*
X5387090Y-15578687D01*
X5406138Y-15569164D01*
X5415662Y-15559640D01*
X5425185Y-15540592D01*
X5425185Y-15502497D01*
X5415662Y-15483449D01*
X5406138Y-15473926D01*
X5387090Y-15464402D01*
X5596614Y-15445354D02*
X5596614Y-15578687D01*
X5548995Y-15369164D02*
X5501376Y-15512021D01*
X5625185Y-15512021D01*
X5691852Y-15378687D02*
X5691852Y-15416783D01*
X5768042Y-15378687D02*
X5768042Y-15416783D01*
X6063281Y-15654878D02*
X6053757Y-15645354D01*
X6034709Y-15616783D01*
X6025185Y-15597735D01*
X6015662Y-15569164D01*
X6006138Y-15521545D01*
X6006138Y-15483449D01*
X6015662Y-15435830D01*
X6025185Y-15407259D01*
X6034709Y-15388211D01*
X6053757Y-15359640D01*
X6063281Y-15350116D01*
X6244233Y-15578687D02*
X6129947Y-15578687D01*
X6187090Y-15578687D02*
X6187090Y-15378687D01*
X6168042Y-15407259D01*
X6148995Y-15426307D01*
X6129947Y-15435830D01*
X6368042Y-15378687D02*
X6387090Y-15378687D01*
X6406138Y-15388211D01*
X6415662Y-15397735D01*
X6425185Y-15416783D01*
X6434709Y-15454878D01*
X6434709Y-15502497D01*
X6425185Y-15540592D01*
X6415662Y-15559640D01*
X6406138Y-15569164D01*
X6387090Y-15578687D01*
X6368042Y-15578687D01*
X6348995Y-15569164D01*
X6339471Y-15559640D01*
X6329947Y-15540592D01*
X6320423Y-15502497D01*
X6320423Y-15454878D01*
X6329947Y-15416783D01*
X6339471Y-15397735D01*
X6348995Y-15388211D01*
X6368042Y-15378687D01*
X6672804Y-15578687D02*
X6672804Y-15378687D01*
X6758519Y-15578687D02*
X6758519Y-15473926D01*
X6748995Y-15454878D01*
X6729947Y-15445354D01*
X6701376Y-15445354D01*
X6682328Y-15454878D01*
X6672804Y-15464402D01*
X6882328Y-15578687D02*
X6863281Y-15569164D01*
X6853757Y-15559640D01*
X6844233Y-15540592D01*
X6844233Y-15483449D01*
X6853757Y-15464402D01*
X6863281Y-15454878D01*
X6882328Y-15445354D01*
X6910900Y-15445354D01*
X6929947Y-15454878D01*
X6939471Y-15464402D01*
X6948995Y-15483449D01*
X6948995Y-15540592D01*
X6939471Y-15559640D01*
X6929947Y-15569164D01*
X6910900Y-15578687D01*
X6882328Y-15578687D01*
X7063281Y-15578687D02*
X7044233Y-15569164D01*
X7034709Y-15550116D01*
X7034709Y-15378687D01*
X7215662Y-15569164D02*
X7196614Y-15578687D01*
X7158519Y-15578687D01*
X7139471Y-15569164D01*
X7129947Y-15550116D01*
X7129947Y-15473926D01*
X7139471Y-15454878D01*
X7158519Y-15445354D01*
X7196614Y-15445354D01*
X7215662Y-15454878D01*
X7225185Y-15473926D01*
X7225185Y-15492973D01*
X7129947Y-15512021D01*
X7301376Y-15569164D02*
X7320423Y-15578687D01*
X7358519Y-15578687D01*
X7377566Y-15569164D01*
X7387090Y-15550116D01*
X7387090Y-15540592D01*
X7377566Y-15521545D01*
X7358519Y-15512021D01*
X7329947Y-15512021D01*
X7310900Y-15502497D01*
X7301376Y-15483449D01*
X7301376Y-15473926D01*
X7310900Y-15454878D01*
X7329947Y-15445354D01*
X7358519Y-15445354D01*
X7377566Y-15454878D01*
X7453757Y-15654878D02*
X7463281Y-15645354D01*
X7482328Y-15616783D01*
X7491852Y-15597735D01*
X7501376Y-15569164D01*
X7510900Y-15521545D01*
X7510900Y-15483449D01*
X7501376Y-15435830D01*
X7491852Y-15407259D01*
X7482328Y-15388211D01*
X7463281Y-15359640D01*
X7453757Y-15350116D01*
M02*
