%TF.GenerationSoftware,KiCad,Pcbnew,(6.0.10)*%
%TF.CreationDate,2023-09-30T09:22:21-05:00*%
%TF.ProjectId,RunType58,52756e54-7970-4653-9538-2e6b69636164,rev?*%
%TF.SameCoordinates,Original*%
%TF.FileFunction,Soldermask,Bot*%
%TF.FilePolarity,Negative*%
%FSLAX46Y46*%
G04 Gerber Fmt 4.6, Leading zero omitted, Abs format (unit mm)*
G04 Created by KiCad (PCBNEW (6.0.10)) date 2023-09-30 09:22:21*
%MOMM*%
%LPD*%
G01*
G04 APERTURE LIST*
G04 Aperture macros list*
%AMRotRect*
0 Rectangle, with rotation*
0 The origin of the aperture is its center*
0 $1 length*
0 $2 width*
0 $3 Rotation angle, in degrees counterclockwise*
0 Add horizontal line*
21,1,$1,$2,0,0,$3*%
G04 Aperture macros list end*
%ADD10C,1.397000*%
%ADD11C,4.000000*%
%ADD12C,1.752600*%
%ADD13C,0.100000*%
%ADD14C,1.700000*%
%ADD15C,3.000000*%
%ADD16C,1.900000*%
%ADD17R,2.000000X2.000000*%
%ADD18R,2.500000X2.500000*%
%ADD19R,1.900000X2.000000*%
%ADD20RotRect,2.000000X2.000000X150.000000*%
%ADD21RotRect,2.500000X2.500000X150.000000*%
%ADD22RotRect,1.900000X2.000000X150.000000*%
%ADD23C,2.000000*%
%ADD24R,1.500000X1.800000*%
%ADD25C,1.998980*%
%ADD26R,1.998980X1.998980*%
%ADD27R,1.800000X1.500000*%
%ADD28C,1.000000*%
%ADD29RotRect,2.000000X2.000000X120.000000*%
%ADD30RotRect,2.500000X2.500000X120.000000*%
%ADD31RotRect,1.900000X2.000000X120.000000*%
G04 APERTURE END LIST*
D10*
%TO.C,Bat+2*%
X149400000Y-27466500D03*
%TD*%
D11*
%TO.C,H2*%
X280520000Y-89110000D03*
%TD*%
%TO.C,H10*%
X240470000Y-101930000D03*
%TD*%
%TO.C,H9*%
X280430000Y-51960000D03*
%TD*%
%TO.C,H8*%
X205400000Y-46950000D03*
%TD*%
%TO.C,H7*%
X45540000Y-52020000D03*
%TD*%
%TO.C,H6*%
X144470000Y-102970000D03*
%TD*%
%TO.C,H5*%
X120840000Y-84370000D03*
%TD*%
%TO.C,H4*%
X45470000Y-89040000D03*
%TD*%
%TO.C,H3*%
X181390000Y-102950000D03*
%TD*%
%TO.C,H1*%
X120420000Y-46960000D03*
%TD*%
D12*
%TO.C,Display1*%
X155890000Y-58607312D03*
X153350000Y-58607312D03*
X150810000Y-58607312D03*
X148270000Y-58607312D03*
X145730000Y-58607312D03*
%TD*%
D13*
%TO.C,SW58*%
X117395000Y-112930000D03*
D11*
X121220000Y-115510000D03*
D14*
X116140000Y-115510000D03*
D15*
X123760000Y-110430000D03*
D14*
X126300000Y-115510000D03*
D15*
X117410000Y-112970000D03*
X116220000Y-119210000D03*
D16*
X115720000Y-115510000D03*
D15*
X121220000Y-121410000D03*
D16*
X126720000Y-115510000D03*
D17*
X113120000Y-119210000D03*
D18*
X114320000Y-112970000D03*
D19*
X124020000Y-121410000D03*
D18*
X126820000Y-110430000D03*
%TD*%
%TO.C,SW57*%
X107790000Y-108020000D03*
D19*
X104990000Y-119000000D03*
D18*
X95290000Y-110560000D03*
D17*
X94090000Y-116800000D03*
D16*
X107690000Y-113100000D03*
D15*
X102190000Y-119000000D03*
D16*
X96690000Y-113100000D03*
D15*
X97190000Y-116800000D03*
X98380000Y-110560000D03*
D14*
X107270000Y-113100000D03*
D15*
X104730000Y-108020000D03*
D14*
X97110000Y-113100000D03*
D11*
X102190000Y-113100000D03*
D13*
X98365000Y-110520000D03*
%TD*%
%TO.C,SW56*%
X144097453Y-113213154D03*
D11*
X146120000Y-117360000D03*
D14*
X141720591Y-114820000D03*
D15*
X150859705Y-114230591D03*
D14*
X150519409Y-119900000D03*
D15*
X144090443Y-113255295D03*
X139939873Y-118064294D03*
D16*
X141356860Y-114610000D03*
D15*
X143170000Y-122469550D03*
D16*
X150883140Y-120110000D03*
D20*
X137255194Y-116514294D03*
D21*
X141414425Y-111710295D03*
D22*
X145594871Y-123869550D03*
D21*
X153509742Y-115760591D03*
%TD*%
D13*
%TO.C,SW55*%
X79335000Y-110510000D03*
D11*
X83160000Y-113090000D03*
D14*
X78080000Y-113090000D03*
D15*
X85700000Y-108010000D03*
D14*
X88240000Y-113090000D03*
D15*
X79350000Y-110550000D03*
X78160000Y-116790000D03*
D16*
X77660000Y-113090000D03*
D15*
X83160000Y-118990000D03*
D16*
X88660000Y-113090000D03*
D17*
X75060000Y-116790000D03*
D18*
X76260000Y-110550000D03*
D19*
X85960000Y-118990000D03*
D18*
X88760000Y-108010000D03*
%TD*%
D13*
%TO.C,SW54*%
X50745000Y-96240000D03*
D11*
X54570000Y-98820000D03*
D14*
X49490000Y-98820000D03*
D15*
X57110000Y-93740000D03*
D14*
X59650000Y-98820000D03*
D15*
X50760000Y-96280000D03*
X49570000Y-102520000D03*
D16*
X49070000Y-98820000D03*
D15*
X54570000Y-104720000D03*
D16*
X60070000Y-98820000D03*
D17*
X46470000Y-102520000D03*
D18*
X47670000Y-96280000D03*
D19*
X57370000Y-104720000D03*
D18*
X60170000Y-93740000D03*
%TD*%
D13*
%TO.C,SW53*%
X31695000Y-98580000D03*
D11*
X35520000Y-101160000D03*
D14*
X30440000Y-101160000D03*
D15*
X38060000Y-96080000D03*
D14*
X40600000Y-101160000D03*
D15*
X31710000Y-98620000D03*
X30520000Y-104860000D03*
D16*
X30020000Y-101160000D03*
D15*
X35520000Y-107060000D03*
D16*
X41020000Y-101160000D03*
D17*
X27420000Y-104860000D03*
D18*
X28620000Y-98620000D03*
D19*
X38320000Y-107060000D03*
D18*
X41120000Y-96080000D03*
%TD*%
D13*
%TO.C,SW52*%
X146975000Y-87290000D03*
D11*
X150800000Y-89870000D03*
D14*
X145720000Y-89870000D03*
D15*
X153340000Y-84790000D03*
D14*
X155880000Y-89870000D03*
D15*
X146990000Y-87330000D03*
X145800000Y-93570000D03*
D16*
X145300000Y-89870000D03*
D15*
X150800000Y-95770000D03*
D16*
X156300000Y-89870000D03*
D17*
X142700000Y-93570000D03*
D18*
X143900000Y-87330000D03*
D19*
X153600000Y-95770000D03*
D18*
X156400000Y-84790000D03*
%TD*%
D13*
%TO.C,SW51*%
X107835000Y-91420000D03*
D11*
X111660000Y-94000000D03*
D14*
X106580000Y-94000000D03*
D15*
X114200000Y-88920000D03*
D14*
X116740000Y-94000000D03*
D15*
X107850000Y-91460000D03*
X106660000Y-97700000D03*
D16*
X106160000Y-94000000D03*
D15*
X111660000Y-99900000D03*
D16*
X117160000Y-94000000D03*
D17*
X103560000Y-97700000D03*
D18*
X104760000Y-91460000D03*
D19*
X114460000Y-99900000D03*
D18*
X117260000Y-88920000D03*
%TD*%
D13*
%TO.C,SW50*%
X88795000Y-89090000D03*
D11*
X92620000Y-91670000D03*
D14*
X87540000Y-91670000D03*
D15*
X95160000Y-86590000D03*
D14*
X97700000Y-91670000D03*
D15*
X88810000Y-89130000D03*
X87620000Y-95370000D03*
D16*
X87120000Y-91670000D03*
D15*
X92620000Y-97570000D03*
D16*
X98120000Y-91670000D03*
D17*
X84520000Y-95370000D03*
D18*
X85720000Y-89130000D03*
D19*
X95420000Y-97570000D03*
D18*
X98220000Y-86590000D03*
%TD*%
D13*
%TO.C,SW49*%
X69765000Y-91420000D03*
D11*
X73590000Y-94000000D03*
D14*
X68510000Y-94000000D03*
D15*
X76130000Y-88920000D03*
D14*
X78670000Y-94000000D03*
D15*
X69780000Y-91460000D03*
X68590000Y-97700000D03*
D16*
X68090000Y-94000000D03*
D15*
X73590000Y-99900000D03*
D16*
X79090000Y-94000000D03*
D17*
X65490000Y-97700000D03*
D18*
X66690000Y-91460000D03*
D19*
X76390000Y-99900000D03*
D18*
X79190000Y-88920000D03*
%TD*%
D13*
%TO.C,SW48*%
X126865000Y-93790000D03*
D11*
X130690000Y-96370000D03*
D14*
X125610000Y-96370000D03*
D15*
X133230000Y-91290000D03*
D14*
X135770000Y-96370000D03*
D15*
X126880000Y-93830000D03*
X125690000Y-100070000D03*
D16*
X125190000Y-96370000D03*
D15*
X130690000Y-102270000D03*
D16*
X136190000Y-96370000D03*
D17*
X122590000Y-100070000D03*
D18*
X123790000Y-93830000D03*
D19*
X133490000Y-102270000D03*
D18*
X136290000Y-91290000D03*
%TD*%
D13*
%TO.C,SW47*%
X50755000Y-77150000D03*
D11*
X54580000Y-79730000D03*
D14*
X49500000Y-79730000D03*
D15*
X57120000Y-74650000D03*
D14*
X59660000Y-79730000D03*
D15*
X50770000Y-77190000D03*
X49580000Y-83430000D03*
D16*
X49080000Y-79730000D03*
D15*
X54580000Y-85630000D03*
D16*
X60080000Y-79730000D03*
D17*
X46480000Y-83430000D03*
D18*
X47680000Y-77190000D03*
D19*
X57380000Y-85630000D03*
D18*
X60180000Y-74650000D03*
%TD*%
D13*
%TO.C,SW46*%
X31715000Y-79500000D03*
D11*
X35540000Y-82080000D03*
D14*
X30460000Y-82080000D03*
D15*
X38080000Y-77000000D03*
D14*
X40620000Y-82080000D03*
D15*
X31730000Y-79540000D03*
X30540000Y-85780000D03*
D16*
X30040000Y-82080000D03*
D15*
X35540000Y-87980000D03*
D16*
X41040000Y-82080000D03*
D17*
X27440000Y-85780000D03*
D18*
X28640000Y-79540000D03*
D19*
X38340000Y-87980000D03*
D18*
X41140000Y-77000000D03*
%TD*%
D13*
%TO.C,SW45*%
X107835000Y-72370000D03*
D11*
X111660000Y-74950000D03*
D14*
X106580000Y-74950000D03*
D15*
X114200000Y-69870000D03*
D14*
X116740000Y-74950000D03*
D15*
X107850000Y-72410000D03*
X106660000Y-78650000D03*
D16*
X106160000Y-74950000D03*
D15*
X111660000Y-80850000D03*
D16*
X117160000Y-74950000D03*
D17*
X103560000Y-78650000D03*
D18*
X104760000Y-72410000D03*
D19*
X114460000Y-80850000D03*
D18*
X117260000Y-69870000D03*
%TD*%
D13*
%TO.C,SW44*%
X88815000Y-70000000D03*
D11*
X92640000Y-72580000D03*
D14*
X87560000Y-72580000D03*
D15*
X95180000Y-67500000D03*
D14*
X97720000Y-72580000D03*
D15*
X88830000Y-70040000D03*
X87640000Y-76280000D03*
D16*
X87140000Y-72580000D03*
D15*
X92640000Y-78480000D03*
D16*
X98140000Y-72580000D03*
D17*
X84540000Y-76280000D03*
D18*
X85740000Y-70040000D03*
D19*
X95440000Y-78480000D03*
D18*
X98240000Y-67500000D03*
%TD*%
D13*
%TO.C,SW43*%
X69785000Y-72390000D03*
D11*
X73610000Y-74970000D03*
D14*
X68530000Y-74970000D03*
D15*
X76150000Y-69890000D03*
D14*
X78690000Y-74970000D03*
D15*
X69800000Y-72430000D03*
X68610000Y-78670000D03*
D16*
X68110000Y-74970000D03*
D15*
X73610000Y-80870000D03*
D16*
X79110000Y-74970000D03*
D17*
X65510000Y-78670000D03*
D18*
X66710000Y-72430000D03*
D19*
X76410000Y-80870000D03*
D18*
X79210000Y-69890000D03*
%TD*%
D13*
%TO.C,SW42*%
X126875000Y-74760000D03*
D11*
X130700000Y-77340000D03*
D14*
X125620000Y-77340000D03*
D15*
X133240000Y-72260000D03*
D14*
X135780000Y-77340000D03*
D15*
X126890000Y-74800000D03*
X125700000Y-81040000D03*
D16*
X125200000Y-77340000D03*
D15*
X130700000Y-83240000D03*
D16*
X136200000Y-77340000D03*
D17*
X122600000Y-81040000D03*
D18*
X123800000Y-74800000D03*
D19*
X133500000Y-83240000D03*
D18*
X136300000Y-72260000D03*
%TD*%
D13*
%TO.C,SW41*%
X50735000Y-58120000D03*
D11*
X54560000Y-60700000D03*
D14*
X49480000Y-60700000D03*
D15*
X57100000Y-55620000D03*
D14*
X59640000Y-60700000D03*
D15*
X50750000Y-58160000D03*
X49560000Y-64400000D03*
D16*
X49060000Y-60700000D03*
D15*
X54560000Y-66600000D03*
D16*
X60060000Y-60700000D03*
D17*
X46460000Y-64400000D03*
D18*
X47660000Y-58160000D03*
D19*
X57360000Y-66600000D03*
D18*
X60160000Y-55620000D03*
%TD*%
D13*
%TO.C,SW40*%
X31705000Y-60560000D03*
D11*
X35530000Y-63140000D03*
D14*
X30450000Y-63140000D03*
D15*
X38070000Y-58060000D03*
D14*
X40610000Y-63140000D03*
D15*
X31720000Y-60600000D03*
X30530000Y-66840000D03*
D16*
X30030000Y-63140000D03*
D15*
X35530000Y-69040000D03*
D16*
X41030000Y-63140000D03*
D17*
X27430000Y-66840000D03*
D18*
X28630000Y-60600000D03*
D19*
X38330000Y-69040000D03*
D18*
X41130000Y-58060000D03*
%TD*%
D13*
%TO.C,SW39*%
X126875000Y-55760000D03*
D11*
X130700000Y-58340000D03*
D14*
X125620000Y-58340000D03*
D15*
X133240000Y-53260000D03*
D14*
X135780000Y-58340000D03*
D15*
X126890000Y-55800000D03*
X125700000Y-62040000D03*
D16*
X125200000Y-58340000D03*
D15*
X130700000Y-64240000D03*
D16*
X136200000Y-58340000D03*
D17*
X122600000Y-62040000D03*
D18*
X123800000Y-55800000D03*
D19*
X133500000Y-64240000D03*
D18*
X136300000Y-53260000D03*
%TD*%
D13*
%TO.C,SW38*%
X107825000Y-53380000D03*
D11*
X111650000Y-55960000D03*
D14*
X106570000Y-55960000D03*
D15*
X114190000Y-50880000D03*
D14*
X116730000Y-55960000D03*
D15*
X107840000Y-53420000D03*
X106650000Y-59660000D03*
D16*
X106150000Y-55960000D03*
D15*
X111650000Y-61860000D03*
D16*
X117150000Y-55960000D03*
D17*
X103550000Y-59660000D03*
D18*
X104750000Y-53420000D03*
D19*
X114450000Y-61860000D03*
D18*
X117250000Y-50880000D03*
%TD*%
D13*
%TO.C,SW37*%
X88825000Y-51000000D03*
D11*
X92650000Y-53580000D03*
D14*
X87570000Y-53580000D03*
D15*
X95190000Y-48500000D03*
D14*
X97730000Y-53580000D03*
D15*
X88840000Y-51040000D03*
X87650000Y-57280000D03*
D16*
X87150000Y-53580000D03*
D15*
X92650000Y-59480000D03*
D16*
X98150000Y-53580000D03*
D17*
X84550000Y-57280000D03*
D18*
X85750000Y-51040000D03*
D19*
X95450000Y-59480000D03*
D18*
X98250000Y-48500000D03*
%TD*%
D13*
%TO.C,SW36*%
X69785000Y-53400000D03*
D11*
X73610000Y-55980000D03*
D14*
X68530000Y-55980000D03*
D15*
X76150000Y-50900000D03*
D14*
X78690000Y-55980000D03*
D15*
X69800000Y-53440000D03*
X68610000Y-59680000D03*
D16*
X68110000Y-55980000D03*
D15*
X73610000Y-61880000D03*
D16*
X79110000Y-55980000D03*
D17*
X65510000Y-59680000D03*
D18*
X66710000Y-53440000D03*
D19*
X76410000Y-61880000D03*
D18*
X79210000Y-50900000D03*
%TD*%
D13*
%TO.C,SW35*%
X126865000Y-36770000D03*
D11*
X130690000Y-39350000D03*
D14*
X125610000Y-39350000D03*
D15*
X133230000Y-34270000D03*
D14*
X135770000Y-39350000D03*
D15*
X126880000Y-36810000D03*
X125690000Y-43050000D03*
D16*
X125190000Y-39350000D03*
D15*
X130690000Y-45250000D03*
D16*
X136190000Y-39350000D03*
D17*
X122590000Y-43050000D03*
D18*
X123790000Y-36810000D03*
D19*
X133490000Y-45250000D03*
D18*
X136290000Y-34270000D03*
%TD*%
D13*
%TO.C,SW34*%
X107835000Y-34380000D03*
D11*
X111660000Y-36960000D03*
D14*
X106580000Y-36960000D03*
D15*
X114200000Y-31880000D03*
D14*
X116740000Y-36960000D03*
D15*
X107850000Y-34420000D03*
X106660000Y-40660000D03*
D16*
X106160000Y-36960000D03*
D15*
X111660000Y-42860000D03*
D16*
X117160000Y-36960000D03*
D17*
X103560000Y-40660000D03*
D18*
X104760000Y-34420000D03*
D19*
X114460000Y-42860000D03*
D18*
X117260000Y-31880000D03*
%TD*%
D13*
%TO.C,SW33*%
X88825000Y-31950000D03*
D11*
X92650000Y-34530000D03*
D14*
X87570000Y-34530000D03*
D15*
X95190000Y-29450000D03*
D14*
X97730000Y-34530000D03*
D15*
X88840000Y-31990000D03*
X87650000Y-38230000D03*
D16*
X87150000Y-34530000D03*
D15*
X92650000Y-40430000D03*
D16*
X98150000Y-34530000D03*
D17*
X84550000Y-38230000D03*
D18*
X85750000Y-31990000D03*
D19*
X95450000Y-40430000D03*
D18*
X98250000Y-29450000D03*
%TD*%
D13*
%TO.C,SW32*%
X69805000Y-34400000D03*
D11*
X73630000Y-36980000D03*
D14*
X68550000Y-36980000D03*
D15*
X76170000Y-31900000D03*
D14*
X78710000Y-36980000D03*
D15*
X69820000Y-34440000D03*
X68630000Y-40680000D03*
D16*
X68130000Y-36980000D03*
D15*
X73630000Y-42880000D03*
D16*
X79130000Y-36980000D03*
D17*
X65530000Y-40680000D03*
D18*
X66730000Y-34440000D03*
D19*
X76430000Y-42880000D03*
D18*
X79230000Y-31900000D03*
%TD*%
D13*
%TO.C,SW31*%
X50765000Y-39110000D03*
D11*
X54590000Y-41690000D03*
D14*
X49510000Y-41690000D03*
D15*
X57130000Y-36610000D03*
D14*
X59670000Y-41690000D03*
D15*
X50780000Y-39150000D03*
X49590000Y-45390000D03*
D16*
X49090000Y-41690000D03*
D15*
X54590000Y-47590000D03*
D16*
X60090000Y-41690000D03*
D17*
X46490000Y-45390000D03*
D18*
X47690000Y-39150000D03*
D19*
X57390000Y-47590000D03*
D18*
X60190000Y-36610000D03*
%TD*%
D13*
%TO.C,SW30*%
X31705000Y-41550000D03*
D11*
X35530000Y-44130000D03*
D14*
X30450000Y-44130000D03*
D15*
X38070000Y-39050000D03*
D14*
X40610000Y-44130000D03*
D15*
X31720000Y-41590000D03*
X30530000Y-47830000D03*
D16*
X30030000Y-44130000D03*
D15*
X35530000Y-50030000D03*
D16*
X41030000Y-44130000D03*
D17*
X27430000Y-47830000D03*
D18*
X28630000Y-41590000D03*
D19*
X38330000Y-50030000D03*
D18*
X41130000Y-39050000D03*
%TD*%
D23*
%TO.C,RSW2*%
X132630000Y-24350000D03*
X139130000Y-24350000D03*
%TD*%
D24*
%TO.C,D58*%
X149317460Y-71420000D03*
X149317460Y-68020000D03*
D25*
X149320000Y-74880000D03*
D26*
X149320000Y-64720000D03*
%TD*%
D24*
%TO.C,D57*%
X146310000Y-71420000D03*
X146310000Y-68020000D03*
D25*
X146312540Y-74880000D03*
D26*
X146312540Y-64720000D03*
%TD*%
D24*
%TO.C,D56*%
X143300000Y-71420000D03*
X143300000Y-68020000D03*
D25*
X143302540Y-74880000D03*
D26*
X143302540Y-64720000D03*
%TD*%
D24*
%TO.C,D55*%
X152317460Y-71420000D03*
X152317460Y-68020000D03*
D25*
X152320000Y-74880000D03*
D26*
X152320000Y-64720000D03*
%TD*%
D27*
%TO.C,D54*%
X64040000Y-109160000D03*
X67440000Y-109160000D03*
D25*
X60580000Y-109162540D03*
D26*
X70740000Y-109162540D03*
%TD*%
D27*
%TO.C,D53*%
X48550000Y-109160000D03*
X51950000Y-109160000D03*
D25*
X45090000Y-109162540D03*
D26*
X55250000Y-109162540D03*
%TD*%
%TO.C,D52*%
X155320000Y-64720000D03*
D25*
X155320000Y-74880000D03*
D24*
X155317460Y-68020000D03*
X155317460Y-71420000D03*
%TD*%
D27*
%TO.C,D51*%
X110020000Y-104120000D03*
X113420000Y-104120000D03*
D25*
X106560000Y-104122540D03*
D26*
X116720000Y-104122540D03*
%TD*%
D27*
%TO.C,D50*%
X93080000Y-103970000D03*
X96480000Y-103970000D03*
D25*
X89620000Y-103972540D03*
D26*
X99780000Y-103972540D03*
%TD*%
D27*
%TO.C,D49*%
X71860000Y-104080000D03*
X75260000Y-104080000D03*
D25*
X68400000Y-104082540D03*
D26*
X78560000Y-104082540D03*
%TD*%
D27*
%TO.C,D48*%
X129260000Y-106480000D03*
X132660000Y-106480000D03*
D25*
X125800000Y-106482540D03*
D26*
X135960000Y-106482540D03*
%TD*%
D27*
%TO.C,D47*%
X53420000Y-89680000D03*
X56820000Y-89680000D03*
D25*
X49960000Y-89682540D03*
D26*
X60120000Y-89682540D03*
%TD*%
D27*
%TO.C,D46*%
X33700000Y-92110000D03*
X37100000Y-92110000D03*
D25*
X30240000Y-92112540D03*
D26*
X40400000Y-92112540D03*
%TD*%
D27*
%TO.C,D45*%
X109750000Y-85000000D03*
X113150000Y-85000000D03*
D25*
X106290000Y-85002540D03*
D26*
X116450000Y-85002540D03*
%TD*%
D27*
%TO.C,D44*%
X90700000Y-82630000D03*
X94100000Y-82630000D03*
D25*
X87240000Y-82632540D03*
D26*
X97400000Y-82632540D03*
%TD*%
D27*
%TO.C,D43*%
X71660000Y-84950000D03*
X75060000Y-84950000D03*
D25*
X68200000Y-84952540D03*
D26*
X78360000Y-84952540D03*
%TD*%
D27*
%TO.C,D42*%
X128820000Y-87207460D03*
X132220000Y-87207460D03*
D25*
X125360000Y-87210000D03*
D26*
X135520000Y-87210000D03*
%TD*%
D27*
%TO.C,D41*%
X53200000Y-70780000D03*
X56600000Y-70780000D03*
D25*
X49740000Y-70782540D03*
D26*
X59900000Y-70782540D03*
%TD*%
D27*
%TO.C,D40*%
X34050000Y-73130000D03*
X37450000Y-73130000D03*
D25*
X30590000Y-73132540D03*
D26*
X40750000Y-73132540D03*
%TD*%
D27*
%TO.C,D39*%
X128980000Y-68257460D03*
X132380000Y-68257460D03*
D25*
X125520000Y-68260000D03*
D26*
X135680000Y-68260000D03*
%TD*%
D27*
%TO.C,D38*%
X109930000Y-66010000D03*
X113330000Y-66010000D03*
D25*
X106470000Y-66012540D03*
D26*
X116630000Y-66012540D03*
%TD*%
D27*
%TO.C,D37*%
X90820000Y-63520000D03*
X94220000Y-63520000D03*
D25*
X87360000Y-63522540D03*
D26*
X97520000Y-63522540D03*
%TD*%
D27*
%TO.C,D36*%
X71630000Y-65960000D03*
X75030000Y-65960000D03*
D25*
X68170000Y-65962540D03*
D26*
X78330000Y-65962540D03*
%TD*%
D27*
%TO.C,D35*%
X128510000Y-49220000D03*
X131910000Y-49220000D03*
D25*
X125050000Y-49222540D03*
D26*
X135210000Y-49222540D03*
%TD*%
D27*
%TO.C,D34*%
X109510000Y-46950000D03*
X112910000Y-46950000D03*
D25*
X106050000Y-46952540D03*
D26*
X116210000Y-46952540D03*
%TD*%
D27*
%TO.C,D33*%
X91030000Y-44550000D03*
X94430000Y-44550000D03*
D25*
X87570000Y-44552540D03*
D26*
X97730000Y-44552540D03*
%TD*%
D27*
%TO.C,D32*%
X71780000Y-47030000D03*
X75180000Y-47030000D03*
D25*
X68320000Y-47032540D03*
D26*
X78480000Y-47032540D03*
%TD*%
D27*
%TO.C,D31*%
X53340000Y-51800000D03*
X56740000Y-51800000D03*
D25*
X49880000Y-51802540D03*
D26*
X60040000Y-51802540D03*
%TD*%
D27*
%TO.C,D30*%
X33840000Y-54102540D03*
X37240000Y-54102540D03*
D25*
X30380000Y-54105080D03*
D26*
X40540000Y-54105080D03*
%TD*%
D23*
%TO.C,RSW1*%
X193750000Y-24440000D03*
X187250000Y-24440000D03*
%TD*%
D28*
%TO.C,SW_POWER2*%
X159300000Y-104200000D03*
X159300000Y-107200000D03*
%TD*%
D10*
%TO.C,BatGND2*%
X157370000Y-24220000D03*
%TD*%
%TO.C,BatEntry2*%
X144700000Y-24200000D03*
%TD*%
D28*
%TO.C,SW_POWER1*%
X166600000Y-107200000D03*
X166600000Y-104200000D03*
%TD*%
D10*
%TO.C,BatGND1*%
X181510000Y-24380000D03*
%TD*%
%TO.C,BatEntry1*%
X168946500Y-24450000D03*
%TD*%
%TO.C,Bat+1*%
X176350000Y-27376500D03*
%TD*%
D13*
%TO.C,SW29*%
X180121846Y-112797453D03*
D11*
X179800000Y-117400000D03*
D14*
X177260000Y-113000591D03*
D15*
X185469409Y-117059705D03*
D14*
X182340000Y-121799409D03*
D15*
X180094705Y-112830443D03*
X174095706Y-114919873D03*
D16*
X177050000Y-112636860D03*
D15*
X174690450Y-120350000D03*
D16*
X182550000Y-122163140D03*
D29*
X172545706Y-112235194D03*
D30*
X178549705Y-110154425D03*
D31*
X176090450Y-122774871D03*
D30*
X186999409Y-119709742D03*
%TD*%
D13*
%TO.C,SW28*%
X219975000Y-110620000D03*
D11*
X223800000Y-113200000D03*
D14*
X218720000Y-113200000D03*
D15*
X226340000Y-108120000D03*
D14*
X228880000Y-113200000D03*
D15*
X219990000Y-110660000D03*
X218800000Y-116900000D03*
D16*
X218300000Y-113200000D03*
D15*
X223800000Y-119100000D03*
D16*
X229300000Y-113200000D03*
D17*
X215700000Y-116900000D03*
D18*
X216900000Y-110660000D03*
D19*
X226600000Y-119100000D03*
D18*
X229400000Y-108120000D03*
%TD*%
D13*
%TO.C,SW27*%
X200875000Y-112920000D03*
D11*
X204700000Y-115500000D03*
D14*
X199620000Y-115500000D03*
D15*
X207240000Y-110420000D03*
D14*
X209780000Y-115500000D03*
D15*
X200890000Y-112960000D03*
X199700000Y-119200000D03*
D16*
X199200000Y-115500000D03*
D15*
X204700000Y-121400000D03*
D16*
X210200000Y-115500000D03*
D17*
X196600000Y-119200000D03*
D18*
X197800000Y-112960000D03*
D19*
X207500000Y-121400000D03*
D18*
X210300000Y-110420000D03*
%TD*%
D13*
%TO.C,SW26*%
X238975000Y-110620000D03*
D11*
X242800000Y-113200000D03*
D14*
X237720000Y-113200000D03*
D15*
X245340000Y-108120000D03*
D14*
X247880000Y-113200000D03*
D15*
X238990000Y-110660000D03*
X237800000Y-116900000D03*
D16*
X237300000Y-113200000D03*
D15*
X242800000Y-119100000D03*
D16*
X248300000Y-113200000D03*
D17*
X234700000Y-116900000D03*
D18*
X235900000Y-110660000D03*
D19*
X245600000Y-119100000D03*
D18*
X248400000Y-108120000D03*
%TD*%
D13*
%TO.C,SW25*%
X210375000Y-91520000D03*
D11*
X214200000Y-94100000D03*
D14*
X209120000Y-94100000D03*
D15*
X216740000Y-89020000D03*
D14*
X219280000Y-94100000D03*
D15*
X210390000Y-91560000D03*
X209200000Y-97800000D03*
D16*
X208700000Y-94100000D03*
D15*
X214200000Y-100000000D03*
D16*
X219700000Y-94100000D03*
D17*
X206100000Y-97800000D03*
D18*
X207300000Y-91560000D03*
D19*
X217000000Y-100000000D03*
D18*
X219800000Y-89020000D03*
%TD*%
D13*
%TO.C,SW24*%
X191375000Y-93820000D03*
D11*
X195200000Y-96400000D03*
D14*
X190120000Y-96400000D03*
D15*
X197740000Y-91320000D03*
D14*
X200280000Y-96400000D03*
D15*
X191390000Y-93860000D03*
X190200000Y-100100000D03*
D16*
X189700000Y-96400000D03*
D15*
X195200000Y-102300000D03*
D16*
X200700000Y-96400000D03*
D17*
X187100000Y-100100000D03*
D18*
X188300000Y-93860000D03*
D19*
X198000000Y-102300000D03*
D18*
X200800000Y-91320000D03*
%TD*%
D13*
%TO.C,SW23*%
X267575000Y-96220000D03*
D11*
X271400000Y-98800000D03*
D14*
X266320000Y-98800000D03*
D15*
X273940000Y-93720000D03*
D14*
X276480000Y-98800000D03*
D15*
X267590000Y-96260000D03*
X266400000Y-102500000D03*
D16*
X265900000Y-98800000D03*
D15*
X271400000Y-104700000D03*
D16*
X276900000Y-98800000D03*
D17*
X263300000Y-102500000D03*
D18*
X264500000Y-96260000D03*
D19*
X274200000Y-104700000D03*
D18*
X277000000Y-93720000D03*
%TD*%
D13*
%TO.C,SW22*%
X248475000Y-91520000D03*
D11*
X252300000Y-94100000D03*
D14*
X247220000Y-94100000D03*
D15*
X254840000Y-89020000D03*
D14*
X257380000Y-94100000D03*
D15*
X248490000Y-91560000D03*
X247300000Y-97800000D03*
D16*
X246800000Y-94100000D03*
D15*
X252300000Y-100000000D03*
D16*
X257800000Y-94100000D03*
D17*
X244200000Y-97800000D03*
D18*
X245400000Y-91560000D03*
D19*
X255100000Y-100000000D03*
D18*
X257900000Y-89020000D03*
%TD*%
D13*
%TO.C,SW21*%
X229475000Y-89120000D03*
D11*
X233300000Y-91700000D03*
D14*
X228220000Y-91700000D03*
D15*
X235840000Y-86620000D03*
D14*
X238380000Y-91700000D03*
D15*
X229490000Y-89160000D03*
X228300000Y-95400000D03*
D16*
X227800000Y-91700000D03*
D15*
X233300000Y-97600000D03*
D16*
X238800000Y-91700000D03*
D17*
X225200000Y-95400000D03*
D18*
X226400000Y-89160000D03*
D19*
X236100000Y-97600000D03*
D18*
X238900000Y-86620000D03*
%TD*%
D13*
%TO.C,SW20*%
X286575000Y-98620000D03*
D11*
X290400000Y-101200000D03*
D14*
X285320000Y-101200000D03*
D15*
X292940000Y-96120000D03*
D14*
X295480000Y-101200000D03*
D15*
X286590000Y-98660000D03*
X285400000Y-104900000D03*
D16*
X284900000Y-101200000D03*
D15*
X290400000Y-107100000D03*
D16*
X295900000Y-101200000D03*
D17*
X282300000Y-104900000D03*
D18*
X283500000Y-98660000D03*
D19*
X293200000Y-107100000D03*
D18*
X296000000Y-96120000D03*
%TD*%
D13*
%TO.C,SW19*%
X171275000Y-87320000D03*
D11*
X175100000Y-89900000D03*
D14*
X170020000Y-89900000D03*
D15*
X177640000Y-84820000D03*
D14*
X180180000Y-89900000D03*
D15*
X171290000Y-87360000D03*
X170100000Y-93600000D03*
D16*
X169600000Y-89900000D03*
D15*
X175100000Y-95800000D03*
D16*
X180600000Y-89900000D03*
D17*
X167000000Y-93600000D03*
D18*
X168200000Y-87360000D03*
D19*
X177900000Y-95800000D03*
D18*
X180700000Y-84820000D03*
%TD*%
D13*
%TO.C,SW18*%
X210375000Y-72420000D03*
D11*
X214200000Y-75000000D03*
D14*
X209120000Y-75000000D03*
D15*
X216740000Y-69920000D03*
D14*
X219280000Y-75000000D03*
D15*
X210390000Y-72460000D03*
X209200000Y-78700000D03*
D16*
X208700000Y-75000000D03*
D15*
X214200000Y-80900000D03*
D16*
X219700000Y-75000000D03*
D17*
X206100000Y-78700000D03*
D18*
X207300000Y-72460000D03*
D19*
X217000000Y-80900000D03*
D18*
X219800000Y-69920000D03*
%TD*%
D13*
%TO.C,SW17*%
X191375000Y-74820000D03*
D11*
X195200000Y-77400000D03*
D14*
X190120000Y-77400000D03*
D15*
X197740000Y-72320000D03*
D14*
X200280000Y-77400000D03*
D15*
X191390000Y-74860000D03*
X190200000Y-81100000D03*
D16*
X189700000Y-77400000D03*
D15*
X195200000Y-83300000D03*
D16*
X200700000Y-77400000D03*
D17*
X187100000Y-81100000D03*
D18*
X188300000Y-74860000D03*
D19*
X198000000Y-83300000D03*
D18*
X200800000Y-72320000D03*
%TD*%
D13*
%TO.C,SW16*%
X267575000Y-77120000D03*
D11*
X271400000Y-79700000D03*
D14*
X266320000Y-79700000D03*
D15*
X273940000Y-74620000D03*
D14*
X276480000Y-79700000D03*
D15*
X267590000Y-77160000D03*
X266400000Y-83400000D03*
D16*
X265900000Y-79700000D03*
D15*
X271400000Y-85600000D03*
D16*
X276900000Y-79700000D03*
D17*
X263300000Y-83400000D03*
D18*
X264500000Y-77160000D03*
D19*
X274200000Y-85600000D03*
D18*
X277000000Y-74620000D03*
%TD*%
D13*
%TO.C,SW15*%
X248475000Y-72420000D03*
D11*
X252300000Y-75000000D03*
D14*
X247220000Y-75000000D03*
D15*
X254840000Y-69920000D03*
D14*
X257380000Y-75000000D03*
D15*
X248490000Y-72460000D03*
X247300000Y-78700000D03*
D16*
X246800000Y-75000000D03*
D15*
X252300000Y-80900000D03*
D16*
X257800000Y-75000000D03*
D17*
X244200000Y-78700000D03*
D18*
X245400000Y-72460000D03*
D19*
X255100000Y-80900000D03*
D18*
X257900000Y-69920000D03*
%TD*%
D13*
%TO.C,SW14*%
X229475000Y-70120000D03*
D11*
X233300000Y-72700000D03*
D14*
X228220000Y-72700000D03*
D15*
X235840000Y-67620000D03*
D14*
X238380000Y-72700000D03*
D15*
X229490000Y-70160000D03*
X228300000Y-76400000D03*
D16*
X227800000Y-72700000D03*
D15*
X233300000Y-78600000D03*
D16*
X238800000Y-72700000D03*
D17*
X225200000Y-76400000D03*
D18*
X226400000Y-70160000D03*
D19*
X236100000Y-78600000D03*
D18*
X238900000Y-67620000D03*
%TD*%
D13*
%TO.C,SW13*%
X286575000Y-79520000D03*
D11*
X290400000Y-82100000D03*
D14*
X285320000Y-82100000D03*
D15*
X292940000Y-77020000D03*
D14*
X295480000Y-82100000D03*
D15*
X286590000Y-79560000D03*
X285400000Y-85800000D03*
D16*
X284900000Y-82100000D03*
D15*
X290400000Y-88000000D03*
D16*
X295900000Y-82100000D03*
D17*
X282300000Y-85800000D03*
D18*
X283500000Y-79560000D03*
D19*
X293200000Y-88000000D03*
D18*
X296000000Y-77020000D03*
%TD*%
D13*
%TO.C,SW12*%
X210375000Y-53420000D03*
D11*
X214200000Y-56000000D03*
D14*
X209120000Y-56000000D03*
D15*
X216740000Y-50920000D03*
D14*
X219280000Y-56000000D03*
D15*
X210390000Y-53460000D03*
X209200000Y-59700000D03*
D16*
X208700000Y-56000000D03*
D15*
X214200000Y-61900000D03*
D16*
X219700000Y-56000000D03*
D17*
X206100000Y-59700000D03*
D18*
X207300000Y-53460000D03*
D19*
X217000000Y-61900000D03*
D18*
X219800000Y-50920000D03*
%TD*%
D13*
%TO.C,SW11*%
X191375000Y-55820000D03*
D11*
X195200000Y-58400000D03*
D14*
X190120000Y-58400000D03*
D15*
X197740000Y-53320000D03*
D14*
X200280000Y-58400000D03*
D15*
X191390000Y-55860000D03*
X190200000Y-62100000D03*
D16*
X189700000Y-58400000D03*
D15*
X195200000Y-64300000D03*
D16*
X200700000Y-58400000D03*
D17*
X187100000Y-62100000D03*
D18*
X188300000Y-55860000D03*
D19*
X198000000Y-64300000D03*
D18*
X200800000Y-53320000D03*
%TD*%
D13*
%TO.C,SW10*%
X267575000Y-58120000D03*
D11*
X271400000Y-60700000D03*
D14*
X266320000Y-60700000D03*
D15*
X273940000Y-55620000D03*
D14*
X276480000Y-60700000D03*
D15*
X267590000Y-58160000D03*
X266400000Y-64400000D03*
D16*
X265900000Y-60700000D03*
D15*
X271400000Y-66600000D03*
D16*
X276900000Y-60700000D03*
D17*
X263300000Y-64400000D03*
D18*
X264500000Y-58160000D03*
D19*
X274200000Y-66600000D03*
D18*
X277000000Y-55620000D03*
%TD*%
D13*
%TO.C,SW9*%
X248475000Y-53420000D03*
D11*
X252300000Y-56000000D03*
D14*
X247220000Y-56000000D03*
D15*
X254840000Y-50920000D03*
D14*
X257380000Y-56000000D03*
D15*
X248490000Y-53460000D03*
X247300000Y-59700000D03*
D16*
X246800000Y-56000000D03*
D15*
X252300000Y-61900000D03*
D16*
X257800000Y-56000000D03*
D17*
X244200000Y-59700000D03*
D18*
X245400000Y-53460000D03*
D19*
X255100000Y-61900000D03*
D18*
X257900000Y-50920000D03*
%TD*%
D13*
%TO.C,SW8*%
X229475000Y-51020000D03*
D11*
X233300000Y-53600000D03*
D14*
X228220000Y-53600000D03*
D15*
X235840000Y-48520000D03*
D14*
X238380000Y-53600000D03*
D15*
X229490000Y-51060000D03*
X228300000Y-57300000D03*
D16*
X227800000Y-53600000D03*
D15*
X233300000Y-59500000D03*
D16*
X238800000Y-53600000D03*
D17*
X225200000Y-57300000D03*
D18*
X226400000Y-51060000D03*
D19*
X236100000Y-59500000D03*
D18*
X238900000Y-48520000D03*
%TD*%
D13*
%TO.C,SW7*%
X286575000Y-60520000D03*
D11*
X290400000Y-63100000D03*
D14*
X285320000Y-63100000D03*
D15*
X292940000Y-58020000D03*
D14*
X295480000Y-63100000D03*
D15*
X286590000Y-60560000D03*
X285400000Y-66800000D03*
D16*
X284900000Y-63100000D03*
D15*
X290400000Y-69000000D03*
D16*
X295900000Y-63100000D03*
D17*
X282300000Y-66800000D03*
D18*
X283500000Y-60560000D03*
D19*
X293200000Y-69000000D03*
D18*
X296000000Y-58020000D03*
%TD*%
D13*
%TO.C,SW5*%
X267575000Y-39120000D03*
D11*
X271400000Y-41700000D03*
D14*
X266320000Y-41700000D03*
D15*
X273940000Y-36620000D03*
D14*
X276480000Y-41700000D03*
D15*
X267590000Y-39160000D03*
X266400000Y-45400000D03*
D16*
X265900000Y-41700000D03*
D15*
X271400000Y-47600000D03*
D16*
X276900000Y-41700000D03*
D17*
X263300000Y-45400000D03*
D18*
X264500000Y-39160000D03*
D19*
X274200000Y-47600000D03*
D18*
X277000000Y-36620000D03*
%TD*%
D13*
%TO.C,SW4*%
X248475000Y-34320000D03*
D11*
X252300000Y-36900000D03*
D14*
X247220000Y-36900000D03*
D15*
X254840000Y-31820000D03*
D14*
X257380000Y-36900000D03*
D15*
X248490000Y-34360000D03*
X247300000Y-40600000D03*
D16*
X246800000Y-36900000D03*
D15*
X252300000Y-42800000D03*
D16*
X257800000Y-36900000D03*
D17*
X244200000Y-40600000D03*
D18*
X245400000Y-34360000D03*
D19*
X255100000Y-42800000D03*
D18*
X257900000Y-31820000D03*
%TD*%
D13*
%TO.C,SW2*%
X286575000Y-41520000D03*
D11*
X290400000Y-44100000D03*
D14*
X285320000Y-44100000D03*
D15*
X292940000Y-39020000D03*
D14*
X295480000Y-44100000D03*
D15*
X286590000Y-41560000D03*
X285400000Y-47800000D03*
D16*
X284900000Y-44100000D03*
D15*
X290400000Y-50000000D03*
D16*
X295900000Y-44100000D03*
D17*
X282300000Y-47800000D03*
D18*
X283500000Y-41560000D03*
D19*
X293200000Y-50000000D03*
D18*
X296000000Y-39020000D03*
%TD*%
D13*
%TO.C,SW1*%
X191366208Y-36741497D03*
D11*
X195191208Y-39321497D03*
D14*
X190111208Y-39321497D03*
D15*
X197731208Y-34241497D03*
D14*
X200271208Y-39321497D03*
D15*
X191381208Y-36781497D03*
X190191208Y-43021497D03*
D16*
X189691208Y-39321497D03*
D15*
X195191208Y-45221497D03*
D16*
X200691208Y-39321497D03*
D17*
X187091208Y-43021497D03*
D18*
X188291208Y-36781497D03*
D19*
X197991208Y-45221497D03*
D18*
X200791208Y-34241497D03*
%TD*%
D13*
%TO.C,SW6*%
X210363008Y-34344196D03*
D11*
X214188008Y-36924196D03*
D14*
X209108008Y-36924196D03*
D15*
X216728008Y-31844196D03*
D14*
X219268008Y-36924196D03*
D15*
X210378008Y-34384196D03*
X209188008Y-40624196D03*
D16*
X208688008Y-36924196D03*
D15*
X214188008Y-42824196D03*
D16*
X219688008Y-36924196D03*
D17*
X206088008Y-40624196D03*
D18*
X207288008Y-34384196D03*
D19*
X216988008Y-42824196D03*
D18*
X219788008Y-31844196D03*
%TD*%
D13*
%TO.C,SW3*%
X229475000Y-32020000D03*
D11*
X233300000Y-34600000D03*
D14*
X228220000Y-34600000D03*
D15*
X235840000Y-29520000D03*
D14*
X238380000Y-34600000D03*
D15*
X229490000Y-32060000D03*
X228300000Y-38300000D03*
D16*
X227800000Y-34600000D03*
D15*
X233300000Y-40500000D03*
D16*
X238800000Y-34600000D03*
D17*
X225200000Y-38300000D03*
D18*
X226400000Y-32060000D03*
D19*
X236100000Y-40500000D03*
D18*
X238900000Y-29520000D03*
%TD*%
D24*
%TO.C,D29*%
X173500000Y-71500000D03*
X173500000Y-68100000D03*
D25*
X173502540Y-74960000D03*
D26*
X173502540Y-64800000D03*
%TD*%
D24*
%TO.C,D28*%
X179500000Y-71500000D03*
X179500000Y-68100000D03*
D25*
X179502540Y-74960000D03*
D26*
X179502540Y-64800000D03*
%TD*%
D24*
%TO.C,D27*%
X176500000Y-71500000D03*
X176500000Y-68100000D03*
D25*
X176502540Y-74960000D03*
D26*
X176502540Y-64800000D03*
%TD*%
D24*
%TO.C,D26*%
X182500000Y-71500000D03*
X182500000Y-68100000D03*
D25*
X182502540Y-74960000D03*
D26*
X182502540Y-64800000D03*
%TD*%
D27*
%TO.C,D25*%
X215900000Y-104800000D03*
X212500000Y-104800000D03*
D25*
X219360000Y-104797460D03*
D26*
X209200000Y-104797460D03*
%TD*%
D27*
%TO.C,D24*%
X197140000Y-106602540D03*
X193740000Y-106602540D03*
D25*
X200600000Y-106600000D03*
D26*
X190440000Y-106600000D03*
%TD*%
D27*
%TO.C,D23*%
X262100000Y-109300000D03*
X258700000Y-109300000D03*
D25*
X265560000Y-109297460D03*
D26*
X255400000Y-109297460D03*
%TD*%
D27*
%TO.C,D22*%
X253940000Y-104200000D03*
X250540000Y-104200000D03*
D25*
X257400000Y-104197460D03*
D26*
X247240000Y-104197460D03*
%TD*%
D27*
%TO.C,D21*%
X233330000Y-104350000D03*
X229930000Y-104350000D03*
D25*
X236790000Y-104347460D03*
D26*
X226630000Y-104347460D03*
%TD*%
D27*
%TO.C,D20*%
X277300000Y-109300000D03*
X273900000Y-109300000D03*
D25*
X280760000Y-109297460D03*
D26*
X270600000Y-109297460D03*
%TD*%
D24*
%TO.C,D19*%
X170500000Y-71500000D03*
X170500000Y-68100000D03*
D25*
X170502540Y-74960000D03*
D26*
X170502540Y-64800000D03*
%TD*%
D27*
%TO.C,D18*%
X215800000Y-85100000D03*
X212400000Y-85100000D03*
D25*
X219260000Y-85097460D03*
D26*
X209100000Y-85097460D03*
%TD*%
D27*
%TO.C,D17*%
X196200000Y-87000000D03*
X192800000Y-87000000D03*
D25*
X199660000Y-86997460D03*
D26*
X189500000Y-86997460D03*
%TD*%
D27*
%TO.C,D16*%
X273200000Y-89800000D03*
X269800000Y-89800000D03*
D25*
X276660000Y-89797460D03*
D26*
X266500000Y-89797460D03*
%TD*%
D27*
%TO.C,D15*%
X254140000Y-85102540D03*
X250740000Y-85102540D03*
D25*
X257600000Y-85100000D03*
D26*
X247440000Y-85100000D03*
%TD*%
D27*
%TO.C,D14*%
X234940000Y-82702540D03*
X231540000Y-82702540D03*
D25*
X238400000Y-82700000D03*
D26*
X228240000Y-82700000D03*
%TD*%
D27*
%TO.C,D13*%
X292000000Y-92200000D03*
X288600000Y-92200000D03*
D25*
X295460000Y-92197460D03*
D26*
X285300000Y-92197460D03*
%TD*%
D27*
%TO.C,D12*%
X215900000Y-66100000D03*
X212500000Y-66100000D03*
D25*
X219360000Y-66097460D03*
D26*
X209200000Y-66097460D03*
%TD*%
D27*
%TO.C,D11*%
X196900000Y-68400000D03*
X193500000Y-68400000D03*
D25*
X200360000Y-68397460D03*
D26*
X190200000Y-68397460D03*
%TD*%
D27*
%TO.C,D10*%
X273100000Y-70700000D03*
X269700000Y-70700000D03*
D25*
X276560000Y-70697460D03*
D26*
X266400000Y-70697460D03*
%TD*%
D27*
%TO.C,D9*%
X254200000Y-66100000D03*
X250800000Y-66100000D03*
D25*
X257660000Y-66097460D03*
D26*
X247500000Y-66097460D03*
%TD*%
D27*
%TO.C,D8*%
X235200000Y-63700000D03*
X231800000Y-63700000D03*
D25*
X238660000Y-63697460D03*
D26*
X228500000Y-63697460D03*
%TD*%
D27*
%TO.C,D7*%
X292040000Y-73202540D03*
X288640000Y-73202540D03*
D25*
X295500000Y-73200000D03*
D26*
X285340000Y-73200000D03*
%TD*%
D27*
%TO.C,D6*%
X216250000Y-46880000D03*
X212850000Y-46880000D03*
D25*
X219710000Y-46877460D03*
D26*
X209550000Y-46877460D03*
%TD*%
D27*
%TO.C,D5*%
X273100000Y-51800000D03*
X269700000Y-51800000D03*
D25*
X276560000Y-51797460D03*
D26*
X266400000Y-51797460D03*
%TD*%
D27*
%TO.C,D4*%
X254100000Y-47000000D03*
X250700000Y-47000000D03*
D25*
X257560000Y-46997460D03*
D26*
X247400000Y-46997460D03*
%TD*%
D27*
%TO.C,D3*%
X234800000Y-44700000D03*
X231400000Y-44700000D03*
D25*
X238260000Y-44697460D03*
D26*
X228100000Y-44697460D03*
%TD*%
D27*
%TO.C,D2*%
X292200000Y-54200000D03*
X288800000Y-54200000D03*
D25*
X295660000Y-54197460D03*
D26*
X285500000Y-54197460D03*
%TD*%
D27*
%TO.C,D1*%
X197000000Y-49500000D03*
X193600000Y-49500000D03*
D25*
X200460000Y-49497460D03*
D26*
X190300000Y-49497460D03*
%TD*%
D12*
%TO.C,U2*%
X143190000Y-26766750D03*
X143190000Y-29306750D03*
X143190000Y-31846750D03*
X143190000Y-34386750D03*
X143190000Y-36926750D03*
X143190000Y-39466750D03*
X143190000Y-42006750D03*
X143190000Y-44546750D03*
X143190000Y-47086750D03*
X143190000Y-49626750D03*
X143190000Y-52166750D03*
X158430000Y-54706750D03*
X158430000Y-52166750D03*
X158430000Y-49626750D03*
X158430000Y-47086750D03*
X158430000Y-44546750D03*
X158430000Y-42006750D03*
X158430000Y-39466750D03*
X158430000Y-36926750D03*
X158430000Y-34386750D03*
X158430000Y-31846750D03*
X158430000Y-29306750D03*
X143190000Y-54706750D03*
X158430000Y-26766750D03*
X145730000Y-49626750D03*
X148270000Y-49626750D03*
X150810000Y-49626750D03*
%TD*%
%TO.C,U1*%
X174780000Y-49630453D03*
X172240000Y-49630453D03*
X169700000Y-49630453D03*
X182400000Y-26770453D03*
X167160000Y-54710453D03*
X182400000Y-29310453D03*
X182400000Y-31850453D03*
X182400000Y-34390453D03*
X182400000Y-36930453D03*
X182400000Y-39470453D03*
X182400000Y-42010453D03*
X182400000Y-44550453D03*
X182400000Y-47090453D03*
X182400000Y-49630453D03*
X182400000Y-52170453D03*
X182400000Y-54710453D03*
X167160000Y-52170453D03*
X167160000Y-49630453D03*
X167160000Y-47090453D03*
X167160000Y-44550453D03*
X167160000Y-42010453D03*
X167160000Y-39470453D03*
X167160000Y-36930453D03*
X167160000Y-34390453D03*
X167160000Y-31850453D03*
X167160000Y-29310453D03*
X167160000Y-26770453D03*
%TD*%
%TO.C,Display2*%
X169700000Y-58630000D03*
X172240000Y-58630000D03*
X174780000Y-58630000D03*
X177320000Y-58630000D03*
X179860000Y-58630000D03*
%TD*%
M02*
