%TF.GenerationSoftware,KiCad,Pcbnew,(6.0.10)*%
%TF.CreationDate,2023-09-30T09:22:21-05:00*%
%TF.ProjectId,RunType58,52756e54-7970-4653-9538-2e6b69636164,rev?*%
%TF.SameCoordinates,Original*%
%TF.FileFunction,Legend,Top*%
%TF.FilePolarity,Positive*%
%FSLAX46Y46*%
G04 Gerber Fmt 4.6, Leading zero omitted, Abs format (unit mm)*
G04 Created by KiCad (PCBNEW (6.0.10)) date 2023-09-30 09:22:21*
%MOMM*%
%LPD*%
G01*
G04 APERTURE LIST*
%ADD10C,0.300000*%
%ADD11C,0.150000*%
%ADD12C,0.280000*%
%ADD13C,0.120000*%
%ADD14C,0.381000*%
%ADD15C,1.752600*%
%ADD16C,1.397000*%
%ADD17C,4.000000*%
%ADD18C,0.100000*%
%ADD19C,1.700000*%
%ADD20C,3.000000*%
%ADD21C,1.900000*%
%ADD22C,2.000000*%
%ADD23R,1.500000X1.800000*%
%ADD24C,1.998980*%
%ADD25R,1.998980X1.998980*%
%ADD26R,1.800000X1.500000*%
%ADD27C,1.000000*%
%ADD28R,0.900000X0.900000*%
%ADD29R,1.250000X0.900000*%
G04 APERTURE END LIST*
D10*
X173541428Y-31120000D02*
X172470000Y-31120000D01*
X172255714Y-31048571D01*
X172112857Y-30905714D01*
X172041428Y-30691428D01*
X172041428Y-30548571D01*
X173470000Y-32620000D02*
X173541428Y-32477142D01*
X173541428Y-32262857D01*
X173470000Y-32048571D01*
X173327142Y-31905714D01*
X173184285Y-31834285D01*
X172898571Y-31762857D01*
X172684285Y-31762857D01*
X172398571Y-31834285D01*
X172255714Y-31905714D01*
X172112857Y-32048571D01*
X172041428Y-32262857D01*
X172041428Y-32405714D01*
X172112857Y-32620000D01*
X172184285Y-32691428D01*
X172684285Y-32691428D01*
X172684285Y-32405714D01*
X172041428Y-33334285D02*
X173541428Y-33334285D01*
X172827142Y-33334285D02*
X172827142Y-34191428D01*
X172041428Y-34191428D02*
X173541428Y-34191428D01*
X172041428Y-36048571D02*
X173041428Y-36048571D01*
X172755714Y-36048571D02*
X172898571Y-36120000D01*
X172970000Y-36191428D01*
X173041428Y-36334285D01*
X173041428Y-36477142D01*
X173041428Y-37620000D02*
X172041428Y-37620000D01*
X173041428Y-36977142D02*
X172255714Y-36977142D01*
X172112857Y-37048571D01*
X172041428Y-37191428D01*
X172041428Y-37405714D01*
X172112857Y-37548571D01*
X172184285Y-37620000D01*
X173041428Y-38334285D02*
X172041428Y-38334285D01*
X172898571Y-38334285D02*
X172970000Y-38405714D01*
X173041428Y-38548571D01*
X173041428Y-38762857D01*
X172970000Y-38905714D01*
X172827142Y-38977142D01*
X172041428Y-38977142D01*
X173612857Y-40762857D02*
X171684285Y-39477142D01*
X173041428Y-41048571D02*
X173041428Y-41620000D01*
X173541428Y-41262857D02*
X172255714Y-41262857D01*
X172112857Y-41334285D01*
X172041428Y-41477142D01*
X172041428Y-41620000D01*
X173041428Y-41977142D02*
X172041428Y-42334285D01*
X173041428Y-42691428D02*
X172041428Y-42334285D01*
X171684285Y-42191428D01*
X171612857Y-42120000D01*
X171541428Y-41977142D01*
X173041428Y-43262857D02*
X171541428Y-43262857D01*
X172970000Y-43262857D02*
X173041428Y-43405714D01*
X173041428Y-43691428D01*
X172970000Y-43834285D01*
X172898571Y-43905714D01*
X172755714Y-43977142D01*
X172327142Y-43977142D01*
X172184285Y-43905714D01*
X172112857Y-43834285D01*
X172041428Y-43691428D01*
X172041428Y-43405714D01*
X172112857Y-43262857D01*
X172112857Y-45191428D02*
X172041428Y-45048571D01*
X172041428Y-44762857D01*
X172112857Y-44620000D01*
X172255714Y-44548571D01*
X172827142Y-44548571D01*
X172970000Y-44620000D01*
X173041428Y-44762857D01*
X173041428Y-45048571D01*
X172970000Y-45191428D01*
X172827142Y-45262857D01*
X172684285Y-45262857D01*
X172541428Y-44548571D01*
X173541428Y-46620000D02*
X173541428Y-45905714D01*
X172827142Y-45834285D01*
X172898571Y-45905714D01*
X172970000Y-46048571D01*
X172970000Y-46405714D01*
X172898571Y-46548571D01*
X172827142Y-46620000D01*
X172684285Y-46691428D01*
X172327142Y-46691428D01*
X172184285Y-46620000D01*
X172112857Y-46548571D01*
X172041428Y-46405714D01*
X172041428Y-46048571D01*
X172112857Y-45905714D01*
X172184285Y-45834285D01*
X172898571Y-47548571D02*
X172970000Y-47405714D01*
X173041428Y-47334285D01*
X173184285Y-47262857D01*
X173255714Y-47262857D01*
X173398571Y-47334285D01*
X173470000Y-47405714D01*
X173541428Y-47548571D01*
X173541428Y-47834285D01*
X173470000Y-47977142D01*
X173398571Y-48048571D01*
X173255714Y-48120000D01*
X173184285Y-48120000D01*
X173041428Y-48048571D01*
X172970000Y-47977142D01*
X172898571Y-47834285D01*
X172898571Y-47548571D01*
X172827142Y-47405714D01*
X172755714Y-47334285D01*
X172612857Y-47262857D01*
X172327142Y-47262857D01*
X172184285Y-47334285D01*
X172112857Y-47405714D01*
X172041428Y-47548571D01*
X172041428Y-47834285D01*
X172112857Y-47977142D01*
X172184285Y-48048571D01*
X172327142Y-48120000D01*
X172612857Y-48120000D01*
X172755714Y-48048571D01*
X172827142Y-47977142D01*
X172898571Y-47834285D01*
X151578571Y-47000000D02*
X152650000Y-47000000D01*
X152864285Y-47071428D01*
X153007142Y-47214285D01*
X153078571Y-47428571D01*
X153078571Y-47571428D01*
X151650000Y-45500000D02*
X151578571Y-45642857D01*
X151578571Y-45857142D01*
X151650000Y-46071428D01*
X151792857Y-46214285D01*
X151935714Y-46285714D01*
X152221428Y-46357142D01*
X152435714Y-46357142D01*
X152721428Y-46285714D01*
X152864285Y-46214285D01*
X153007142Y-46071428D01*
X153078571Y-45857142D01*
X153078571Y-45714285D01*
X153007142Y-45500000D01*
X152935714Y-45428571D01*
X152435714Y-45428571D01*
X152435714Y-45714285D01*
X153078571Y-44785714D02*
X151578571Y-44785714D01*
X152292857Y-44785714D02*
X152292857Y-43928571D01*
X153078571Y-43928571D02*
X151578571Y-43928571D01*
X153078571Y-42071428D02*
X152078571Y-42071428D01*
X152364285Y-42071428D02*
X152221428Y-42000000D01*
X152150000Y-41928571D01*
X152078571Y-41785714D01*
X152078571Y-41642857D01*
X152078571Y-40500000D02*
X153078571Y-40500000D01*
X152078571Y-41142857D02*
X152864285Y-41142857D01*
X153007142Y-41071428D01*
X153078571Y-40928571D01*
X153078571Y-40714285D01*
X153007142Y-40571428D01*
X152935714Y-40500000D01*
X152078571Y-39785714D02*
X153078571Y-39785714D01*
X152221428Y-39785714D02*
X152150000Y-39714285D01*
X152078571Y-39571428D01*
X152078571Y-39357142D01*
X152150000Y-39214285D01*
X152292857Y-39142857D01*
X153078571Y-39142857D01*
X151507142Y-37357142D02*
X153435714Y-38642857D01*
X152078571Y-37071428D02*
X152078571Y-36500000D01*
X151578571Y-36857142D02*
X152864285Y-36857142D01*
X153007142Y-36785714D01*
X153078571Y-36642857D01*
X153078571Y-36500000D01*
X152078571Y-36142857D02*
X153078571Y-35785714D01*
X152078571Y-35428571D02*
X153078571Y-35785714D01*
X153435714Y-35928571D01*
X153507142Y-36000000D01*
X153578571Y-36142857D01*
X152078571Y-34857142D02*
X153578571Y-34857142D01*
X152150000Y-34857142D02*
X152078571Y-34714285D01*
X152078571Y-34428571D01*
X152150000Y-34285714D01*
X152221428Y-34214285D01*
X152364285Y-34142857D01*
X152792857Y-34142857D01*
X152935714Y-34214285D01*
X153007142Y-34285714D01*
X153078571Y-34428571D01*
X153078571Y-34714285D01*
X153007142Y-34857142D01*
X153007142Y-32928571D02*
X153078571Y-33071428D01*
X153078571Y-33357142D01*
X153007142Y-33500000D01*
X152864285Y-33571428D01*
X152292857Y-33571428D01*
X152150000Y-33500000D01*
X152078571Y-33357142D01*
X152078571Y-33071428D01*
X152150000Y-32928571D01*
X152292857Y-32857142D01*
X152435714Y-32857142D01*
X152578571Y-33571428D01*
X151578571Y-31500000D02*
X151578571Y-32214285D01*
X152292857Y-32285714D01*
X152221428Y-32214285D01*
X152150000Y-32071428D01*
X152150000Y-31714285D01*
X152221428Y-31571428D01*
X152292857Y-31500000D01*
X152435714Y-31428571D01*
X152792857Y-31428571D01*
X152935714Y-31500000D01*
X153007142Y-31571428D01*
X153078571Y-31714285D01*
X153078571Y-32071428D01*
X153007142Y-32214285D01*
X152935714Y-32285714D01*
X152221428Y-30571428D02*
X152150000Y-30714285D01*
X152078571Y-30785714D01*
X151935714Y-30857142D01*
X151864285Y-30857142D01*
X151721428Y-30785714D01*
X151650000Y-30714285D01*
X151578571Y-30571428D01*
X151578571Y-30285714D01*
X151650000Y-30142857D01*
X151721428Y-30071428D01*
X151864285Y-30000000D01*
X151935714Y-30000000D01*
X152078571Y-30071428D01*
X152150000Y-30142857D01*
X152221428Y-30285714D01*
X152221428Y-30571428D01*
X152292857Y-30714285D01*
X152364285Y-30785714D01*
X152507142Y-30857142D01*
X152792857Y-30857142D01*
X152935714Y-30785714D01*
X153007142Y-30714285D01*
X153078571Y-30571428D01*
X153078571Y-30285714D01*
X153007142Y-30142857D01*
X152935714Y-30071428D01*
X152792857Y-30000000D01*
X152507142Y-30000000D01*
X152364285Y-30071428D01*
X152292857Y-30142857D01*
X152221428Y-30285714D01*
D11*
%TO.C,H2*%
X279758095Y-86062380D02*
X279758095Y-85062380D01*
X279758095Y-85538571D02*
X280329523Y-85538571D01*
X280329523Y-86062380D02*
X280329523Y-85062380D01*
X280758095Y-85157619D02*
X280805714Y-85110000D01*
X280900952Y-85062380D01*
X281139047Y-85062380D01*
X281234285Y-85110000D01*
X281281904Y-85157619D01*
X281329523Y-85252857D01*
X281329523Y-85348095D01*
X281281904Y-85490952D01*
X280710476Y-86062380D01*
X281329523Y-86062380D01*
%TO.C,H10*%
X239231904Y-98882380D02*
X239231904Y-97882380D01*
X239231904Y-98358571D02*
X239803333Y-98358571D01*
X239803333Y-98882380D02*
X239803333Y-97882380D01*
X240803333Y-98882380D02*
X240231904Y-98882380D01*
X240517619Y-98882380D02*
X240517619Y-97882380D01*
X240422380Y-98025238D01*
X240327142Y-98120476D01*
X240231904Y-98168095D01*
X241422380Y-97882380D02*
X241517619Y-97882380D01*
X241612857Y-97930000D01*
X241660476Y-97977619D01*
X241708095Y-98072857D01*
X241755714Y-98263333D01*
X241755714Y-98501428D01*
X241708095Y-98691904D01*
X241660476Y-98787142D01*
X241612857Y-98834761D01*
X241517619Y-98882380D01*
X241422380Y-98882380D01*
X241327142Y-98834761D01*
X241279523Y-98787142D01*
X241231904Y-98691904D01*
X241184285Y-98501428D01*
X241184285Y-98263333D01*
X241231904Y-98072857D01*
X241279523Y-97977619D01*
X241327142Y-97930000D01*
X241422380Y-97882380D01*
%TO.C,H9*%
X279668095Y-48912380D02*
X279668095Y-47912380D01*
X279668095Y-48388571D02*
X280239523Y-48388571D01*
X280239523Y-48912380D02*
X280239523Y-47912380D01*
X280763333Y-48912380D02*
X280953809Y-48912380D01*
X281049047Y-48864761D01*
X281096666Y-48817142D01*
X281191904Y-48674285D01*
X281239523Y-48483809D01*
X281239523Y-48102857D01*
X281191904Y-48007619D01*
X281144285Y-47960000D01*
X281049047Y-47912380D01*
X280858571Y-47912380D01*
X280763333Y-47960000D01*
X280715714Y-48007619D01*
X280668095Y-48102857D01*
X280668095Y-48340952D01*
X280715714Y-48436190D01*
X280763333Y-48483809D01*
X280858571Y-48531428D01*
X281049047Y-48531428D01*
X281144285Y-48483809D01*
X281191904Y-48436190D01*
X281239523Y-48340952D01*
%TO.C,H8*%
X204638095Y-43902380D02*
X204638095Y-42902380D01*
X204638095Y-43378571D02*
X205209523Y-43378571D01*
X205209523Y-43902380D02*
X205209523Y-42902380D01*
X205828571Y-43330952D02*
X205733333Y-43283333D01*
X205685714Y-43235714D01*
X205638095Y-43140476D01*
X205638095Y-43092857D01*
X205685714Y-42997619D01*
X205733333Y-42950000D01*
X205828571Y-42902380D01*
X206019047Y-42902380D01*
X206114285Y-42950000D01*
X206161904Y-42997619D01*
X206209523Y-43092857D01*
X206209523Y-43140476D01*
X206161904Y-43235714D01*
X206114285Y-43283333D01*
X206019047Y-43330952D01*
X205828571Y-43330952D01*
X205733333Y-43378571D01*
X205685714Y-43426190D01*
X205638095Y-43521428D01*
X205638095Y-43711904D01*
X205685714Y-43807142D01*
X205733333Y-43854761D01*
X205828571Y-43902380D01*
X206019047Y-43902380D01*
X206114285Y-43854761D01*
X206161904Y-43807142D01*
X206209523Y-43711904D01*
X206209523Y-43521428D01*
X206161904Y-43426190D01*
X206114285Y-43378571D01*
X206019047Y-43330952D01*
%TO.C,H7*%
X44778095Y-48972380D02*
X44778095Y-47972380D01*
X44778095Y-48448571D02*
X45349523Y-48448571D01*
X45349523Y-48972380D02*
X45349523Y-47972380D01*
X45730476Y-47972380D02*
X46397142Y-47972380D01*
X45968571Y-48972380D01*
%TO.C,H6*%
X143708095Y-99922380D02*
X143708095Y-98922380D01*
X143708095Y-99398571D02*
X144279523Y-99398571D01*
X144279523Y-99922380D02*
X144279523Y-98922380D01*
X145184285Y-98922380D02*
X144993809Y-98922380D01*
X144898571Y-98970000D01*
X144850952Y-99017619D01*
X144755714Y-99160476D01*
X144708095Y-99350952D01*
X144708095Y-99731904D01*
X144755714Y-99827142D01*
X144803333Y-99874761D01*
X144898571Y-99922380D01*
X145089047Y-99922380D01*
X145184285Y-99874761D01*
X145231904Y-99827142D01*
X145279523Y-99731904D01*
X145279523Y-99493809D01*
X145231904Y-99398571D01*
X145184285Y-99350952D01*
X145089047Y-99303333D01*
X144898571Y-99303333D01*
X144803333Y-99350952D01*
X144755714Y-99398571D01*
X144708095Y-99493809D01*
%TO.C,H5*%
X120078095Y-81322380D02*
X120078095Y-80322380D01*
X120078095Y-80798571D02*
X120649523Y-80798571D01*
X120649523Y-81322380D02*
X120649523Y-80322380D01*
X121601904Y-80322380D02*
X121125714Y-80322380D01*
X121078095Y-80798571D01*
X121125714Y-80750952D01*
X121220952Y-80703333D01*
X121459047Y-80703333D01*
X121554285Y-80750952D01*
X121601904Y-80798571D01*
X121649523Y-80893809D01*
X121649523Y-81131904D01*
X121601904Y-81227142D01*
X121554285Y-81274761D01*
X121459047Y-81322380D01*
X121220952Y-81322380D01*
X121125714Y-81274761D01*
X121078095Y-81227142D01*
%TO.C,H4*%
X44708095Y-85992380D02*
X44708095Y-84992380D01*
X44708095Y-85468571D02*
X45279523Y-85468571D01*
X45279523Y-85992380D02*
X45279523Y-84992380D01*
X46184285Y-85325714D02*
X46184285Y-85992380D01*
X45946190Y-84944761D02*
X45708095Y-85659047D01*
X46327142Y-85659047D01*
%TO.C,H3*%
X180628095Y-99902380D02*
X180628095Y-98902380D01*
X180628095Y-99378571D02*
X181199523Y-99378571D01*
X181199523Y-99902380D02*
X181199523Y-98902380D01*
X181580476Y-98902380D02*
X182199523Y-98902380D01*
X181866190Y-99283333D01*
X182009047Y-99283333D01*
X182104285Y-99330952D01*
X182151904Y-99378571D01*
X182199523Y-99473809D01*
X182199523Y-99711904D01*
X182151904Y-99807142D01*
X182104285Y-99854761D01*
X182009047Y-99902380D01*
X181723333Y-99902380D01*
X181628095Y-99854761D01*
X181580476Y-99807142D01*
%TO.C,H1*%
X119658095Y-43912380D02*
X119658095Y-42912380D01*
X119658095Y-43388571D02*
X120229523Y-43388571D01*
X120229523Y-43912380D02*
X120229523Y-42912380D01*
X121229523Y-43912380D02*
X120658095Y-43912380D01*
X120943809Y-43912380D02*
X120943809Y-42912380D01*
X120848571Y-43055238D01*
X120753333Y-43150476D01*
X120658095Y-43198095D01*
%TO.C,Display1*%
X156247142Y-61147669D02*
X156294761Y-61195288D01*
X156342380Y-61338145D01*
X156342380Y-61433383D01*
X156294761Y-61576240D01*
X156199523Y-61671478D01*
X156104285Y-61719097D01*
X155913809Y-61766716D01*
X155770952Y-61766716D01*
X155580476Y-61719097D01*
X155485238Y-61671478D01*
X155390000Y-61576240D01*
X155342380Y-61433383D01*
X155342380Y-61338145D01*
X155390000Y-61195288D01*
X155437619Y-61147669D01*
X156294761Y-60766716D02*
X156342380Y-60623859D01*
X156342380Y-60385764D01*
X156294761Y-60290526D01*
X156247142Y-60242907D01*
X156151904Y-60195288D01*
X156056666Y-60195288D01*
X155961428Y-60242907D01*
X155913809Y-60290526D01*
X155866190Y-60385764D01*
X155818571Y-60576240D01*
X155770952Y-60671478D01*
X155723333Y-60719097D01*
X155628095Y-60766716D01*
X155532857Y-60766716D01*
X155437619Y-60719097D01*
X155390000Y-60671478D01*
X155342380Y-60576240D01*
X155342380Y-60338145D01*
X155390000Y-60195288D01*
X146182380Y-63385764D02*
X145182380Y-63385764D01*
X145896666Y-63052431D01*
X145182380Y-62719097D01*
X146182380Y-62719097D01*
X145182380Y-62052431D02*
X145182380Y-61861954D01*
X145230000Y-61766716D01*
X145325238Y-61671478D01*
X145515714Y-61623859D01*
X145849047Y-61623859D01*
X146039523Y-61671478D01*
X146134761Y-61766716D01*
X146182380Y-61861954D01*
X146182380Y-62052431D01*
X146134761Y-62147669D01*
X146039523Y-62242907D01*
X145849047Y-62290526D01*
X145515714Y-62290526D01*
X145325238Y-62242907D01*
X145230000Y-62147669D01*
X145182380Y-62052431D01*
X146134761Y-61242907D02*
X146182380Y-61100050D01*
X146182380Y-60861954D01*
X146134761Y-60766716D01*
X146087142Y-60719097D01*
X145991904Y-60671478D01*
X145896666Y-60671478D01*
X145801428Y-60719097D01*
X145753809Y-60766716D01*
X145706190Y-60861954D01*
X145658571Y-61052431D01*
X145610952Y-61147669D01*
X145563333Y-61195288D01*
X145468095Y-61242907D01*
X145372857Y-61242907D01*
X145277619Y-61195288D01*
X145230000Y-61147669D01*
X145182380Y-61052431D01*
X145182380Y-60814335D01*
X145230000Y-60671478D01*
X146182380Y-60242907D02*
X145182380Y-60242907D01*
X150262380Y-62766716D02*
X151262380Y-62433383D01*
X150262380Y-62100050D01*
X151167142Y-61195288D02*
X151214761Y-61242907D01*
X151262380Y-61385764D01*
X151262380Y-61481002D01*
X151214761Y-61623859D01*
X151119523Y-61719097D01*
X151024285Y-61766716D01*
X150833809Y-61814335D01*
X150690952Y-61814335D01*
X150500476Y-61766716D01*
X150405238Y-61719097D01*
X150310000Y-61623859D01*
X150262380Y-61481002D01*
X150262380Y-61385764D01*
X150310000Y-61242907D01*
X150357619Y-61195288D01*
X151167142Y-60195288D02*
X151214761Y-60242907D01*
X151262380Y-60385764D01*
X151262380Y-60481002D01*
X151214761Y-60623859D01*
X151119523Y-60719097D01*
X151024285Y-60766716D01*
X150833809Y-60814335D01*
X150690952Y-60814335D01*
X150500476Y-60766716D01*
X150405238Y-60719097D01*
X150310000Y-60623859D01*
X150262380Y-60481002D01*
X150262380Y-60385764D01*
X150310000Y-60242907D01*
X150357619Y-60195288D01*
X152850000Y-62290526D02*
X152802380Y-62385764D01*
X152802380Y-62528621D01*
X152850000Y-62671478D01*
X152945238Y-62766716D01*
X153040476Y-62814335D01*
X153230952Y-62861954D01*
X153373809Y-62861954D01*
X153564285Y-62814335D01*
X153659523Y-62766716D01*
X153754761Y-62671478D01*
X153802380Y-62528621D01*
X153802380Y-62433383D01*
X153754761Y-62290526D01*
X153707142Y-62242907D01*
X153373809Y-62242907D01*
X153373809Y-62433383D01*
X153802380Y-61814335D02*
X152802380Y-61814335D01*
X153802380Y-61242907D01*
X152802380Y-61242907D01*
X153802380Y-60766716D02*
X152802380Y-60766716D01*
X152802380Y-60528621D01*
X152850000Y-60385764D01*
X152945238Y-60290526D01*
X153040476Y-60242907D01*
X153230952Y-60195288D01*
X153373809Y-60195288D01*
X153564285Y-60242907D01*
X153659523Y-60290526D01*
X153754761Y-60385764D01*
X153802380Y-60528621D01*
X153802380Y-60766716D01*
X148674761Y-62766716D02*
X148722380Y-62623859D01*
X148722380Y-62385764D01*
X148674761Y-62290526D01*
X148627142Y-62242907D01*
X148531904Y-62195288D01*
X148436666Y-62195288D01*
X148341428Y-62242907D01*
X148293809Y-62290526D01*
X148246190Y-62385764D01*
X148198571Y-62576240D01*
X148150952Y-62671478D01*
X148103333Y-62719097D01*
X148008095Y-62766716D01*
X147912857Y-62766716D01*
X147817619Y-62719097D01*
X147770000Y-62671478D01*
X147722380Y-62576240D01*
X147722380Y-62338145D01*
X147770000Y-62195288D01*
X148627142Y-61195288D02*
X148674761Y-61242907D01*
X148722380Y-61385764D01*
X148722380Y-61481002D01*
X148674761Y-61623859D01*
X148579523Y-61719097D01*
X148484285Y-61766716D01*
X148293809Y-61814335D01*
X148150952Y-61814335D01*
X147960476Y-61766716D01*
X147865238Y-61719097D01*
X147770000Y-61623859D01*
X147722380Y-61481002D01*
X147722380Y-61385764D01*
X147770000Y-61242907D01*
X147817619Y-61195288D01*
X148722380Y-60766716D02*
X147722380Y-60766716D01*
X148722380Y-60195288D02*
X148150952Y-60623859D01*
X147722380Y-60195288D02*
X148293809Y-60766716D01*
%TO.C,RSW2*%
X134718095Y-24711904D02*
X134451428Y-24330952D01*
X134260952Y-24711904D02*
X134260952Y-23911904D01*
X134565714Y-23911904D01*
X134641904Y-23950000D01*
X134680000Y-23988095D01*
X134718095Y-24064285D01*
X134718095Y-24178571D01*
X134680000Y-24254761D01*
X134641904Y-24292857D01*
X134565714Y-24330952D01*
X134260952Y-24330952D01*
X135060952Y-24292857D02*
X135327619Y-24292857D01*
X135441904Y-24711904D02*
X135060952Y-24711904D01*
X135060952Y-23911904D01*
X135441904Y-23911904D01*
X135746666Y-24673809D02*
X135860952Y-24711904D01*
X136051428Y-24711904D01*
X136127619Y-24673809D01*
X136165714Y-24635714D01*
X136203809Y-24559523D01*
X136203809Y-24483333D01*
X136165714Y-24407142D01*
X136127619Y-24369047D01*
X136051428Y-24330952D01*
X135899047Y-24292857D01*
X135822857Y-24254761D01*
X135784761Y-24216666D01*
X135746666Y-24140476D01*
X135746666Y-24064285D01*
X135784761Y-23988095D01*
X135822857Y-23950000D01*
X135899047Y-23911904D01*
X136089523Y-23911904D01*
X136203809Y-23950000D01*
X136546666Y-24292857D02*
X136813333Y-24292857D01*
X136927619Y-24711904D02*
X136546666Y-24711904D01*
X136546666Y-23911904D01*
X136927619Y-23911904D01*
X137156190Y-23911904D02*
X137613333Y-23911904D01*
X137384761Y-24711904D02*
X137384761Y-23911904D01*
%TO.C,D58*%
X148269840Y-70934285D02*
X147269840Y-70934285D01*
X147269840Y-70696190D01*
X147317460Y-70553333D01*
X147412698Y-70458095D01*
X147507936Y-70410476D01*
X147698412Y-70362857D01*
X147841269Y-70362857D01*
X148031745Y-70410476D01*
X148126983Y-70458095D01*
X148222221Y-70553333D01*
X148269840Y-70696190D01*
X148269840Y-70934285D01*
X147269840Y-69458095D02*
X147269840Y-69934285D01*
X147746031Y-69981904D01*
X147698412Y-69934285D01*
X147650793Y-69839047D01*
X147650793Y-69600952D01*
X147698412Y-69505714D01*
X147746031Y-69458095D01*
X147841269Y-69410476D01*
X148079364Y-69410476D01*
X148174602Y-69458095D01*
X148222221Y-69505714D01*
X148269840Y-69600952D01*
X148269840Y-69839047D01*
X148222221Y-69934285D01*
X148174602Y-69981904D01*
X147698412Y-68839047D02*
X147650793Y-68934285D01*
X147603174Y-68981904D01*
X147507936Y-69029523D01*
X147460317Y-69029523D01*
X147365079Y-68981904D01*
X147317460Y-68934285D01*
X147269840Y-68839047D01*
X147269840Y-68648571D01*
X147317460Y-68553333D01*
X147365079Y-68505714D01*
X147460317Y-68458095D01*
X147507936Y-68458095D01*
X147603174Y-68505714D01*
X147650793Y-68553333D01*
X147698412Y-68648571D01*
X147698412Y-68839047D01*
X147746031Y-68934285D01*
X147793650Y-68981904D01*
X147888888Y-69029523D01*
X148079364Y-69029523D01*
X148174602Y-68981904D01*
X148222221Y-68934285D01*
X148269840Y-68839047D01*
X148269840Y-68648571D01*
X148222221Y-68553333D01*
X148174602Y-68505714D01*
X148079364Y-68458095D01*
X147888888Y-68458095D01*
X147793650Y-68505714D01*
X147746031Y-68553333D01*
X147698412Y-68648571D01*
%TO.C,D57*%
X145262380Y-70934285D02*
X144262380Y-70934285D01*
X144262380Y-70696190D01*
X144310000Y-70553333D01*
X144405238Y-70458095D01*
X144500476Y-70410476D01*
X144690952Y-70362857D01*
X144833809Y-70362857D01*
X145024285Y-70410476D01*
X145119523Y-70458095D01*
X145214761Y-70553333D01*
X145262380Y-70696190D01*
X145262380Y-70934285D01*
X144262380Y-69458095D02*
X144262380Y-69934285D01*
X144738571Y-69981904D01*
X144690952Y-69934285D01*
X144643333Y-69839047D01*
X144643333Y-69600952D01*
X144690952Y-69505714D01*
X144738571Y-69458095D01*
X144833809Y-69410476D01*
X145071904Y-69410476D01*
X145167142Y-69458095D01*
X145214761Y-69505714D01*
X145262380Y-69600952D01*
X145262380Y-69839047D01*
X145214761Y-69934285D01*
X145167142Y-69981904D01*
X144262380Y-69077142D02*
X144262380Y-68410476D01*
X145262380Y-68839047D01*
%TO.C,D56*%
X142252380Y-70934285D02*
X141252380Y-70934285D01*
X141252380Y-70696190D01*
X141300000Y-70553333D01*
X141395238Y-70458095D01*
X141490476Y-70410476D01*
X141680952Y-70362857D01*
X141823809Y-70362857D01*
X142014285Y-70410476D01*
X142109523Y-70458095D01*
X142204761Y-70553333D01*
X142252380Y-70696190D01*
X142252380Y-70934285D01*
X141252380Y-69458095D02*
X141252380Y-69934285D01*
X141728571Y-69981904D01*
X141680952Y-69934285D01*
X141633333Y-69839047D01*
X141633333Y-69600952D01*
X141680952Y-69505714D01*
X141728571Y-69458095D01*
X141823809Y-69410476D01*
X142061904Y-69410476D01*
X142157142Y-69458095D01*
X142204761Y-69505714D01*
X142252380Y-69600952D01*
X142252380Y-69839047D01*
X142204761Y-69934285D01*
X142157142Y-69981904D01*
X141252380Y-68553333D02*
X141252380Y-68743809D01*
X141300000Y-68839047D01*
X141347619Y-68886666D01*
X141490476Y-68981904D01*
X141680952Y-69029523D01*
X142061904Y-69029523D01*
X142157142Y-68981904D01*
X142204761Y-68934285D01*
X142252380Y-68839047D01*
X142252380Y-68648571D01*
X142204761Y-68553333D01*
X142157142Y-68505714D01*
X142061904Y-68458095D01*
X141823809Y-68458095D01*
X141728571Y-68505714D01*
X141680952Y-68553333D01*
X141633333Y-68648571D01*
X141633333Y-68839047D01*
X141680952Y-68934285D01*
X141728571Y-68981904D01*
X141823809Y-69029523D01*
%TO.C,D55*%
X151269840Y-70934285D02*
X150269840Y-70934285D01*
X150269840Y-70696190D01*
X150317460Y-70553333D01*
X150412698Y-70458095D01*
X150507936Y-70410476D01*
X150698412Y-70362857D01*
X150841269Y-70362857D01*
X151031745Y-70410476D01*
X151126983Y-70458095D01*
X151222221Y-70553333D01*
X151269840Y-70696190D01*
X151269840Y-70934285D01*
X150269840Y-69458095D02*
X150269840Y-69934285D01*
X150746031Y-69981904D01*
X150698412Y-69934285D01*
X150650793Y-69839047D01*
X150650793Y-69600952D01*
X150698412Y-69505714D01*
X150746031Y-69458095D01*
X150841269Y-69410476D01*
X151079364Y-69410476D01*
X151174602Y-69458095D01*
X151222221Y-69505714D01*
X151269840Y-69600952D01*
X151269840Y-69839047D01*
X151222221Y-69934285D01*
X151174602Y-69981904D01*
X150269840Y-68505714D02*
X150269840Y-68981904D01*
X150746031Y-69029523D01*
X150698412Y-68981904D01*
X150650793Y-68886666D01*
X150650793Y-68648571D01*
X150698412Y-68553333D01*
X150746031Y-68505714D01*
X150841269Y-68458095D01*
X151079364Y-68458095D01*
X151174602Y-68505714D01*
X151222221Y-68553333D01*
X151269840Y-68648571D01*
X151269840Y-68886666D01*
X151222221Y-68981904D01*
X151174602Y-69029523D01*
%TO.C,D54*%
X64525714Y-108112380D02*
X64525714Y-107112380D01*
X64763809Y-107112380D01*
X64906666Y-107160000D01*
X65001904Y-107255238D01*
X65049523Y-107350476D01*
X65097142Y-107540952D01*
X65097142Y-107683809D01*
X65049523Y-107874285D01*
X65001904Y-107969523D01*
X64906666Y-108064761D01*
X64763809Y-108112380D01*
X64525714Y-108112380D01*
X66001904Y-107112380D02*
X65525714Y-107112380D01*
X65478095Y-107588571D01*
X65525714Y-107540952D01*
X65620952Y-107493333D01*
X65859047Y-107493333D01*
X65954285Y-107540952D01*
X66001904Y-107588571D01*
X66049523Y-107683809D01*
X66049523Y-107921904D01*
X66001904Y-108017142D01*
X65954285Y-108064761D01*
X65859047Y-108112380D01*
X65620952Y-108112380D01*
X65525714Y-108064761D01*
X65478095Y-108017142D01*
X66906666Y-107445714D02*
X66906666Y-108112380D01*
X66668571Y-107064761D02*
X66430476Y-107779047D01*
X67049523Y-107779047D01*
%TO.C,D53*%
X49035714Y-108112380D02*
X49035714Y-107112380D01*
X49273809Y-107112380D01*
X49416666Y-107160000D01*
X49511904Y-107255238D01*
X49559523Y-107350476D01*
X49607142Y-107540952D01*
X49607142Y-107683809D01*
X49559523Y-107874285D01*
X49511904Y-107969523D01*
X49416666Y-108064761D01*
X49273809Y-108112380D01*
X49035714Y-108112380D01*
X50511904Y-107112380D02*
X50035714Y-107112380D01*
X49988095Y-107588571D01*
X50035714Y-107540952D01*
X50130952Y-107493333D01*
X50369047Y-107493333D01*
X50464285Y-107540952D01*
X50511904Y-107588571D01*
X50559523Y-107683809D01*
X50559523Y-107921904D01*
X50511904Y-108017142D01*
X50464285Y-108064761D01*
X50369047Y-108112380D01*
X50130952Y-108112380D01*
X50035714Y-108064761D01*
X49988095Y-108017142D01*
X50892857Y-107112380D02*
X51511904Y-107112380D01*
X51178571Y-107493333D01*
X51321428Y-107493333D01*
X51416666Y-107540952D01*
X51464285Y-107588571D01*
X51511904Y-107683809D01*
X51511904Y-107921904D01*
X51464285Y-108017142D01*
X51416666Y-108064761D01*
X51321428Y-108112380D01*
X51035714Y-108112380D01*
X50940476Y-108064761D01*
X50892857Y-108017142D01*
%TO.C,D52*%
X154269840Y-70934285D02*
X153269840Y-70934285D01*
X153269840Y-70696190D01*
X153317460Y-70553333D01*
X153412698Y-70458095D01*
X153507936Y-70410476D01*
X153698412Y-70362857D01*
X153841269Y-70362857D01*
X154031745Y-70410476D01*
X154126983Y-70458095D01*
X154222221Y-70553333D01*
X154269840Y-70696190D01*
X154269840Y-70934285D01*
X153269840Y-69458095D02*
X153269840Y-69934285D01*
X153746031Y-69981904D01*
X153698412Y-69934285D01*
X153650793Y-69839047D01*
X153650793Y-69600952D01*
X153698412Y-69505714D01*
X153746031Y-69458095D01*
X153841269Y-69410476D01*
X154079364Y-69410476D01*
X154174602Y-69458095D01*
X154222221Y-69505714D01*
X154269840Y-69600952D01*
X154269840Y-69839047D01*
X154222221Y-69934285D01*
X154174602Y-69981904D01*
X153365079Y-69029523D02*
X153317460Y-68981904D01*
X153269840Y-68886666D01*
X153269840Y-68648571D01*
X153317460Y-68553333D01*
X153365079Y-68505714D01*
X153460317Y-68458095D01*
X153555555Y-68458095D01*
X153698412Y-68505714D01*
X154269840Y-69077142D01*
X154269840Y-68458095D01*
%TO.C,D51*%
X110505714Y-103072380D02*
X110505714Y-102072380D01*
X110743809Y-102072380D01*
X110886666Y-102120000D01*
X110981904Y-102215238D01*
X111029523Y-102310476D01*
X111077142Y-102500952D01*
X111077142Y-102643809D01*
X111029523Y-102834285D01*
X110981904Y-102929523D01*
X110886666Y-103024761D01*
X110743809Y-103072380D01*
X110505714Y-103072380D01*
X111981904Y-102072380D02*
X111505714Y-102072380D01*
X111458095Y-102548571D01*
X111505714Y-102500952D01*
X111600952Y-102453333D01*
X111839047Y-102453333D01*
X111934285Y-102500952D01*
X111981904Y-102548571D01*
X112029523Y-102643809D01*
X112029523Y-102881904D01*
X111981904Y-102977142D01*
X111934285Y-103024761D01*
X111839047Y-103072380D01*
X111600952Y-103072380D01*
X111505714Y-103024761D01*
X111458095Y-102977142D01*
X112981904Y-103072380D02*
X112410476Y-103072380D01*
X112696190Y-103072380D02*
X112696190Y-102072380D01*
X112600952Y-102215238D01*
X112505714Y-102310476D01*
X112410476Y-102358095D01*
%TO.C,D50*%
X93565714Y-102922380D02*
X93565714Y-101922380D01*
X93803809Y-101922380D01*
X93946666Y-101970000D01*
X94041904Y-102065238D01*
X94089523Y-102160476D01*
X94137142Y-102350952D01*
X94137142Y-102493809D01*
X94089523Y-102684285D01*
X94041904Y-102779523D01*
X93946666Y-102874761D01*
X93803809Y-102922380D01*
X93565714Y-102922380D01*
X95041904Y-101922380D02*
X94565714Y-101922380D01*
X94518095Y-102398571D01*
X94565714Y-102350952D01*
X94660952Y-102303333D01*
X94899047Y-102303333D01*
X94994285Y-102350952D01*
X95041904Y-102398571D01*
X95089523Y-102493809D01*
X95089523Y-102731904D01*
X95041904Y-102827142D01*
X94994285Y-102874761D01*
X94899047Y-102922380D01*
X94660952Y-102922380D01*
X94565714Y-102874761D01*
X94518095Y-102827142D01*
X95708571Y-101922380D02*
X95803809Y-101922380D01*
X95899047Y-101970000D01*
X95946666Y-102017619D01*
X95994285Y-102112857D01*
X96041904Y-102303333D01*
X96041904Y-102541428D01*
X95994285Y-102731904D01*
X95946666Y-102827142D01*
X95899047Y-102874761D01*
X95803809Y-102922380D01*
X95708571Y-102922380D01*
X95613333Y-102874761D01*
X95565714Y-102827142D01*
X95518095Y-102731904D01*
X95470476Y-102541428D01*
X95470476Y-102303333D01*
X95518095Y-102112857D01*
X95565714Y-102017619D01*
X95613333Y-101970000D01*
X95708571Y-101922380D01*
%TO.C,D49*%
X72345714Y-103032380D02*
X72345714Y-102032380D01*
X72583809Y-102032380D01*
X72726666Y-102080000D01*
X72821904Y-102175238D01*
X72869523Y-102270476D01*
X72917142Y-102460952D01*
X72917142Y-102603809D01*
X72869523Y-102794285D01*
X72821904Y-102889523D01*
X72726666Y-102984761D01*
X72583809Y-103032380D01*
X72345714Y-103032380D01*
X73774285Y-102365714D02*
X73774285Y-103032380D01*
X73536190Y-101984761D02*
X73298095Y-102699047D01*
X73917142Y-102699047D01*
X74345714Y-103032380D02*
X74536190Y-103032380D01*
X74631428Y-102984761D01*
X74679047Y-102937142D01*
X74774285Y-102794285D01*
X74821904Y-102603809D01*
X74821904Y-102222857D01*
X74774285Y-102127619D01*
X74726666Y-102080000D01*
X74631428Y-102032380D01*
X74440952Y-102032380D01*
X74345714Y-102080000D01*
X74298095Y-102127619D01*
X74250476Y-102222857D01*
X74250476Y-102460952D01*
X74298095Y-102556190D01*
X74345714Y-102603809D01*
X74440952Y-102651428D01*
X74631428Y-102651428D01*
X74726666Y-102603809D01*
X74774285Y-102556190D01*
X74821904Y-102460952D01*
%TO.C,D48*%
X129745714Y-105432380D02*
X129745714Y-104432380D01*
X129983809Y-104432380D01*
X130126666Y-104480000D01*
X130221904Y-104575238D01*
X130269523Y-104670476D01*
X130317142Y-104860952D01*
X130317142Y-105003809D01*
X130269523Y-105194285D01*
X130221904Y-105289523D01*
X130126666Y-105384761D01*
X129983809Y-105432380D01*
X129745714Y-105432380D01*
X131174285Y-104765714D02*
X131174285Y-105432380D01*
X130936190Y-104384761D02*
X130698095Y-105099047D01*
X131317142Y-105099047D01*
X131840952Y-104860952D02*
X131745714Y-104813333D01*
X131698095Y-104765714D01*
X131650476Y-104670476D01*
X131650476Y-104622857D01*
X131698095Y-104527619D01*
X131745714Y-104480000D01*
X131840952Y-104432380D01*
X132031428Y-104432380D01*
X132126666Y-104480000D01*
X132174285Y-104527619D01*
X132221904Y-104622857D01*
X132221904Y-104670476D01*
X132174285Y-104765714D01*
X132126666Y-104813333D01*
X132031428Y-104860952D01*
X131840952Y-104860952D01*
X131745714Y-104908571D01*
X131698095Y-104956190D01*
X131650476Y-105051428D01*
X131650476Y-105241904D01*
X131698095Y-105337142D01*
X131745714Y-105384761D01*
X131840952Y-105432380D01*
X132031428Y-105432380D01*
X132126666Y-105384761D01*
X132174285Y-105337142D01*
X132221904Y-105241904D01*
X132221904Y-105051428D01*
X132174285Y-104956190D01*
X132126666Y-104908571D01*
X132031428Y-104860952D01*
%TO.C,D47*%
X53905714Y-88632380D02*
X53905714Y-87632380D01*
X54143809Y-87632380D01*
X54286666Y-87680000D01*
X54381904Y-87775238D01*
X54429523Y-87870476D01*
X54477142Y-88060952D01*
X54477142Y-88203809D01*
X54429523Y-88394285D01*
X54381904Y-88489523D01*
X54286666Y-88584761D01*
X54143809Y-88632380D01*
X53905714Y-88632380D01*
X55334285Y-87965714D02*
X55334285Y-88632380D01*
X55096190Y-87584761D02*
X54858095Y-88299047D01*
X55477142Y-88299047D01*
X55762857Y-87632380D02*
X56429523Y-87632380D01*
X56000952Y-88632380D01*
%TO.C,D46*%
X34185714Y-91062380D02*
X34185714Y-90062380D01*
X34423809Y-90062380D01*
X34566666Y-90110000D01*
X34661904Y-90205238D01*
X34709523Y-90300476D01*
X34757142Y-90490952D01*
X34757142Y-90633809D01*
X34709523Y-90824285D01*
X34661904Y-90919523D01*
X34566666Y-91014761D01*
X34423809Y-91062380D01*
X34185714Y-91062380D01*
X35614285Y-90395714D02*
X35614285Y-91062380D01*
X35376190Y-90014761D02*
X35138095Y-90729047D01*
X35757142Y-90729047D01*
X36566666Y-90062380D02*
X36376190Y-90062380D01*
X36280952Y-90110000D01*
X36233333Y-90157619D01*
X36138095Y-90300476D01*
X36090476Y-90490952D01*
X36090476Y-90871904D01*
X36138095Y-90967142D01*
X36185714Y-91014761D01*
X36280952Y-91062380D01*
X36471428Y-91062380D01*
X36566666Y-91014761D01*
X36614285Y-90967142D01*
X36661904Y-90871904D01*
X36661904Y-90633809D01*
X36614285Y-90538571D01*
X36566666Y-90490952D01*
X36471428Y-90443333D01*
X36280952Y-90443333D01*
X36185714Y-90490952D01*
X36138095Y-90538571D01*
X36090476Y-90633809D01*
%TO.C,D45*%
X110235714Y-83952380D02*
X110235714Y-82952380D01*
X110473809Y-82952380D01*
X110616666Y-83000000D01*
X110711904Y-83095238D01*
X110759523Y-83190476D01*
X110807142Y-83380952D01*
X110807142Y-83523809D01*
X110759523Y-83714285D01*
X110711904Y-83809523D01*
X110616666Y-83904761D01*
X110473809Y-83952380D01*
X110235714Y-83952380D01*
X111664285Y-83285714D02*
X111664285Y-83952380D01*
X111426190Y-82904761D02*
X111188095Y-83619047D01*
X111807142Y-83619047D01*
X112664285Y-82952380D02*
X112188095Y-82952380D01*
X112140476Y-83428571D01*
X112188095Y-83380952D01*
X112283333Y-83333333D01*
X112521428Y-83333333D01*
X112616666Y-83380952D01*
X112664285Y-83428571D01*
X112711904Y-83523809D01*
X112711904Y-83761904D01*
X112664285Y-83857142D01*
X112616666Y-83904761D01*
X112521428Y-83952380D01*
X112283333Y-83952380D01*
X112188095Y-83904761D01*
X112140476Y-83857142D01*
%TO.C,D44*%
X91185714Y-81582380D02*
X91185714Y-80582380D01*
X91423809Y-80582380D01*
X91566666Y-80630000D01*
X91661904Y-80725238D01*
X91709523Y-80820476D01*
X91757142Y-81010952D01*
X91757142Y-81153809D01*
X91709523Y-81344285D01*
X91661904Y-81439523D01*
X91566666Y-81534761D01*
X91423809Y-81582380D01*
X91185714Y-81582380D01*
X92614285Y-80915714D02*
X92614285Y-81582380D01*
X92376190Y-80534761D02*
X92138095Y-81249047D01*
X92757142Y-81249047D01*
X93566666Y-80915714D02*
X93566666Y-81582380D01*
X93328571Y-80534761D02*
X93090476Y-81249047D01*
X93709523Y-81249047D01*
%TO.C,D43*%
X72145714Y-83902380D02*
X72145714Y-82902380D01*
X72383809Y-82902380D01*
X72526666Y-82950000D01*
X72621904Y-83045238D01*
X72669523Y-83140476D01*
X72717142Y-83330952D01*
X72717142Y-83473809D01*
X72669523Y-83664285D01*
X72621904Y-83759523D01*
X72526666Y-83854761D01*
X72383809Y-83902380D01*
X72145714Y-83902380D01*
X73574285Y-83235714D02*
X73574285Y-83902380D01*
X73336190Y-82854761D02*
X73098095Y-83569047D01*
X73717142Y-83569047D01*
X74002857Y-82902380D02*
X74621904Y-82902380D01*
X74288571Y-83283333D01*
X74431428Y-83283333D01*
X74526666Y-83330952D01*
X74574285Y-83378571D01*
X74621904Y-83473809D01*
X74621904Y-83711904D01*
X74574285Y-83807142D01*
X74526666Y-83854761D01*
X74431428Y-83902380D01*
X74145714Y-83902380D01*
X74050476Y-83854761D01*
X74002857Y-83807142D01*
%TO.C,D42*%
X129305714Y-86159840D02*
X129305714Y-85159840D01*
X129543809Y-85159840D01*
X129686666Y-85207460D01*
X129781904Y-85302698D01*
X129829523Y-85397936D01*
X129877142Y-85588412D01*
X129877142Y-85731269D01*
X129829523Y-85921745D01*
X129781904Y-86016983D01*
X129686666Y-86112221D01*
X129543809Y-86159840D01*
X129305714Y-86159840D01*
X130734285Y-85493174D02*
X130734285Y-86159840D01*
X130496190Y-85112221D02*
X130258095Y-85826507D01*
X130877142Y-85826507D01*
X131210476Y-85255079D02*
X131258095Y-85207460D01*
X131353333Y-85159840D01*
X131591428Y-85159840D01*
X131686666Y-85207460D01*
X131734285Y-85255079D01*
X131781904Y-85350317D01*
X131781904Y-85445555D01*
X131734285Y-85588412D01*
X131162857Y-86159840D01*
X131781904Y-86159840D01*
%TO.C,D41*%
X53685714Y-69732380D02*
X53685714Y-68732380D01*
X53923809Y-68732380D01*
X54066666Y-68780000D01*
X54161904Y-68875238D01*
X54209523Y-68970476D01*
X54257142Y-69160952D01*
X54257142Y-69303809D01*
X54209523Y-69494285D01*
X54161904Y-69589523D01*
X54066666Y-69684761D01*
X53923809Y-69732380D01*
X53685714Y-69732380D01*
X55114285Y-69065714D02*
X55114285Y-69732380D01*
X54876190Y-68684761D02*
X54638095Y-69399047D01*
X55257142Y-69399047D01*
X56161904Y-69732380D02*
X55590476Y-69732380D01*
X55876190Y-69732380D02*
X55876190Y-68732380D01*
X55780952Y-68875238D01*
X55685714Y-68970476D01*
X55590476Y-69018095D01*
%TO.C,D40*%
X34535714Y-72082380D02*
X34535714Y-71082380D01*
X34773809Y-71082380D01*
X34916666Y-71130000D01*
X35011904Y-71225238D01*
X35059523Y-71320476D01*
X35107142Y-71510952D01*
X35107142Y-71653809D01*
X35059523Y-71844285D01*
X35011904Y-71939523D01*
X34916666Y-72034761D01*
X34773809Y-72082380D01*
X34535714Y-72082380D01*
X35964285Y-71415714D02*
X35964285Y-72082380D01*
X35726190Y-71034761D02*
X35488095Y-71749047D01*
X36107142Y-71749047D01*
X36678571Y-71082380D02*
X36773809Y-71082380D01*
X36869047Y-71130000D01*
X36916666Y-71177619D01*
X36964285Y-71272857D01*
X37011904Y-71463333D01*
X37011904Y-71701428D01*
X36964285Y-71891904D01*
X36916666Y-71987142D01*
X36869047Y-72034761D01*
X36773809Y-72082380D01*
X36678571Y-72082380D01*
X36583333Y-72034761D01*
X36535714Y-71987142D01*
X36488095Y-71891904D01*
X36440476Y-71701428D01*
X36440476Y-71463333D01*
X36488095Y-71272857D01*
X36535714Y-71177619D01*
X36583333Y-71130000D01*
X36678571Y-71082380D01*
%TO.C,D39*%
X129465714Y-67209840D02*
X129465714Y-66209840D01*
X129703809Y-66209840D01*
X129846666Y-66257460D01*
X129941904Y-66352698D01*
X129989523Y-66447936D01*
X130037142Y-66638412D01*
X130037142Y-66781269D01*
X129989523Y-66971745D01*
X129941904Y-67066983D01*
X129846666Y-67162221D01*
X129703809Y-67209840D01*
X129465714Y-67209840D01*
X130370476Y-66209840D02*
X130989523Y-66209840D01*
X130656190Y-66590793D01*
X130799047Y-66590793D01*
X130894285Y-66638412D01*
X130941904Y-66686031D01*
X130989523Y-66781269D01*
X130989523Y-67019364D01*
X130941904Y-67114602D01*
X130894285Y-67162221D01*
X130799047Y-67209840D01*
X130513333Y-67209840D01*
X130418095Y-67162221D01*
X130370476Y-67114602D01*
X131465714Y-67209840D02*
X131656190Y-67209840D01*
X131751428Y-67162221D01*
X131799047Y-67114602D01*
X131894285Y-66971745D01*
X131941904Y-66781269D01*
X131941904Y-66400317D01*
X131894285Y-66305079D01*
X131846666Y-66257460D01*
X131751428Y-66209840D01*
X131560952Y-66209840D01*
X131465714Y-66257460D01*
X131418095Y-66305079D01*
X131370476Y-66400317D01*
X131370476Y-66638412D01*
X131418095Y-66733650D01*
X131465714Y-66781269D01*
X131560952Y-66828888D01*
X131751428Y-66828888D01*
X131846666Y-66781269D01*
X131894285Y-66733650D01*
X131941904Y-66638412D01*
%TO.C,D38*%
X110415714Y-64962380D02*
X110415714Y-63962380D01*
X110653809Y-63962380D01*
X110796666Y-64010000D01*
X110891904Y-64105238D01*
X110939523Y-64200476D01*
X110987142Y-64390952D01*
X110987142Y-64533809D01*
X110939523Y-64724285D01*
X110891904Y-64819523D01*
X110796666Y-64914761D01*
X110653809Y-64962380D01*
X110415714Y-64962380D01*
X111320476Y-63962380D02*
X111939523Y-63962380D01*
X111606190Y-64343333D01*
X111749047Y-64343333D01*
X111844285Y-64390952D01*
X111891904Y-64438571D01*
X111939523Y-64533809D01*
X111939523Y-64771904D01*
X111891904Y-64867142D01*
X111844285Y-64914761D01*
X111749047Y-64962380D01*
X111463333Y-64962380D01*
X111368095Y-64914761D01*
X111320476Y-64867142D01*
X112510952Y-64390952D02*
X112415714Y-64343333D01*
X112368095Y-64295714D01*
X112320476Y-64200476D01*
X112320476Y-64152857D01*
X112368095Y-64057619D01*
X112415714Y-64010000D01*
X112510952Y-63962380D01*
X112701428Y-63962380D01*
X112796666Y-64010000D01*
X112844285Y-64057619D01*
X112891904Y-64152857D01*
X112891904Y-64200476D01*
X112844285Y-64295714D01*
X112796666Y-64343333D01*
X112701428Y-64390952D01*
X112510952Y-64390952D01*
X112415714Y-64438571D01*
X112368095Y-64486190D01*
X112320476Y-64581428D01*
X112320476Y-64771904D01*
X112368095Y-64867142D01*
X112415714Y-64914761D01*
X112510952Y-64962380D01*
X112701428Y-64962380D01*
X112796666Y-64914761D01*
X112844285Y-64867142D01*
X112891904Y-64771904D01*
X112891904Y-64581428D01*
X112844285Y-64486190D01*
X112796666Y-64438571D01*
X112701428Y-64390952D01*
%TO.C,D37*%
X91305714Y-62472380D02*
X91305714Y-61472380D01*
X91543809Y-61472380D01*
X91686666Y-61520000D01*
X91781904Y-61615238D01*
X91829523Y-61710476D01*
X91877142Y-61900952D01*
X91877142Y-62043809D01*
X91829523Y-62234285D01*
X91781904Y-62329523D01*
X91686666Y-62424761D01*
X91543809Y-62472380D01*
X91305714Y-62472380D01*
X92210476Y-61472380D02*
X92829523Y-61472380D01*
X92496190Y-61853333D01*
X92639047Y-61853333D01*
X92734285Y-61900952D01*
X92781904Y-61948571D01*
X92829523Y-62043809D01*
X92829523Y-62281904D01*
X92781904Y-62377142D01*
X92734285Y-62424761D01*
X92639047Y-62472380D01*
X92353333Y-62472380D01*
X92258095Y-62424761D01*
X92210476Y-62377142D01*
X93162857Y-61472380D02*
X93829523Y-61472380D01*
X93400952Y-62472380D01*
%TO.C,D36*%
X72115714Y-64912380D02*
X72115714Y-63912380D01*
X72353809Y-63912380D01*
X72496666Y-63960000D01*
X72591904Y-64055238D01*
X72639523Y-64150476D01*
X72687142Y-64340952D01*
X72687142Y-64483809D01*
X72639523Y-64674285D01*
X72591904Y-64769523D01*
X72496666Y-64864761D01*
X72353809Y-64912380D01*
X72115714Y-64912380D01*
X73020476Y-63912380D02*
X73639523Y-63912380D01*
X73306190Y-64293333D01*
X73449047Y-64293333D01*
X73544285Y-64340952D01*
X73591904Y-64388571D01*
X73639523Y-64483809D01*
X73639523Y-64721904D01*
X73591904Y-64817142D01*
X73544285Y-64864761D01*
X73449047Y-64912380D01*
X73163333Y-64912380D01*
X73068095Y-64864761D01*
X73020476Y-64817142D01*
X74496666Y-63912380D02*
X74306190Y-63912380D01*
X74210952Y-63960000D01*
X74163333Y-64007619D01*
X74068095Y-64150476D01*
X74020476Y-64340952D01*
X74020476Y-64721904D01*
X74068095Y-64817142D01*
X74115714Y-64864761D01*
X74210952Y-64912380D01*
X74401428Y-64912380D01*
X74496666Y-64864761D01*
X74544285Y-64817142D01*
X74591904Y-64721904D01*
X74591904Y-64483809D01*
X74544285Y-64388571D01*
X74496666Y-64340952D01*
X74401428Y-64293333D01*
X74210952Y-64293333D01*
X74115714Y-64340952D01*
X74068095Y-64388571D01*
X74020476Y-64483809D01*
%TO.C,D35*%
X128995714Y-48172380D02*
X128995714Y-47172380D01*
X129233809Y-47172380D01*
X129376666Y-47220000D01*
X129471904Y-47315238D01*
X129519523Y-47410476D01*
X129567142Y-47600952D01*
X129567142Y-47743809D01*
X129519523Y-47934285D01*
X129471904Y-48029523D01*
X129376666Y-48124761D01*
X129233809Y-48172380D01*
X128995714Y-48172380D01*
X129900476Y-47172380D02*
X130519523Y-47172380D01*
X130186190Y-47553333D01*
X130329047Y-47553333D01*
X130424285Y-47600952D01*
X130471904Y-47648571D01*
X130519523Y-47743809D01*
X130519523Y-47981904D01*
X130471904Y-48077142D01*
X130424285Y-48124761D01*
X130329047Y-48172380D01*
X130043333Y-48172380D01*
X129948095Y-48124761D01*
X129900476Y-48077142D01*
X131424285Y-47172380D02*
X130948095Y-47172380D01*
X130900476Y-47648571D01*
X130948095Y-47600952D01*
X131043333Y-47553333D01*
X131281428Y-47553333D01*
X131376666Y-47600952D01*
X131424285Y-47648571D01*
X131471904Y-47743809D01*
X131471904Y-47981904D01*
X131424285Y-48077142D01*
X131376666Y-48124761D01*
X131281428Y-48172380D01*
X131043333Y-48172380D01*
X130948095Y-48124761D01*
X130900476Y-48077142D01*
%TO.C,D34*%
X109995714Y-45902380D02*
X109995714Y-44902380D01*
X110233809Y-44902380D01*
X110376666Y-44950000D01*
X110471904Y-45045238D01*
X110519523Y-45140476D01*
X110567142Y-45330952D01*
X110567142Y-45473809D01*
X110519523Y-45664285D01*
X110471904Y-45759523D01*
X110376666Y-45854761D01*
X110233809Y-45902380D01*
X109995714Y-45902380D01*
X110900476Y-44902380D02*
X111519523Y-44902380D01*
X111186190Y-45283333D01*
X111329047Y-45283333D01*
X111424285Y-45330952D01*
X111471904Y-45378571D01*
X111519523Y-45473809D01*
X111519523Y-45711904D01*
X111471904Y-45807142D01*
X111424285Y-45854761D01*
X111329047Y-45902380D01*
X111043333Y-45902380D01*
X110948095Y-45854761D01*
X110900476Y-45807142D01*
X112376666Y-45235714D02*
X112376666Y-45902380D01*
X112138571Y-44854761D02*
X111900476Y-45569047D01*
X112519523Y-45569047D01*
%TO.C,D33*%
X91515714Y-43502380D02*
X91515714Y-42502380D01*
X91753809Y-42502380D01*
X91896666Y-42550000D01*
X91991904Y-42645238D01*
X92039523Y-42740476D01*
X92087142Y-42930952D01*
X92087142Y-43073809D01*
X92039523Y-43264285D01*
X91991904Y-43359523D01*
X91896666Y-43454761D01*
X91753809Y-43502380D01*
X91515714Y-43502380D01*
X92420476Y-42502380D02*
X93039523Y-42502380D01*
X92706190Y-42883333D01*
X92849047Y-42883333D01*
X92944285Y-42930952D01*
X92991904Y-42978571D01*
X93039523Y-43073809D01*
X93039523Y-43311904D01*
X92991904Y-43407142D01*
X92944285Y-43454761D01*
X92849047Y-43502380D01*
X92563333Y-43502380D01*
X92468095Y-43454761D01*
X92420476Y-43407142D01*
X93372857Y-42502380D02*
X93991904Y-42502380D01*
X93658571Y-42883333D01*
X93801428Y-42883333D01*
X93896666Y-42930952D01*
X93944285Y-42978571D01*
X93991904Y-43073809D01*
X93991904Y-43311904D01*
X93944285Y-43407142D01*
X93896666Y-43454761D01*
X93801428Y-43502380D01*
X93515714Y-43502380D01*
X93420476Y-43454761D01*
X93372857Y-43407142D01*
%TO.C,D32*%
X72265714Y-45982380D02*
X72265714Y-44982380D01*
X72503809Y-44982380D01*
X72646666Y-45030000D01*
X72741904Y-45125238D01*
X72789523Y-45220476D01*
X72837142Y-45410952D01*
X72837142Y-45553809D01*
X72789523Y-45744285D01*
X72741904Y-45839523D01*
X72646666Y-45934761D01*
X72503809Y-45982380D01*
X72265714Y-45982380D01*
X73170476Y-44982380D02*
X73789523Y-44982380D01*
X73456190Y-45363333D01*
X73599047Y-45363333D01*
X73694285Y-45410952D01*
X73741904Y-45458571D01*
X73789523Y-45553809D01*
X73789523Y-45791904D01*
X73741904Y-45887142D01*
X73694285Y-45934761D01*
X73599047Y-45982380D01*
X73313333Y-45982380D01*
X73218095Y-45934761D01*
X73170476Y-45887142D01*
X74170476Y-45077619D02*
X74218095Y-45030000D01*
X74313333Y-44982380D01*
X74551428Y-44982380D01*
X74646666Y-45030000D01*
X74694285Y-45077619D01*
X74741904Y-45172857D01*
X74741904Y-45268095D01*
X74694285Y-45410952D01*
X74122857Y-45982380D01*
X74741904Y-45982380D01*
%TO.C,D31*%
X53825714Y-50752380D02*
X53825714Y-49752380D01*
X54063809Y-49752380D01*
X54206666Y-49800000D01*
X54301904Y-49895238D01*
X54349523Y-49990476D01*
X54397142Y-50180952D01*
X54397142Y-50323809D01*
X54349523Y-50514285D01*
X54301904Y-50609523D01*
X54206666Y-50704761D01*
X54063809Y-50752380D01*
X53825714Y-50752380D01*
X54730476Y-49752380D02*
X55349523Y-49752380D01*
X55016190Y-50133333D01*
X55159047Y-50133333D01*
X55254285Y-50180952D01*
X55301904Y-50228571D01*
X55349523Y-50323809D01*
X55349523Y-50561904D01*
X55301904Y-50657142D01*
X55254285Y-50704761D01*
X55159047Y-50752380D01*
X54873333Y-50752380D01*
X54778095Y-50704761D01*
X54730476Y-50657142D01*
X56301904Y-50752380D02*
X55730476Y-50752380D01*
X56016190Y-50752380D02*
X56016190Y-49752380D01*
X55920952Y-49895238D01*
X55825714Y-49990476D01*
X55730476Y-50038095D01*
%TO.C,D30*%
X34325714Y-53054920D02*
X34325714Y-52054920D01*
X34563809Y-52054920D01*
X34706666Y-52102540D01*
X34801904Y-52197778D01*
X34849523Y-52293016D01*
X34897142Y-52483492D01*
X34897142Y-52626349D01*
X34849523Y-52816825D01*
X34801904Y-52912063D01*
X34706666Y-53007301D01*
X34563809Y-53054920D01*
X34325714Y-53054920D01*
X35230476Y-52054920D02*
X35849523Y-52054920D01*
X35516190Y-52435873D01*
X35659047Y-52435873D01*
X35754285Y-52483492D01*
X35801904Y-52531111D01*
X35849523Y-52626349D01*
X35849523Y-52864444D01*
X35801904Y-52959682D01*
X35754285Y-53007301D01*
X35659047Y-53054920D01*
X35373333Y-53054920D01*
X35278095Y-53007301D01*
X35230476Y-52959682D01*
X36468571Y-52054920D02*
X36563809Y-52054920D01*
X36659047Y-52102540D01*
X36706666Y-52150159D01*
X36754285Y-52245397D01*
X36801904Y-52435873D01*
X36801904Y-52673968D01*
X36754285Y-52864444D01*
X36706666Y-52959682D01*
X36659047Y-53007301D01*
X36563809Y-53054920D01*
X36468571Y-53054920D01*
X36373333Y-53007301D01*
X36325714Y-52959682D01*
X36278095Y-52864444D01*
X36230476Y-52673968D01*
X36230476Y-52435873D01*
X36278095Y-52245397D01*
X36325714Y-52150159D01*
X36373333Y-52102540D01*
X36468571Y-52054920D01*
%TO.C,RSW1*%
X189338095Y-24801904D02*
X189071428Y-24420952D01*
X188880952Y-24801904D02*
X188880952Y-24001904D01*
X189185714Y-24001904D01*
X189261904Y-24040000D01*
X189300000Y-24078095D01*
X189338095Y-24154285D01*
X189338095Y-24268571D01*
X189300000Y-24344761D01*
X189261904Y-24382857D01*
X189185714Y-24420952D01*
X188880952Y-24420952D01*
X189680952Y-24382857D02*
X189947619Y-24382857D01*
X190061904Y-24801904D02*
X189680952Y-24801904D01*
X189680952Y-24001904D01*
X190061904Y-24001904D01*
X190366666Y-24763809D02*
X190480952Y-24801904D01*
X190671428Y-24801904D01*
X190747619Y-24763809D01*
X190785714Y-24725714D01*
X190823809Y-24649523D01*
X190823809Y-24573333D01*
X190785714Y-24497142D01*
X190747619Y-24459047D01*
X190671428Y-24420952D01*
X190519047Y-24382857D01*
X190442857Y-24344761D01*
X190404761Y-24306666D01*
X190366666Y-24230476D01*
X190366666Y-24154285D01*
X190404761Y-24078095D01*
X190442857Y-24040000D01*
X190519047Y-24001904D01*
X190709523Y-24001904D01*
X190823809Y-24040000D01*
X191166666Y-24382857D02*
X191433333Y-24382857D01*
X191547619Y-24801904D02*
X191166666Y-24801904D01*
X191166666Y-24001904D01*
X191547619Y-24001904D01*
X191776190Y-24001904D02*
X192233333Y-24001904D01*
X192004761Y-24801904D02*
X192004761Y-24001904D01*
D12*
%TO.C,BatGND2*%
X156290428Y-24239857D02*
X155147571Y-24239857D01*
%TO.C,BatEntry2*%
X145779571Y-24180142D02*
X146922428Y-24180142D01*
%TO.C,BatGND1*%
X180430428Y-24399857D02*
X179287571Y-24399857D01*
%TO.C,BatEntry1*%
X170022924Y-24426996D02*
X171165781Y-24426996D01*
X170594353Y-24998425D02*
X170594353Y-23855568D01*
%TO.C,Bat+1*%
X176369857Y-28456071D02*
X176369857Y-29598928D01*
D11*
%TO.C,D29*%
X172452380Y-71014285D02*
X171452380Y-71014285D01*
X171452380Y-70776190D01*
X171500000Y-70633333D01*
X171595238Y-70538095D01*
X171690476Y-70490476D01*
X171880952Y-70442857D01*
X172023809Y-70442857D01*
X172214285Y-70490476D01*
X172309523Y-70538095D01*
X172404761Y-70633333D01*
X172452380Y-70776190D01*
X172452380Y-71014285D01*
X171547619Y-70061904D02*
X171500000Y-70014285D01*
X171452380Y-69919047D01*
X171452380Y-69680952D01*
X171500000Y-69585714D01*
X171547619Y-69538095D01*
X171642857Y-69490476D01*
X171738095Y-69490476D01*
X171880952Y-69538095D01*
X172452380Y-70109523D01*
X172452380Y-69490476D01*
X172452380Y-69014285D02*
X172452380Y-68823809D01*
X172404761Y-68728571D01*
X172357142Y-68680952D01*
X172214285Y-68585714D01*
X172023809Y-68538095D01*
X171642857Y-68538095D01*
X171547619Y-68585714D01*
X171500000Y-68633333D01*
X171452380Y-68728571D01*
X171452380Y-68919047D01*
X171500000Y-69014285D01*
X171547619Y-69061904D01*
X171642857Y-69109523D01*
X171880952Y-69109523D01*
X171976190Y-69061904D01*
X172023809Y-69014285D01*
X172071428Y-68919047D01*
X172071428Y-68728571D01*
X172023809Y-68633333D01*
X171976190Y-68585714D01*
X171880952Y-68538095D01*
%TO.C,D28*%
X178452380Y-71014285D02*
X177452380Y-71014285D01*
X177452380Y-70776190D01*
X177500000Y-70633333D01*
X177595238Y-70538095D01*
X177690476Y-70490476D01*
X177880952Y-70442857D01*
X178023809Y-70442857D01*
X178214285Y-70490476D01*
X178309523Y-70538095D01*
X178404761Y-70633333D01*
X178452380Y-70776190D01*
X178452380Y-71014285D01*
X177547619Y-70061904D02*
X177500000Y-70014285D01*
X177452380Y-69919047D01*
X177452380Y-69680952D01*
X177500000Y-69585714D01*
X177547619Y-69538095D01*
X177642857Y-69490476D01*
X177738095Y-69490476D01*
X177880952Y-69538095D01*
X178452380Y-70109523D01*
X178452380Y-69490476D01*
X177880952Y-68919047D02*
X177833333Y-69014285D01*
X177785714Y-69061904D01*
X177690476Y-69109523D01*
X177642857Y-69109523D01*
X177547619Y-69061904D01*
X177500000Y-69014285D01*
X177452380Y-68919047D01*
X177452380Y-68728571D01*
X177500000Y-68633333D01*
X177547619Y-68585714D01*
X177642857Y-68538095D01*
X177690476Y-68538095D01*
X177785714Y-68585714D01*
X177833333Y-68633333D01*
X177880952Y-68728571D01*
X177880952Y-68919047D01*
X177928571Y-69014285D01*
X177976190Y-69061904D01*
X178071428Y-69109523D01*
X178261904Y-69109523D01*
X178357142Y-69061904D01*
X178404761Y-69014285D01*
X178452380Y-68919047D01*
X178452380Y-68728571D01*
X178404761Y-68633333D01*
X178357142Y-68585714D01*
X178261904Y-68538095D01*
X178071428Y-68538095D01*
X177976190Y-68585714D01*
X177928571Y-68633333D01*
X177880952Y-68728571D01*
%TO.C,D27*%
X175452380Y-71014285D02*
X174452380Y-71014285D01*
X174452380Y-70776190D01*
X174500000Y-70633333D01*
X174595238Y-70538095D01*
X174690476Y-70490476D01*
X174880952Y-70442857D01*
X175023809Y-70442857D01*
X175214285Y-70490476D01*
X175309523Y-70538095D01*
X175404761Y-70633333D01*
X175452380Y-70776190D01*
X175452380Y-71014285D01*
X174547619Y-70061904D02*
X174500000Y-70014285D01*
X174452380Y-69919047D01*
X174452380Y-69680952D01*
X174500000Y-69585714D01*
X174547619Y-69538095D01*
X174642857Y-69490476D01*
X174738095Y-69490476D01*
X174880952Y-69538095D01*
X175452380Y-70109523D01*
X175452380Y-69490476D01*
X174452380Y-69157142D02*
X174452380Y-68490476D01*
X175452380Y-68919047D01*
%TO.C,D26*%
X181452380Y-71014285D02*
X180452380Y-71014285D01*
X180452380Y-70776190D01*
X180500000Y-70633333D01*
X180595238Y-70538095D01*
X180690476Y-70490476D01*
X180880952Y-70442857D01*
X181023809Y-70442857D01*
X181214285Y-70490476D01*
X181309523Y-70538095D01*
X181404761Y-70633333D01*
X181452380Y-70776190D01*
X181452380Y-71014285D01*
X180547619Y-70061904D02*
X180500000Y-70014285D01*
X180452380Y-69919047D01*
X180452380Y-69680952D01*
X180500000Y-69585714D01*
X180547619Y-69538095D01*
X180642857Y-69490476D01*
X180738095Y-69490476D01*
X180880952Y-69538095D01*
X181452380Y-70109523D01*
X181452380Y-69490476D01*
X180452380Y-68633333D02*
X180452380Y-68823809D01*
X180500000Y-68919047D01*
X180547619Y-68966666D01*
X180690476Y-69061904D01*
X180880952Y-69109523D01*
X181261904Y-69109523D01*
X181357142Y-69061904D01*
X181404761Y-69014285D01*
X181452380Y-68919047D01*
X181452380Y-68728571D01*
X181404761Y-68633333D01*
X181357142Y-68585714D01*
X181261904Y-68538095D01*
X181023809Y-68538095D01*
X180928571Y-68585714D01*
X180880952Y-68633333D01*
X180833333Y-68728571D01*
X180833333Y-68919047D01*
X180880952Y-69014285D01*
X180928571Y-69061904D01*
X181023809Y-69109523D01*
%TO.C,D25*%
X212985714Y-106752380D02*
X212985714Y-105752380D01*
X213223809Y-105752380D01*
X213366666Y-105800000D01*
X213461904Y-105895238D01*
X213509523Y-105990476D01*
X213557142Y-106180952D01*
X213557142Y-106323809D01*
X213509523Y-106514285D01*
X213461904Y-106609523D01*
X213366666Y-106704761D01*
X213223809Y-106752380D01*
X212985714Y-106752380D01*
X213938095Y-105847619D02*
X213985714Y-105800000D01*
X214080952Y-105752380D01*
X214319047Y-105752380D01*
X214414285Y-105800000D01*
X214461904Y-105847619D01*
X214509523Y-105942857D01*
X214509523Y-106038095D01*
X214461904Y-106180952D01*
X213890476Y-106752380D01*
X214509523Y-106752380D01*
X215414285Y-105752380D02*
X214938095Y-105752380D01*
X214890476Y-106228571D01*
X214938095Y-106180952D01*
X215033333Y-106133333D01*
X215271428Y-106133333D01*
X215366666Y-106180952D01*
X215414285Y-106228571D01*
X215461904Y-106323809D01*
X215461904Y-106561904D01*
X215414285Y-106657142D01*
X215366666Y-106704761D01*
X215271428Y-106752380D01*
X215033333Y-106752380D01*
X214938095Y-106704761D01*
X214890476Y-106657142D01*
%TO.C,D24*%
X194225714Y-108554920D02*
X194225714Y-107554920D01*
X194463809Y-107554920D01*
X194606666Y-107602540D01*
X194701904Y-107697778D01*
X194749523Y-107793016D01*
X194797142Y-107983492D01*
X194797142Y-108126349D01*
X194749523Y-108316825D01*
X194701904Y-108412063D01*
X194606666Y-108507301D01*
X194463809Y-108554920D01*
X194225714Y-108554920D01*
X195178095Y-107650159D02*
X195225714Y-107602540D01*
X195320952Y-107554920D01*
X195559047Y-107554920D01*
X195654285Y-107602540D01*
X195701904Y-107650159D01*
X195749523Y-107745397D01*
X195749523Y-107840635D01*
X195701904Y-107983492D01*
X195130476Y-108554920D01*
X195749523Y-108554920D01*
X196606666Y-107888254D02*
X196606666Y-108554920D01*
X196368571Y-107507301D02*
X196130476Y-108221587D01*
X196749523Y-108221587D01*
%TO.C,D23*%
X258985714Y-107952380D02*
X258985714Y-106952380D01*
X259223809Y-106952380D01*
X259366666Y-107000000D01*
X259461904Y-107095238D01*
X259509523Y-107190476D01*
X259557142Y-107380952D01*
X259557142Y-107523809D01*
X259509523Y-107714285D01*
X259461904Y-107809523D01*
X259366666Y-107904761D01*
X259223809Y-107952380D01*
X258985714Y-107952380D01*
X259938095Y-107047619D02*
X259985714Y-107000000D01*
X260080952Y-106952380D01*
X260319047Y-106952380D01*
X260414285Y-107000000D01*
X260461904Y-107047619D01*
X260509523Y-107142857D01*
X260509523Y-107238095D01*
X260461904Y-107380952D01*
X259890476Y-107952380D01*
X260509523Y-107952380D01*
X260842857Y-106952380D02*
X261461904Y-106952380D01*
X261128571Y-107333333D01*
X261271428Y-107333333D01*
X261366666Y-107380952D01*
X261414285Y-107428571D01*
X261461904Y-107523809D01*
X261461904Y-107761904D01*
X261414285Y-107857142D01*
X261366666Y-107904761D01*
X261271428Y-107952380D01*
X260985714Y-107952380D01*
X260890476Y-107904761D01*
X260842857Y-107857142D01*
%TO.C,D22*%
X251025714Y-106152380D02*
X251025714Y-105152380D01*
X251263809Y-105152380D01*
X251406666Y-105200000D01*
X251501904Y-105295238D01*
X251549523Y-105390476D01*
X251597142Y-105580952D01*
X251597142Y-105723809D01*
X251549523Y-105914285D01*
X251501904Y-106009523D01*
X251406666Y-106104761D01*
X251263809Y-106152380D01*
X251025714Y-106152380D01*
X251978095Y-105247619D02*
X252025714Y-105200000D01*
X252120952Y-105152380D01*
X252359047Y-105152380D01*
X252454285Y-105200000D01*
X252501904Y-105247619D01*
X252549523Y-105342857D01*
X252549523Y-105438095D01*
X252501904Y-105580952D01*
X251930476Y-106152380D01*
X252549523Y-106152380D01*
X252930476Y-105247619D02*
X252978095Y-105200000D01*
X253073333Y-105152380D01*
X253311428Y-105152380D01*
X253406666Y-105200000D01*
X253454285Y-105247619D01*
X253501904Y-105342857D01*
X253501904Y-105438095D01*
X253454285Y-105580952D01*
X252882857Y-106152380D01*
X253501904Y-106152380D01*
%TO.C,D21*%
X230415714Y-106302380D02*
X230415714Y-105302380D01*
X230653809Y-105302380D01*
X230796666Y-105350000D01*
X230891904Y-105445238D01*
X230939523Y-105540476D01*
X230987142Y-105730952D01*
X230987142Y-105873809D01*
X230939523Y-106064285D01*
X230891904Y-106159523D01*
X230796666Y-106254761D01*
X230653809Y-106302380D01*
X230415714Y-106302380D01*
X231368095Y-105397619D02*
X231415714Y-105350000D01*
X231510952Y-105302380D01*
X231749047Y-105302380D01*
X231844285Y-105350000D01*
X231891904Y-105397619D01*
X231939523Y-105492857D01*
X231939523Y-105588095D01*
X231891904Y-105730952D01*
X231320476Y-106302380D01*
X231939523Y-106302380D01*
X232891904Y-106302380D02*
X232320476Y-106302380D01*
X232606190Y-106302380D02*
X232606190Y-105302380D01*
X232510952Y-105445238D01*
X232415714Y-105540476D01*
X232320476Y-105588095D01*
%TO.C,D20*%
X274485714Y-108052380D02*
X274485714Y-107052380D01*
X274723809Y-107052380D01*
X274866666Y-107100000D01*
X274961904Y-107195238D01*
X275009523Y-107290476D01*
X275057142Y-107480952D01*
X275057142Y-107623809D01*
X275009523Y-107814285D01*
X274961904Y-107909523D01*
X274866666Y-108004761D01*
X274723809Y-108052380D01*
X274485714Y-108052380D01*
X275438095Y-107147619D02*
X275485714Y-107100000D01*
X275580952Y-107052380D01*
X275819047Y-107052380D01*
X275914285Y-107100000D01*
X275961904Y-107147619D01*
X276009523Y-107242857D01*
X276009523Y-107338095D01*
X275961904Y-107480952D01*
X275390476Y-108052380D01*
X276009523Y-108052380D01*
X276628571Y-107052380D02*
X276723809Y-107052380D01*
X276819047Y-107100000D01*
X276866666Y-107147619D01*
X276914285Y-107242857D01*
X276961904Y-107433333D01*
X276961904Y-107671428D01*
X276914285Y-107861904D01*
X276866666Y-107957142D01*
X276819047Y-108004761D01*
X276723809Y-108052380D01*
X276628571Y-108052380D01*
X276533333Y-108004761D01*
X276485714Y-107957142D01*
X276438095Y-107861904D01*
X276390476Y-107671428D01*
X276390476Y-107433333D01*
X276438095Y-107242857D01*
X276485714Y-107147619D01*
X276533333Y-107100000D01*
X276628571Y-107052380D01*
%TO.C,D19*%
X169452380Y-71014285D02*
X168452380Y-71014285D01*
X168452380Y-70776190D01*
X168500000Y-70633333D01*
X168595238Y-70538095D01*
X168690476Y-70490476D01*
X168880952Y-70442857D01*
X169023809Y-70442857D01*
X169214285Y-70490476D01*
X169309523Y-70538095D01*
X169404761Y-70633333D01*
X169452380Y-70776190D01*
X169452380Y-71014285D01*
X169452380Y-69490476D02*
X169452380Y-70061904D01*
X169452380Y-69776190D02*
X168452380Y-69776190D01*
X168595238Y-69871428D01*
X168690476Y-69966666D01*
X168738095Y-70061904D01*
X169452380Y-69014285D02*
X169452380Y-68823809D01*
X169404761Y-68728571D01*
X169357142Y-68680952D01*
X169214285Y-68585714D01*
X169023809Y-68538095D01*
X168642857Y-68538095D01*
X168547619Y-68585714D01*
X168500000Y-68633333D01*
X168452380Y-68728571D01*
X168452380Y-68919047D01*
X168500000Y-69014285D01*
X168547619Y-69061904D01*
X168642857Y-69109523D01*
X168880952Y-69109523D01*
X168976190Y-69061904D01*
X169023809Y-69014285D01*
X169071428Y-68919047D01*
X169071428Y-68728571D01*
X169023809Y-68633333D01*
X168976190Y-68585714D01*
X168880952Y-68538095D01*
%TO.C,D18*%
X212885714Y-87052380D02*
X212885714Y-86052380D01*
X213123809Y-86052380D01*
X213266666Y-86100000D01*
X213361904Y-86195238D01*
X213409523Y-86290476D01*
X213457142Y-86480952D01*
X213457142Y-86623809D01*
X213409523Y-86814285D01*
X213361904Y-86909523D01*
X213266666Y-87004761D01*
X213123809Y-87052380D01*
X212885714Y-87052380D01*
X214409523Y-87052380D02*
X213838095Y-87052380D01*
X214123809Y-87052380D02*
X214123809Y-86052380D01*
X214028571Y-86195238D01*
X213933333Y-86290476D01*
X213838095Y-86338095D01*
X214980952Y-86480952D02*
X214885714Y-86433333D01*
X214838095Y-86385714D01*
X214790476Y-86290476D01*
X214790476Y-86242857D01*
X214838095Y-86147619D01*
X214885714Y-86100000D01*
X214980952Y-86052380D01*
X215171428Y-86052380D01*
X215266666Y-86100000D01*
X215314285Y-86147619D01*
X215361904Y-86242857D01*
X215361904Y-86290476D01*
X215314285Y-86385714D01*
X215266666Y-86433333D01*
X215171428Y-86480952D01*
X214980952Y-86480952D01*
X214885714Y-86528571D01*
X214838095Y-86576190D01*
X214790476Y-86671428D01*
X214790476Y-86861904D01*
X214838095Y-86957142D01*
X214885714Y-87004761D01*
X214980952Y-87052380D01*
X215171428Y-87052380D01*
X215266666Y-87004761D01*
X215314285Y-86957142D01*
X215361904Y-86861904D01*
X215361904Y-86671428D01*
X215314285Y-86576190D01*
X215266666Y-86528571D01*
X215171428Y-86480952D01*
%TO.C,D17*%
X193285714Y-88952380D02*
X193285714Y-87952380D01*
X193523809Y-87952380D01*
X193666666Y-88000000D01*
X193761904Y-88095238D01*
X193809523Y-88190476D01*
X193857142Y-88380952D01*
X193857142Y-88523809D01*
X193809523Y-88714285D01*
X193761904Y-88809523D01*
X193666666Y-88904761D01*
X193523809Y-88952380D01*
X193285714Y-88952380D01*
X194809523Y-88952380D02*
X194238095Y-88952380D01*
X194523809Y-88952380D02*
X194523809Y-87952380D01*
X194428571Y-88095238D01*
X194333333Y-88190476D01*
X194238095Y-88238095D01*
X195142857Y-87952380D02*
X195809523Y-87952380D01*
X195380952Y-88952380D01*
%TO.C,D16*%
X270285714Y-91752380D02*
X270285714Y-90752380D01*
X270523809Y-90752380D01*
X270666666Y-90800000D01*
X270761904Y-90895238D01*
X270809523Y-90990476D01*
X270857142Y-91180952D01*
X270857142Y-91323809D01*
X270809523Y-91514285D01*
X270761904Y-91609523D01*
X270666666Y-91704761D01*
X270523809Y-91752380D01*
X270285714Y-91752380D01*
X271809523Y-91752380D02*
X271238095Y-91752380D01*
X271523809Y-91752380D02*
X271523809Y-90752380D01*
X271428571Y-90895238D01*
X271333333Y-90990476D01*
X271238095Y-91038095D01*
X272666666Y-90752380D02*
X272476190Y-90752380D01*
X272380952Y-90800000D01*
X272333333Y-90847619D01*
X272238095Y-90990476D01*
X272190476Y-91180952D01*
X272190476Y-91561904D01*
X272238095Y-91657142D01*
X272285714Y-91704761D01*
X272380952Y-91752380D01*
X272571428Y-91752380D01*
X272666666Y-91704761D01*
X272714285Y-91657142D01*
X272761904Y-91561904D01*
X272761904Y-91323809D01*
X272714285Y-91228571D01*
X272666666Y-91180952D01*
X272571428Y-91133333D01*
X272380952Y-91133333D01*
X272285714Y-91180952D01*
X272238095Y-91228571D01*
X272190476Y-91323809D01*
%TO.C,D15*%
X251225714Y-87054920D02*
X251225714Y-86054920D01*
X251463809Y-86054920D01*
X251606666Y-86102540D01*
X251701904Y-86197778D01*
X251749523Y-86293016D01*
X251797142Y-86483492D01*
X251797142Y-86626349D01*
X251749523Y-86816825D01*
X251701904Y-86912063D01*
X251606666Y-87007301D01*
X251463809Y-87054920D01*
X251225714Y-87054920D01*
X252749523Y-87054920D02*
X252178095Y-87054920D01*
X252463809Y-87054920D02*
X252463809Y-86054920D01*
X252368571Y-86197778D01*
X252273333Y-86293016D01*
X252178095Y-86340635D01*
X253654285Y-86054920D02*
X253178095Y-86054920D01*
X253130476Y-86531111D01*
X253178095Y-86483492D01*
X253273333Y-86435873D01*
X253511428Y-86435873D01*
X253606666Y-86483492D01*
X253654285Y-86531111D01*
X253701904Y-86626349D01*
X253701904Y-86864444D01*
X253654285Y-86959682D01*
X253606666Y-87007301D01*
X253511428Y-87054920D01*
X253273333Y-87054920D01*
X253178095Y-87007301D01*
X253130476Y-86959682D01*
%TO.C,D14*%
X232025714Y-84654920D02*
X232025714Y-83654920D01*
X232263809Y-83654920D01*
X232406666Y-83702540D01*
X232501904Y-83797778D01*
X232549523Y-83893016D01*
X232597142Y-84083492D01*
X232597142Y-84226349D01*
X232549523Y-84416825D01*
X232501904Y-84512063D01*
X232406666Y-84607301D01*
X232263809Y-84654920D01*
X232025714Y-84654920D01*
X233549523Y-84654920D02*
X232978095Y-84654920D01*
X233263809Y-84654920D02*
X233263809Y-83654920D01*
X233168571Y-83797778D01*
X233073333Y-83893016D01*
X232978095Y-83940635D01*
X234406666Y-83988254D02*
X234406666Y-84654920D01*
X234168571Y-83607301D02*
X233930476Y-84321587D01*
X234549523Y-84321587D01*
%TO.C,D12*%
X212985714Y-68052380D02*
X212985714Y-67052380D01*
X213223809Y-67052380D01*
X213366666Y-67100000D01*
X213461904Y-67195238D01*
X213509523Y-67290476D01*
X213557142Y-67480952D01*
X213557142Y-67623809D01*
X213509523Y-67814285D01*
X213461904Y-67909523D01*
X213366666Y-68004761D01*
X213223809Y-68052380D01*
X212985714Y-68052380D01*
X214509523Y-68052380D02*
X213938095Y-68052380D01*
X214223809Y-68052380D02*
X214223809Y-67052380D01*
X214128571Y-67195238D01*
X214033333Y-67290476D01*
X213938095Y-67338095D01*
X214890476Y-67147619D02*
X214938095Y-67100000D01*
X215033333Y-67052380D01*
X215271428Y-67052380D01*
X215366666Y-67100000D01*
X215414285Y-67147619D01*
X215461904Y-67242857D01*
X215461904Y-67338095D01*
X215414285Y-67480952D01*
X214842857Y-68052380D01*
X215461904Y-68052380D01*
%TO.C,D11*%
X193985714Y-70352380D02*
X193985714Y-69352380D01*
X194223809Y-69352380D01*
X194366666Y-69400000D01*
X194461904Y-69495238D01*
X194509523Y-69590476D01*
X194557142Y-69780952D01*
X194557142Y-69923809D01*
X194509523Y-70114285D01*
X194461904Y-70209523D01*
X194366666Y-70304761D01*
X194223809Y-70352380D01*
X193985714Y-70352380D01*
X195509523Y-70352380D02*
X194938095Y-70352380D01*
X195223809Y-70352380D02*
X195223809Y-69352380D01*
X195128571Y-69495238D01*
X195033333Y-69590476D01*
X194938095Y-69638095D01*
X196461904Y-70352380D02*
X195890476Y-70352380D01*
X196176190Y-70352380D02*
X196176190Y-69352380D01*
X196080952Y-69495238D01*
X195985714Y-69590476D01*
X195890476Y-69638095D01*
%TO.C,D10*%
X270185714Y-72652380D02*
X270185714Y-71652380D01*
X270423809Y-71652380D01*
X270566666Y-71700000D01*
X270661904Y-71795238D01*
X270709523Y-71890476D01*
X270757142Y-72080952D01*
X270757142Y-72223809D01*
X270709523Y-72414285D01*
X270661904Y-72509523D01*
X270566666Y-72604761D01*
X270423809Y-72652380D01*
X270185714Y-72652380D01*
X271709523Y-72652380D02*
X271138095Y-72652380D01*
X271423809Y-72652380D02*
X271423809Y-71652380D01*
X271328571Y-71795238D01*
X271233333Y-71890476D01*
X271138095Y-71938095D01*
X272328571Y-71652380D02*
X272423809Y-71652380D01*
X272519047Y-71700000D01*
X272566666Y-71747619D01*
X272614285Y-71842857D01*
X272661904Y-72033333D01*
X272661904Y-72271428D01*
X272614285Y-72461904D01*
X272566666Y-72557142D01*
X272519047Y-72604761D01*
X272423809Y-72652380D01*
X272328571Y-72652380D01*
X272233333Y-72604761D01*
X272185714Y-72557142D01*
X272138095Y-72461904D01*
X272090476Y-72271428D01*
X272090476Y-72033333D01*
X272138095Y-71842857D01*
X272185714Y-71747619D01*
X272233333Y-71700000D01*
X272328571Y-71652380D01*
%TO.C,D9*%
X251761904Y-68052380D02*
X251761904Y-67052380D01*
X252000000Y-67052380D01*
X252142857Y-67100000D01*
X252238095Y-67195238D01*
X252285714Y-67290476D01*
X252333333Y-67480952D01*
X252333333Y-67623809D01*
X252285714Y-67814285D01*
X252238095Y-67909523D01*
X252142857Y-68004761D01*
X252000000Y-68052380D01*
X251761904Y-68052380D01*
X252809523Y-68052380D02*
X253000000Y-68052380D01*
X253095238Y-68004761D01*
X253142857Y-67957142D01*
X253238095Y-67814285D01*
X253285714Y-67623809D01*
X253285714Y-67242857D01*
X253238095Y-67147619D01*
X253190476Y-67100000D01*
X253095238Y-67052380D01*
X252904761Y-67052380D01*
X252809523Y-67100000D01*
X252761904Y-67147619D01*
X252714285Y-67242857D01*
X252714285Y-67480952D01*
X252761904Y-67576190D01*
X252809523Y-67623809D01*
X252904761Y-67671428D01*
X253095238Y-67671428D01*
X253190476Y-67623809D01*
X253238095Y-67576190D01*
X253285714Y-67480952D01*
%TO.C,D8*%
X232761904Y-65652380D02*
X232761904Y-64652380D01*
X233000000Y-64652380D01*
X233142857Y-64700000D01*
X233238095Y-64795238D01*
X233285714Y-64890476D01*
X233333333Y-65080952D01*
X233333333Y-65223809D01*
X233285714Y-65414285D01*
X233238095Y-65509523D01*
X233142857Y-65604761D01*
X233000000Y-65652380D01*
X232761904Y-65652380D01*
X233904761Y-65080952D02*
X233809523Y-65033333D01*
X233761904Y-64985714D01*
X233714285Y-64890476D01*
X233714285Y-64842857D01*
X233761904Y-64747619D01*
X233809523Y-64700000D01*
X233904761Y-64652380D01*
X234095238Y-64652380D01*
X234190476Y-64700000D01*
X234238095Y-64747619D01*
X234285714Y-64842857D01*
X234285714Y-64890476D01*
X234238095Y-64985714D01*
X234190476Y-65033333D01*
X234095238Y-65080952D01*
X233904761Y-65080952D01*
X233809523Y-65128571D01*
X233761904Y-65176190D01*
X233714285Y-65271428D01*
X233714285Y-65461904D01*
X233761904Y-65557142D01*
X233809523Y-65604761D01*
X233904761Y-65652380D01*
X234095238Y-65652380D01*
X234190476Y-65604761D01*
X234238095Y-65557142D01*
X234285714Y-65461904D01*
X234285714Y-65271428D01*
X234238095Y-65176190D01*
X234190476Y-65128571D01*
X234095238Y-65080952D01*
%TO.C,D7*%
X289601904Y-75154920D02*
X289601904Y-74154920D01*
X289840000Y-74154920D01*
X289982857Y-74202540D01*
X290078095Y-74297778D01*
X290125714Y-74393016D01*
X290173333Y-74583492D01*
X290173333Y-74726349D01*
X290125714Y-74916825D01*
X290078095Y-75012063D01*
X289982857Y-75107301D01*
X289840000Y-75154920D01*
X289601904Y-75154920D01*
X290506666Y-74154920D02*
X291173333Y-74154920D01*
X290744761Y-75154920D01*
%TO.C,D6*%
X213811904Y-48832380D02*
X213811904Y-47832380D01*
X214050000Y-47832380D01*
X214192857Y-47880000D01*
X214288095Y-47975238D01*
X214335714Y-48070476D01*
X214383333Y-48260952D01*
X214383333Y-48403809D01*
X214335714Y-48594285D01*
X214288095Y-48689523D01*
X214192857Y-48784761D01*
X214050000Y-48832380D01*
X213811904Y-48832380D01*
X215240476Y-47832380D02*
X215050000Y-47832380D01*
X214954761Y-47880000D01*
X214907142Y-47927619D01*
X214811904Y-48070476D01*
X214764285Y-48260952D01*
X214764285Y-48641904D01*
X214811904Y-48737142D01*
X214859523Y-48784761D01*
X214954761Y-48832380D01*
X215145238Y-48832380D01*
X215240476Y-48784761D01*
X215288095Y-48737142D01*
X215335714Y-48641904D01*
X215335714Y-48403809D01*
X215288095Y-48308571D01*
X215240476Y-48260952D01*
X215145238Y-48213333D01*
X214954761Y-48213333D01*
X214859523Y-48260952D01*
X214811904Y-48308571D01*
X214764285Y-48403809D01*
%TO.C,D5*%
X270661904Y-53752380D02*
X270661904Y-52752380D01*
X270900000Y-52752380D01*
X271042857Y-52800000D01*
X271138095Y-52895238D01*
X271185714Y-52990476D01*
X271233333Y-53180952D01*
X271233333Y-53323809D01*
X271185714Y-53514285D01*
X271138095Y-53609523D01*
X271042857Y-53704761D01*
X270900000Y-53752380D01*
X270661904Y-53752380D01*
X272138095Y-52752380D02*
X271661904Y-52752380D01*
X271614285Y-53228571D01*
X271661904Y-53180952D01*
X271757142Y-53133333D01*
X271995238Y-53133333D01*
X272090476Y-53180952D01*
X272138095Y-53228571D01*
X272185714Y-53323809D01*
X272185714Y-53561904D01*
X272138095Y-53657142D01*
X272090476Y-53704761D01*
X271995238Y-53752380D01*
X271757142Y-53752380D01*
X271661904Y-53704761D01*
X271614285Y-53657142D01*
%TO.C,D4*%
X251661904Y-48952380D02*
X251661904Y-47952380D01*
X251900000Y-47952380D01*
X252042857Y-48000000D01*
X252138095Y-48095238D01*
X252185714Y-48190476D01*
X252233333Y-48380952D01*
X252233333Y-48523809D01*
X252185714Y-48714285D01*
X252138095Y-48809523D01*
X252042857Y-48904761D01*
X251900000Y-48952380D01*
X251661904Y-48952380D01*
X253090476Y-48285714D02*
X253090476Y-48952380D01*
X252852380Y-47904761D02*
X252614285Y-48619047D01*
X253233333Y-48619047D01*
%TO.C,D3*%
X232361904Y-46652380D02*
X232361904Y-45652380D01*
X232600000Y-45652380D01*
X232742857Y-45700000D01*
X232838095Y-45795238D01*
X232885714Y-45890476D01*
X232933333Y-46080952D01*
X232933333Y-46223809D01*
X232885714Y-46414285D01*
X232838095Y-46509523D01*
X232742857Y-46604761D01*
X232600000Y-46652380D01*
X232361904Y-46652380D01*
X233266666Y-45652380D02*
X233885714Y-45652380D01*
X233552380Y-46033333D01*
X233695238Y-46033333D01*
X233790476Y-46080952D01*
X233838095Y-46128571D01*
X233885714Y-46223809D01*
X233885714Y-46461904D01*
X233838095Y-46557142D01*
X233790476Y-46604761D01*
X233695238Y-46652380D01*
X233409523Y-46652380D01*
X233314285Y-46604761D01*
X233266666Y-46557142D01*
%TO.C,D2*%
X289761904Y-56152380D02*
X289761904Y-55152380D01*
X290000000Y-55152380D01*
X290142857Y-55200000D01*
X290238095Y-55295238D01*
X290285714Y-55390476D01*
X290333333Y-55580952D01*
X290333333Y-55723809D01*
X290285714Y-55914285D01*
X290238095Y-56009523D01*
X290142857Y-56104761D01*
X290000000Y-56152380D01*
X289761904Y-56152380D01*
X290714285Y-55247619D02*
X290761904Y-55200000D01*
X290857142Y-55152380D01*
X291095238Y-55152380D01*
X291190476Y-55200000D01*
X291238095Y-55247619D01*
X291285714Y-55342857D01*
X291285714Y-55438095D01*
X291238095Y-55580952D01*
X290666666Y-56152380D01*
X291285714Y-56152380D01*
%TO.C,D1*%
X194561904Y-51452380D02*
X194561904Y-50452380D01*
X194800000Y-50452380D01*
X194942857Y-50500000D01*
X195038095Y-50595238D01*
X195085714Y-50690476D01*
X195133333Y-50880952D01*
X195133333Y-51023809D01*
X195085714Y-51214285D01*
X195038095Y-51309523D01*
X194942857Y-51404761D01*
X194800000Y-51452380D01*
X194561904Y-51452380D01*
X196085714Y-51452380D02*
X195514285Y-51452380D01*
X195800000Y-51452380D02*
X195800000Y-50452380D01*
X195704761Y-50595238D01*
X195609523Y-50690476D01*
X195514285Y-50738095D01*
D10*
%TO.C,U2*%
X146028285Y-53877321D02*
X146028285Y-54877321D01*
X146028285Y-54020178D02*
X146099714Y-53948750D01*
X146242571Y-53877321D01*
X146456857Y-53877321D01*
X146599714Y-53948750D01*
X146671142Y-54091607D01*
X146671142Y-54877321D01*
X147385428Y-54877321D02*
X147385428Y-53877321D01*
X147385428Y-53377321D02*
X147314000Y-53448750D01*
X147385428Y-53520178D01*
X147456857Y-53448750D01*
X147385428Y-53377321D01*
X147385428Y-53520178D01*
X148742571Y-54805892D02*
X148599714Y-54877321D01*
X148314000Y-54877321D01*
X148171142Y-54805892D01*
X148099714Y-54734464D01*
X148028285Y-54591607D01*
X148028285Y-54163035D01*
X148099714Y-54020178D01*
X148171142Y-53948750D01*
X148314000Y-53877321D01*
X148599714Y-53877321D01*
X148742571Y-53948750D01*
X149956857Y-54805892D02*
X149814000Y-54877321D01*
X149528285Y-54877321D01*
X149385428Y-54805892D01*
X149314000Y-54663035D01*
X149314000Y-54091607D01*
X149385428Y-53948750D01*
X149528285Y-53877321D01*
X149814000Y-53877321D01*
X149956857Y-53948750D01*
X150028285Y-54091607D01*
X150028285Y-54234464D01*
X149314000Y-54377321D01*
X150671142Y-54734464D02*
X150742571Y-54805892D01*
X150671142Y-54877321D01*
X150599714Y-54805892D01*
X150671142Y-54734464D01*
X150671142Y-54877321D01*
X150671142Y-54305892D02*
X150599714Y-53448750D01*
X150671142Y-53377321D01*
X150742571Y-53448750D01*
X150671142Y-54305892D01*
X150671142Y-53377321D01*
X151385428Y-53877321D02*
X151385428Y-54877321D01*
X151385428Y-54020178D02*
X151456857Y-53948750D01*
X151599714Y-53877321D01*
X151814000Y-53877321D01*
X151956857Y-53948750D01*
X152028285Y-54091607D01*
X152028285Y-54877321D01*
X153385428Y-54877321D02*
X153385428Y-54091607D01*
X153314000Y-53948750D01*
X153171142Y-53877321D01*
X152885428Y-53877321D01*
X152742571Y-53948750D01*
X153385428Y-54805892D02*
X153242571Y-54877321D01*
X152885428Y-54877321D01*
X152742571Y-54805892D01*
X152671142Y-54663035D01*
X152671142Y-54520178D01*
X152742571Y-54377321D01*
X152885428Y-54305892D01*
X153242571Y-54305892D01*
X153385428Y-54234464D01*
X154099714Y-53877321D02*
X154099714Y-54877321D01*
X154099714Y-54020178D02*
X154171142Y-53948750D01*
X154314000Y-53877321D01*
X154528285Y-53877321D01*
X154671142Y-53948750D01*
X154742571Y-54091607D01*
X154742571Y-54877321D01*
X155671142Y-54877321D02*
X155528285Y-54805892D01*
X155456857Y-54734464D01*
X155385428Y-54591607D01*
X155385428Y-54163035D01*
X155456857Y-54020178D01*
X155528285Y-53948750D01*
X155671142Y-53877321D01*
X155885428Y-53877321D01*
X156028285Y-53948750D01*
X156099714Y-54020178D01*
X156171142Y-54163035D01*
X156171142Y-54591607D01*
X156099714Y-54734464D01*
X156028285Y-54805892D01*
X155885428Y-54877321D01*
X155671142Y-54877321D01*
D11*
X155547191Y-51728654D02*
X155623381Y-51728654D01*
X155699571Y-51766750D01*
X155737667Y-51804845D01*
X155775762Y-51881035D01*
X155813857Y-52033416D01*
X155813857Y-52223892D01*
X155775762Y-52376273D01*
X155737667Y-52452464D01*
X155699571Y-52490559D01*
X155623381Y-52528654D01*
X155547191Y-52528654D01*
X155471000Y-52490559D01*
X155432905Y-52452464D01*
X155394810Y-52376273D01*
X155356714Y-52223892D01*
X155356714Y-52033416D01*
X155394810Y-51881035D01*
X155432905Y-51804845D01*
X155471000Y-51766750D01*
X155547191Y-51728654D01*
X156575762Y-52528654D02*
X156118619Y-52528654D01*
X156347191Y-52528654D02*
X156347191Y-51728654D01*
X156271000Y-51842940D01*
X156194810Y-51919130D01*
X156118619Y-51957226D01*
X157071000Y-51728654D02*
X157147191Y-51728654D01*
X157223381Y-51766750D01*
X157261476Y-51804845D01*
X157299571Y-51881035D01*
X157337667Y-52033416D01*
X157337667Y-52223892D01*
X157299571Y-52376273D01*
X157261476Y-52452464D01*
X157223381Y-52490559D01*
X157147191Y-52528654D01*
X157071000Y-52528654D01*
X156994810Y-52490559D01*
X156956714Y-52452464D01*
X156918619Y-52376273D01*
X156880524Y-52223892D01*
X156880524Y-52033416D01*
X156918619Y-51881035D01*
X156956714Y-51804845D01*
X156994810Y-51766750D01*
X157071000Y-51728654D01*
X155813857Y-44908654D02*
X155356714Y-44908654D01*
X155585286Y-44908654D02*
X155585286Y-44108654D01*
X155509095Y-44222940D01*
X155432905Y-44299130D01*
X155356714Y-44337226D01*
X156575762Y-44908654D02*
X156118619Y-44908654D01*
X156347191Y-44908654D02*
X156347191Y-44108654D01*
X156271000Y-44222940D01*
X156194810Y-44299130D01*
X156118619Y-44337226D01*
X157299571Y-44108654D02*
X156918619Y-44108654D01*
X156880524Y-44489607D01*
X156918619Y-44451511D01*
X156994810Y-44413416D01*
X157185286Y-44413416D01*
X157261476Y-44451511D01*
X157299571Y-44489607D01*
X157337667Y-44565797D01*
X157337667Y-44756273D01*
X157299571Y-44832464D01*
X157261476Y-44870559D01*
X157185286Y-44908654D01*
X156994810Y-44908654D01*
X156918619Y-44870559D01*
X156880524Y-44832464D01*
X155547191Y-41568654D02*
X155623381Y-41568654D01*
X155699571Y-41606750D01*
X155737667Y-41644845D01*
X155775762Y-41721035D01*
X155813857Y-41873416D01*
X155813857Y-42063892D01*
X155775762Y-42216273D01*
X155737667Y-42292464D01*
X155699571Y-42330559D01*
X155623381Y-42368654D01*
X155547191Y-42368654D01*
X155471000Y-42330559D01*
X155432905Y-42292464D01*
X155394810Y-42216273D01*
X155356714Y-42063892D01*
X155356714Y-41873416D01*
X155394810Y-41721035D01*
X155432905Y-41644845D01*
X155471000Y-41606750D01*
X155547191Y-41568654D01*
X156309095Y-41568654D02*
X156385286Y-41568654D01*
X156461476Y-41606750D01*
X156499571Y-41644845D01*
X156537667Y-41721035D01*
X156575762Y-41873416D01*
X156575762Y-42063892D01*
X156537667Y-42216273D01*
X156499571Y-42292464D01*
X156461476Y-42330559D01*
X156385286Y-42368654D01*
X156309095Y-42368654D01*
X156232905Y-42330559D01*
X156194810Y-42292464D01*
X156156714Y-42216273D01*
X156118619Y-42063892D01*
X156118619Y-41873416D01*
X156156714Y-41721035D01*
X156194810Y-41644845D01*
X156232905Y-41606750D01*
X156309095Y-41568654D01*
X156880524Y-41644845D02*
X156918619Y-41606750D01*
X156994810Y-41568654D01*
X157185286Y-41568654D01*
X157261476Y-41606750D01*
X157299571Y-41644845D01*
X157337667Y-41721035D01*
X157337667Y-41797226D01*
X157299571Y-41911511D01*
X156842429Y-42368654D01*
X157337667Y-42368654D01*
X155547191Y-39028654D02*
X155623381Y-39028654D01*
X155699571Y-39066750D01*
X155737667Y-39104845D01*
X155775762Y-39181035D01*
X155813857Y-39333416D01*
X155813857Y-39523892D01*
X155775762Y-39676273D01*
X155737667Y-39752464D01*
X155699571Y-39790559D01*
X155623381Y-39828654D01*
X155547191Y-39828654D01*
X155471000Y-39790559D01*
X155432905Y-39752464D01*
X155394810Y-39676273D01*
X155356714Y-39523892D01*
X155356714Y-39333416D01*
X155394810Y-39181035D01*
X155432905Y-39104845D01*
X155471000Y-39066750D01*
X155547191Y-39028654D01*
X156118619Y-39104845D02*
X156156714Y-39066750D01*
X156232905Y-39028654D01*
X156423381Y-39028654D01*
X156499571Y-39066750D01*
X156537667Y-39104845D01*
X156575762Y-39181035D01*
X156575762Y-39257226D01*
X156537667Y-39371511D01*
X156080524Y-39828654D01*
X156575762Y-39828654D01*
X156956714Y-39828654D02*
X157109095Y-39828654D01*
X157185286Y-39790559D01*
X157223381Y-39752464D01*
X157299571Y-39638178D01*
X157337667Y-39485797D01*
X157337667Y-39181035D01*
X157299571Y-39104845D01*
X157261476Y-39066750D01*
X157185286Y-39028654D01*
X157032905Y-39028654D01*
X156956714Y-39066750D01*
X156918619Y-39104845D01*
X156880524Y-39181035D01*
X156880524Y-39371511D01*
X156918619Y-39447702D01*
X156956714Y-39485797D01*
X157032905Y-39523892D01*
X157185286Y-39523892D01*
X157261476Y-39485797D01*
X157299571Y-39447702D01*
X157337667Y-39371511D01*
X155731334Y-27128654D02*
X155464667Y-26747702D01*
X155274191Y-27128654D02*
X155274191Y-26328654D01*
X155578953Y-26328654D01*
X155655143Y-26366750D01*
X155693238Y-26404845D01*
X155731334Y-26481035D01*
X155731334Y-26595321D01*
X155693238Y-26671511D01*
X155655143Y-26709607D01*
X155578953Y-26747702D01*
X155274191Y-26747702D01*
X156036095Y-26900083D02*
X156417048Y-26900083D01*
X155959905Y-27128654D02*
X156226572Y-26328654D01*
X156493238Y-27128654D01*
X156683715Y-26328654D02*
X156874191Y-27128654D01*
X157026572Y-26557226D01*
X157178953Y-27128654D01*
X157369429Y-26328654D01*
X155655143Y-28906750D02*
X155578952Y-28868654D01*
X155464667Y-28868654D01*
X155350381Y-28906750D01*
X155274190Y-28982940D01*
X155236095Y-29059130D01*
X155198000Y-29211511D01*
X155198000Y-29325797D01*
X155236095Y-29478178D01*
X155274190Y-29554369D01*
X155350381Y-29630559D01*
X155464667Y-29668654D01*
X155540857Y-29668654D01*
X155655143Y-29630559D01*
X155693238Y-29592464D01*
X155693238Y-29325797D01*
X155540857Y-29325797D01*
X156036095Y-29668654D02*
X156036095Y-28868654D01*
X156493238Y-29668654D01*
X156493238Y-28868654D01*
X156874190Y-29668654D02*
X156874190Y-28868654D01*
X157064667Y-28868654D01*
X157178952Y-28906750D01*
X157255143Y-28982940D01*
X157293238Y-29059130D01*
X157331333Y-29211511D01*
X157331333Y-29325797D01*
X157293238Y-29478178D01*
X157255143Y-29554369D01*
X157178952Y-29630559D01*
X157064667Y-29668654D01*
X156874190Y-29668654D01*
X155959904Y-32208654D02*
X155693238Y-31827702D01*
X155502761Y-32208654D02*
X155502761Y-31408654D01*
X155807523Y-31408654D01*
X155883714Y-31446750D01*
X155921809Y-31484845D01*
X155959904Y-31561035D01*
X155959904Y-31675321D01*
X155921809Y-31751511D01*
X155883714Y-31789607D01*
X155807523Y-31827702D01*
X155502761Y-31827702D01*
X156264666Y-32170559D02*
X156378952Y-32208654D01*
X156569428Y-32208654D01*
X156645619Y-32170559D01*
X156683714Y-32132464D01*
X156721809Y-32056273D01*
X156721809Y-31980083D01*
X156683714Y-31903892D01*
X156645619Y-31865797D01*
X156569428Y-31827702D01*
X156417047Y-31789607D01*
X156340857Y-31751511D01*
X156302761Y-31713416D01*
X156264666Y-31637226D01*
X156264666Y-31561035D01*
X156302761Y-31484845D01*
X156340857Y-31446750D01*
X156417047Y-31408654D01*
X156607523Y-31408654D01*
X156721809Y-31446750D01*
X156950380Y-31408654D02*
X157407523Y-31408654D01*
X157178952Y-32208654D02*
X157178952Y-31408654D01*
X155280524Y-33948654D02*
X155547191Y-34748654D01*
X155813857Y-33948654D01*
X156537667Y-34672464D02*
X156499571Y-34710559D01*
X156385286Y-34748654D01*
X156309095Y-34748654D01*
X156194810Y-34710559D01*
X156118619Y-34634369D01*
X156080524Y-34558178D01*
X156042429Y-34405797D01*
X156042429Y-34291511D01*
X156080524Y-34139130D01*
X156118619Y-34062940D01*
X156194810Y-33986750D01*
X156309095Y-33948654D01*
X156385286Y-33948654D01*
X156499571Y-33986750D01*
X156537667Y-34024845D01*
X157337667Y-34672464D02*
X157299571Y-34710559D01*
X157185286Y-34748654D01*
X157109095Y-34748654D01*
X156994810Y-34710559D01*
X156918619Y-34634369D01*
X156880524Y-34558178D01*
X156842429Y-34405797D01*
X156842429Y-34291511D01*
X156880524Y-34139130D01*
X156918619Y-34062940D01*
X156994810Y-33986750D01*
X157109095Y-33948654D01*
X157185286Y-33948654D01*
X157299571Y-33986750D01*
X157337667Y-34024845D01*
X155547191Y-36488654D02*
X155623381Y-36488654D01*
X155699571Y-36526750D01*
X155737667Y-36564845D01*
X155775762Y-36641035D01*
X155813857Y-36793416D01*
X155813857Y-36983892D01*
X155775762Y-37136273D01*
X155737667Y-37212464D01*
X155699571Y-37250559D01*
X155623381Y-37288654D01*
X155547191Y-37288654D01*
X155471000Y-37250559D01*
X155432905Y-37212464D01*
X155394810Y-37136273D01*
X155356714Y-36983892D01*
X155356714Y-36793416D01*
X155394810Y-36641035D01*
X155432905Y-36564845D01*
X155471000Y-36526750D01*
X155547191Y-36488654D01*
X156080524Y-36488654D02*
X156575762Y-36488654D01*
X156309095Y-36793416D01*
X156423381Y-36793416D01*
X156499571Y-36831511D01*
X156537667Y-36869607D01*
X156575762Y-36945797D01*
X156575762Y-37136273D01*
X156537667Y-37212464D01*
X156499571Y-37250559D01*
X156423381Y-37288654D01*
X156194810Y-37288654D01*
X156118619Y-37250559D01*
X156080524Y-37212464D01*
X157337667Y-37288654D02*
X156880524Y-37288654D01*
X157109095Y-37288654D02*
X157109095Y-36488654D01*
X157032905Y-36602940D01*
X156956714Y-36679130D01*
X156880524Y-36717226D01*
X155813857Y-47448654D02*
X155356714Y-47448654D01*
X155585286Y-47448654D02*
X155585286Y-46648654D01*
X155509095Y-46762940D01*
X155432905Y-46839130D01*
X155356714Y-46877226D01*
X156575762Y-47448654D02*
X156118619Y-47448654D01*
X156347191Y-47448654D02*
X156347191Y-46648654D01*
X156271000Y-46762940D01*
X156194810Y-46839130D01*
X156118619Y-46877226D01*
X156842429Y-46648654D02*
X157337667Y-46648654D01*
X157071000Y-46953416D01*
X157185286Y-46953416D01*
X157261476Y-46991511D01*
X157299571Y-47029607D01*
X157337667Y-47105797D01*
X157337667Y-47296273D01*
X157299571Y-47372464D01*
X157261476Y-47410559D01*
X157185286Y-47448654D01*
X156956714Y-47448654D01*
X156880524Y-47410559D01*
X156842429Y-47372464D01*
X155813857Y-49988654D02*
X155356714Y-49988654D01*
X155585286Y-49988654D02*
X155585286Y-49188654D01*
X155509095Y-49302940D01*
X155432905Y-49379130D01*
X155356714Y-49417226D01*
X156575762Y-49988654D02*
X156118619Y-49988654D01*
X156347191Y-49988654D02*
X156347191Y-49188654D01*
X156271000Y-49302940D01*
X156194810Y-49379130D01*
X156118619Y-49417226D01*
X157337667Y-49988654D02*
X156880524Y-49988654D01*
X157109095Y-49988654D02*
X157109095Y-49188654D01*
X157032905Y-49302940D01*
X156956714Y-49379130D01*
X156880524Y-49417226D01*
X144739476Y-52528654D02*
X144282333Y-52528654D01*
X144510905Y-52528654D02*
X144510905Y-51728654D01*
X144434714Y-51842940D01*
X144358524Y-51919130D01*
X144282333Y-51957226D01*
X145234714Y-51728654D02*
X145310905Y-51728654D01*
X145387095Y-51766750D01*
X145425190Y-51804845D01*
X145463286Y-51881035D01*
X145501381Y-52033416D01*
X145501381Y-52223892D01*
X145463286Y-52376273D01*
X145425190Y-52452464D01*
X145387095Y-52490559D01*
X145310905Y-52528654D01*
X145234714Y-52528654D01*
X145158524Y-52490559D01*
X145120429Y-52452464D01*
X145082333Y-52376273D01*
X145044238Y-52223892D01*
X145044238Y-52033416D01*
X145082333Y-51881035D01*
X145120429Y-51804845D01*
X145158524Y-51766750D01*
X145234714Y-51728654D01*
X146187095Y-51995321D02*
X146187095Y-52528654D01*
X145996619Y-51690559D02*
X145806143Y-52261988D01*
X146301381Y-52261988D01*
X144739476Y-47448654D02*
X144282333Y-47448654D01*
X144510905Y-47448654D02*
X144510905Y-46648654D01*
X144434714Y-46762940D01*
X144358524Y-46839130D01*
X144282333Y-46877226D01*
X145234714Y-46648654D02*
X145310905Y-46648654D01*
X145387095Y-46686750D01*
X145425190Y-46724845D01*
X145463286Y-46801035D01*
X145501381Y-46953416D01*
X145501381Y-47143892D01*
X145463286Y-47296273D01*
X145425190Y-47372464D01*
X145387095Y-47410559D01*
X145310905Y-47448654D01*
X145234714Y-47448654D01*
X145158524Y-47410559D01*
X145120429Y-47372464D01*
X145082333Y-47296273D01*
X145044238Y-47143892D01*
X145044238Y-46953416D01*
X145082333Y-46801035D01*
X145120429Y-46724845D01*
X145158524Y-46686750D01*
X145234714Y-46648654D01*
X145996619Y-46648654D02*
X146072810Y-46648654D01*
X146149000Y-46686750D01*
X146187095Y-46724845D01*
X146225190Y-46801035D01*
X146263286Y-46953416D01*
X146263286Y-47143892D01*
X146225190Y-47296273D01*
X146187095Y-47372464D01*
X146149000Y-47410559D01*
X146072810Y-47448654D01*
X145996619Y-47448654D01*
X145920429Y-47410559D01*
X145882333Y-47372464D01*
X145844238Y-47296273D01*
X145806143Y-47143892D01*
X145806143Y-46953416D01*
X145844238Y-46801035D01*
X145882333Y-46724845D01*
X145920429Y-46686750D01*
X145996619Y-46648654D01*
X144472810Y-44108654D02*
X144549000Y-44108654D01*
X144625190Y-44146750D01*
X144663286Y-44184845D01*
X144701381Y-44261035D01*
X144739476Y-44413416D01*
X144739476Y-44603892D01*
X144701381Y-44756273D01*
X144663286Y-44832464D01*
X144625190Y-44870559D01*
X144549000Y-44908654D01*
X144472810Y-44908654D01*
X144396619Y-44870559D01*
X144358524Y-44832464D01*
X144320429Y-44756273D01*
X144282333Y-44603892D01*
X144282333Y-44413416D01*
X144320429Y-44261035D01*
X144358524Y-44184845D01*
X144396619Y-44146750D01*
X144472810Y-44108654D01*
X145044238Y-44184845D02*
X145082333Y-44146750D01*
X145158524Y-44108654D01*
X145349000Y-44108654D01*
X145425190Y-44146750D01*
X145463286Y-44184845D01*
X145501381Y-44261035D01*
X145501381Y-44337226D01*
X145463286Y-44451511D01*
X145006143Y-44908654D01*
X145501381Y-44908654D01*
X146187095Y-44375321D02*
X146187095Y-44908654D01*
X145996619Y-44070559D02*
X145806143Y-44641988D01*
X146301381Y-44641988D01*
X144472810Y-41598654D02*
X144549000Y-41598654D01*
X144625190Y-41636750D01*
X144663286Y-41674845D01*
X144701381Y-41751035D01*
X144739476Y-41903416D01*
X144739476Y-42093892D01*
X144701381Y-42246273D01*
X144663286Y-42322464D01*
X144625190Y-42360559D01*
X144549000Y-42398654D01*
X144472810Y-42398654D01*
X144396619Y-42360559D01*
X144358524Y-42322464D01*
X144320429Y-42246273D01*
X144282333Y-42093892D01*
X144282333Y-41903416D01*
X144320429Y-41751035D01*
X144358524Y-41674845D01*
X144396619Y-41636750D01*
X144472810Y-41598654D01*
X145044238Y-41674845D02*
X145082333Y-41636750D01*
X145158524Y-41598654D01*
X145349000Y-41598654D01*
X145425190Y-41636750D01*
X145463286Y-41674845D01*
X145501381Y-41751035D01*
X145501381Y-41827226D01*
X145463286Y-41941511D01*
X145006143Y-42398654D01*
X145501381Y-42398654D01*
X145806143Y-41674845D02*
X145844238Y-41636750D01*
X145920429Y-41598654D01*
X146110905Y-41598654D01*
X146187095Y-41636750D01*
X146225190Y-41674845D01*
X146263286Y-41751035D01*
X146263286Y-41827226D01*
X146225190Y-41941511D01*
X145768048Y-42398654D01*
X146263286Y-42398654D01*
X144739476Y-31446750D02*
X144663285Y-31408654D01*
X144549000Y-31408654D01*
X144434714Y-31446750D01*
X144358523Y-31522940D01*
X144320428Y-31599130D01*
X144282333Y-31751511D01*
X144282333Y-31865797D01*
X144320428Y-32018178D01*
X144358523Y-32094369D01*
X144434714Y-32170559D01*
X144549000Y-32208654D01*
X144625190Y-32208654D01*
X144739476Y-32170559D01*
X144777571Y-32132464D01*
X144777571Y-31865797D01*
X144625190Y-31865797D01*
X145120428Y-32208654D02*
X145120428Y-31408654D01*
X145577571Y-32208654D01*
X145577571Y-31408654D01*
X145958523Y-32208654D02*
X145958523Y-31408654D01*
X146149000Y-31408654D01*
X146263285Y-31446750D01*
X146339476Y-31522940D01*
X146377571Y-31599130D01*
X146415666Y-31751511D01*
X146415666Y-31865797D01*
X146377571Y-32018178D01*
X146339476Y-32094369D01*
X146263285Y-32170559D01*
X146149000Y-32208654D01*
X145958523Y-32208654D01*
X144739476Y-33986750D02*
X144663285Y-33948654D01*
X144549000Y-33948654D01*
X144434714Y-33986750D01*
X144358523Y-34062940D01*
X144320428Y-34139130D01*
X144282333Y-34291511D01*
X144282333Y-34405797D01*
X144320428Y-34558178D01*
X144358523Y-34634369D01*
X144434714Y-34710559D01*
X144549000Y-34748654D01*
X144625190Y-34748654D01*
X144739476Y-34710559D01*
X144777571Y-34672464D01*
X144777571Y-34405797D01*
X144625190Y-34405797D01*
X145120428Y-34748654D02*
X145120428Y-33948654D01*
X145577571Y-34748654D01*
X145577571Y-33948654D01*
X145958523Y-34748654D02*
X145958523Y-33948654D01*
X146149000Y-33948654D01*
X146263285Y-33986750D01*
X146339476Y-34062940D01*
X146377571Y-34139130D01*
X146415666Y-34291511D01*
X146415666Y-34405797D01*
X146377571Y-34558178D01*
X146339476Y-34634369D01*
X146263285Y-34710559D01*
X146149000Y-34748654D01*
X145958523Y-34748654D01*
X144472810Y-36498654D02*
X144549000Y-36498654D01*
X144625190Y-36536750D01*
X144663286Y-36574845D01*
X144701381Y-36651035D01*
X144739476Y-36803416D01*
X144739476Y-36993892D01*
X144701381Y-37146273D01*
X144663286Y-37222464D01*
X144625190Y-37260559D01*
X144549000Y-37298654D01*
X144472810Y-37298654D01*
X144396619Y-37260559D01*
X144358524Y-37222464D01*
X144320429Y-37146273D01*
X144282333Y-36993892D01*
X144282333Y-36803416D01*
X144320429Y-36651035D01*
X144358524Y-36574845D01*
X144396619Y-36536750D01*
X144472810Y-36498654D01*
X145501381Y-37298654D02*
X145044238Y-37298654D01*
X145272810Y-37298654D02*
X145272810Y-36498654D01*
X145196619Y-36612940D01*
X145120429Y-36689130D01*
X145044238Y-36727226D01*
X145768048Y-36498654D02*
X146301381Y-36498654D01*
X145958524Y-37298654D01*
X144472810Y-39098654D02*
X144549000Y-39098654D01*
X144625190Y-39136750D01*
X144663286Y-39174845D01*
X144701381Y-39251035D01*
X144739476Y-39403416D01*
X144739476Y-39593892D01*
X144701381Y-39746273D01*
X144663286Y-39822464D01*
X144625190Y-39860559D01*
X144549000Y-39898654D01*
X144472810Y-39898654D01*
X144396619Y-39860559D01*
X144358524Y-39822464D01*
X144320429Y-39746273D01*
X144282333Y-39593892D01*
X144282333Y-39403416D01*
X144320429Y-39251035D01*
X144358524Y-39174845D01*
X144396619Y-39136750D01*
X144472810Y-39098654D01*
X145044238Y-39174845D02*
X145082333Y-39136750D01*
X145158524Y-39098654D01*
X145349000Y-39098654D01*
X145425190Y-39136750D01*
X145463286Y-39174845D01*
X145501381Y-39251035D01*
X145501381Y-39327226D01*
X145463286Y-39441511D01*
X145006143Y-39898654D01*
X145501381Y-39898654D01*
X145996619Y-39098654D02*
X146072810Y-39098654D01*
X146149000Y-39136750D01*
X146187095Y-39174845D01*
X146225190Y-39251035D01*
X146263286Y-39403416D01*
X146263286Y-39593892D01*
X146225190Y-39746273D01*
X146187095Y-39822464D01*
X146149000Y-39860559D01*
X146072810Y-39898654D01*
X145996619Y-39898654D01*
X145920429Y-39860559D01*
X145882333Y-39822464D01*
X145844238Y-39746273D01*
X145806143Y-39593892D01*
X145806143Y-39403416D01*
X145844238Y-39251035D01*
X145882333Y-39174845D01*
X145920429Y-39136750D01*
X145996619Y-39098654D01*
X144472810Y-28798654D02*
X144549000Y-28798654D01*
X144625190Y-28836750D01*
X144663286Y-28874845D01*
X144701381Y-28951035D01*
X144739476Y-29103416D01*
X144739476Y-29293892D01*
X144701381Y-29446273D01*
X144663286Y-29522464D01*
X144625190Y-29560559D01*
X144549000Y-29598654D01*
X144472810Y-29598654D01*
X144396619Y-29560559D01*
X144358524Y-29522464D01*
X144320429Y-29446273D01*
X144282333Y-29293892D01*
X144282333Y-29103416D01*
X144320429Y-28951035D01*
X144358524Y-28874845D01*
X144396619Y-28836750D01*
X144472810Y-28798654D01*
X145234714Y-28798654D02*
X145310905Y-28798654D01*
X145387095Y-28836750D01*
X145425190Y-28874845D01*
X145463286Y-28951035D01*
X145501381Y-29103416D01*
X145501381Y-29293892D01*
X145463286Y-29446273D01*
X145425190Y-29522464D01*
X145387095Y-29560559D01*
X145310905Y-29598654D01*
X145234714Y-29598654D01*
X145158524Y-29560559D01*
X145120429Y-29522464D01*
X145082333Y-29446273D01*
X145044238Y-29293892D01*
X145044238Y-29103416D01*
X145082333Y-28951035D01*
X145120429Y-28874845D01*
X145158524Y-28836750D01*
X145234714Y-28798654D01*
X145958524Y-29141511D02*
X145882333Y-29103416D01*
X145844238Y-29065321D01*
X145806143Y-28989130D01*
X145806143Y-28951035D01*
X145844238Y-28874845D01*
X145882333Y-28836750D01*
X145958524Y-28798654D01*
X146110905Y-28798654D01*
X146187095Y-28836750D01*
X146225190Y-28874845D01*
X146263286Y-28951035D01*
X146263286Y-28989130D01*
X146225190Y-29065321D01*
X146187095Y-29103416D01*
X146110905Y-29141511D01*
X145958524Y-29141511D01*
X145882333Y-29179607D01*
X145844238Y-29217702D01*
X145806143Y-29293892D01*
X145806143Y-29446273D01*
X145844238Y-29522464D01*
X145882333Y-29560559D01*
X145958524Y-29598654D01*
X146110905Y-29598654D01*
X146187095Y-29560559D01*
X146225190Y-29522464D01*
X146263286Y-29446273D01*
X146263286Y-29293892D01*
X146225190Y-29217702D01*
X146187095Y-29179607D01*
X146110905Y-29141511D01*
X144472810Y-26328654D02*
X144549000Y-26328654D01*
X144625190Y-26366750D01*
X144663286Y-26404845D01*
X144701381Y-26481035D01*
X144739476Y-26633416D01*
X144739476Y-26823892D01*
X144701381Y-26976273D01*
X144663286Y-27052464D01*
X144625190Y-27090559D01*
X144549000Y-27128654D01*
X144472810Y-27128654D01*
X144396619Y-27090559D01*
X144358524Y-27052464D01*
X144320429Y-26976273D01*
X144282333Y-26823892D01*
X144282333Y-26633416D01*
X144320429Y-26481035D01*
X144358524Y-26404845D01*
X144396619Y-26366750D01*
X144472810Y-26328654D01*
X145234714Y-26328654D02*
X145310905Y-26328654D01*
X145387095Y-26366750D01*
X145425190Y-26404845D01*
X145463286Y-26481035D01*
X145501381Y-26633416D01*
X145501381Y-26823892D01*
X145463286Y-26976273D01*
X145425190Y-27052464D01*
X145387095Y-27090559D01*
X145310905Y-27128654D01*
X145234714Y-27128654D01*
X145158524Y-27090559D01*
X145120429Y-27052464D01*
X145082333Y-26976273D01*
X145044238Y-26823892D01*
X145044238Y-26633416D01*
X145082333Y-26481035D01*
X145120429Y-26404845D01*
X145158524Y-26366750D01*
X145234714Y-26328654D01*
X146187095Y-26328654D02*
X146034714Y-26328654D01*
X145958524Y-26366750D01*
X145920429Y-26404845D01*
X145844238Y-26519130D01*
X145806143Y-26671511D01*
X145806143Y-26976273D01*
X145844238Y-27052464D01*
X145882333Y-27090559D01*
X145958524Y-27128654D01*
X146110905Y-27128654D01*
X146187095Y-27090559D01*
X146225190Y-27052464D01*
X146263286Y-26976273D01*
X146263286Y-26785797D01*
X146225190Y-26709607D01*
X146187095Y-26671511D01*
X146110905Y-26633416D01*
X145958524Y-26633416D01*
X145882333Y-26671511D01*
X145844238Y-26709607D01*
X145806143Y-26785797D01*
%TO.C,U1*%
X168442810Y-26332357D02*
X168519000Y-26332357D01*
X168595190Y-26370453D01*
X168633286Y-26408548D01*
X168671381Y-26484738D01*
X168709476Y-26637119D01*
X168709476Y-26827595D01*
X168671381Y-26979976D01*
X168633286Y-27056167D01*
X168595190Y-27094262D01*
X168519000Y-27132357D01*
X168442810Y-27132357D01*
X168366619Y-27094262D01*
X168328524Y-27056167D01*
X168290429Y-26979976D01*
X168252333Y-26827595D01*
X168252333Y-26637119D01*
X168290429Y-26484738D01*
X168328524Y-26408548D01*
X168366619Y-26370453D01*
X168442810Y-26332357D01*
X169204714Y-26332357D02*
X169280905Y-26332357D01*
X169357095Y-26370453D01*
X169395190Y-26408548D01*
X169433286Y-26484738D01*
X169471381Y-26637119D01*
X169471381Y-26827595D01*
X169433286Y-26979976D01*
X169395190Y-27056167D01*
X169357095Y-27094262D01*
X169280905Y-27132357D01*
X169204714Y-27132357D01*
X169128524Y-27094262D01*
X169090429Y-27056167D01*
X169052333Y-26979976D01*
X169014238Y-26827595D01*
X169014238Y-26637119D01*
X169052333Y-26484738D01*
X169090429Y-26408548D01*
X169128524Y-26370453D01*
X169204714Y-26332357D01*
X170157095Y-26332357D02*
X170004714Y-26332357D01*
X169928524Y-26370453D01*
X169890429Y-26408548D01*
X169814238Y-26522833D01*
X169776143Y-26675214D01*
X169776143Y-26979976D01*
X169814238Y-27056167D01*
X169852333Y-27094262D01*
X169928524Y-27132357D01*
X170080905Y-27132357D01*
X170157095Y-27094262D01*
X170195190Y-27056167D01*
X170233286Y-26979976D01*
X170233286Y-26789500D01*
X170195190Y-26713310D01*
X170157095Y-26675214D01*
X170080905Y-26637119D01*
X169928524Y-26637119D01*
X169852333Y-26675214D01*
X169814238Y-26713310D01*
X169776143Y-26789500D01*
X168442810Y-28802357D02*
X168519000Y-28802357D01*
X168595190Y-28840453D01*
X168633286Y-28878548D01*
X168671381Y-28954738D01*
X168709476Y-29107119D01*
X168709476Y-29297595D01*
X168671381Y-29449976D01*
X168633286Y-29526167D01*
X168595190Y-29564262D01*
X168519000Y-29602357D01*
X168442810Y-29602357D01*
X168366619Y-29564262D01*
X168328524Y-29526167D01*
X168290429Y-29449976D01*
X168252333Y-29297595D01*
X168252333Y-29107119D01*
X168290429Y-28954738D01*
X168328524Y-28878548D01*
X168366619Y-28840453D01*
X168442810Y-28802357D01*
X169204714Y-28802357D02*
X169280905Y-28802357D01*
X169357095Y-28840453D01*
X169395190Y-28878548D01*
X169433286Y-28954738D01*
X169471381Y-29107119D01*
X169471381Y-29297595D01*
X169433286Y-29449976D01*
X169395190Y-29526167D01*
X169357095Y-29564262D01*
X169280905Y-29602357D01*
X169204714Y-29602357D01*
X169128524Y-29564262D01*
X169090429Y-29526167D01*
X169052333Y-29449976D01*
X169014238Y-29297595D01*
X169014238Y-29107119D01*
X169052333Y-28954738D01*
X169090429Y-28878548D01*
X169128524Y-28840453D01*
X169204714Y-28802357D01*
X169928524Y-29145214D02*
X169852333Y-29107119D01*
X169814238Y-29069024D01*
X169776143Y-28992833D01*
X169776143Y-28954738D01*
X169814238Y-28878548D01*
X169852333Y-28840453D01*
X169928524Y-28802357D01*
X170080905Y-28802357D01*
X170157095Y-28840453D01*
X170195190Y-28878548D01*
X170233286Y-28954738D01*
X170233286Y-28992833D01*
X170195190Y-29069024D01*
X170157095Y-29107119D01*
X170080905Y-29145214D01*
X169928524Y-29145214D01*
X169852333Y-29183310D01*
X169814238Y-29221405D01*
X169776143Y-29297595D01*
X169776143Y-29449976D01*
X169814238Y-29526167D01*
X169852333Y-29564262D01*
X169928524Y-29602357D01*
X170080905Y-29602357D01*
X170157095Y-29564262D01*
X170195190Y-29526167D01*
X170233286Y-29449976D01*
X170233286Y-29297595D01*
X170195190Y-29221405D01*
X170157095Y-29183310D01*
X170080905Y-29145214D01*
X168442810Y-39102357D02*
X168519000Y-39102357D01*
X168595190Y-39140453D01*
X168633286Y-39178548D01*
X168671381Y-39254738D01*
X168709476Y-39407119D01*
X168709476Y-39597595D01*
X168671381Y-39749976D01*
X168633286Y-39826167D01*
X168595190Y-39864262D01*
X168519000Y-39902357D01*
X168442810Y-39902357D01*
X168366619Y-39864262D01*
X168328524Y-39826167D01*
X168290429Y-39749976D01*
X168252333Y-39597595D01*
X168252333Y-39407119D01*
X168290429Y-39254738D01*
X168328524Y-39178548D01*
X168366619Y-39140453D01*
X168442810Y-39102357D01*
X169014238Y-39178548D02*
X169052333Y-39140453D01*
X169128524Y-39102357D01*
X169319000Y-39102357D01*
X169395190Y-39140453D01*
X169433286Y-39178548D01*
X169471381Y-39254738D01*
X169471381Y-39330929D01*
X169433286Y-39445214D01*
X168976143Y-39902357D01*
X169471381Y-39902357D01*
X169966619Y-39102357D02*
X170042810Y-39102357D01*
X170119000Y-39140453D01*
X170157095Y-39178548D01*
X170195190Y-39254738D01*
X170233286Y-39407119D01*
X170233286Y-39597595D01*
X170195190Y-39749976D01*
X170157095Y-39826167D01*
X170119000Y-39864262D01*
X170042810Y-39902357D01*
X169966619Y-39902357D01*
X169890429Y-39864262D01*
X169852333Y-39826167D01*
X169814238Y-39749976D01*
X169776143Y-39597595D01*
X169776143Y-39407119D01*
X169814238Y-39254738D01*
X169852333Y-39178548D01*
X169890429Y-39140453D01*
X169966619Y-39102357D01*
X168442810Y-36502357D02*
X168519000Y-36502357D01*
X168595190Y-36540453D01*
X168633286Y-36578548D01*
X168671381Y-36654738D01*
X168709476Y-36807119D01*
X168709476Y-36997595D01*
X168671381Y-37149976D01*
X168633286Y-37226167D01*
X168595190Y-37264262D01*
X168519000Y-37302357D01*
X168442810Y-37302357D01*
X168366619Y-37264262D01*
X168328524Y-37226167D01*
X168290429Y-37149976D01*
X168252333Y-36997595D01*
X168252333Y-36807119D01*
X168290429Y-36654738D01*
X168328524Y-36578548D01*
X168366619Y-36540453D01*
X168442810Y-36502357D01*
X169471381Y-37302357D02*
X169014238Y-37302357D01*
X169242810Y-37302357D02*
X169242810Y-36502357D01*
X169166619Y-36616643D01*
X169090429Y-36692833D01*
X169014238Y-36730929D01*
X169738048Y-36502357D02*
X170271381Y-36502357D01*
X169928524Y-37302357D01*
X168709476Y-33990453D02*
X168633285Y-33952357D01*
X168519000Y-33952357D01*
X168404714Y-33990453D01*
X168328523Y-34066643D01*
X168290428Y-34142833D01*
X168252333Y-34295214D01*
X168252333Y-34409500D01*
X168290428Y-34561881D01*
X168328523Y-34638072D01*
X168404714Y-34714262D01*
X168519000Y-34752357D01*
X168595190Y-34752357D01*
X168709476Y-34714262D01*
X168747571Y-34676167D01*
X168747571Y-34409500D01*
X168595190Y-34409500D01*
X169090428Y-34752357D02*
X169090428Y-33952357D01*
X169547571Y-34752357D01*
X169547571Y-33952357D01*
X169928523Y-34752357D02*
X169928523Y-33952357D01*
X170119000Y-33952357D01*
X170233285Y-33990453D01*
X170309476Y-34066643D01*
X170347571Y-34142833D01*
X170385666Y-34295214D01*
X170385666Y-34409500D01*
X170347571Y-34561881D01*
X170309476Y-34638072D01*
X170233285Y-34714262D01*
X170119000Y-34752357D01*
X169928523Y-34752357D01*
X168709476Y-31450453D02*
X168633285Y-31412357D01*
X168519000Y-31412357D01*
X168404714Y-31450453D01*
X168328523Y-31526643D01*
X168290428Y-31602833D01*
X168252333Y-31755214D01*
X168252333Y-31869500D01*
X168290428Y-32021881D01*
X168328523Y-32098072D01*
X168404714Y-32174262D01*
X168519000Y-32212357D01*
X168595190Y-32212357D01*
X168709476Y-32174262D01*
X168747571Y-32136167D01*
X168747571Y-31869500D01*
X168595190Y-31869500D01*
X169090428Y-32212357D02*
X169090428Y-31412357D01*
X169547571Y-32212357D01*
X169547571Y-31412357D01*
X169928523Y-32212357D02*
X169928523Y-31412357D01*
X170119000Y-31412357D01*
X170233285Y-31450453D01*
X170309476Y-31526643D01*
X170347571Y-31602833D01*
X170385666Y-31755214D01*
X170385666Y-31869500D01*
X170347571Y-32021881D01*
X170309476Y-32098072D01*
X170233285Y-32174262D01*
X170119000Y-32212357D01*
X169928523Y-32212357D01*
X168442810Y-41602357D02*
X168519000Y-41602357D01*
X168595190Y-41640453D01*
X168633286Y-41678548D01*
X168671381Y-41754738D01*
X168709476Y-41907119D01*
X168709476Y-42097595D01*
X168671381Y-42249976D01*
X168633286Y-42326167D01*
X168595190Y-42364262D01*
X168519000Y-42402357D01*
X168442810Y-42402357D01*
X168366619Y-42364262D01*
X168328524Y-42326167D01*
X168290429Y-42249976D01*
X168252333Y-42097595D01*
X168252333Y-41907119D01*
X168290429Y-41754738D01*
X168328524Y-41678548D01*
X168366619Y-41640453D01*
X168442810Y-41602357D01*
X169014238Y-41678548D02*
X169052333Y-41640453D01*
X169128524Y-41602357D01*
X169319000Y-41602357D01*
X169395190Y-41640453D01*
X169433286Y-41678548D01*
X169471381Y-41754738D01*
X169471381Y-41830929D01*
X169433286Y-41945214D01*
X168976143Y-42402357D01*
X169471381Y-42402357D01*
X169776143Y-41678548D02*
X169814238Y-41640453D01*
X169890429Y-41602357D01*
X170080905Y-41602357D01*
X170157095Y-41640453D01*
X170195190Y-41678548D01*
X170233286Y-41754738D01*
X170233286Y-41830929D01*
X170195190Y-41945214D01*
X169738048Y-42402357D01*
X170233286Y-42402357D01*
X168442810Y-44112357D02*
X168519000Y-44112357D01*
X168595190Y-44150453D01*
X168633286Y-44188548D01*
X168671381Y-44264738D01*
X168709476Y-44417119D01*
X168709476Y-44607595D01*
X168671381Y-44759976D01*
X168633286Y-44836167D01*
X168595190Y-44874262D01*
X168519000Y-44912357D01*
X168442810Y-44912357D01*
X168366619Y-44874262D01*
X168328524Y-44836167D01*
X168290429Y-44759976D01*
X168252333Y-44607595D01*
X168252333Y-44417119D01*
X168290429Y-44264738D01*
X168328524Y-44188548D01*
X168366619Y-44150453D01*
X168442810Y-44112357D01*
X169014238Y-44188548D02*
X169052333Y-44150453D01*
X169128524Y-44112357D01*
X169319000Y-44112357D01*
X169395190Y-44150453D01*
X169433286Y-44188548D01*
X169471381Y-44264738D01*
X169471381Y-44340929D01*
X169433286Y-44455214D01*
X168976143Y-44912357D01*
X169471381Y-44912357D01*
X170157095Y-44379024D02*
X170157095Y-44912357D01*
X169966619Y-44074262D02*
X169776143Y-44645691D01*
X170271381Y-44645691D01*
X168709476Y-47452357D02*
X168252333Y-47452357D01*
X168480905Y-47452357D02*
X168480905Y-46652357D01*
X168404714Y-46766643D01*
X168328524Y-46842833D01*
X168252333Y-46880929D01*
X169204714Y-46652357D02*
X169280905Y-46652357D01*
X169357095Y-46690453D01*
X169395190Y-46728548D01*
X169433286Y-46804738D01*
X169471381Y-46957119D01*
X169471381Y-47147595D01*
X169433286Y-47299976D01*
X169395190Y-47376167D01*
X169357095Y-47414262D01*
X169280905Y-47452357D01*
X169204714Y-47452357D01*
X169128524Y-47414262D01*
X169090429Y-47376167D01*
X169052333Y-47299976D01*
X169014238Y-47147595D01*
X169014238Y-46957119D01*
X169052333Y-46804738D01*
X169090429Y-46728548D01*
X169128524Y-46690453D01*
X169204714Y-46652357D01*
X169966619Y-46652357D02*
X170042810Y-46652357D01*
X170119000Y-46690453D01*
X170157095Y-46728548D01*
X170195190Y-46804738D01*
X170233286Y-46957119D01*
X170233286Y-47147595D01*
X170195190Y-47299976D01*
X170157095Y-47376167D01*
X170119000Y-47414262D01*
X170042810Y-47452357D01*
X169966619Y-47452357D01*
X169890429Y-47414262D01*
X169852333Y-47376167D01*
X169814238Y-47299976D01*
X169776143Y-47147595D01*
X169776143Y-46957119D01*
X169814238Y-46804738D01*
X169852333Y-46728548D01*
X169890429Y-46690453D01*
X169966619Y-46652357D01*
X168709476Y-52532357D02*
X168252333Y-52532357D01*
X168480905Y-52532357D02*
X168480905Y-51732357D01*
X168404714Y-51846643D01*
X168328524Y-51922833D01*
X168252333Y-51960929D01*
X169204714Y-51732357D02*
X169280905Y-51732357D01*
X169357095Y-51770453D01*
X169395190Y-51808548D01*
X169433286Y-51884738D01*
X169471381Y-52037119D01*
X169471381Y-52227595D01*
X169433286Y-52379976D01*
X169395190Y-52456167D01*
X169357095Y-52494262D01*
X169280905Y-52532357D01*
X169204714Y-52532357D01*
X169128524Y-52494262D01*
X169090429Y-52456167D01*
X169052333Y-52379976D01*
X169014238Y-52227595D01*
X169014238Y-52037119D01*
X169052333Y-51884738D01*
X169090429Y-51808548D01*
X169128524Y-51770453D01*
X169204714Y-51732357D01*
X170157095Y-51999024D02*
X170157095Y-52532357D01*
X169966619Y-51694262D02*
X169776143Y-52265691D01*
X170271381Y-52265691D01*
X179783857Y-49992357D02*
X179326714Y-49992357D01*
X179555286Y-49992357D02*
X179555286Y-49192357D01*
X179479095Y-49306643D01*
X179402905Y-49382833D01*
X179326714Y-49420929D01*
X180545762Y-49992357D02*
X180088619Y-49992357D01*
X180317191Y-49992357D02*
X180317191Y-49192357D01*
X180241000Y-49306643D01*
X180164810Y-49382833D01*
X180088619Y-49420929D01*
X181307667Y-49992357D02*
X180850524Y-49992357D01*
X181079095Y-49992357D02*
X181079095Y-49192357D01*
X181002905Y-49306643D01*
X180926714Y-49382833D01*
X180850524Y-49420929D01*
X179783857Y-47452357D02*
X179326714Y-47452357D01*
X179555286Y-47452357D02*
X179555286Y-46652357D01*
X179479095Y-46766643D01*
X179402905Y-46842833D01*
X179326714Y-46880929D01*
X180545762Y-47452357D02*
X180088619Y-47452357D01*
X180317191Y-47452357D02*
X180317191Y-46652357D01*
X180241000Y-46766643D01*
X180164810Y-46842833D01*
X180088619Y-46880929D01*
X180812429Y-46652357D02*
X181307667Y-46652357D01*
X181041000Y-46957119D01*
X181155286Y-46957119D01*
X181231476Y-46995214D01*
X181269571Y-47033310D01*
X181307667Y-47109500D01*
X181307667Y-47299976D01*
X181269571Y-47376167D01*
X181231476Y-47414262D01*
X181155286Y-47452357D01*
X180926714Y-47452357D01*
X180850524Y-47414262D01*
X180812429Y-47376167D01*
X179517191Y-36492357D02*
X179593381Y-36492357D01*
X179669571Y-36530453D01*
X179707667Y-36568548D01*
X179745762Y-36644738D01*
X179783857Y-36797119D01*
X179783857Y-36987595D01*
X179745762Y-37139976D01*
X179707667Y-37216167D01*
X179669571Y-37254262D01*
X179593381Y-37292357D01*
X179517191Y-37292357D01*
X179441000Y-37254262D01*
X179402905Y-37216167D01*
X179364810Y-37139976D01*
X179326714Y-36987595D01*
X179326714Y-36797119D01*
X179364810Y-36644738D01*
X179402905Y-36568548D01*
X179441000Y-36530453D01*
X179517191Y-36492357D01*
X180050524Y-36492357D02*
X180545762Y-36492357D01*
X180279095Y-36797119D01*
X180393381Y-36797119D01*
X180469571Y-36835214D01*
X180507667Y-36873310D01*
X180545762Y-36949500D01*
X180545762Y-37139976D01*
X180507667Y-37216167D01*
X180469571Y-37254262D01*
X180393381Y-37292357D01*
X180164810Y-37292357D01*
X180088619Y-37254262D01*
X180050524Y-37216167D01*
X181307667Y-37292357D02*
X180850524Y-37292357D01*
X181079095Y-37292357D02*
X181079095Y-36492357D01*
X181002905Y-36606643D01*
X180926714Y-36682833D01*
X180850524Y-36720929D01*
X179250524Y-33952357D02*
X179517191Y-34752357D01*
X179783857Y-33952357D01*
X180507667Y-34676167D02*
X180469571Y-34714262D01*
X180355286Y-34752357D01*
X180279095Y-34752357D01*
X180164810Y-34714262D01*
X180088619Y-34638072D01*
X180050524Y-34561881D01*
X180012429Y-34409500D01*
X180012429Y-34295214D01*
X180050524Y-34142833D01*
X180088619Y-34066643D01*
X180164810Y-33990453D01*
X180279095Y-33952357D01*
X180355286Y-33952357D01*
X180469571Y-33990453D01*
X180507667Y-34028548D01*
X181307667Y-34676167D02*
X181269571Y-34714262D01*
X181155286Y-34752357D01*
X181079095Y-34752357D01*
X180964810Y-34714262D01*
X180888619Y-34638072D01*
X180850524Y-34561881D01*
X180812429Y-34409500D01*
X180812429Y-34295214D01*
X180850524Y-34142833D01*
X180888619Y-34066643D01*
X180964810Y-33990453D01*
X181079095Y-33952357D01*
X181155286Y-33952357D01*
X181269571Y-33990453D01*
X181307667Y-34028548D01*
X179929904Y-32212357D02*
X179663238Y-31831405D01*
X179472761Y-32212357D02*
X179472761Y-31412357D01*
X179777523Y-31412357D01*
X179853714Y-31450453D01*
X179891809Y-31488548D01*
X179929904Y-31564738D01*
X179929904Y-31679024D01*
X179891809Y-31755214D01*
X179853714Y-31793310D01*
X179777523Y-31831405D01*
X179472761Y-31831405D01*
X180234666Y-32174262D02*
X180348952Y-32212357D01*
X180539428Y-32212357D01*
X180615619Y-32174262D01*
X180653714Y-32136167D01*
X180691809Y-32059976D01*
X180691809Y-31983786D01*
X180653714Y-31907595D01*
X180615619Y-31869500D01*
X180539428Y-31831405D01*
X180387047Y-31793310D01*
X180310857Y-31755214D01*
X180272761Y-31717119D01*
X180234666Y-31640929D01*
X180234666Y-31564738D01*
X180272761Y-31488548D01*
X180310857Y-31450453D01*
X180387047Y-31412357D01*
X180577523Y-31412357D01*
X180691809Y-31450453D01*
X180920380Y-31412357D02*
X181377523Y-31412357D01*
X181148952Y-32212357D02*
X181148952Y-31412357D01*
X179625143Y-28910453D02*
X179548952Y-28872357D01*
X179434667Y-28872357D01*
X179320381Y-28910453D01*
X179244190Y-28986643D01*
X179206095Y-29062833D01*
X179168000Y-29215214D01*
X179168000Y-29329500D01*
X179206095Y-29481881D01*
X179244190Y-29558072D01*
X179320381Y-29634262D01*
X179434667Y-29672357D01*
X179510857Y-29672357D01*
X179625143Y-29634262D01*
X179663238Y-29596167D01*
X179663238Y-29329500D01*
X179510857Y-29329500D01*
X180006095Y-29672357D02*
X180006095Y-28872357D01*
X180463238Y-29672357D01*
X180463238Y-28872357D01*
X180844190Y-29672357D02*
X180844190Y-28872357D01*
X181034667Y-28872357D01*
X181148952Y-28910453D01*
X181225143Y-28986643D01*
X181263238Y-29062833D01*
X181301333Y-29215214D01*
X181301333Y-29329500D01*
X181263238Y-29481881D01*
X181225143Y-29558072D01*
X181148952Y-29634262D01*
X181034667Y-29672357D01*
X180844190Y-29672357D01*
X179701334Y-27132357D02*
X179434667Y-26751405D01*
X179244191Y-27132357D02*
X179244191Y-26332357D01*
X179548953Y-26332357D01*
X179625143Y-26370453D01*
X179663238Y-26408548D01*
X179701334Y-26484738D01*
X179701334Y-26599024D01*
X179663238Y-26675214D01*
X179625143Y-26713310D01*
X179548953Y-26751405D01*
X179244191Y-26751405D01*
X180006095Y-26903786D02*
X180387048Y-26903786D01*
X179929905Y-27132357D02*
X180196572Y-26332357D01*
X180463238Y-27132357D01*
X180653715Y-26332357D02*
X180844191Y-27132357D01*
X180996572Y-26560929D01*
X181148953Y-27132357D01*
X181339429Y-26332357D01*
X179517191Y-39032357D02*
X179593381Y-39032357D01*
X179669571Y-39070453D01*
X179707667Y-39108548D01*
X179745762Y-39184738D01*
X179783857Y-39337119D01*
X179783857Y-39527595D01*
X179745762Y-39679976D01*
X179707667Y-39756167D01*
X179669571Y-39794262D01*
X179593381Y-39832357D01*
X179517191Y-39832357D01*
X179441000Y-39794262D01*
X179402905Y-39756167D01*
X179364810Y-39679976D01*
X179326714Y-39527595D01*
X179326714Y-39337119D01*
X179364810Y-39184738D01*
X179402905Y-39108548D01*
X179441000Y-39070453D01*
X179517191Y-39032357D01*
X180088619Y-39108548D02*
X180126714Y-39070453D01*
X180202905Y-39032357D01*
X180393381Y-39032357D01*
X180469571Y-39070453D01*
X180507667Y-39108548D01*
X180545762Y-39184738D01*
X180545762Y-39260929D01*
X180507667Y-39375214D01*
X180050524Y-39832357D01*
X180545762Y-39832357D01*
X180926714Y-39832357D02*
X181079095Y-39832357D01*
X181155286Y-39794262D01*
X181193381Y-39756167D01*
X181269571Y-39641881D01*
X181307667Y-39489500D01*
X181307667Y-39184738D01*
X181269571Y-39108548D01*
X181231476Y-39070453D01*
X181155286Y-39032357D01*
X181002905Y-39032357D01*
X180926714Y-39070453D01*
X180888619Y-39108548D01*
X180850524Y-39184738D01*
X180850524Y-39375214D01*
X180888619Y-39451405D01*
X180926714Y-39489500D01*
X181002905Y-39527595D01*
X181155286Y-39527595D01*
X181231476Y-39489500D01*
X181269571Y-39451405D01*
X181307667Y-39375214D01*
X179517191Y-41572357D02*
X179593381Y-41572357D01*
X179669571Y-41610453D01*
X179707667Y-41648548D01*
X179745762Y-41724738D01*
X179783857Y-41877119D01*
X179783857Y-42067595D01*
X179745762Y-42219976D01*
X179707667Y-42296167D01*
X179669571Y-42334262D01*
X179593381Y-42372357D01*
X179517191Y-42372357D01*
X179441000Y-42334262D01*
X179402905Y-42296167D01*
X179364810Y-42219976D01*
X179326714Y-42067595D01*
X179326714Y-41877119D01*
X179364810Y-41724738D01*
X179402905Y-41648548D01*
X179441000Y-41610453D01*
X179517191Y-41572357D01*
X180279095Y-41572357D02*
X180355286Y-41572357D01*
X180431476Y-41610453D01*
X180469571Y-41648548D01*
X180507667Y-41724738D01*
X180545762Y-41877119D01*
X180545762Y-42067595D01*
X180507667Y-42219976D01*
X180469571Y-42296167D01*
X180431476Y-42334262D01*
X180355286Y-42372357D01*
X180279095Y-42372357D01*
X180202905Y-42334262D01*
X180164810Y-42296167D01*
X180126714Y-42219976D01*
X180088619Y-42067595D01*
X180088619Y-41877119D01*
X180126714Y-41724738D01*
X180164810Y-41648548D01*
X180202905Y-41610453D01*
X180279095Y-41572357D01*
X180850524Y-41648548D02*
X180888619Y-41610453D01*
X180964810Y-41572357D01*
X181155286Y-41572357D01*
X181231476Y-41610453D01*
X181269571Y-41648548D01*
X181307667Y-41724738D01*
X181307667Y-41800929D01*
X181269571Y-41915214D01*
X180812429Y-42372357D01*
X181307667Y-42372357D01*
X179783857Y-44912357D02*
X179326714Y-44912357D01*
X179555286Y-44912357D02*
X179555286Y-44112357D01*
X179479095Y-44226643D01*
X179402905Y-44302833D01*
X179326714Y-44340929D01*
X180545762Y-44912357D02*
X180088619Y-44912357D01*
X180317191Y-44912357D02*
X180317191Y-44112357D01*
X180241000Y-44226643D01*
X180164810Y-44302833D01*
X180088619Y-44340929D01*
X181269571Y-44112357D02*
X180888619Y-44112357D01*
X180850524Y-44493310D01*
X180888619Y-44455214D01*
X180964810Y-44417119D01*
X181155286Y-44417119D01*
X181231476Y-44455214D01*
X181269571Y-44493310D01*
X181307667Y-44569500D01*
X181307667Y-44759976D01*
X181269571Y-44836167D01*
X181231476Y-44874262D01*
X181155286Y-44912357D01*
X180964810Y-44912357D01*
X180888619Y-44874262D01*
X180850524Y-44836167D01*
X179517191Y-51732357D02*
X179593381Y-51732357D01*
X179669571Y-51770453D01*
X179707667Y-51808548D01*
X179745762Y-51884738D01*
X179783857Y-52037119D01*
X179783857Y-52227595D01*
X179745762Y-52379976D01*
X179707667Y-52456167D01*
X179669571Y-52494262D01*
X179593381Y-52532357D01*
X179517191Y-52532357D01*
X179441000Y-52494262D01*
X179402905Y-52456167D01*
X179364810Y-52379976D01*
X179326714Y-52227595D01*
X179326714Y-52037119D01*
X179364810Y-51884738D01*
X179402905Y-51808548D01*
X179441000Y-51770453D01*
X179517191Y-51732357D01*
X180545762Y-52532357D02*
X180088619Y-52532357D01*
X180317191Y-52532357D02*
X180317191Y-51732357D01*
X180241000Y-51846643D01*
X180164810Y-51922833D01*
X180088619Y-51960929D01*
X181041000Y-51732357D02*
X181117191Y-51732357D01*
X181193381Y-51770453D01*
X181231476Y-51808548D01*
X181269571Y-51884738D01*
X181307667Y-52037119D01*
X181307667Y-52227595D01*
X181269571Y-52379976D01*
X181231476Y-52456167D01*
X181193381Y-52494262D01*
X181117191Y-52532357D01*
X181041000Y-52532357D01*
X180964810Y-52494262D01*
X180926714Y-52456167D01*
X180888619Y-52379976D01*
X180850524Y-52227595D01*
X180850524Y-52037119D01*
X180888619Y-51884738D01*
X180926714Y-51808548D01*
X180964810Y-51770453D01*
X181041000Y-51732357D01*
D10*
X169998285Y-53881024D02*
X169998285Y-54881024D01*
X169998285Y-54023881D02*
X170069714Y-53952453D01*
X170212571Y-53881024D01*
X170426857Y-53881024D01*
X170569714Y-53952453D01*
X170641142Y-54095310D01*
X170641142Y-54881024D01*
X171355428Y-54881024D02*
X171355428Y-53881024D01*
X171355428Y-53381024D02*
X171284000Y-53452453D01*
X171355428Y-53523881D01*
X171426857Y-53452453D01*
X171355428Y-53381024D01*
X171355428Y-53523881D01*
X172712571Y-54809595D02*
X172569714Y-54881024D01*
X172284000Y-54881024D01*
X172141142Y-54809595D01*
X172069714Y-54738167D01*
X171998285Y-54595310D01*
X171998285Y-54166738D01*
X172069714Y-54023881D01*
X172141142Y-53952453D01*
X172284000Y-53881024D01*
X172569714Y-53881024D01*
X172712571Y-53952453D01*
X173926857Y-54809595D02*
X173784000Y-54881024D01*
X173498285Y-54881024D01*
X173355428Y-54809595D01*
X173284000Y-54666738D01*
X173284000Y-54095310D01*
X173355428Y-53952453D01*
X173498285Y-53881024D01*
X173784000Y-53881024D01*
X173926857Y-53952453D01*
X173998285Y-54095310D01*
X173998285Y-54238167D01*
X173284000Y-54381024D01*
X174641142Y-54738167D02*
X174712571Y-54809595D01*
X174641142Y-54881024D01*
X174569714Y-54809595D01*
X174641142Y-54738167D01*
X174641142Y-54881024D01*
X174641142Y-54309595D02*
X174569714Y-53452453D01*
X174641142Y-53381024D01*
X174712571Y-53452453D01*
X174641142Y-54309595D01*
X174641142Y-53381024D01*
X175355428Y-53881024D02*
X175355428Y-54881024D01*
X175355428Y-54023881D02*
X175426857Y-53952453D01*
X175569714Y-53881024D01*
X175784000Y-53881024D01*
X175926857Y-53952453D01*
X175998285Y-54095310D01*
X175998285Y-54881024D01*
X177355428Y-54881024D02*
X177355428Y-54095310D01*
X177284000Y-53952453D01*
X177141142Y-53881024D01*
X176855428Y-53881024D01*
X176712571Y-53952453D01*
X177355428Y-54809595D02*
X177212571Y-54881024D01*
X176855428Y-54881024D01*
X176712571Y-54809595D01*
X176641142Y-54666738D01*
X176641142Y-54523881D01*
X176712571Y-54381024D01*
X176855428Y-54309595D01*
X177212571Y-54309595D01*
X177355428Y-54238167D01*
X178069714Y-53881024D02*
X178069714Y-54881024D01*
X178069714Y-54023881D02*
X178141142Y-53952453D01*
X178284000Y-53881024D01*
X178498285Y-53881024D01*
X178641142Y-53952453D01*
X178712571Y-54095310D01*
X178712571Y-54881024D01*
X179641142Y-54881024D02*
X179498285Y-54809595D01*
X179426857Y-54738167D01*
X179355428Y-54595310D01*
X179355428Y-54166738D01*
X179426857Y-54023881D01*
X179498285Y-53952453D01*
X179641142Y-53881024D01*
X179855428Y-53881024D01*
X179998285Y-53952453D01*
X180069714Y-54023881D01*
X180141142Y-54166738D01*
X180141142Y-54595310D01*
X180069714Y-54738167D01*
X179998285Y-54809595D01*
X179855428Y-54881024D01*
X179641142Y-54881024D01*
D11*
%TO.C,Display2*%
X172644761Y-62789404D02*
X172692380Y-62646547D01*
X172692380Y-62408452D01*
X172644761Y-62313214D01*
X172597142Y-62265595D01*
X172501904Y-62217976D01*
X172406666Y-62217976D01*
X172311428Y-62265595D01*
X172263809Y-62313214D01*
X172216190Y-62408452D01*
X172168571Y-62598928D01*
X172120952Y-62694166D01*
X172073333Y-62741785D01*
X171978095Y-62789404D01*
X171882857Y-62789404D01*
X171787619Y-62741785D01*
X171740000Y-62694166D01*
X171692380Y-62598928D01*
X171692380Y-62360833D01*
X171740000Y-62217976D01*
X172597142Y-61217976D02*
X172644761Y-61265595D01*
X172692380Y-61408452D01*
X172692380Y-61503690D01*
X172644761Y-61646547D01*
X172549523Y-61741785D01*
X172454285Y-61789404D01*
X172263809Y-61837023D01*
X172120952Y-61837023D01*
X171930476Y-61789404D01*
X171835238Y-61741785D01*
X171740000Y-61646547D01*
X171692380Y-61503690D01*
X171692380Y-61408452D01*
X171740000Y-61265595D01*
X171787619Y-61217976D01*
X172692380Y-60789404D02*
X171692380Y-60789404D01*
X172692380Y-60217976D02*
X172120952Y-60646547D01*
X171692380Y-60217976D02*
X172263809Y-60789404D01*
X176820000Y-62313214D02*
X176772380Y-62408452D01*
X176772380Y-62551309D01*
X176820000Y-62694166D01*
X176915238Y-62789404D01*
X177010476Y-62837023D01*
X177200952Y-62884642D01*
X177343809Y-62884642D01*
X177534285Y-62837023D01*
X177629523Y-62789404D01*
X177724761Y-62694166D01*
X177772380Y-62551309D01*
X177772380Y-62456071D01*
X177724761Y-62313214D01*
X177677142Y-62265595D01*
X177343809Y-62265595D01*
X177343809Y-62456071D01*
X177772380Y-61837023D02*
X176772380Y-61837023D01*
X177772380Y-61265595D01*
X176772380Y-61265595D01*
X177772380Y-60789404D02*
X176772380Y-60789404D01*
X176772380Y-60551309D01*
X176820000Y-60408452D01*
X176915238Y-60313214D01*
X177010476Y-60265595D01*
X177200952Y-60217976D01*
X177343809Y-60217976D01*
X177534285Y-60265595D01*
X177629523Y-60313214D01*
X177724761Y-60408452D01*
X177772380Y-60551309D01*
X177772380Y-60789404D01*
X174232380Y-62789404D02*
X175232380Y-62456071D01*
X174232380Y-62122738D01*
X175137142Y-61217976D02*
X175184761Y-61265595D01*
X175232380Y-61408452D01*
X175232380Y-61503690D01*
X175184761Y-61646547D01*
X175089523Y-61741785D01*
X174994285Y-61789404D01*
X174803809Y-61837023D01*
X174660952Y-61837023D01*
X174470476Y-61789404D01*
X174375238Y-61741785D01*
X174280000Y-61646547D01*
X174232380Y-61503690D01*
X174232380Y-61408452D01*
X174280000Y-61265595D01*
X174327619Y-61217976D01*
X175137142Y-60217976D02*
X175184761Y-60265595D01*
X175232380Y-60408452D01*
X175232380Y-60503690D01*
X175184761Y-60646547D01*
X175089523Y-60741785D01*
X174994285Y-60789404D01*
X174803809Y-60837023D01*
X174660952Y-60837023D01*
X174470476Y-60789404D01*
X174375238Y-60741785D01*
X174280000Y-60646547D01*
X174232380Y-60503690D01*
X174232380Y-60408452D01*
X174280000Y-60265595D01*
X174327619Y-60217976D01*
X170152380Y-63408452D02*
X169152380Y-63408452D01*
X169866666Y-63075119D01*
X169152380Y-62741785D01*
X170152380Y-62741785D01*
X169152380Y-62075119D02*
X169152380Y-61884642D01*
X169200000Y-61789404D01*
X169295238Y-61694166D01*
X169485714Y-61646547D01*
X169819047Y-61646547D01*
X170009523Y-61694166D01*
X170104761Y-61789404D01*
X170152380Y-61884642D01*
X170152380Y-62075119D01*
X170104761Y-62170357D01*
X170009523Y-62265595D01*
X169819047Y-62313214D01*
X169485714Y-62313214D01*
X169295238Y-62265595D01*
X169200000Y-62170357D01*
X169152380Y-62075119D01*
X170104761Y-61265595D02*
X170152380Y-61122738D01*
X170152380Y-60884642D01*
X170104761Y-60789404D01*
X170057142Y-60741785D01*
X169961904Y-60694166D01*
X169866666Y-60694166D01*
X169771428Y-60741785D01*
X169723809Y-60789404D01*
X169676190Y-60884642D01*
X169628571Y-61075119D01*
X169580952Y-61170357D01*
X169533333Y-61217976D01*
X169438095Y-61265595D01*
X169342857Y-61265595D01*
X169247619Y-61217976D01*
X169200000Y-61170357D01*
X169152380Y-61075119D01*
X169152380Y-60837023D01*
X169200000Y-60694166D01*
X170152380Y-60265595D02*
X169152380Y-60265595D01*
X180217142Y-61170357D02*
X180264761Y-61217976D01*
X180312380Y-61360833D01*
X180312380Y-61456071D01*
X180264761Y-61598928D01*
X180169523Y-61694166D01*
X180074285Y-61741785D01*
X179883809Y-61789404D01*
X179740952Y-61789404D01*
X179550476Y-61741785D01*
X179455238Y-61694166D01*
X179360000Y-61598928D01*
X179312380Y-61456071D01*
X179312380Y-61360833D01*
X179360000Y-61217976D01*
X179407619Y-61170357D01*
X180264761Y-60789404D02*
X180312380Y-60646547D01*
X180312380Y-60408452D01*
X180264761Y-60313214D01*
X180217142Y-60265595D01*
X180121904Y-60217976D01*
X180026666Y-60217976D01*
X179931428Y-60265595D01*
X179883809Y-60313214D01*
X179836190Y-60408452D01*
X179788571Y-60598928D01*
X179740952Y-60694166D01*
X179693333Y-60741785D01*
X179598095Y-60789404D01*
X179502857Y-60789404D01*
X179407619Y-60741785D01*
X179360000Y-60694166D01*
X179312380Y-60598928D01*
X179312380Y-60360833D01*
X179360000Y-60217976D01*
D13*
%TO.C,Bat+2*%
X150400000Y-29133500D02*
X150400000Y-27466500D01*
X148400000Y-29133500D02*
X148400000Y-27466500D01*
X150400000Y-27466500D02*
G75*
G03*
X148400000Y-27466500I-1000000J0D01*
G01*
X148400000Y-29133500D02*
G75*
G03*
X150400000Y-29133500I1000000J0D01*
G01*
%TO.C,Display1*%
X144460000Y-57307312D02*
X157160000Y-57307312D01*
X157160000Y-57307312D02*
X157160000Y-59907312D01*
X157160000Y-59907312D02*
X144460000Y-59907312D01*
X144460000Y-59907312D02*
X144460000Y-57307312D01*
D11*
%TO.C,RSW2*%
X138880000Y-22550000D02*
X132880000Y-22550000D01*
X132880000Y-26050000D02*
X138880000Y-26050000D01*
X138880000Y-22550000D02*
X138880000Y-23250000D01*
X138880000Y-26050000D02*
X138880000Y-25450000D01*
X132880000Y-26050000D02*
X132880000Y-25450000D01*
X132880000Y-22550000D02*
X132880000Y-23250000D01*
%TO.C,D58*%
X150017460Y-69220000D02*
X148617460Y-69220000D01*
X149317460Y-69220000D02*
X150017460Y-70120000D01*
X148617460Y-70120000D02*
X149317460Y-69220000D01*
X150017460Y-70120000D02*
X148617460Y-70120000D01*
X149317460Y-66020000D02*
X149317460Y-66920000D01*
X149317460Y-72520000D02*
X149317460Y-73520000D01*
%TO.C,D57*%
X147010000Y-69220000D02*
X145610000Y-69220000D01*
X146310000Y-69220000D02*
X147010000Y-70120000D01*
X145610000Y-70120000D02*
X146310000Y-69220000D01*
X147010000Y-70120000D02*
X145610000Y-70120000D01*
X146310000Y-66020000D02*
X146310000Y-66920000D01*
X146310000Y-72520000D02*
X146310000Y-73520000D01*
%TO.C,D56*%
X144000000Y-69220000D02*
X142600000Y-69220000D01*
X143300000Y-69220000D02*
X144000000Y-70120000D01*
X142600000Y-70120000D02*
X143300000Y-69220000D01*
X144000000Y-70120000D02*
X142600000Y-70120000D01*
X143300000Y-66020000D02*
X143300000Y-66920000D01*
X143300000Y-72520000D02*
X143300000Y-73520000D01*
%TO.C,D55*%
X153017460Y-69220000D02*
X151617460Y-69220000D01*
X152317460Y-69220000D02*
X153017460Y-70120000D01*
X151617460Y-70120000D02*
X152317460Y-69220000D01*
X153017460Y-70120000D02*
X151617460Y-70120000D01*
X152317460Y-66020000D02*
X152317460Y-66920000D01*
X152317460Y-72520000D02*
X152317460Y-73520000D01*
%TO.C,D54*%
X66240000Y-109860000D02*
X66240000Y-108460000D01*
X66240000Y-109160000D02*
X65340000Y-109860000D01*
X65340000Y-108460000D02*
X66240000Y-109160000D01*
X65340000Y-109860000D02*
X65340000Y-108460000D01*
X69440000Y-109160000D02*
X68540000Y-109160000D01*
X62940000Y-109160000D02*
X61940000Y-109160000D01*
%TO.C,D53*%
X50750000Y-109860000D02*
X50750000Y-108460000D01*
X50750000Y-109160000D02*
X49850000Y-109860000D01*
X49850000Y-108460000D02*
X50750000Y-109160000D01*
X49850000Y-109860000D02*
X49850000Y-108460000D01*
X53950000Y-109160000D02*
X53050000Y-109160000D01*
X47450000Y-109160000D02*
X46450000Y-109160000D01*
%TO.C,D52*%
X155317460Y-72520000D02*
X155317460Y-73520000D01*
X155317460Y-66020000D02*
X155317460Y-66920000D01*
X156017460Y-70120000D02*
X154617460Y-70120000D01*
X154617460Y-70120000D02*
X155317460Y-69220000D01*
X155317460Y-69220000D02*
X156017460Y-70120000D01*
X156017460Y-69220000D02*
X154617460Y-69220000D01*
%TO.C,D51*%
X112220000Y-104820000D02*
X112220000Y-103420000D01*
X112220000Y-104120000D02*
X111320000Y-104820000D01*
X111320000Y-103420000D02*
X112220000Y-104120000D01*
X111320000Y-104820000D02*
X111320000Y-103420000D01*
X115420000Y-104120000D02*
X114520000Y-104120000D01*
X108920000Y-104120000D02*
X107920000Y-104120000D01*
%TO.C,D50*%
X95280000Y-104670000D02*
X95280000Y-103270000D01*
X95280000Y-103970000D02*
X94380000Y-104670000D01*
X94380000Y-103270000D02*
X95280000Y-103970000D01*
X94380000Y-104670000D02*
X94380000Y-103270000D01*
X98480000Y-103970000D02*
X97580000Y-103970000D01*
X91980000Y-103970000D02*
X90980000Y-103970000D01*
%TO.C,D49*%
X74060000Y-104780000D02*
X74060000Y-103380000D01*
X74060000Y-104080000D02*
X73160000Y-104780000D01*
X73160000Y-103380000D02*
X74060000Y-104080000D01*
X73160000Y-104780000D02*
X73160000Y-103380000D01*
X77260000Y-104080000D02*
X76360000Y-104080000D01*
X70760000Y-104080000D02*
X69760000Y-104080000D01*
%TO.C,D48*%
X131460000Y-107180000D02*
X131460000Y-105780000D01*
X131460000Y-106480000D02*
X130560000Y-107180000D01*
X130560000Y-105780000D02*
X131460000Y-106480000D01*
X130560000Y-107180000D02*
X130560000Y-105780000D01*
X134660000Y-106480000D02*
X133760000Y-106480000D01*
X128160000Y-106480000D02*
X127160000Y-106480000D01*
%TO.C,D47*%
X55620000Y-90380000D02*
X55620000Y-88980000D01*
X55620000Y-89680000D02*
X54720000Y-90380000D01*
X54720000Y-88980000D02*
X55620000Y-89680000D01*
X54720000Y-90380000D02*
X54720000Y-88980000D01*
X58820000Y-89680000D02*
X57920000Y-89680000D01*
X52320000Y-89680000D02*
X51320000Y-89680000D01*
%TO.C,D46*%
X35900000Y-92810000D02*
X35900000Y-91410000D01*
X35900000Y-92110000D02*
X35000000Y-92810000D01*
X35000000Y-91410000D02*
X35900000Y-92110000D01*
X35000000Y-92810000D02*
X35000000Y-91410000D01*
X39100000Y-92110000D02*
X38200000Y-92110000D01*
X32600000Y-92110000D02*
X31600000Y-92110000D01*
%TO.C,D45*%
X111950000Y-85700000D02*
X111950000Y-84300000D01*
X111950000Y-85000000D02*
X111050000Y-85700000D01*
X111050000Y-84300000D02*
X111950000Y-85000000D01*
X111050000Y-85700000D02*
X111050000Y-84300000D01*
X115150000Y-85000000D02*
X114250000Y-85000000D01*
X108650000Y-85000000D02*
X107650000Y-85000000D01*
%TO.C,D44*%
X92900000Y-83330000D02*
X92900000Y-81930000D01*
X92900000Y-82630000D02*
X92000000Y-83330000D01*
X92000000Y-81930000D02*
X92900000Y-82630000D01*
X92000000Y-83330000D02*
X92000000Y-81930000D01*
X96100000Y-82630000D02*
X95200000Y-82630000D01*
X89600000Y-82630000D02*
X88600000Y-82630000D01*
%TO.C,D43*%
X73860000Y-85650000D02*
X73860000Y-84250000D01*
X73860000Y-84950000D02*
X72960000Y-85650000D01*
X72960000Y-84250000D02*
X73860000Y-84950000D01*
X72960000Y-85650000D02*
X72960000Y-84250000D01*
X77060000Y-84950000D02*
X76160000Y-84950000D01*
X70560000Y-84950000D02*
X69560000Y-84950000D01*
%TO.C,D42*%
X131020000Y-87907460D02*
X131020000Y-86507460D01*
X131020000Y-87207460D02*
X130120000Y-87907460D01*
X130120000Y-86507460D02*
X131020000Y-87207460D01*
X130120000Y-87907460D02*
X130120000Y-86507460D01*
X134220000Y-87207460D02*
X133320000Y-87207460D01*
X127720000Y-87207460D02*
X126720000Y-87207460D01*
%TO.C,D41*%
X55400000Y-71480000D02*
X55400000Y-70080000D01*
X55400000Y-70780000D02*
X54500000Y-71480000D01*
X54500000Y-70080000D02*
X55400000Y-70780000D01*
X54500000Y-71480000D02*
X54500000Y-70080000D01*
X58600000Y-70780000D02*
X57700000Y-70780000D01*
X52100000Y-70780000D02*
X51100000Y-70780000D01*
%TO.C,D40*%
X36250000Y-73830000D02*
X36250000Y-72430000D01*
X36250000Y-73130000D02*
X35350000Y-73830000D01*
X35350000Y-72430000D02*
X36250000Y-73130000D01*
X35350000Y-73830000D02*
X35350000Y-72430000D01*
X39450000Y-73130000D02*
X38550000Y-73130000D01*
X32950000Y-73130000D02*
X31950000Y-73130000D01*
%TO.C,D39*%
X131180000Y-68957460D02*
X131180000Y-67557460D01*
X131180000Y-68257460D02*
X130280000Y-68957460D01*
X130280000Y-67557460D02*
X131180000Y-68257460D01*
X130280000Y-68957460D02*
X130280000Y-67557460D01*
X134380000Y-68257460D02*
X133480000Y-68257460D01*
X127880000Y-68257460D02*
X126880000Y-68257460D01*
%TO.C,D38*%
X112130000Y-66710000D02*
X112130000Y-65310000D01*
X112130000Y-66010000D02*
X111230000Y-66710000D01*
X111230000Y-65310000D02*
X112130000Y-66010000D01*
X111230000Y-66710000D02*
X111230000Y-65310000D01*
X115330000Y-66010000D02*
X114430000Y-66010000D01*
X108830000Y-66010000D02*
X107830000Y-66010000D01*
%TO.C,D37*%
X93020000Y-64220000D02*
X93020000Y-62820000D01*
X93020000Y-63520000D02*
X92120000Y-64220000D01*
X92120000Y-62820000D02*
X93020000Y-63520000D01*
X92120000Y-64220000D02*
X92120000Y-62820000D01*
X96220000Y-63520000D02*
X95320000Y-63520000D01*
X89720000Y-63520000D02*
X88720000Y-63520000D01*
%TO.C,D36*%
X73830000Y-66660000D02*
X73830000Y-65260000D01*
X73830000Y-65960000D02*
X72930000Y-66660000D01*
X72930000Y-65260000D02*
X73830000Y-65960000D01*
X72930000Y-66660000D02*
X72930000Y-65260000D01*
X77030000Y-65960000D02*
X76130000Y-65960000D01*
X70530000Y-65960000D02*
X69530000Y-65960000D01*
%TO.C,D35*%
X130710000Y-49920000D02*
X130710000Y-48520000D01*
X130710000Y-49220000D02*
X129810000Y-49920000D01*
X129810000Y-48520000D02*
X130710000Y-49220000D01*
X129810000Y-49920000D02*
X129810000Y-48520000D01*
X133910000Y-49220000D02*
X133010000Y-49220000D01*
X127410000Y-49220000D02*
X126410000Y-49220000D01*
%TO.C,D34*%
X111710000Y-47650000D02*
X111710000Y-46250000D01*
X111710000Y-46950000D02*
X110810000Y-47650000D01*
X110810000Y-46250000D02*
X111710000Y-46950000D01*
X110810000Y-47650000D02*
X110810000Y-46250000D01*
X114910000Y-46950000D02*
X114010000Y-46950000D01*
X108410000Y-46950000D02*
X107410000Y-46950000D01*
%TO.C,D33*%
X93230000Y-45250000D02*
X93230000Y-43850000D01*
X93230000Y-44550000D02*
X92330000Y-45250000D01*
X92330000Y-43850000D02*
X93230000Y-44550000D01*
X92330000Y-45250000D02*
X92330000Y-43850000D01*
X96430000Y-44550000D02*
X95530000Y-44550000D01*
X89930000Y-44550000D02*
X88930000Y-44550000D01*
%TO.C,D32*%
X73980000Y-47730000D02*
X73980000Y-46330000D01*
X73980000Y-47030000D02*
X73080000Y-47730000D01*
X73080000Y-46330000D02*
X73980000Y-47030000D01*
X73080000Y-47730000D02*
X73080000Y-46330000D01*
X77180000Y-47030000D02*
X76280000Y-47030000D01*
X70680000Y-47030000D02*
X69680000Y-47030000D01*
%TO.C,D31*%
X55540000Y-52500000D02*
X55540000Y-51100000D01*
X55540000Y-51800000D02*
X54640000Y-52500000D01*
X54640000Y-51100000D02*
X55540000Y-51800000D01*
X54640000Y-52500000D02*
X54640000Y-51100000D01*
X58740000Y-51800000D02*
X57840000Y-51800000D01*
X52240000Y-51800000D02*
X51240000Y-51800000D01*
%TO.C,D30*%
X36040000Y-54802540D02*
X36040000Y-53402540D01*
X36040000Y-54102540D02*
X35140000Y-54802540D01*
X35140000Y-53402540D02*
X36040000Y-54102540D01*
X35140000Y-54802540D02*
X35140000Y-53402540D01*
X39240000Y-54102540D02*
X38340000Y-54102540D01*
X32740000Y-54102540D02*
X31740000Y-54102540D01*
%TO.C,RSW1*%
X187500000Y-22640000D02*
X187500000Y-23340000D01*
X187500000Y-26140000D02*
X187500000Y-25540000D01*
X193500000Y-26140000D02*
X193500000Y-25540000D01*
X193500000Y-22640000D02*
X193500000Y-23340000D01*
X187500000Y-26140000D02*
X193500000Y-26140000D01*
X193500000Y-22640000D02*
X187500000Y-22640000D01*
D13*
%TO.C,BatGND2*%
X155703000Y-25220000D02*
X157370000Y-25220000D01*
X155703000Y-23220000D02*
X157370000Y-23220000D01*
X157370000Y-25220000D02*
G75*
G03*
X157370000Y-23220000I0J1000000D01*
G01*
X155703000Y-23220000D02*
G75*
G03*
X155703000Y-25220000I0J-1000000D01*
G01*
%TO.C,BatEntry2*%
X146367000Y-23200000D02*
X144700000Y-23200000D01*
X146367000Y-25200000D02*
X144700000Y-25200000D01*
X144700000Y-23200000D02*
G75*
G03*
X144700000Y-25200000I0J-1000000D01*
G01*
X146367000Y-25200000D02*
G75*
G03*
X146367000Y-23200000I0J1000000D01*
G01*
%TO.C,BatGND1*%
X179843000Y-25380000D02*
X181510000Y-25380000D01*
X179843000Y-23380000D02*
X181510000Y-23380000D01*
X181510000Y-25380000D02*
G75*
G03*
X181510000Y-23380000I0J1000000D01*
G01*
X179843000Y-23380000D02*
G75*
G03*
X179843000Y-25380000I0J-1000000D01*
G01*
%TO.C,BatEntry1*%
X170613500Y-25450000D02*
G75*
G03*
X170613500Y-23450000I0J1000000D01*
G01*
X168946500Y-23450000D02*
G75*
G03*
X168946500Y-25450000I0J-1000000D01*
G01*
X170613500Y-25450000D02*
X168946500Y-25450000D01*
X170613500Y-23450000D02*
X168946500Y-23450000D01*
%TO.C,Bat+1*%
X177350000Y-29043500D02*
X177350000Y-27376500D01*
X175350000Y-29043500D02*
X175350000Y-27376500D01*
X177350000Y-27376500D02*
G75*
G03*
X175350000Y-27376500I-1000000J0D01*
G01*
X175350000Y-29043500D02*
G75*
G03*
X177350000Y-29043500I1000000J0D01*
G01*
D11*
%TO.C,D29*%
X174200000Y-69300000D02*
X172800000Y-69300000D01*
X173500000Y-69300000D02*
X174200000Y-70200000D01*
X172800000Y-70200000D02*
X173500000Y-69300000D01*
X174200000Y-70200000D02*
X172800000Y-70200000D01*
X173500000Y-66100000D02*
X173500000Y-67000000D01*
X173500000Y-72600000D02*
X173500000Y-73600000D01*
%TO.C,D28*%
X180200000Y-69300000D02*
X178800000Y-69300000D01*
X179500000Y-69300000D02*
X180200000Y-70200000D01*
X178800000Y-70200000D02*
X179500000Y-69300000D01*
X180200000Y-70200000D02*
X178800000Y-70200000D01*
X179500000Y-66100000D02*
X179500000Y-67000000D01*
X179500000Y-72600000D02*
X179500000Y-73600000D01*
%TO.C,D27*%
X177200000Y-69300000D02*
X175800000Y-69300000D01*
X176500000Y-69300000D02*
X177200000Y-70200000D01*
X175800000Y-70200000D02*
X176500000Y-69300000D01*
X177200000Y-70200000D02*
X175800000Y-70200000D01*
X176500000Y-66100000D02*
X176500000Y-67000000D01*
X176500000Y-72600000D02*
X176500000Y-73600000D01*
%TO.C,D26*%
X183200000Y-69300000D02*
X181800000Y-69300000D01*
X182500000Y-69300000D02*
X183200000Y-70200000D01*
X181800000Y-70200000D02*
X182500000Y-69300000D01*
X183200000Y-70200000D02*
X181800000Y-70200000D01*
X182500000Y-66100000D02*
X182500000Y-67000000D01*
X182500000Y-72600000D02*
X182500000Y-73600000D01*
%TO.C,D25*%
X213700000Y-104100000D02*
X213700000Y-105500000D01*
X213700000Y-104800000D02*
X214600000Y-104100000D01*
X214600000Y-105500000D02*
X213700000Y-104800000D01*
X214600000Y-104100000D02*
X214600000Y-105500000D01*
X210500000Y-104800000D02*
X211400000Y-104800000D01*
X217000000Y-104800000D02*
X218000000Y-104800000D01*
%TO.C,D24*%
X194940000Y-105902540D02*
X194940000Y-107302540D01*
X194940000Y-106602540D02*
X195840000Y-105902540D01*
X195840000Y-107302540D02*
X194940000Y-106602540D01*
X195840000Y-105902540D02*
X195840000Y-107302540D01*
X191740000Y-106602540D02*
X192640000Y-106602540D01*
X198240000Y-106602540D02*
X199240000Y-106602540D01*
%TO.C,D23*%
X259900000Y-108600000D02*
X259900000Y-110000000D01*
X259900000Y-109300000D02*
X260800000Y-108600000D01*
X260800000Y-110000000D02*
X259900000Y-109300000D01*
X260800000Y-108600000D02*
X260800000Y-110000000D01*
X256700000Y-109300000D02*
X257600000Y-109300000D01*
X263200000Y-109300000D02*
X264200000Y-109300000D01*
%TO.C,D22*%
X251740000Y-103500000D02*
X251740000Y-104900000D01*
X251740000Y-104200000D02*
X252640000Y-103500000D01*
X252640000Y-104900000D02*
X251740000Y-104200000D01*
X252640000Y-103500000D02*
X252640000Y-104900000D01*
X248540000Y-104200000D02*
X249440000Y-104200000D01*
X255040000Y-104200000D02*
X256040000Y-104200000D01*
%TO.C,D21*%
X231130000Y-103650000D02*
X231130000Y-105050000D01*
X231130000Y-104350000D02*
X232030000Y-103650000D01*
X232030000Y-105050000D02*
X231130000Y-104350000D01*
X232030000Y-103650000D02*
X232030000Y-105050000D01*
X227930000Y-104350000D02*
X228830000Y-104350000D01*
X234430000Y-104350000D02*
X235430000Y-104350000D01*
%TO.C,D20*%
X275100000Y-108600000D02*
X275100000Y-110000000D01*
X275100000Y-109300000D02*
X276000000Y-108600000D01*
X276000000Y-110000000D02*
X275100000Y-109300000D01*
X276000000Y-108600000D02*
X276000000Y-110000000D01*
X271900000Y-109300000D02*
X272800000Y-109300000D01*
X278400000Y-109300000D02*
X279400000Y-109300000D01*
%TO.C,D19*%
X171200000Y-69300000D02*
X169800000Y-69300000D01*
X170500000Y-69300000D02*
X171200000Y-70200000D01*
X169800000Y-70200000D02*
X170500000Y-69300000D01*
X171200000Y-70200000D02*
X169800000Y-70200000D01*
X170500000Y-66100000D02*
X170500000Y-67000000D01*
X170500000Y-72600000D02*
X170500000Y-73600000D01*
%TO.C,D18*%
X213600000Y-84400000D02*
X213600000Y-85800000D01*
X213600000Y-85100000D02*
X214500000Y-84400000D01*
X214500000Y-85800000D02*
X213600000Y-85100000D01*
X214500000Y-84400000D02*
X214500000Y-85800000D01*
X210400000Y-85100000D02*
X211300000Y-85100000D01*
X216900000Y-85100000D02*
X217900000Y-85100000D01*
%TO.C,D17*%
X194000000Y-86300000D02*
X194000000Y-87700000D01*
X194000000Y-87000000D02*
X194900000Y-86300000D01*
X194900000Y-87700000D02*
X194000000Y-87000000D01*
X194900000Y-86300000D02*
X194900000Y-87700000D01*
X190800000Y-87000000D02*
X191700000Y-87000000D01*
X197300000Y-87000000D02*
X198300000Y-87000000D01*
%TO.C,D16*%
X271000000Y-89100000D02*
X271000000Y-90500000D01*
X271000000Y-89800000D02*
X271900000Y-89100000D01*
X271900000Y-90500000D02*
X271000000Y-89800000D01*
X271900000Y-89100000D02*
X271900000Y-90500000D01*
X267800000Y-89800000D02*
X268700000Y-89800000D01*
X274300000Y-89800000D02*
X275300000Y-89800000D01*
%TO.C,D15*%
X251940000Y-84402540D02*
X251940000Y-85802540D01*
X251940000Y-85102540D02*
X252840000Y-84402540D01*
X252840000Y-85802540D02*
X251940000Y-85102540D01*
X252840000Y-84402540D02*
X252840000Y-85802540D01*
X248740000Y-85102540D02*
X249640000Y-85102540D01*
X255240000Y-85102540D02*
X256240000Y-85102540D01*
%TO.C,D14*%
X232740000Y-82002540D02*
X232740000Y-83402540D01*
X232740000Y-82702540D02*
X233640000Y-82002540D01*
X233640000Y-83402540D02*
X232740000Y-82702540D01*
X233640000Y-82002540D02*
X233640000Y-83402540D01*
X229540000Y-82702540D02*
X230440000Y-82702540D01*
X236040000Y-82702540D02*
X237040000Y-82702540D01*
%TO.C,D13*%
X289800000Y-91500000D02*
X289800000Y-92900000D01*
X289800000Y-92200000D02*
X290700000Y-91500000D01*
X290700000Y-92900000D02*
X289800000Y-92200000D01*
X290700000Y-91500000D02*
X290700000Y-92900000D01*
X286600000Y-92200000D02*
X287500000Y-92200000D01*
X293100000Y-92200000D02*
X294100000Y-92200000D01*
%TO.C,D12*%
X213700000Y-65400000D02*
X213700000Y-66800000D01*
X213700000Y-66100000D02*
X214600000Y-65400000D01*
X214600000Y-66800000D02*
X213700000Y-66100000D01*
X214600000Y-65400000D02*
X214600000Y-66800000D01*
X210500000Y-66100000D02*
X211400000Y-66100000D01*
X217000000Y-66100000D02*
X218000000Y-66100000D01*
%TO.C,D11*%
X194700000Y-67700000D02*
X194700000Y-69100000D01*
X194700000Y-68400000D02*
X195600000Y-67700000D01*
X195600000Y-69100000D02*
X194700000Y-68400000D01*
X195600000Y-67700000D02*
X195600000Y-69100000D01*
X191500000Y-68400000D02*
X192400000Y-68400000D01*
X198000000Y-68400000D02*
X199000000Y-68400000D01*
%TO.C,D10*%
X270900000Y-70000000D02*
X270900000Y-71400000D01*
X270900000Y-70700000D02*
X271800000Y-70000000D01*
X271800000Y-71400000D02*
X270900000Y-70700000D01*
X271800000Y-70000000D02*
X271800000Y-71400000D01*
X267700000Y-70700000D02*
X268600000Y-70700000D01*
X274200000Y-70700000D02*
X275200000Y-70700000D01*
%TO.C,D9*%
X252000000Y-65400000D02*
X252000000Y-66800000D01*
X252000000Y-66100000D02*
X252900000Y-65400000D01*
X252900000Y-66800000D02*
X252000000Y-66100000D01*
X252900000Y-65400000D02*
X252900000Y-66800000D01*
X248800000Y-66100000D02*
X249700000Y-66100000D01*
X255300000Y-66100000D02*
X256300000Y-66100000D01*
%TO.C,D8*%
X233000000Y-63000000D02*
X233000000Y-64400000D01*
X233000000Y-63700000D02*
X233900000Y-63000000D01*
X233900000Y-64400000D02*
X233000000Y-63700000D01*
X233900000Y-63000000D02*
X233900000Y-64400000D01*
X229800000Y-63700000D02*
X230700000Y-63700000D01*
X236300000Y-63700000D02*
X237300000Y-63700000D01*
%TO.C,D7*%
X289840000Y-72502540D02*
X289840000Y-73902540D01*
X289840000Y-73202540D02*
X290740000Y-72502540D01*
X290740000Y-73902540D02*
X289840000Y-73202540D01*
X290740000Y-72502540D02*
X290740000Y-73902540D01*
X286640000Y-73202540D02*
X287540000Y-73202540D01*
X293140000Y-73202540D02*
X294140000Y-73202540D01*
%TO.C,D6*%
X214050000Y-46180000D02*
X214050000Y-47580000D01*
X214050000Y-46880000D02*
X214950000Y-46180000D01*
X214950000Y-47580000D02*
X214050000Y-46880000D01*
X214950000Y-46180000D02*
X214950000Y-47580000D01*
X210850000Y-46880000D02*
X211750000Y-46880000D01*
X217350000Y-46880000D02*
X218350000Y-46880000D01*
%TO.C,D5*%
X270900000Y-51100000D02*
X270900000Y-52500000D01*
X270900000Y-51800000D02*
X271800000Y-51100000D01*
X271800000Y-52500000D02*
X270900000Y-51800000D01*
X271800000Y-51100000D02*
X271800000Y-52500000D01*
X267700000Y-51800000D02*
X268600000Y-51800000D01*
X274200000Y-51800000D02*
X275200000Y-51800000D01*
%TO.C,D4*%
X251900000Y-46300000D02*
X251900000Y-47700000D01*
X251900000Y-47000000D02*
X252800000Y-46300000D01*
X252800000Y-47700000D02*
X251900000Y-47000000D01*
X252800000Y-46300000D02*
X252800000Y-47700000D01*
X248700000Y-47000000D02*
X249600000Y-47000000D01*
X255200000Y-47000000D02*
X256200000Y-47000000D01*
%TO.C,D3*%
X232600000Y-44000000D02*
X232600000Y-45400000D01*
X232600000Y-44700000D02*
X233500000Y-44000000D01*
X233500000Y-45400000D02*
X232600000Y-44700000D01*
X233500000Y-44000000D02*
X233500000Y-45400000D01*
X229400000Y-44700000D02*
X230300000Y-44700000D01*
X235900000Y-44700000D02*
X236900000Y-44700000D01*
%TO.C,D2*%
X290000000Y-53500000D02*
X290000000Y-54900000D01*
X290000000Y-54200000D02*
X290900000Y-53500000D01*
X290900000Y-54900000D02*
X290000000Y-54200000D01*
X290900000Y-53500000D02*
X290900000Y-54900000D01*
X286800000Y-54200000D02*
X287700000Y-54200000D01*
X293300000Y-54200000D02*
X294300000Y-54200000D01*
%TO.C,D1*%
X194800000Y-48800000D02*
X194800000Y-50200000D01*
X194800000Y-49500000D02*
X195700000Y-48800000D01*
X195700000Y-50200000D02*
X194800000Y-49500000D01*
X195700000Y-48800000D02*
X195700000Y-50200000D01*
X191600000Y-49500000D02*
X192500000Y-49500000D01*
X198100000Y-49500000D02*
X199100000Y-49500000D01*
D14*
%TO.C,U2*%
X141920000Y-22956750D02*
X141920000Y-25496750D01*
X159700000Y-22956750D02*
X141920000Y-22956750D01*
X159700000Y-25496750D02*
X159700000Y-22956750D01*
X159700000Y-55976750D02*
X159700000Y-25496750D01*
X141920000Y-55976750D02*
X159700000Y-55976750D01*
X141920000Y-25496750D02*
X141920000Y-55976750D01*
%TO.C,U1*%
X165890000Y-25500453D02*
X165890000Y-55980453D01*
X165890000Y-55980453D02*
X183670000Y-55980453D01*
X183670000Y-55980453D02*
X183670000Y-25500453D01*
X183670000Y-25500453D02*
X183670000Y-22960453D01*
X183670000Y-22960453D02*
X165890000Y-22960453D01*
X165890000Y-22960453D02*
X165890000Y-25500453D01*
D13*
%TO.C,Display2*%
X168430000Y-57330000D02*
X181130000Y-57330000D01*
X181130000Y-57330000D02*
X181130000Y-59930000D01*
X181130000Y-59930000D02*
X168430000Y-59930000D01*
X168430000Y-59930000D02*
X168430000Y-57330000D01*
%TD*%
D15*
%TO.C,U2*%
X143190000Y-26766750D03*
X143190000Y-29306750D03*
X143190000Y-31846750D03*
X143190000Y-34386750D03*
X143190000Y-36926750D03*
X143190000Y-39466750D03*
X143190000Y-42006750D03*
X143190000Y-44546750D03*
X143190000Y-47086750D03*
X143190000Y-49626750D03*
X143190000Y-52166750D03*
X158430000Y-54706750D03*
X158430000Y-52166750D03*
X158430000Y-49626750D03*
X158430000Y-47086750D03*
X158430000Y-44546750D03*
X158430000Y-42006750D03*
X158430000Y-39466750D03*
X158430000Y-36926750D03*
X158430000Y-34386750D03*
X158430000Y-31846750D03*
X158430000Y-29306750D03*
X143190000Y-54706750D03*
X158430000Y-26766750D03*
X145730000Y-49626750D03*
X148270000Y-49626750D03*
X150810000Y-49626750D03*
%TD*%
%TO.C,U1*%
X174780000Y-49630453D03*
X172240000Y-49630453D03*
X169700000Y-49630453D03*
X182400000Y-26770453D03*
X167160000Y-54710453D03*
X182400000Y-29310453D03*
X182400000Y-31850453D03*
X182400000Y-34390453D03*
X182400000Y-36930453D03*
X182400000Y-39470453D03*
X182400000Y-42010453D03*
X182400000Y-44550453D03*
X182400000Y-47090453D03*
X182400000Y-49630453D03*
X182400000Y-52170453D03*
X182400000Y-54710453D03*
X167160000Y-52170453D03*
X167160000Y-49630453D03*
X167160000Y-47090453D03*
X167160000Y-44550453D03*
X167160000Y-42010453D03*
X167160000Y-39470453D03*
X167160000Y-36930453D03*
X167160000Y-34390453D03*
X167160000Y-31850453D03*
X167160000Y-29310453D03*
X167160000Y-26770453D03*
%TD*%
%LPC*%
D16*
%TO.C,Bat+2*%
X149400000Y-27466500D03*
%TD*%
D17*
%TO.C,H2*%
X280520000Y-89110000D03*
%TD*%
%TO.C,H10*%
X240470000Y-101930000D03*
%TD*%
%TO.C,H9*%
X280430000Y-51960000D03*
%TD*%
%TO.C,H8*%
X205400000Y-46950000D03*
%TD*%
%TO.C,H7*%
X45540000Y-52020000D03*
%TD*%
%TO.C,H6*%
X144470000Y-102970000D03*
%TD*%
%TO.C,H5*%
X120840000Y-84370000D03*
%TD*%
%TO.C,H4*%
X45470000Y-89040000D03*
%TD*%
%TO.C,H3*%
X181390000Y-102950000D03*
%TD*%
%TO.C,H1*%
X120420000Y-46960000D03*
%TD*%
D15*
%TO.C,Display1*%
X155890000Y-58607312D03*
X153350000Y-58607312D03*
X150810000Y-58607312D03*
X148270000Y-58607312D03*
X145730000Y-58607312D03*
%TD*%
D18*
%TO.C,SW58*%
X117395000Y-112930000D03*
D17*
X121220000Y-115510000D03*
D19*
X116140000Y-115510000D03*
D20*
X123760000Y-110430000D03*
D19*
X126300000Y-115510000D03*
D20*
X117410000Y-112970000D03*
X116220000Y-119210000D03*
D21*
X115720000Y-115510000D03*
D20*
X121220000Y-121410000D03*
D21*
X126720000Y-115510000D03*
%TD*%
%TO.C,SW57*%
X107690000Y-113100000D03*
D20*
X102190000Y-119000000D03*
D21*
X96690000Y-113100000D03*
D20*
X97190000Y-116800000D03*
X98380000Y-110560000D03*
D19*
X107270000Y-113100000D03*
D20*
X104730000Y-108020000D03*
D19*
X97110000Y-113100000D03*
D17*
X102190000Y-113100000D03*
D18*
X98365000Y-110520000D03*
%TD*%
%TO.C,SW56*%
X144097453Y-113213154D03*
D17*
X146120000Y-117360000D03*
D19*
X141720591Y-114820000D03*
D20*
X150859705Y-114230591D03*
D19*
X150519409Y-119900000D03*
D20*
X144090443Y-113255295D03*
X139939873Y-118064294D03*
D21*
X141356860Y-114610000D03*
D20*
X143170000Y-122469550D03*
D21*
X150883140Y-120110000D03*
%TD*%
D18*
%TO.C,SW55*%
X79335000Y-110510000D03*
D17*
X83160000Y-113090000D03*
D19*
X78080000Y-113090000D03*
D20*
X85700000Y-108010000D03*
D19*
X88240000Y-113090000D03*
D20*
X79350000Y-110550000D03*
X78160000Y-116790000D03*
D21*
X77660000Y-113090000D03*
D20*
X83160000Y-118990000D03*
D21*
X88660000Y-113090000D03*
%TD*%
D18*
%TO.C,SW54*%
X50745000Y-96240000D03*
D17*
X54570000Y-98820000D03*
D19*
X49490000Y-98820000D03*
D20*
X57110000Y-93740000D03*
D19*
X59650000Y-98820000D03*
D20*
X50760000Y-96280000D03*
X49570000Y-102520000D03*
D21*
X49070000Y-98820000D03*
D20*
X54570000Y-104720000D03*
D21*
X60070000Y-98820000D03*
%TD*%
D18*
%TO.C,SW53*%
X31695000Y-98580000D03*
D17*
X35520000Y-101160000D03*
D19*
X30440000Y-101160000D03*
D20*
X38060000Y-96080000D03*
D19*
X40600000Y-101160000D03*
D20*
X31710000Y-98620000D03*
X30520000Y-104860000D03*
D21*
X30020000Y-101160000D03*
D20*
X35520000Y-107060000D03*
D21*
X41020000Y-101160000D03*
%TD*%
D18*
%TO.C,SW52*%
X146975000Y-87290000D03*
D17*
X150800000Y-89870000D03*
D19*
X145720000Y-89870000D03*
D20*
X153340000Y-84790000D03*
D19*
X155880000Y-89870000D03*
D20*
X146990000Y-87330000D03*
X145800000Y-93570000D03*
D21*
X145300000Y-89870000D03*
D20*
X150800000Y-95770000D03*
D21*
X156300000Y-89870000D03*
%TD*%
D18*
%TO.C,SW51*%
X107835000Y-91420000D03*
D17*
X111660000Y-94000000D03*
D19*
X106580000Y-94000000D03*
D20*
X114200000Y-88920000D03*
D19*
X116740000Y-94000000D03*
D20*
X107850000Y-91460000D03*
X106660000Y-97700000D03*
D21*
X106160000Y-94000000D03*
D20*
X111660000Y-99900000D03*
D21*
X117160000Y-94000000D03*
%TD*%
D18*
%TO.C,SW50*%
X88795000Y-89090000D03*
D17*
X92620000Y-91670000D03*
D19*
X87540000Y-91670000D03*
D20*
X95160000Y-86590000D03*
D19*
X97700000Y-91670000D03*
D20*
X88810000Y-89130000D03*
X87620000Y-95370000D03*
D21*
X87120000Y-91670000D03*
D20*
X92620000Y-97570000D03*
D21*
X98120000Y-91670000D03*
%TD*%
D18*
%TO.C,SW49*%
X69765000Y-91420000D03*
D17*
X73590000Y-94000000D03*
D19*
X68510000Y-94000000D03*
D20*
X76130000Y-88920000D03*
D19*
X78670000Y-94000000D03*
D20*
X69780000Y-91460000D03*
X68590000Y-97700000D03*
D21*
X68090000Y-94000000D03*
D20*
X73590000Y-99900000D03*
D21*
X79090000Y-94000000D03*
%TD*%
D18*
%TO.C,SW48*%
X126865000Y-93790000D03*
D17*
X130690000Y-96370000D03*
D19*
X125610000Y-96370000D03*
D20*
X133230000Y-91290000D03*
D19*
X135770000Y-96370000D03*
D20*
X126880000Y-93830000D03*
X125690000Y-100070000D03*
D21*
X125190000Y-96370000D03*
D20*
X130690000Y-102270000D03*
D21*
X136190000Y-96370000D03*
%TD*%
D18*
%TO.C,SW47*%
X50755000Y-77150000D03*
D17*
X54580000Y-79730000D03*
D19*
X49500000Y-79730000D03*
D20*
X57120000Y-74650000D03*
D19*
X59660000Y-79730000D03*
D20*
X50770000Y-77190000D03*
X49580000Y-83430000D03*
D21*
X49080000Y-79730000D03*
D20*
X54580000Y-85630000D03*
D21*
X60080000Y-79730000D03*
%TD*%
D18*
%TO.C,SW46*%
X31715000Y-79500000D03*
D17*
X35540000Y-82080000D03*
D19*
X30460000Y-82080000D03*
D20*
X38080000Y-77000000D03*
D19*
X40620000Y-82080000D03*
D20*
X31730000Y-79540000D03*
X30540000Y-85780000D03*
D21*
X30040000Y-82080000D03*
D20*
X35540000Y-87980000D03*
D21*
X41040000Y-82080000D03*
%TD*%
D18*
%TO.C,SW45*%
X107835000Y-72370000D03*
D17*
X111660000Y-74950000D03*
D19*
X106580000Y-74950000D03*
D20*
X114200000Y-69870000D03*
D19*
X116740000Y-74950000D03*
D20*
X107850000Y-72410000D03*
X106660000Y-78650000D03*
D21*
X106160000Y-74950000D03*
D20*
X111660000Y-80850000D03*
D21*
X117160000Y-74950000D03*
%TD*%
D18*
%TO.C,SW44*%
X88815000Y-70000000D03*
D17*
X92640000Y-72580000D03*
D19*
X87560000Y-72580000D03*
D20*
X95180000Y-67500000D03*
D19*
X97720000Y-72580000D03*
D20*
X88830000Y-70040000D03*
X87640000Y-76280000D03*
D21*
X87140000Y-72580000D03*
D20*
X92640000Y-78480000D03*
D21*
X98140000Y-72580000D03*
%TD*%
D18*
%TO.C,SW43*%
X69785000Y-72390000D03*
D17*
X73610000Y-74970000D03*
D19*
X68530000Y-74970000D03*
D20*
X76150000Y-69890000D03*
D19*
X78690000Y-74970000D03*
D20*
X69800000Y-72430000D03*
X68610000Y-78670000D03*
D21*
X68110000Y-74970000D03*
D20*
X73610000Y-80870000D03*
D21*
X79110000Y-74970000D03*
%TD*%
D18*
%TO.C,SW42*%
X126875000Y-74760000D03*
D17*
X130700000Y-77340000D03*
D19*
X125620000Y-77340000D03*
D20*
X133240000Y-72260000D03*
D19*
X135780000Y-77340000D03*
D20*
X126890000Y-74800000D03*
X125700000Y-81040000D03*
D21*
X125200000Y-77340000D03*
D20*
X130700000Y-83240000D03*
D21*
X136200000Y-77340000D03*
%TD*%
D18*
%TO.C,SW41*%
X50735000Y-58120000D03*
D17*
X54560000Y-60700000D03*
D19*
X49480000Y-60700000D03*
D20*
X57100000Y-55620000D03*
D19*
X59640000Y-60700000D03*
D20*
X50750000Y-58160000D03*
X49560000Y-64400000D03*
D21*
X49060000Y-60700000D03*
D20*
X54560000Y-66600000D03*
D21*
X60060000Y-60700000D03*
%TD*%
D18*
%TO.C,SW40*%
X31705000Y-60560000D03*
D17*
X35530000Y-63140000D03*
D19*
X30450000Y-63140000D03*
D20*
X38070000Y-58060000D03*
D19*
X40610000Y-63140000D03*
D20*
X31720000Y-60600000D03*
X30530000Y-66840000D03*
D21*
X30030000Y-63140000D03*
D20*
X35530000Y-69040000D03*
D21*
X41030000Y-63140000D03*
%TD*%
D18*
%TO.C,SW39*%
X126875000Y-55760000D03*
D17*
X130700000Y-58340000D03*
D19*
X125620000Y-58340000D03*
D20*
X133240000Y-53260000D03*
D19*
X135780000Y-58340000D03*
D20*
X126890000Y-55800000D03*
X125700000Y-62040000D03*
D21*
X125200000Y-58340000D03*
D20*
X130700000Y-64240000D03*
D21*
X136200000Y-58340000D03*
%TD*%
D18*
%TO.C,SW38*%
X107825000Y-53380000D03*
D17*
X111650000Y-55960000D03*
D19*
X106570000Y-55960000D03*
D20*
X114190000Y-50880000D03*
D19*
X116730000Y-55960000D03*
D20*
X107840000Y-53420000D03*
X106650000Y-59660000D03*
D21*
X106150000Y-55960000D03*
D20*
X111650000Y-61860000D03*
D21*
X117150000Y-55960000D03*
%TD*%
D18*
%TO.C,SW37*%
X88825000Y-51000000D03*
D17*
X92650000Y-53580000D03*
D19*
X87570000Y-53580000D03*
D20*
X95190000Y-48500000D03*
D19*
X97730000Y-53580000D03*
D20*
X88840000Y-51040000D03*
X87650000Y-57280000D03*
D21*
X87150000Y-53580000D03*
D20*
X92650000Y-59480000D03*
D21*
X98150000Y-53580000D03*
%TD*%
D18*
%TO.C,SW36*%
X69785000Y-53400000D03*
D17*
X73610000Y-55980000D03*
D19*
X68530000Y-55980000D03*
D20*
X76150000Y-50900000D03*
D19*
X78690000Y-55980000D03*
D20*
X69800000Y-53440000D03*
X68610000Y-59680000D03*
D21*
X68110000Y-55980000D03*
D20*
X73610000Y-61880000D03*
D21*
X79110000Y-55980000D03*
%TD*%
D18*
%TO.C,SW35*%
X126865000Y-36770000D03*
D17*
X130690000Y-39350000D03*
D19*
X125610000Y-39350000D03*
D20*
X133230000Y-34270000D03*
D19*
X135770000Y-39350000D03*
D20*
X126880000Y-36810000D03*
X125690000Y-43050000D03*
D21*
X125190000Y-39350000D03*
D20*
X130690000Y-45250000D03*
D21*
X136190000Y-39350000D03*
%TD*%
D18*
%TO.C,SW34*%
X107835000Y-34380000D03*
D17*
X111660000Y-36960000D03*
D19*
X106580000Y-36960000D03*
D20*
X114200000Y-31880000D03*
D19*
X116740000Y-36960000D03*
D20*
X107850000Y-34420000D03*
X106660000Y-40660000D03*
D21*
X106160000Y-36960000D03*
D20*
X111660000Y-42860000D03*
D21*
X117160000Y-36960000D03*
%TD*%
D18*
%TO.C,SW33*%
X88825000Y-31950000D03*
D17*
X92650000Y-34530000D03*
D19*
X87570000Y-34530000D03*
D20*
X95190000Y-29450000D03*
D19*
X97730000Y-34530000D03*
D20*
X88840000Y-31990000D03*
X87650000Y-38230000D03*
D21*
X87150000Y-34530000D03*
D20*
X92650000Y-40430000D03*
D21*
X98150000Y-34530000D03*
%TD*%
D18*
%TO.C,SW32*%
X69805000Y-34400000D03*
D17*
X73630000Y-36980000D03*
D19*
X68550000Y-36980000D03*
D20*
X76170000Y-31900000D03*
D19*
X78710000Y-36980000D03*
D20*
X69820000Y-34440000D03*
X68630000Y-40680000D03*
D21*
X68130000Y-36980000D03*
D20*
X73630000Y-42880000D03*
D21*
X79130000Y-36980000D03*
%TD*%
D18*
%TO.C,SW31*%
X50765000Y-39110000D03*
D17*
X54590000Y-41690000D03*
D19*
X49510000Y-41690000D03*
D20*
X57130000Y-36610000D03*
D19*
X59670000Y-41690000D03*
D20*
X50780000Y-39150000D03*
X49590000Y-45390000D03*
D21*
X49090000Y-41690000D03*
D20*
X54590000Y-47590000D03*
D21*
X60090000Y-41690000D03*
%TD*%
D18*
%TO.C,SW30*%
X31705000Y-41550000D03*
D17*
X35530000Y-44130000D03*
D19*
X30450000Y-44130000D03*
D20*
X38070000Y-39050000D03*
D19*
X40610000Y-44130000D03*
D20*
X31720000Y-41590000D03*
X30530000Y-47830000D03*
D21*
X30030000Y-44130000D03*
D20*
X35530000Y-50030000D03*
D21*
X41030000Y-44130000D03*
%TD*%
D22*
%TO.C,RSW2*%
X132630000Y-24350000D03*
X139130000Y-24350000D03*
%TD*%
D23*
%TO.C,D58*%
X149317460Y-71420000D03*
X149317460Y-68020000D03*
D24*
X149320000Y-74880000D03*
D25*
X149320000Y-64720000D03*
%TD*%
D23*
%TO.C,D57*%
X146310000Y-71420000D03*
X146310000Y-68020000D03*
D24*
X146312540Y-74880000D03*
D25*
X146312540Y-64720000D03*
%TD*%
D23*
%TO.C,D56*%
X143300000Y-71420000D03*
X143300000Y-68020000D03*
D24*
X143302540Y-74880000D03*
D25*
X143302540Y-64720000D03*
%TD*%
D23*
%TO.C,D55*%
X152317460Y-71420000D03*
X152317460Y-68020000D03*
D24*
X152320000Y-74880000D03*
D25*
X152320000Y-64720000D03*
%TD*%
D26*
%TO.C,D54*%
X64040000Y-109160000D03*
X67440000Y-109160000D03*
D24*
X60580000Y-109162540D03*
D25*
X70740000Y-109162540D03*
%TD*%
D26*
%TO.C,D53*%
X48550000Y-109160000D03*
X51950000Y-109160000D03*
D24*
X45090000Y-109162540D03*
D25*
X55250000Y-109162540D03*
%TD*%
%TO.C,D52*%
X155320000Y-64720000D03*
D24*
X155320000Y-74880000D03*
D23*
X155317460Y-68020000D03*
X155317460Y-71420000D03*
%TD*%
D26*
%TO.C,D51*%
X110020000Y-104120000D03*
X113420000Y-104120000D03*
D24*
X106560000Y-104122540D03*
D25*
X116720000Y-104122540D03*
%TD*%
D26*
%TO.C,D50*%
X93080000Y-103970000D03*
X96480000Y-103970000D03*
D24*
X89620000Y-103972540D03*
D25*
X99780000Y-103972540D03*
%TD*%
D26*
%TO.C,D49*%
X71860000Y-104080000D03*
X75260000Y-104080000D03*
D24*
X68400000Y-104082540D03*
D25*
X78560000Y-104082540D03*
%TD*%
D26*
%TO.C,D48*%
X129260000Y-106480000D03*
X132660000Y-106480000D03*
D24*
X125800000Y-106482540D03*
D25*
X135960000Y-106482540D03*
%TD*%
D26*
%TO.C,D47*%
X53420000Y-89680000D03*
X56820000Y-89680000D03*
D24*
X49960000Y-89682540D03*
D25*
X60120000Y-89682540D03*
%TD*%
D26*
%TO.C,D46*%
X33700000Y-92110000D03*
X37100000Y-92110000D03*
D24*
X30240000Y-92112540D03*
D25*
X40400000Y-92112540D03*
%TD*%
D26*
%TO.C,D45*%
X109750000Y-85000000D03*
X113150000Y-85000000D03*
D24*
X106290000Y-85002540D03*
D25*
X116450000Y-85002540D03*
%TD*%
D26*
%TO.C,D44*%
X90700000Y-82630000D03*
X94100000Y-82630000D03*
D24*
X87240000Y-82632540D03*
D25*
X97400000Y-82632540D03*
%TD*%
D26*
%TO.C,D43*%
X71660000Y-84950000D03*
X75060000Y-84950000D03*
D24*
X68200000Y-84952540D03*
D25*
X78360000Y-84952540D03*
%TD*%
D26*
%TO.C,D42*%
X128820000Y-87207460D03*
X132220000Y-87207460D03*
D24*
X125360000Y-87210000D03*
D25*
X135520000Y-87210000D03*
%TD*%
D26*
%TO.C,D41*%
X53200000Y-70780000D03*
X56600000Y-70780000D03*
D24*
X49740000Y-70782540D03*
D25*
X59900000Y-70782540D03*
%TD*%
D26*
%TO.C,D40*%
X34050000Y-73130000D03*
X37450000Y-73130000D03*
D24*
X30590000Y-73132540D03*
D25*
X40750000Y-73132540D03*
%TD*%
D26*
%TO.C,D39*%
X128980000Y-68257460D03*
X132380000Y-68257460D03*
D24*
X125520000Y-68260000D03*
D25*
X135680000Y-68260000D03*
%TD*%
D26*
%TO.C,D38*%
X109930000Y-66010000D03*
X113330000Y-66010000D03*
D24*
X106470000Y-66012540D03*
D25*
X116630000Y-66012540D03*
%TD*%
D26*
%TO.C,D37*%
X90820000Y-63520000D03*
X94220000Y-63520000D03*
D24*
X87360000Y-63522540D03*
D25*
X97520000Y-63522540D03*
%TD*%
D26*
%TO.C,D36*%
X71630000Y-65960000D03*
X75030000Y-65960000D03*
D24*
X68170000Y-65962540D03*
D25*
X78330000Y-65962540D03*
%TD*%
D26*
%TO.C,D35*%
X128510000Y-49220000D03*
X131910000Y-49220000D03*
D24*
X125050000Y-49222540D03*
D25*
X135210000Y-49222540D03*
%TD*%
D26*
%TO.C,D34*%
X109510000Y-46950000D03*
X112910000Y-46950000D03*
D24*
X106050000Y-46952540D03*
D25*
X116210000Y-46952540D03*
%TD*%
D26*
%TO.C,D33*%
X91030000Y-44550000D03*
X94430000Y-44550000D03*
D24*
X87570000Y-44552540D03*
D25*
X97730000Y-44552540D03*
%TD*%
D26*
%TO.C,D32*%
X71780000Y-47030000D03*
X75180000Y-47030000D03*
D24*
X68320000Y-47032540D03*
D25*
X78480000Y-47032540D03*
%TD*%
D26*
%TO.C,D31*%
X53340000Y-51800000D03*
X56740000Y-51800000D03*
D24*
X49880000Y-51802540D03*
D25*
X60040000Y-51802540D03*
%TD*%
D26*
%TO.C,D30*%
X33840000Y-54102540D03*
X37240000Y-54102540D03*
D24*
X30380000Y-54105080D03*
D25*
X40540000Y-54105080D03*
%TD*%
D22*
%TO.C,RSW1*%
X193750000Y-24440000D03*
X187250000Y-24440000D03*
%TD*%
D27*
%TO.C,SW_POWER2*%
X159300000Y-104200000D03*
X159300000Y-107200000D03*
D28*
X158200000Y-109400000D03*
X158200000Y-102000000D03*
X160400000Y-102000000D03*
X160400000Y-109400000D03*
D29*
X157225000Y-107950000D03*
X157225000Y-104950000D03*
X157225000Y-103450000D03*
%TD*%
D16*
%TO.C,BatGND2*%
X157370000Y-24220000D03*
%TD*%
%TO.C,BatEntry2*%
X144700000Y-24200000D03*
%TD*%
D27*
%TO.C,SW_POWER1*%
X166600000Y-107200000D03*
X166600000Y-104200000D03*
D28*
X167700000Y-102000000D03*
X167700000Y-109400000D03*
X165500000Y-109400000D03*
X165500000Y-102000000D03*
D29*
X168675000Y-103450000D03*
X168675000Y-106450000D03*
X168675000Y-107950000D03*
%TD*%
D16*
%TO.C,BatGND1*%
X181510000Y-24380000D03*
%TD*%
%TO.C,BatEntry1*%
X168946500Y-24450000D03*
%TD*%
%TO.C,Bat+1*%
X176350000Y-27376500D03*
%TD*%
D18*
%TO.C,SW29*%
X180121846Y-112797453D03*
D17*
X179800000Y-117400000D03*
D19*
X177260000Y-113000591D03*
D20*
X185469409Y-117059705D03*
D19*
X182340000Y-121799409D03*
D20*
X180094705Y-112830443D03*
X174095706Y-114919873D03*
D21*
X177050000Y-112636860D03*
D20*
X174690450Y-120350000D03*
D21*
X182550000Y-122163140D03*
%TD*%
D18*
%TO.C,SW28*%
X219975000Y-110620000D03*
D17*
X223800000Y-113200000D03*
D19*
X218720000Y-113200000D03*
D20*
X226340000Y-108120000D03*
D19*
X228880000Y-113200000D03*
D20*
X219990000Y-110660000D03*
X218800000Y-116900000D03*
D21*
X218300000Y-113200000D03*
D20*
X223800000Y-119100000D03*
D21*
X229300000Y-113200000D03*
%TD*%
D18*
%TO.C,SW27*%
X200875000Y-112920000D03*
D17*
X204700000Y-115500000D03*
D19*
X199620000Y-115500000D03*
D20*
X207240000Y-110420000D03*
D19*
X209780000Y-115500000D03*
D20*
X200890000Y-112960000D03*
X199700000Y-119200000D03*
D21*
X199200000Y-115500000D03*
D20*
X204700000Y-121400000D03*
D21*
X210200000Y-115500000D03*
%TD*%
D18*
%TO.C,SW26*%
X238975000Y-110620000D03*
D17*
X242800000Y-113200000D03*
D19*
X237720000Y-113200000D03*
D20*
X245340000Y-108120000D03*
D19*
X247880000Y-113200000D03*
D20*
X238990000Y-110660000D03*
X237800000Y-116900000D03*
D21*
X237300000Y-113200000D03*
D20*
X242800000Y-119100000D03*
D21*
X248300000Y-113200000D03*
%TD*%
D18*
%TO.C,SW25*%
X210375000Y-91520000D03*
D17*
X214200000Y-94100000D03*
D19*
X209120000Y-94100000D03*
D20*
X216740000Y-89020000D03*
D19*
X219280000Y-94100000D03*
D20*
X210390000Y-91560000D03*
X209200000Y-97800000D03*
D21*
X208700000Y-94100000D03*
D20*
X214200000Y-100000000D03*
D21*
X219700000Y-94100000D03*
%TD*%
D18*
%TO.C,SW24*%
X191375000Y-93820000D03*
D17*
X195200000Y-96400000D03*
D19*
X190120000Y-96400000D03*
D20*
X197740000Y-91320000D03*
D19*
X200280000Y-96400000D03*
D20*
X191390000Y-93860000D03*
X190200000Y-100100000D03*
D21*
X189700000Y-96400000D03*
D20*
X195200000Y-102300000D03*
D21*
X200700000Y-96400000D03*
%TD*%
D18*
%TO.C,SW23*%
X267575000Y-96220000D03*
D17*
X271400000Y-98800000D03*
D19*
X266320000Y-98800000D03*
D20*
X273940000Y-93720000D03*
D19*
X276480000Y-98800000D03*
D20*
X267590000Y-96260000D03*
X266400000Y-102500000D03*
D21*
X265900000Y-98800000D03*
D20*
X271400000Y-104700000D03*
D21*
X276900000Y-98800000D03*
%TD*%
D18*
%TO.C,SW22*%
X248475000Y-91520000D03*
D17*
X252300000Y-94100000D03*
D19*
X247220000Y-94100000D03*
D20*
X254840000Y-89020000D03*
D19*
X257380000Y-94100000D03*
D20*
X248490000Y-91560000D03*
X247300000Y-97800000D03*
D21*
X246800000Y-94100000D03*
D20*
X252300000Y-100000000D03*
D21*
X257800000Y-94100000D03*
%TD*%
D18*
%TO.C,SW21*%
X229475000Y-89120000D03*
D17*
X233300000Y-91700000D03*
D19*
X228220000Y-91700000D03*
D20*
X235840000Y-86620000D03*
D19*
X238380000Y-91700000D03*
D20*
X229490000Y-89160000D03*
X228300000Y-95400000D03*
D21*
X227800000Y-91700000D03*
D20*
X233300000Y-97600000D03*
D21*
X238800000Y-91700000D03*
%TD*%
D18*
%TO.C,SW20*%
X286575000Y-98620000D03*
D17*
X290400000Y-101200000D03*
D19*
X285320000Y-101200000D03*
D20*
X292940000Y-96120000D03*
D19*
X295480000Y-101200000D03*
D20*
X286590000Y-98660000D03*
X285400000Y-104900000D03*
D21*
X284900000Y-101200000D03*
D20*
X290400000Y-107100000D03*
D21*
X295900000Y-101200000D03*
%TD*%
D18*
%TO.C,SW19*%
X171275000Y-87320000D03*
D17*
X175100000Y-89900000D03*
D19*
X170020000Y-89900000D03*
D20*
X177640000Y-84820000D03*
D19*
X180180000Y-89900000D03*
D20*
X171290000Y-87360000D03*
X170100000Y-93600000D03*
D21*
X169600000Y-89900000D03*
D20*
X175100000Y-95800000D03*
D21*
X180600000Y-89900000D03*
%TD*%
D18*
%TO.C,SW18*%
X210375000Y-72420000D03*
D17*
X214200000Y-75000000D03*
D19*
X209120000Y-75000000D03*
D20*
X216740000Y-69920000D03*
D19*
X219280000Y-75000000D03*
D20*
X210390000Y-72460000D03*
X209200000Y-78700000D03*
D21*
X208700000Y-75000000D03*
D20*
X214200000Y-80900000D03*
D21*
X219700000Y-75000000D03*
%TD*%
D18*
%TO.C,SW17*%
X191375000Y-74820000D03*
D17*
X195200000Y-77400000D03*
D19*
X190120000Y-77400000D03*
D20*
X197740000Y-72320000D03*
D19*
X200280000Y-77400000D03*
D20*
X191390000Y-74860000D03*
X190200000Y-81100000D03*
D21*
X189700000Y-77400000D03*
D20*
X195200000Y-83300000D03*
D21*
X200700000Y-77400000D03*
%TD*%
D18*
%TO.C,SW16*%
X267575000Y-77120000D03*
D17*
X271400000Y-79700000D03*
D19*
X266320000Y-79700000D03*
D20*
X273940000Y-74620000D03*
D19*
X276480000Y-79700000D03*
D20*
X267590000Y-77160000D03*
X266400000Y-83400000D03*
D21*
X265900000Y-79700000D03*
D20*
X271400000Y-85600000D03*
D21*
X276900000Y-79700000D03*
%TD*%
D18*
%TO.C,SW15*%
X248475000Y-72420000D03*
D17*
X252300000Y-75000000D03*
D19*
X247220000Y-75000000D03*
D20*
X254840000Y-69920000D03*
D19*
X257380000Y-75000000D03*
D20*
X248490000Y-72460000D03*
X247300000Y-78700000D03*
D21*
X246800000Y-75000000D03*
D20*
X252300000Y-80900000D03*
D21*
X257800000Y-75000000D03*
%TD*%
D18*
%TO.C,SW14*%
X229475000Y-70120000D03*
D17*
X233300000Y-72700000D03*
D19*
X228220000Y-72700000D03*
D20*
X235840000Y-67620000D03*
D19*
X238380000Y-72700000D03*
D20*
X229490000Y-70160000D03*
X228300000Y-76400000D03*
D21*
X227800000Y-72700000D03*
D20*
X233300000Y-78600000D03*
D21*
X238800000Y-72700000D03*
%TD*%
D18*
%TO.C,SW13*%
X286575000Y-79520000D03*
D17*
X290400000Y-82100000D03*
D19*
X285320000Y-82100000D03*
D20*
X292940000Y-77020000D03*
D19*
X295480000Y-82100000D03*
D20*
X286590000Y-79560000D03*
X285400000Y-85800000D03*
D21*
X284900000Y-82100000D03*
D20*
X290400000Y-88000000D03*
D21*
X295900000Y-82100000D03*
%TD*%
D18*
%TO.C,SW12*%
X210375000Y-53420000D03*
D17*
X214200000Y-56000000D03*
D19*
X209120000Y-56000000D03*
D20*
X216740000Y-50920000D03*
D19*
X219280000Y-56000000D03*
D20*
X210390000Y-53460000D03*
X209200000Y-59700000D03*
D21*
X208700000Y-56000000D03*
D20*
X214200000Y-61900000D03*
D21*
X219700000Y-56000000D03*
%TD*%
D18*
%TO.C,SW11*%
X191375000Y-55820000D03*
D17*
X195200000Y-58400000D03*
D19*
X190120000Y-58400000D03*
D20*
X197740000Y-53320000D03*
D19*
X200280000Y-58400000D03*
D20*
X191390000Y-55860000D03*
X190200000Y-62100000D03*
D21*
X189700000Y-58400000D03*
D20*
X195200000Y-64300000D03*
D21*
X200700000Y-58400000D03*
%TD*%
D18*
%TO.C,SW10*%
X267575000Y-58120000D03*
D17*
X271400000Y-60700000D03*
D19*
X266320000Y-60700000D03*
D20*
X273940000Y-55620000D03*
D19*
X276480000Y-60700000D03*
D20*
X267590000Y-58160000D03*
X266400000Y-64400000D03*
D21*
X265900000Y-60700000D03*
D20*
X271400000Y-66600000D03*
D21*
X276900000Y-60700000D03*
%TD*%
D18*
%TO.C,SW9*%
X248475000Y-53420000D03*
D17*
X252300000Y-56000000D03*
D19*
X247220000Y-56000000D03*
D20*
X254840000Y-50920000D03*
D19*
X257380000Y-56000000D03*
D20*
X248490000Y-53460000D03*
X247300000Y-59700000D03*
D21*
X246800000Y-56000000D03*
D20*
X252300000Y-61900000D03*
D21*
X257800000Y-56000000D03*
%TD*%
D18*
%TO.C,SW8*%
X229475000Y-51020000D03*
D17*
X233300000Y-53600000D03*
D19*
X228220000Y-53600000D03*
D20*
X235840000Y-48520000D03*
D19*
X238380000Y-53600000D03*
D20*
X229490000Y-51060000D03*
X228300000Y-57300000D03*
D21*
X227800000Y-53600000D03*
D20*
X233300000Y-59500000D03*
D21*
X238800000Y-53600000D03*
%TD*%
D18*
%TO.C,SW7*%
X286575000Y-60520000D03*
D17*
X290400000Y-63100000D03*
D19*
X285320000Y-63100000D03*
D20*
X292940000Y-58020000D03*
D19*
X295480000Y-63100000D03*
D20*
X286590000Y-60560000D03*
X285400000Y-66800000D03*
D21*
X284900000Y-63100000D03*
D20*
X290400000Y-69000000D03*
D21*
X295900000Y-63100000D03*
%TD*%
D18*
%TO.C,SW5*%
X267575000Y-39120000D03*
D17*
X271400000Y-41700000D03*
D19*
X266320000Y-41700000D03*
D20*
X273940000Y-36620000D03*
D19*
X276480000Y-41700000D03*
D20*
X267590000Y-39160000D03*
X266400000Y-45400000D03*
D21*
X265900000Y-41700000D03*
D20*
X271400000Y-47600000D03*
D21*
X276900000Y-41700000D03*
%TD*%
D18*
%TO.C,SW4*%
X248475000Y-34320000D03*
D17*
X252300000Y-36900000D03*
D19*
X247220000Y-36900000D03*
D20*
X254840000Y-31820000D03*
D19*
X257380000Y-36900000D03*
D20*
X248490000Y-34360000D03*
X247300000Y-40600000D03*
D21*
X246800000Y-36900000D03*
D20*
X252300000Y-42800000D03*
D21*
X257800000Y-36900000D03*
%TD*%
D18*
%TO.C,SW2*%
X286575000Y-41520000D03*
D17*
X290400000Y-44100000D03*
D19*
X285320000Y-44100000D03*
D20*
X292940000Y-39020000D03*
D19*
X295480000Y-44100000D03*
D20*
X286590000Y-41560000D03*
X285400000Y-47800000D03*
D21*
X284900000Y-44100000D03*
D20*
X290400000Y-50000000D03*
D21*
X295900000Y-44100000D03*
%TD*%
D18*
%TO.C,SW1*%
X191366208Y-36741497D03*
D17*
X195191208Y-39321497D03*
D19*
X190111208Y-39321497D03*
D20*
X197731208Y-34241497D03*
D19*
X200271208Y-39321497D03*
D20*
X191381208Y-36781497D03*
X190191208Y-43021497D03*
D21*
X189691208Y-39321497D03*
D20*
X195191208Y-45221497D03*
D21*
X200691208Y-39321497D03*
%TD*%
D18*
%TO.C,SW6*%
X210363008Y-34344196D03*
D17*
X214188008Y-36924196D03*
D19*
X209108008Y-36924196D03*
D20*
X216728008Y-31844196D03*
D19*
X219268008Y-36924196D03*
D20*
X210378008Y-34384196D03*
X209188008Y-40624196D03*
D21*
X208688008Y-36924196D03*
D20*
X214188008Y-42824196D03*
D21*
X219688008Y-36924196D03*
%TD*%
D18*
%TO.C,SW3*%
X229475000Y-32020000D03*
D17*
X233300000Y-34600000D03*
D19*
X228220000Y-34600000D03*
D20*
X235840000Y-29520000D03*
D19*
X238380000Y-34600000D03*
D20*
X229490000Y-32060000D03*
X228300000Y-38300000D03*
D21*
X227800000Y-34600000D03*
D20*
X233300000Y-40500000D03*
D21*
X238800000Y-34600000D03*
%TD*%
D23*
%TO.C,D29*%
X173500000Y-71500000D03*
X173500000Y-68100000D03*
D24*
X173502540Y-74960000D03*
D25*
X173502540Y-64800000D03*
%TD*%
D23*
%TO.C,D28*%
X179500000Y-71500000D03*
X179500000Y-68100000D03*
D24*
X179502540Y-74960000D03*
D25*
X179502540Y-64800000D03*
%TD*%
D23*
%TO.C,D27*%
X176500000Y-71500000D03*
X176500000Y-68100000D03*
D24*
X176502540Y-74960000D03*
D25*
X176502540Y-64800000D03*
%TD*%
D23*
%TO.C,D26*%
X182500000Y-71500000D03*
X182500000Y-68100000D03*
D24*
X182502540Y-74960000D03*
D25*
X182502540Y-64800000D03*
%TD*%
D26*
%TO.C,D25*%
X215900000Y-104800000D03*
X212500000Y-104800000D03*
D24*
X219360000Y-104797460D03*
D25*
X209200000Y-104797460D03*
%TD*%
D26*
%TO.C,D24*%
X197140000Y-106602540D03*
X193740000Y-106602540D03*
D24*
X200600000Y-106600000D03*
D25*
X190440000Y-106600000D03*
%TD*%
D26*
%TO.C,D23*%
X262100000Y-109300000D03*
X258700000Y-109300000D03*
D24*
X265560000Y-109297460D03*
D25*
X255400000Y-109297460D03*
%TD*%
D26*
%TO.C,D22*%
X253940000Y-104200000D03*
X250540000Y-104200000D03*
D24*
X257400000Y-104197460D03*
D25*
X247240000Y-104197460D03*
%TD*%
D26*
%TO.C,D21*%
X233330000Y-104350000D03*
X229930000Y-104350000D03*
D24*
X236790000Y-104347460D03*
D25*
X226630000Y-104347460D03*
%TD*%
D26*
%TO.C,D20*%
X277300000Y-109300000D03*
X273900000Y-109300000D03*
D24*
X280760000Y-109297460D03*
D25*
X270600000Y-109297460D03*
%TD*%
D23*
%TO.C,D19*%
X170500000Y-71500000D03*
X170500000Y-68100000D03*
D24*
X170502540Y-74960000D03*
D25*
X170502540Y-64800000D03*
%TD*%
D26*
%TO.C,D18*%
X215800000Y-85100000D03*
X212400000Y-85100000D03*
D24*
X219260000Y-85097460D03*
D25*
X209100000Y-85097460D03*
%TD*%
D26*
%TO.C,D17*%
X196200000Y-87000000D03*
X192800000Y-87000000D03*
D24*
X199660000Y-86997460D03*
D25*
X189500000Y-86997460D03*
%TD*%
D26*
%TO.C,D16*%
X273200000Y-89800000D03*
X269800000Y-89800000D03*
D24*
X276660000Y-89797460D03*
D25*
X266500000Y-89797460D03*
%TD*%
D26*
%TO.C,D15*%
X254140000Y-85102540D03*
X250740000Y-85102540D03*
D24*
X257600000Y-85100000D03*
D25*
X247440000Y-85100000D03*
%TD*%
D26*
%TO.C,D14*%
X234940000Y-82702540D03*
X231540000Y-82702540D03*
D24*
X238400000Y-82700000D03*
D25*
X228240000Y-82700000D03*
%TD*%
D26*
%TO.C,D13*%
X292000000Y-92200000D03*
X288600000Y-92200000D03*
D24*
X295460000Y-92197460D03*
D25*
X285300000Y-92197460D03*
%TD*%
D26*
%TO.C,D12*%
X215900000Y-66100000D03*
X212500000Y-66100000D03*
D24*
X219360000Y-66097460D03*
D25*
X209200000Y-66097460D03*
%TD*%
D26*
%TO.C,D11*%
X196900000Y-68400000D03*
X193500000Y-68400000D03*
D24*
X200360000Y-68397460D03*
D25*
X190200000Y-68397460D03*
%TD*%
D26*
%TO.C,D10*%
X273100000Y-70700000D03*
X269700000Y-70700000D03*
D24*
X276560000Y-70697460D03*
D25*
X266400000Y-70697460D03*
%TD*%
D26*
%TO.C,D9*%
X254200000Y-66100000D03*
X250800000Y-66100000D03*
D24*
X257660000Y-66097460D03*
D25*
X247500000Y-66097460D03*
%TD*%
D26*
%TO.C,D8*%
X235200000Y-63700000D03*
X231800000Y-63700000D03*
D24*
X238660000Y-63697460D03*
D25*
X228500000Y-63697460D03*
%TD*%
D26*
%TO.C,D7*%
X292040000Y-73202540D03*
X288640000Y-73202540D03*
D24*
X295500000Y-73200000D03*
D25*
X285340000Y-73200000D03*
%TD*%
D26*
%TO.C,D6*%
X216250000Y-46880000D03*
X212850000Y-46880000D03*
D24*
X219710000Y-46877460D03*
D25*
X209550000Y-46877460D03*
%TD*%
D26*
%TO.C,D5*%
X273100000Y-51800000D03*
X269700000Y-51800000D03*
D24*
X276560000Y-51797460D03*
D25*
X266400000Y-51797460D03*
%TD*%
D26*
%TO.C,D4*%
X254100000Y-47000000D03*
X250700000Y-47000000D03*
D24*
X257560000Y-46997460D03*
D25*
X247400000Y-46997460D03*
%TD*%
D26*
%TO.C,D3*%
X234800000Y-44700000D03*
X231400000Y-44700000D03*
D24*
X238260000Y-44697460D03*
D25*
X228100000Y-44697460D03*
%TD*%
D26*
%TO.C,D2*%
X292200000Y-54200000D03*
X288800000Y-54200000D03*
D24*
X295660000Y-54197460D03*
D25*
X285500000Y-54197460D03*
%TD*%
D26*
%TO.C,D1*%
X197000000Y-49500000D03*
X193600000Y-49500000D03*
D24*
X200460000Y-49497460D03*
D25*
X190300000Y-49497460D03*
%TD*%
D15*
%TO.C,U2*%
X143190000Y-26766750D03*
X143190000Y-29306750D03*
X143190000Y-31846750D03*
X143190000Y-34386750D03*
X143190000Y-36926750D03*
X143190000Y-39466750D03*
X143190000Y-42006750D03*
X143190000Y-44546750D03*
X143190000Y-47086750D03*
X143190000Y-49626750D03*
X143190000Y-52166750D03*
X158430000Y-54706750D03*
X158430000Y-52166750D03*
X158430000Y-49626750D03*
X158430000Y-47086750D03*
X158430000Y-44546750D03*
X158430000Y-42006750D03*
X158430000Y-39466750D03*
X158430000Y-36926750D03*
X158430000Y-34386750D03*
X158430000Y-31846750D03*
X158430000Y-29306750D03*
X143190000Y-54706750D03*
X158430000Y-26766750D03*
X145730000Y-49626750D03*
X148270000Y-49626750D03*
X150810000Y-49626750D03*
%TD*%
%TO.C,U1*%
X174780000Y-49630453D03*
X172240000Y-49630453D03*
X169700000Y-49630453D03*
X182400000Y-26770453D03*
X167160000Y-54710453D03*
X182400000Y-29310453D03*
X182400000Y-31850453D03*
X182400000Y-34390453D03*
X182400000Y-36930453D03*
X182400000Y-39470453D03*
X182400000Y-42010453D03*
X182400000Y-44550453D03*
X182400000Y-47090453D03*
X182400000Y-49630453D03*
X182400000Y-52170453D03*
X182400000Y-54710453D03*
X167160000Y-52170453D03*
X167160000Y-49630453D03*
X167160000Y-47090453D03*
X167160000Y-44550453D03*
X167160000Y-42010453D03*
X167160000Y-39470453D03*
X167160000Y-36930453D03*
X167160000Y-34390453D03*
X167160000Y-31850453D03*
X167160000Y-29310453D03*
X167160000Y-26770453D03*
%TD*%
%TO.C,Display2*%
X169700000Y-58630000D03*
X172240000Y-58630000D03*
X174780000Y-58630000D03*
X177320000Y-58630000D03*
X179860000Y-58630000D03*
%TD*%
M02*
